<?xml version="1.0" encoding="UTF-8" standalone="no"?>
<svg xmlns:sketch="http://www.bohemiancoding.com/sketch/ns" xmlns="http://www.w3.org/2000/svg" height="193px" width="309px" version="1.1" xmlns:xlink="http://www.w3.org/1999/xlink" viewBox="0 0 309 193"><!-- Generator: Sketch 3.5 (25232) - http://www.bohemiancoding.com/sketch -->
 <title>Group 32</title>
 <desc>Created with Sketch.</desc>
 <g id="Welcome" fill-rule="evenodd" sketch:type="MSPage" fill="none">
  <g id="Landing-page" transform="translate(-1154 -1012)" sketch:type="MSArtboardGroup">
   <g id="Group-32" transform="translate(1154 1012)" sketch:type="MSLayerGroup">
    <path id="Path-839" sketch:type="MSShapeGroup" fill="#8666C4" d="m262.35 188.9h40.99l-27.86-35.27-8.47-2.26 3 10.44-3.11-0.52-4.55 22.85s-13.48 4.76 0 4.76z"/>
    <g id="Group-31">
     <g id="Group-28">
      <g id="noun_197882_cc" sketch:type="MSShapeGroup" fill="#8666C4" transform="translate(.19914 47)">
       <g id="Group">
        <path id="Shape" d="m87.542 134.86h21.008c0.12 0 0.21-0.11 0.21-0.23v-1.29c0-0.12-0.1-0.23-0.22-0.23-0.13 0-0.23 0.11-0.23 0.23v0.98l-4.8-4.8c0.01-0.02 0.01-0.03 0.01-0.06v-1.29c0-0.12-0.1-0.23-0.23-0.23s-0.23 0.11-0.23 0.23v0.91l-0.55-0.56-4.445 4.44-4.438-4.44-0.606 0.61v-0.96c0-0.13-0.101-0.23-0.23-0.23-0.125 0-0.23 0.1-0.23 0.23v1.29c0 0.04 0.009 0.07 0.026 0.1l-4.816 4.81v-1.03c0-0.12-0.1-0.23-0.226-0.23-0.128 0-0.23 0.11-0.23 0.23v1.29c-0.003 0.13 0.099 0.23 0.227 0.23zm-83.984 3.42c-0.1254 0-0.2284 0.1-0.2284 0.23v1.29c0 0.13 0.103 0.22 0.2284 0.22s0.2269-0.09 0.2269-0.22v-1.29c0.0045-0.13-0.1015-0.23-0.2269-0.23zm0-7.75c-0.1254 0-0.2284 0.1-0.2284 0.23v1.29c0 0.13 0.103 0.23 0.2284 0.23s0.2269-0.1 0.2269-0.23v-1.29c0.0045-0.13-0.1015-0.23-0.2269-0.23zm0 2.58c-0.1254 0-0.2284 0.1-0.2284 0.23v1.29c0 0.13 0.103 0.23 0.2284 0.23s0.2269-0.1 0.2269-0.23v-1.29c0.0045-0.13-0.1015-0.23-0.2269-0.23zm0 2.58c-0.1254 0-0.2284 0.11-0.2284 0.23v1.29c0 0.13 0.103 0.23 0.2284 0.23s0.2269-0.1 0.2269-0.23v-1.29c0.0045-0.12-0.1015-0.23-0.2269-0.23zm5.2488 4.34c0.1269 0 0.2299-0.1 0.2299-0.23v-1.29c0-0.13-0.103-0.23-0.2299-0.23-0.1254 0-0.2269 0.1-0.2269 0.23v1.29c0 0.13 0.1015 0.23 0.2269 0.23zm0-2.59c0.1269 0 0.2299-0.1 0.2299-0.23v-1.29c0-0.12-0.103-0.23-0.2299-0.23-0.1254 0-0.2269 0.11-0.2269 0.23v1.29c0 0.13 0.1015 0.23 0.2269 0.23zm0-2.58c0.1269 0 0.2299-0.1 0.2299-0.23v-1.29c0-0.12-0.103-0.23-0.2299-0.23-0.1254 0-0.2269 0.11-0.2269 0.23v1.29c0 0.13 0.1015 0.23 0.2269 0.23zm0-2.58c0.1269 0 0.2299-0.1 0.2299-0.23v-1.29c0-0.13-0.103-0.23-0.2299-0.23-0.1254 0-0.2269 0.1-0.2269 0.23v1.29c0 0.13 0.1015 0.23 0.2269 0.23zm0-2.59c0.1269 0 0.2299-0.1 0.2299-0.23v-1.29c0-0.12-0.103-0.23-0.2299-0.23-0.1254 0-0.2269 0.11-0.2269 0.23v1.29c0 0.13 0.1015 0.23 0.2269 0.23zm0-2.58c0.1269 0 0.2299-0.1 0.2299-0.23v-1.29c0-0.13-0.103-0.23-0.2299-0.23-0.1254 0-0.2269 0.1-0.2269 0.23v1.29c0 0.12 0.1015 0.23 0.2269 0.23zm0-2.59c0.1269 0 0.2299-0.1 0.2299-0.23v-1.29c0-0.12-0.103-0.23-0.2299-0.23-0.1254 0-0.2269 0.11-0.2269 0.23v1.29c0 0.13 0.1015 0.23 0.2269 0.23zm0-2.58c0.1269 0 0.2299-0.1 0.2299-0.23v-1.29c0-0.12-0.103-0.23-0.2299-0.23-0.1254 0-0.2269 0.11-0.2269 0.23v1.29c0 0.13 0.1015 0.23 0.2269 0.23zm0-2.58c0.1269 0 0.2299-0.11 0.2299-0.23v-1.29c0-0.13-0.103-0.23-0.2299-0.23-0.1254 0-0.2269 0.1-0.2269 0.23v1.29c0 0.12 0.1015 0.23 0.2269 0.23zm0-2.59c0.1269 0 0.2299-0.1 0.2299-0.22v-1.3c0-0.13-0.103-0.23-0.2299-0.23-0.1254 0-0.2269 0.1-0.2269 0.23v1.29c0 0.13 0.1015 0.23 0.2269 0.23zm0-2.58c0.1269 0 0.2299-0.1 0.2299-0.23v-1.29c0-0.13-0.103-0.23-0.2299-0.23-0.1254 0-0.2269 0.1-0.2269 0.23v1.29c0 0.13 0.1015 0.23 0.2269 0.23zm0-2.59c0.1269 0 0.2299-0.1 0.2299-0.22v-1.29c0-0.13-0.103-0.23-0.2299-0.23-0.1254 0-0.2269 0.1-0.2269 0.23v1.29c0 0.12 0.1015 0.22 0.2269 0.22zm5.2519 28.43c0.125 0 0.227-0.1 0.227-0.23v-1.29c0-0.13-0.102-0.23-0.227-0.23-0.128 0-0.23 0.1-0.23 0.23v1.29c-0.001 0.13 0.102 0.23 0.23 0.23zm0-2.59c0.125 0 0.227-0.1 0.227-0.23v-1.29c0-0.12-0.102-0.23-0.227-0.23-0.128 0-0.23 0.11-0.23 0.23v1.29c-0.001 0.13 0.102 0.23 0.23 0.23zm0-2.58c0.125 0 0.227-0.1 0.227-0.23v-1.29c0-0.12-0.102-0.23-0.227-0.23-0.128 0-0.23 0.11-0.23 0.23v1.29c-0.001 0.13 0.102 0.23 0.23 0.23zm0-2.58c0.125 0 0.227-0.1 0.227-0.23v-1.29c0-0.13-0.102-0.23-0.227-0.23-0.128 0-0.23 0.1-0.23 0.23v1.29c-0.001 0.13 0.102 0.23 0.23 0.23zm0-2.59c0.125 0 0.227-0.1 0.227-0.23v-1.29c0-0.12-0.102-0.23-0.227-0.23-0.128 0-0.23 0.11-0.23 0.23v1.29c-0.001 0.13 0.102 0.23 0.23 0.23zm0-2.58c0.125 0 0.227-0.1 0.227-0.23v-1.29c0-0.13-0.102-0.23-0.227-0.23-0.128 0-0.23 0.1-0.23 0.23v1.29c-0.001 0.12 0.102 0.23 0.23 0.23zm0-2.59c0.125 0 0.227-0.1 0.227-0.23v-1.29c0-0.12-0.102-0.23-0.227-0.23-0.128 0-0.23 0.11-0.23 0.23v1.29c-0.001 0.13 0.102 0.23 0.23 0.23zm0-2.58c0.125 0 0.227-0.1 0.227-0.23v-1.29c0-0.12-0.102-0.23-0.227-0.23-0.128 0-0.23 0.11-0.23 0.23v1.29c-0.001 0.13 0.102 0.23 0.23 0.23zm0-2.58c0.125 0 0.227-0.11 0.227-0.23v-1.29c0-0.13-0.102-0.23-0.227-0.23-0.128 0-0.23 0.1-0.23 0.23v1.29c-0.001 0.12 0.102 0.23 0.23 0.23zm0-2.59c0.125 0 0.227-0.1 0.227-0.22v-1.3c0-0.13-0.102-0.23-0.227-0.23-0.128 0-0.23 0.1-0.23 0.23v1.29c-0.001 0.13 0.102 0.23 0.23 0.23zm0-2.58c0.125 0 0.227-0.1 0.227-0.23v-1.29c0-0.13-0.102-0.23-0.227-0.23-0.128 0-0.23 0.1-0.23 0.23v1.29c-0.001 0.13 0.102 0.23 0.23 0.23zm0-2.59c0.125 0 0.227-0.1 0.227-0.22v-1.29c0-0.13-0.102-0.23-0.227-0.23-0.128 0-0.23 0.1-0.23 0.23v1.29c-0.001 0.12 0.102 0.22 0.23 0.22zm0-2.58c0.125 0 0.227-0.1 0.227-0.23v-1.29c0-0.13-0.102-0.23-0.227-0.23-0.128 0-0.23 0.1-0.23 0.23v1.29c-0.001 0.13 0.102 0.23 0.23 0.23zm5.247 31.01c0.126 0 0.227-0.1 0.227-0.23v-1.29c0-0.13-0.101-0.23-0.227-0.23-0.128 0-0.228 0.1-0.228 0.23v1.29c0 0.13 0.1 0.23 0.228 0.23zm0-2.59c0.126 0 0.227-0.1 0.227-0.23v-1.29c0-0.12-0.101-0.23-0.227-0.23-0.128 0-0.228 0.11-0.228 0.23v1.29c0 0.13 0.1 0.23 0.228 0.23zm0-2.58c0.126 0 0.227-0.1 0.227-0.23v-1.29c0-0.12-0.101-0.23-0.227-0.23-0.128 0-0.228 0.11-0.228 0.23v1.29c0 0.13 0.1 0.23 0.228 0.23zm0-2.58c0.126 0 0.227-0.1 0.227-0.23v-1.29c0-0.13-0.101-0.23-0.227-0.23-0.128 0-0.228 0.1-0.228 0.23v1.29c0 0.13 0.1 0.23 0.228 0.23zm0-2.59c0.126 0 0.227-0.1 0.227-0.23v-1.29c0-0.12-0.101-0.23-0.227-0.23-0.128 0-0.228 0.11-0.228 0.23v1.29c0 0.13 0.1 0.23 0.228 0.23zm0-2.58c0.126 0 0.227-0.1 0.227-0.23v-1.29c0-0.13-0.101-0.23-0.227-0.23-0.128 0-0.228 0.1-0.228 0.23v1.29c0 0.12 0.1 0.23 0.228 0.23zm0-2.59c0.126 0 0.227-0.1 0.227-0.23v-1.29c0-0.12-0.101-0.23-0.227-0.23-0.128 0-0.228 0.11-0.228 0.23v1.29c0 0.13 0.1 0.23 0.228 0.23zm0-2.58c0.126 0 0.227-0.1 0.227-0.23v-1.29c0-0.12-0.101-0.23-0.227-0.23-0.128 0-0.228 0.11-0.228 0.23v1.29c0 0.13 0.1 0.23 0.228 0.23zm0-2.58c0.126 0 0.227-0.11 0.227-0.23v-1.29c0-0.13-0.101-0.23-0.227-0.23-0.128 0-0.228 0.1-0.228 0.23v1.29c0 0.12 0.1 0.23 0.228 0.23zm0-2.59c0.126 0 0.227-0.1 0.227-0.22v-1.3c0-0.13-0.101-0.23-0.227-0.23-0.128 0-0.228 0.1-0.228 0.23v1.29c0 0.13 0.1 0.23 0.228 0.23zm0-2.58c0.126 0 0.227-0.1 0.227-0.23v-1.29c0-0.13-0.101-0.23-0.227-0.23-0.128 0-0.228 0.1-0.228 0.23v1.29c0 0.13 0.1 0.23 0.228 0.23zm0-2.59c0.126 0 0.227-0.1 0.227-0.22v-1.29c0-0.13-0.101-0.23-0.227-0.23-0.128 0-0.228 0.1-0.228 0.23v1.29c0 0.12 0.1 0.22 0.228 0.22zm0-2.58c0.126 0 0.227-0.1 0.227-0.23v-1.29c0-0.13-0.101-0.23-0.227-0.23-0.128 0-0.228 0.1-0.228 0.23v1.29c0 0.13 0.1 0.23 0.228 0.23zm0-2.58c0.126 0 0.227-0.11 0.227-0.23v-1.29c0-0.13-0.101-0.23-0.227-0.23-0.128 0-0.228 0.1-0.228 0.23v1.29c0 0.12 0.1 0.23 0.228 0.23zm5.249 33.59c0.127 0 0.227-0.1 0.227-0.23v-1.29c0-0.13-0.099-0.23-0.227-0.23s-0.227 0.1-0.227 0.23v1.29c-0.001 0.13 0.099 0.23 0.227 0.23zm0-2.59c0.127 0 0.227-0.1 0.227-0.23v-1.29c0-0.12-0.099-0.23-0.227-0.23s-0.227 0.11-0.227 0.23v1.29c-0.001 0.13 0.099 0.23 0.227 0.23zm0-2.58c0.127 0 0.227-0.1 0.227-0.23v-1.29c0-0.12-0.099-0.23-0.227-0.23s-0.227 0.11-0.227 0.23v1.29c-0.001 0.13 0.099 0.23 0.227 0.23zm0-2.58c0.127 0 0.227-0.1 0.227-0.23v-1.29c0-0.13-0.099-0.23-0.227-0.23s-0.227 0.1-0.227 0.23v1.29c-0.001 0.13 0.099 0.23 0.227 0.23zm0-2.59c0.127 0 0.227-0.1 0.227-0.23v-1.29c0-0.12-0.099-0.23-0.227-0.23s-0.227 0.11-0.227 0.23v1.29c-0.001 0.13 0.099 0.23 0.227 0.23zm0-2.58c0.127 0 0.227-0.1 0.227-0.23v-1.29c0-0.13-0.099-0.23-0.227-0.23s-0.227 0.1-0.227 0.23v1.29c-0.001 0.12 0.099 0.23 0.227 0.23zm0-2.59c0.127 0 0.227-0.1 0.227-0.23v-1.29c0-0.12-0.099-0.23-0.227-0.23s-0.227 0.11-0.227 0.23v1.29c-0.001 0.13 0.099 0.23 0.227 0.23zm0-2.58c0.127 0 0.227-0.1 0.227-0.23v-1.29c0-0.12-0.099-0.23-0.227-0.23s-0.227 0.11-0.227 0.23v1.29c-0.001 0.13 0.099 0.23 0.227 0.23zm0-2.58c0.127 0 0.227-0.11 0.227-0.23v-1.29c0-0.13-0.099-0.23-0.227-0.23s-0.227 0.1-0.227 0.23v1.29c-0.001 0.12 0.099 0.23 0.227 0.23zm0-2.59c0.127 0 0.227-0.1 0.227-0.22v-1.3c0-0.13-0.099-0.23-0.227-0.23s-0.227 0.1-0.227 0.23v1.29c-0.001 0.13 0.099 0.23 0.227 0.23zm0-2.58c0.127 0 0.227-0.1 0.227-0.23v-1.29c0-0.13-0.099-0.23-0.227-0.23s-0.227 0.1-0.227 0.23v1.29c-0.001 0.13 0.099 0.23 0.227 0.23zm0-2.59c0.127 0 0.227-0.1 0.227-0.22v-1.29c0-0.13-0.099-0.23-0.227-0.23s-0.227 0.1-0.227 0.23v1.29c-0.001 0.12 0.099 0.22 0.227 0.22zm0-2.58c0.127 0 0.227-0.1 0.227-0.23v-1.29c0-0.13-0.099-0.23-0.227-0.23s-0.227 0.1-0.227 0.23v1.29c-0.001 0.13 0.099 0.23 0.227 0.23zm0-2.58c0.127 0 0.227-0.11 0.227-0.23v-1.29c0-0.13-0.099-0.23-0.227-0.23s-0.227 0.1-0.227 0.23v1.29c-0.001 0.12 0.099 0.23 0.227 0.23zm5.247 33.59c0.126 0 0.227-0.1 0.227-0.23v-1.29c0-0.13-0.101-0.23-0.227-0.23-0.128 0-0.227 0.1-0.227 0.23v1.29c0 0.13 0.1 0.23 0.227 0.23zm0-2.59c0.126 0 0.227-0.1 0.227-0.23v-1.29c0-0.12-0.101-0.23-0.227-0.23-0.128 0-0.227 0.11-0.227 0.23v1.29c0 0.13 0.1 0.23 0.227 0.23zm0-2.58c0.126 0 0.227-0.1 0.227-0.23v-1.29c0-0.12-0.101-0.23-0.227-0.23-0.128 0-0.227 0.11-0.227 0.23v1.29c0 0.13 0.1 0.23 0.227 0.23zm0-2.58c0.126 0 0.227-0.1 0.227-0.23v-1.29c0-0.13-0.101-0.23-0.227-0.23-0.128 0-0.227 0.1-0.227 0.23v1.29c0 0.13 0.1 0.23 0.227 0.23zm0-2.59c0.126 0 0.227-0.1 0.227-0.23v-1.29c0-0.12-0.101-0.23-0.227-0.23-0.128 0-0.227 0.11-0.227 0.23v1.29c0 0.13 0.1 0.23 0.227 0.23zm0-2.58c0.126 0 0.227-0.1 0.227-0.23v-1.29c0-0.13-0.101-0.23-0.227-0.23-0.128 0-0.227 0.1-0.227 0.23v1.29c0 0.12 0.1 0.23 0.227 0.23zm0-2.59c0.126 0 0.227-0.1 0.227-0.23v-1.29c0-0.12-0.101-0.23-0.227-0.23-0.128 0-0.227 0.11-0.227 0.23v1.29c0 0.13 0.1 0.23 0.227 0.23zm0-2.58c0.126 0 0.227-0.1 0.227-0.23v-1.29c0-0.12-0.101-0.23-0.227-0.23-0.128 0-0.227 0.11-0.227 0.23v1.29c0 0.13 0.1 0.23 0.227 0.23zm0-2.58c0.126 0 0.227-0.11 0.227-0.23v-1.29c0-0.13-0.101-0.23-0.227-0.23-0.128 0-0.227 0.1-0.227 0.23v1.29c0 0.12 0.1 0.23 0.227 0.23zm0-2.59c0.126 0 0.227-0.1 0.227-0.22v-1.3c0-0.13-0.101-0.23-0.227-0.23-0.128 0-0.227 0.1-0.227 0.23v1.29c0 0.13 0.1 0.23 0.227 0.23zm0-2.58c0.126 0 0.227-0.1 0.227-0.23v-1.29c0-0.13-0.101-0.23-0.227-0.23-0.128 0-0.227 0.1-0.227 0.23v1.29c0 0.13 0.1 0.23 0.227 0.23zm0-2.59c0.126 0 0.227-0.1 0.227-0.22v-1.29c0-0.13-0.101-0.23-0.227-0.23-0.128 0-0.227 0.1-0.227 0.23v1.29c0 0.12 0.1 0.22 0.227 0.22zm0-2.58c0.126 0 0.227-0.1 0.227-0.23v-1.29c0-0.13-0.101-0.23-0.227-0.23-0.128 0-0.227 0.1-0.227 0.23v1.29c0 0.13 0.1 0.23 0.227 0.23zm0-2.58c0.126 0 0.227-0.11 0.227-0.23v-1.29c0-0.13-0.101-0.23-0.227-0.23-0.128 0-0.227 0.1-0.227 0.23v1.29c0 0.12 0.1 0.23 0.227 0.23zm0-2.59c0.126 0 0.227-0.1 0.227-0.23v-1.29c0-0.12-0.101-0.22-0.227-0.22-0.128 0-0.227 0.1-0.227 0.22v1.29c0 0.13 0.1 0.23 0.227 0.23zm5.251 36.18c0.127 0 0.228-0.1 0.228-0.23v-1.29c0-0.13-0.101-0.23-0.228-0.23s-0.229 0.1-0.229 0.23v1.29c0 0.13 0.102 0.23 0.229 0.23zm0-2.59c0.127 0 0.228-0.1 0.228-0.23v-1.29c0-0.12-0.101-0.23-0.228-0.23s-0.229 0.11-0.229 0.23v1.29c0 0.13 0.102 0.23 0.229 0.23zm0-2.58c0.127 0 0.228-0.1 0.228-0.23v-1.29c0-0.12-0.101-0.23-0.228-0.23s-0.229 0.11-0.229 0.23v1.29c0 0.13 0.102 0.23 0.229 0.23zm0-2.58c0.127 0 0.228-0.1 0.228-0.23v-1.29c0-0.13-0.101-0.23-0.228-0.23s-0.229 0.1-0.229 0.23v1.29c0 0.13 0.102 0.23 0.229 0.23zm0-2.59c0.127 0 0.228-0.1 0.228-0.23v-1.29c0-0.12-0.101-0.23-0.228-0.23s-0.229 0.11-0.229 0.23v1.29c0 0.13 0.102 0.23 0.229 0.23zm0-2.58c0.127 0 0.228-0.1 0.228-0.23v-1.29c0-0.13-0.101-0.23-0.228-0.23s-0.229 0.1-0.229 0.23v1.29c0 0.12 0.102 0.23 0.229 0.23zm0-2.59c0.127 0 0.228-0.1 0.228-0.23v-1.29c0-0.12-0.101-0.23-0.228-0.23s-0.229 0.11-0.229 0.23v1.29c0 0.13 0.102 0.23 0.229 0.23zm0-2.58c0.127 0 0.228-0.1 0.228-0.23v-1.29c0-0.12-0.101-0.23-0.228-0.23s-0.229 0.11-0.229 0.23v1.29c0 0.13 0.102 0.23 0.229 0.23zm0-2.58c0.127 0 0.228-0.11 0.228-0.23v-1.29c0-0.13-0.101-0.23-0.228-0.23s-0.229 0.1-0.229 0.23v1.29c0 0.12 0.102 0.23 0.229 0.23zm0-2.59c0.127 0 0.228-0.1 0.228-0.22v-1.3c0-0.13-0.101-0.23-0.228-0.23s-0.229 0.1-0.229 0.23v1.29c0 0.13 0.102 0.23 0.229 0.23zm0-2.58c0.127 0 0.228-0.1 0.228-0.23v-1.29c0-0.13-0.101-0.23-0.228-0.23s-0.229 0.1-0.229 0.23v1.29c0 0.13 0.102 0.23 0.229 0.23zm0-2.59c0.127 0 0.228-0.1 0.228-0.22v-1.29c0-0.13-0.101-0.23-0.228-0.23s-0.229 0.1-0.229 0.23v1.29c0 0.12 0.102 0.22 0.229 0.22zm0-2.58c0.127 0 0.228-0.1 0.228-0.23v-1.29c0-0.13-0.101-0.23-0.228-0.23s-0.229 0.1-0.229 0.23v1.29c0 0.13 0.102 0.23 0.229 0.23zm0-2.58c0.127 0 0.228-0.11 0.228-0.23v-1.29c0-0.13-0.101-0.23-0.228-0.23s-0.229 0.1-0.229 0.23v1.29c0 0.12 0.102 0.23 0.229 0.23zm0-2.59c0.127 0 0.228-0.1 0.228-0.23v-1.29c0-0.12-0.101-0.22-0.228-0.22s-0.229 0.1-0.229 0.22v1.29c0 0.13 0.102 0.23 0.229 0.23zm5.25 36.18c0.125 0 0.227-0.1 0.227-0.23v-1.29c0-0.13-0.102-0.23-0.227-0.23-0.128 0-0.23 0.1-0.23 0.23v1.29c-0.001 0.13 0.102 0.23 0.23 0.23zm0-2.59c0.125 0 0.227-0.1 0.227-0.23v-1.29c0-0.12-0.102-0.23-0.227-0.23-0.128 0-0.23 0.11-0.23 0.23v1.29c-0.001 0.13 0.102 0.23 0.23 0.23zm0-2.58c0.125 0 0.227-0.1 0.227-0.23v-1.29c0-0.12-0.102-0.23-0.227-0.23-0.128 0-0.23 0.11-0.23 0.23v1.29c-0.001 0.13 0.102 0.23 0.23 0.23zm0-2.58c0.125 0 0.227-0.1 0.227-0.23v-1.29c0-0.13-0.102-0.23-0.227-0.23-0.128 0-0.23 0.1-0.23 0.23v1.29c-0.001 0.13 0.102 0.23 0.23 0.23zm0-2.59c0.125 0 0.227-0.1 0.227-0.23v-1.29c0-0.12-0.102-0.23-0.227-0.23-0.128 0-0.23 0.11-0.23 0.23v1.29c-0.001 0.13 0.102 0.23 0.23 0.23zm0-2.58c0.125 0 0.227-0.1 0.227-0.23v-1.29c0-0.13-0.102-0.23-0.227-0.23-0.128 0-0.23 0.1-0.23 0.23v1.29c-0.001 0.12 0.102 0.23 0.23 0.23zm0-2.59c0.125 0 0.227-0.1 0.227-0.23v-1.29c0-0.12-0.102-0.23-0.227-0.23-0.128 0-0.23 0.11-0.23 0.23v1.29c-0.001 0.13 0.102 0.23 0.23 0.23zm0-2.58c0.125 0 0.227-0.1 0.227-0.23v-1.29c0-0.12-0.102-0.23-0.227-0.23-0.128 0-0.23 0.11-0.23 0.23v1.29c-0.001 0.13 0.102 0.23 0.23 0.23zm0-2.58c0.125 0 0.227-0.11 0.227-0.23v-1.29c0-0.13-0.102-0.23-0.227-0.23-0.128 0-0.23 0.1-0.23 0.23v1.29c-0.001 0.12 0.102 0.23 0.23 0.23zm0-2.59c0.125 0 0.227-0.1 0.227-0.22v-1.3c0-0.13-0.102-0.23-0.227-0.23-0.128 0-0.23 0.1-0.23 0.23v1.29c-0.001 0.13 0.102 0.23 0.23 0.23zm0-2.58c0.125 0 0.227-0.1 0.227-0.23v-1.29c0-0.13-0.102-0.23-0.227-0.23-0.128 0-0.23 0.1-0.23 0.23v1.29c-0.001 0.13 0.102 0.23 0.23 0.23zm0-2.59c0.125 0 0.227-0.1 0.227-0.22v-1.29c0-0.13-0.102-0.23-0.227-0.23-0.128 0-0.23 0.1-0.23 0.23v1.29c-0.001 0.12 0.102 0.22 0.23 0.22zm0-2.58c0.125 0 0.227-0.1 0.227-0.23v-1.29c0-0.13-0.102-0.23-0.227-0.23-0.128 0-0.23 0.1-0.23 0.23v1.29c-0.001 0.13 0.102 0.23 0.23 0.23zm0-2.58c0.125 0 0.227-0.11 0.227-0.23v-1.29c0-0.13-0.102-0.23-0.227-0.23-0.128 0-0.23 0.1-0.23 0.23v1.29c-0.001 0.12 0.102 0.23 0.23 0.23zm0-2.59c0.125 0 0.227-0.1 0.227-0.23v-1.29c0-0.12-0.102-0.22-0.227-0.22-0.128 0-0.23 0.1-0.23 0.22v1.29c-0.001 0.13 0.102 0.23 0.23 0.23zm0-2.58c0.125 0 0.227-0.1 0.227-0.23v-1.291c0-0.128-0.102-0.228-0.227-0.228-0.128 0-0.23 0.1-0.23 0.228v1.291c-0.001 0.13 0.102 0.23 0.23 0.23zm5.247 38.76c0.126 0 0.227-0.1 0.227-0.23v-1.29c0-0.13-0.101-0.23-0.227-0.23-0.128 0-0.228 0.1-0.228 0.23v1.29c0 0.13 0.1 0.23 0.228 0.23zm0-2.59c0.126 0 0.227-0.1 0.227-0.23v-1.29c0-0.12-0.101-0.23-0.227-0.23-0.128 0-0.228 0.11-0.228 0.23v1.29c0 0.13 0.1 0.23 0.228 0.23zm0-2.58c0.126 0 0.227-0.1 0.227-0.23v-1.29c0-0.12-0.101-0.23-0.227-0.23-0.128 0-0.228 0.11-0.228 0.23v1.29c0 0.13 0.1 0.23 0.228 0.23zm0-2.58c0.126 0 0.227-0.1 0.227-0.23v-1.29c0-0.13-0.101-0.23-0.227-0.23-0.128 0-0.228 0.1-0.228 0.23v1.29c0 0.13 0.1 0.23 0.228 0.23zm0-2.59c0.126 0 0.227-0.1 0.227-0.23v-1.29c0-0.12-0.101-0.23-0.227-0.23-0.128 0-0.228 0.11-0.228 0.23v1.29c0 0.13 0.1 0.23 0.228 0.23zm0-2.58c0.126 0 0.227-0.1 0.227-0.23v-1.29c0-0.13-0.101-0.23-0.227-0.23-0.128 0-0.228 0.1-0.228 0.23v1.29c0 0.12 0.1 0.23 0.228 0.23zm0-2.59c0.126 0 0.227-0.1 0.227-0.23v-1.29c0-0.12-0.101-0.23-0.227-0.23-0.128 0-0.228 0.11-0.228 0.23v1.29c0 0.13 0.1 0.23 0.228 0.23zm0-2.58c0.126 0 0.227-0.1 0.227-0.23v-1.29c0-0.12-0.101-0.23-0.227-0.23-0.128 0-0.228 0.11-0.228 0.23v1.29c0 0.13 0.1 0.23 0.228 0.23zm0-2.58c0.126 0 0.227-0.11 0.227-0.23v-1.29c0-0.13-0.101-0.23-0.227-0.23-0.128 0-0.228 0.1-0.228 0.23v1.29c0 0.12 0.1 0.23 0.228 0.23zm0-2.59c0.126 0 0.227-0.1 0.227-0.22v-1.3c0-0.13-0.101-0.23-0.227-0.23-0.128 0-0.228 0.1-0.228 0.23v1.29c0 0.13 0.1 0.23 0.228 0.23zm0-2.58c0.126 0 0.227-0.1 0.227-0.23v-1.29c0-0.13-0.101-0.23-0.227-0.23-0.128 0-0.228 0.1-0.228 0.23v1.29c0 0.13 0.1 0.23 0.228 0.23zm0-2.59c0.126 0 0.227-0.1 0.227-0.22v-1.29c0-0.13-0.101-0.23-0.227-0.23-0.128 0-0.228 0.1-0.228 0.23v1.29c0 0.12 0.1 0.22 0.228 0.22zm0-2.58c0.126 0 0.227-0.1 0.227-0.23v-1.29c0-0.13-0.101-0.23-0.227-0.23-0.128 0-0.228 0.1-0.228 0.23v1.29c0 0.13 0.1 0.23 0.228 0.23zm0-2.58c0.126 0 0.227-0.11 0.227-0.23v-1.29c0-0.13-0.101-0.23-0.227-0.23-0.128 0-0.228 0.1-0.228 0.23v1.29c0 0.12 0.1 0.23 0.228 0.23zm0-2.59c0.126 0 0.227-0.1 0.227-0.23v-1.29c0-0.12-0.101-0.22-0.227-0.22-0.128 0-0.228 0.1-0.228 0.22v1.29c0 0.13 0.1 0.23 0.228 0.23zm0-2.58c0.126 0 0.227-0.1 0.227-0.23v-1.291c0-0.128-0.101-0.228-0.227-0.228-0.128 0-0.228 0.1-0.228 0.228v1.291c0 0.13 0.1 0.23 0.228 0.23zm0-2.585c0.126 0 0.227-0.105 0.227-0.23v-1.29c0-0.128-0.101-0.228-0.227-0.228-0.128 0-0.228 0.1-0.228 0.228v1.29c0 0.124 0.1 0.23 0.228 0.23zm5.249 41.345c0.127 0 0.23-0.1 0.23-0.23v-1.29c0-0.13-0.103-0.23-0.23-0.23-0.125 0-0.227 0.1-0.227 0.23v1.29c0 0.13 0.102 0.23 0.227 0.23zm0-2.59c0.127 0 0.23-0.1 0.23-0.23v-1.29c0-0.12-0.103-0.23-0.23-0.23-0.125 0-0.227 0.11-0.227 0.23v1.29c0 0.13 0.102 0.23 0.227 0.23zm0-2.58c0.127 0 0.23-0.1 0.23-0.23v-1.29c0-0.12-0.103-0.23-0.23-0.23-0.125 0-0.227 0.11-0.227 0.23v1.29c0 0.13 0.102 0.23 0.227 0.23zm0-2.58c0.127 0 0.23-0.1 0.23-0.23v-1.29c0-0.13-0.103-0.23-0.23-0.23-0.125 0-0.227 0.1-0.227 0.23v1.29c0 0.13 0.102 0.23 0.227 0.23zm0-2.59c0.127 0 0.23-0.1 0.23-0.23v-1.29c0-0.12-0.103-0.23-0.23-0.23-0.125 0-0.227 0.11-0.227 0.23v1.29c0 0.13 0.102 0.23 0.227 0.23zm0-2.58c0.127 0 0.23-0.1 0.23-0.23v-1.29c0-0.13-0.103-0.23-0.23-0.23-0.125 0-0.227 0.1-0.227 0.23v1.29c0 0.12 0.102 0.23 0.227 0.23zm0-2.59c0.127 0 0.23-0.1 0.23-0.23v-1.29c0-0.12-0.103-0.23-0.23-0.23-0.125 0-0.227 0.11-0.227 0.23v1.29c0 0.13 0.102 0.23 0.227 0.23zm0-2.58c0.127 0 0.23-0.1 0.23-0.23v-1.29c0-0.12-0.103-0.23-0.23-0.23-0.125 0-0.227 0.11-0.227 0.23v1.29c0 0.13 0.102 0.23 0.227 0.23zm0-2.58c0.127 0 0.23-0.11 0.23-0.23v-1.29c0-0.13-0.103-0.23-0.23-0.23-0.125 0-0.227 0.1-0.227 0.23v1.29c0 0.12 0.102 0.23 0.227 0.23zm0-2.59c0.127 0 0.23-0.1 0.23-0.22v-1.3c0-0.13-0.103-0.23-0.23-0.23-0.125 0-0.227 0.1-0.227 0.23v1.29c0 0.13 0.102 0.23 0.227 0.23zm31.496 23.26c0.125 0 0.227-0.1 0.227-0.23v-1.29c0-0.13-0.102-0.23-0.227-0.23-0.128 0-0.228 0.1-0.228 0.23v1.29c-0.003 0.13 0.1 0.23 0.228 0.23zm0-2.59c0.125 0 0.227-0.1 0.227-0.23v-1.29c0-0.12-0.102-0.23-0.227-0.23-0.128 0-0.228 0.11-0.228 0.23v1.29c-0.003 0.13 0.1 0.23 0.228 0.23zm0-2.58c0.125 0 0.227-0.1 0.227-0.23v-1.29c0-0.12-0.102-0.23-0.227-0.23-0.128 0-0.228 0.11-0.228 0.23v1.29c-0.003 0.13 0.1 0.23 0.228 0.23zm0-2.58c0.125 0 0.227-0.1 0.227-0.23v-1.29c0-0.13-0.102-0.23-0.227-0.23-0.128 0-0.228 0.1-0.228 0.23v1.29c-0.003 0.13 0.1 0.23 0.228 0.23zm0-2.59c0.125 0 0.227-0.1 0.227-0.23v-1.29c0-0.12-0.102-0.23-0.227-0.23-0.128 0-0.228 0.11-0.228 0.23v1.29c-0.003 0.13 0.1 0.23 0.228 0.23zm0-2.58c0.125 0 0.227-0.1 0.227-0.23v-1.29c0-0.13-0.102-0.23-0.227-0.23-0.128 0-0.228 0.1-0.228 0.23v1.29c-0.003 0.12 0.1 0.23 0.228 0.23zm0-2.59c0.125 0 0.227-0.1 0.227-0.23v-1.29c0-0.12-0.102-0.23-0.227-0.23-0.128 0-0.228 0.11-0.228 0.23v1.29c-0.003 0.13 0.1 0.23 0.228 0.23zm0-2.58c0.125 0 0.227-0.1 0.227-0.23v-1.29c0-0.12-0.102-0.23-0.227-0.23-0.128 0-0.228 0.11-0.228 0.23v1.29c-0.003 0.13 0.1 0.23 0.228 0.23zm0-2.58c0.125 0 0.227-0.11 0.227-0.23v-1.29c0-0.13-0.102-0.23-0.227-0.23-0.128 0-0.228 0.1-0.228 0.23v1.29c-0.003 0.12 0.1 0.23 0.228 0.23zm5.247 20.67c0.126 0 0.227-0.1 0.227-0.23v-1.29c0-0.13-0.101-0.23-0.227-0.23-0.128 0-0.23 0.1-0.23 0.23v1.29c0 0.13 0.102 0.23 0.23 0.23zm0-2.59c0.126 0 0.227-0.1 0.227-0.23v-1.29c0-0.12-0.101-0.23-0.227-0.23-0.128 0-0.23 0.11-0.23 0.23v1.29c0 0.13 0.102 0.23 0.23 0.23zm0-5.16c0.126 0 0.227-0.1 0.227-0.23v-1.29c0-0.13-0.101-0.23-0.227-0.23-0.128 0-0.23 0.1-0.23 0.23v1.29c0 0.13 0.102 0.23 0.23 0.23zm0-2.59c0.126 0 0.227-0.1 0.227-0.23v-1.29c0-0.12-0.101-0.23-0.227-0.23-0.128 0-0.23 0.11-0.23 0.23v1.29c0 0.13 0.102 0.23 0.23 0.23zm0-2.58c0.126 0 0.227-0.1 0.227-0.23v-1.29c0-0.13-0.101-0.23-0.227-0.23-0.128 0-0.23 0.1-0.23 0.23v1.29c0 0.12 0.102 0.23 0.23 0.23zm0-2.59c0.126 0 0.227-0.1 0.227-0.23v-1.29c0-0.12-0.101-0.23-0.227-0.23-0.128 0-0.23 0.11-0.23 0.23v1.29c0 0.13 0.102 0.23 0.23 0.23zm0-2.58c0.126 0 0.227-0.1 0.227-0.23v-1.29c0-0.12-0.101-0.23-0.227-0.23-0.128 0-0.23 0.11-0.23 0.23v1.29c0 0.13 0.102 0.23 0.23 0.23zm0-2.58c0.126 0 0.227-0.11 0.227-0.23v-1.29c0-0.13-0.101-0.23-0.227-0.23-0.128 0-0.23 0.1-0.23 0.23v1.29c0 0.12 0.102 0.23 0.23 0.23zm0-2.59c0.126 0 0.227-0.1 0.227-0.22v-1.3c0-0.13-0.101-0.23-0.227-0.23-0.128 0-0.23 0.1-0.23 0.23v1.29c0 0.13 0.102 0.23 0.23 0.23zm0-2.58c0.126 0 0.227-0.1 0.227-0.23v-1.29c0-0.13-0.101-0.23-0.227-0.23-0.128 0-0.23 0.1-0.23 0.23v1.29c0 0.13 0.102 0.23 0.23 0.23zm0-2.59c0.126 0 0.227-0.1 0.227-0.22v-1.29c0-0.13-0.101-0.23-0.227-0.23-0.128 0-0.23 0.1-0.23 0.23v1.29c0 0.12 0.102 0.22 0.23 0.22zm0-2.58c0.126 0 0.227-0.1 0.227-0.23v-1.29c0-0.13-0.101-0.23-0.227-0.23-0.128 0-0.23 0.1-0.23 0.23v1.29c0 0.13 0.102 0.23 0.23 0.23zm0-2.58c0.126 0 0.227-0.11 0.227-0.23v-1.29c0-0.13-0.101-0.23-0.227-0.23-0.128 0-0.23 0.1-0.23 0.23v1.29c0 0.12 0.102 0.23 0.23 0.23zm0-2.59c0.126 0 0.227-0.1 0.227-0.23v-1.29c0-0.12-0.101-0.22-0.227-0.22-0.128 0-0.23 0.1-0.23 0.22v1.29c0 0.13 0.102 0.23 0.23 0.23zm0-2.58c0.126 0 0.227-0.1 0.227-0.23v-1.291c0-0.128-0.101-0.228-0.227-0.228-0.128 0-0.23 0.1-0.23 0.228v1.291c0 0.13 0.102 0.23 0.23 0.23zm0-2.585c0.126 0 0.227-0.105 0.227-0.23v-1.29c0-0.128-0.101-0.228-0.227-0.228-0.128 0-0.23 0.1-0.23 0.228v1.29c0 0.124 0.102 0.23 0.23 0.23zm5.249 41.345c0.129 0 0.23-0.1 0.23-0.23v-1.29c0-0.13-0.101-0.23-0.23-0.23-0.125 0-0.23 0.1-0.23 0.23v1.29c-0.001 0.13 0.105 0.23 0.23 0.23zm0-2.59c0.129 0 0.23-0.1 0.23-0.23v-1.29c0-0.12-0.101-0.23-0.23-0.23-0.125 0-0.23 0.11-0.23 0.23v1.29c-0.001 0.13 0.105 0.23 0.23 0.23zm0-10.33c0.129 0 0.23-0.1 0.23-0.23v-1.29c0-0.13-0.101-0.23-0.23-0.23-0.125 0-0.23 0.1-0.23 0.23v1.29c-0.001 0.12 0.105 0.23 0.23 0.23zm0-2.59c0.129 0 0.23-0.1 0.23-0.23v-1.29c0-0.12-0.101-0.23-0.23-0.23-0.125 0-0.23 0.11-0.23 0.23v1.29c-0.001 0.13 0.105 0.23 0.23 0.23zm0-2.58c0.129 0 0.23-0.1 0.23-0.23v-1.29c0-0.12-0.101-0.23-0.23-0.23-0.125 0-0.23 0.11-0.23 0.23v1.29c-0.001 0.13 0.105 0.23 0.23 0.23zm0-2.58c0.129 0 0.23-0.11 0.23-0.23v-1.29c0-0.13-0.101-0.23-0.23-0.23-0.125 0-0.23 0.1-0.23 0.23v1.29c-0.001 0.12 0.105 0.23 0.23 0.23zm0-2.59c0.129 0 0.23-0.1 0.23-0.22v-1.3c0-0.13-0.101-0.23-0.23-0.23-0.125 0-0.23 0.1-0.23 0.23v1.29c-0.001 0.13 0.105 0.23 0.23 0.23zm0-2.58c0.129 0 0.23-0.1 0.23-0.23v-1.29c0-0.13-0.101-0.23-0.23-0.23-0.125 0-0.23 0.1-0.23 0.23v1.29c-0.001 0.13 0.105 0.23 0.23 0.23zm0-2.59c0.129 0 0.23-0.1 0.23-0.22v-1.29c0-0.13-0.101-0.23-0.23-0.23-0.125 0-0.23 0.1-0.23 0.23v1.29c-0.001 0.12 0.105 0.22 0.23 0.22zm0-2.58c0.129 0 0.23-0.1 0.23-0.23v-1.29c0-0.13-0.101-0.23-0.23-0.23-0.125 0-0.23 0.1-0.23 0.23v1.29c-0.001 0.13 0.105 0.23 0.23 0.23zm0-2.58c0.129 0 0.23-0.11 0.23-0.23v-1.29c0-0.13-0.101-0.23-0.23-0.23-0.125 0-0.23 0.1-0.23 0.23v1.29c-0.001 0.12 0.105 0.23 0.23 0.23zm0-2.59c0.129 0 0.23-0.1 0.23-0.23v-1.29c0-0.12-0.101-0.22-0.23-0.22-0.125 0-0.23 0.1-0.23 0.22v1.29c-0.001 0.13 0.105 0.23 0.23 0.23zm0-2.58c0.129 0 0.23-0.1 0.23-0.23v-1.291c0-0.128-0.101-0.228-0.23-0.228-0.125 0-0.23 0.1-0.23 0.228v1.291c-0.001 0.13 0.105 0.23 0.23 0.23zm5.247 38.76c0.129 0 0.23-0.1 0.23-0.23v-1.29c0-0.13-0.101-0.23-0.23-0.23-0.125 0-0.226 0.1-0.226 0.23v1.29c0 0.13 0.101 0.23 0.226 0.23zm0-2.59c0.129 0 0.23-0.1 0.23-0.23v-1.29c0-0.12-0.101-0.23-0.23-0.23-0.125 0-0.226 0.11-0.226 0.23v1.29c0 0.13 0.101 0.23 0.226 0.23zm0-5.16c0.129 0 0.23-0.1 0.23-0.23v-1.29c0-0.13-0.101-0.23-0.23-0.23-0.125 0-0.226 0.1-0.226 0.23v1.29c0 0.13 0.101 0.23 0.226 0.23zm0-2.59c0.129 0 0.23-0.1 0.23-0.23v-1.29c0-0.12-0.101-0.23-0.23-0.23-0.125 0-0.226 0.11-0.226 0.23v1.29c0 0.13 0.101 0.23 0.226 0.23zm0-2.58c0.129 0 0.23-0.1 0.23-0.23v-1.29c0-0.13-0.101-0.23-0.23-0.23-0.125 0-0.226 0.1-0.226 0.23v1.29c0 0.12 0.101 0.23 0.226 0.23zm0-2.59c0.129 0 0.23-0.1 0.23-0.23v-1.29c0-0.12-0.101-0.23-0.23-0.23-0.125 0-0.226 0.11-0.226 0.23v1.29c0 0.13 0.101 0.23 0.226 0.23zm0-2.58c0.129 0 0.23-0.1 0.23-0.23v-1.29c0-0.12-0.101-0.23-0.23-0.23-0.125 0-0.226 0.11-0.226 0.23v1.29c0 0.13 0.101 0.23 0.226 0.23zm0-2.58c0.129 0 0.23-0.11 0.23-0.23v-1.29c0-0.13-0.101-0.23-0.23-0.23-0.125 0-0.226 0.1-0.226 0.23v1.29c0 0.12 0.101 0.23 0.226 0.23zm0-2.59c0.129 0 0.23-0.1 0.23-0.22v-1.3c0-0.13-0.101-0.23-0.23-0.23-0.125 0-0.226 0.1-0.226 0.23v1.29c0 0.13 0.101 0.23 0.226 0.23zm0-2.58c0.129 0 0.23-0.1 0.23-0.23v-1.29c0-0.13-0.101-0.23-0.23-0.23-0.125 0-0.226 0.1-0.226 0.23v1.29c0 0.13 0.101 0.23 0.226 0.23zm0-2.59c0.129 0 0.23-0.1 0.23-0.22v-1.29c0-0.13-0.101-0.23-0.23-0.23-0.125 0-0.226 0.1-0.226 0.23v1.29c0 0.12 0.101 0.22 0.226 0.22zm0-2.58c0.129 0 0.23-0.1 0.23-0.23v-1.29c0-0.13-0.101-0.23-0.23-0.23-0.125 0-0.226 0.1-0.226 0.23v1.29c0 0.13 0.101 0.23 0.226 0.23zm0-2.58c0.129 0 0.23-0.11 0.23-0.23v-1.29c0-0.13-0.101-0.23-0.23-0.23-0.125 0-0.226 0.1-0.226 0.23v1.29c0 0.12 0.101 0.23 0.226 0.23zm0-2.59c0.129 0 0.23-0.1 0.23-0.23v-1.29c0-0.12-0.101-0.22-0.23-0.22-0.125 0-0.226 0.1-0.226 0.22v1.29c0 0.13 0.101 0.23 0.226 0.23zm5.252 36.18c0.13 0 0.23-0.1 0.23-0.23v-1.29c0-0.13-0.1-0.23-0.23-0.23s-0.23 0.1-0.23 0.23v1.29c0 0.13 0.1 0.23 0.23 0.23zm0-2.59c0.13 0 0.23-0.1 0.23-0.23v-1.29c0-0.12-0.1-0.23-0.23-0.23s-0.23 0.11-0.23 0.23v1.29c0 0.13 0.1 0.23 0.23 0.23zm0-10.33c0.13 0 0.23-0.1 0.23-0.23v-1.29c0-0.13-0.1-0.23-0.23-0.23s-0.23 0.1-0.23 0.23v1.29c0 0.12 0.1 0.23 0.23 0.23zm0-2.59c0.13 0 0.23-0.1 0.23-0.23v-1.29c0-0.12-0.1-0.23-0.23-0.23s-0.23 0.11-0.23 0.23v1.29c0 0.13 0.1 0.23 0.23 0.23zm0-2.58c0.13 0 0.23-0.1 0.23-0.23v-1.29c0-0.12-0.1-0.23-0.23-0.23s-0.23 0.11-0.23 0.23v1.29c0 0.13 0.1 0.23 0.23 0.23zm0-2.58c0.13 0 0.23-0.11 0.23-0.23v-1.29c0-0.13-0.1-0.23-0.23-0.23s-0.23 0.1-0.23 0.23v1.29c0 0.12 0.1 0.23 0.23 0.23zm0-2.59c0.13 0 0.23-0.1 0.23-0.22v-1.3c0-0.13-0.1-0.23-0.23-0.23s-0.23 0.1-0.23 0.23v1.29c0 0.13 0.1 0.23 0.23 0.23zm0-2.58c0.13 0 0.23-0.1 0.23-0.23v-1.29c0-0.13-0.1-0.23-0.23-0.23s-0.23 0.1-0.23 0.23v1.29c0 0.13 0.1 0.23 0.23 0.23zm0-2.59c0.13 0 0.23-0.1 0.23-0.22v-1.29c0-0.13-0.1-0.23-0.23-0.23s-0.23 0.1-0.23 0.23v1.29c0 0.12 0.1 0.22 0.23 0.22zm0-2.58c0.13 0 0.23-0.1 0.23-0.23v-1.29c0-0.13-0.1-0.23-0.23-0.23s-0.23 0.1-0.23 0.23v1.29c0 0.13 0.1 0.23 0.23 0.23zm0-2.58c0.13 0 0.23-0.11 0.23-0.23v-1.29c0-0.13-0.1-0.23-0.23-0.23s-0.23 0.1-0.23 0.23v1.29c0 0.12 0.1 0.23 0.23 0.23zm0-2.59c0.13 0 0.23-0.1 0.23-0.23v-1.29c0-0.12-0.1-0.22-0.23-0.22s-0.23 0.1-0.23 0.22v1.29c0 0.13 0.1 0.23 0.23 0.23zm5.25 36.18c0.12 0 0.23-0.1 0.23-0.23v-1.29c0-0.13-0.11-0.23-0.23-0.23-0.13 0-0.23 0.1-0.23 0.23v1.29c0 0.13 0.1 0.23 0.23 0.23zm0-2.59c0.12 0 0.23-0.1 0.23-0.23v-1.29c0-0.12-0.11-0.23-0.23-0.23-0.13 0-0.23 0.11-0.23 0.23v1.29c0 0.13 0.1 0.23 0.23 0.23zm0-5.16c0.12 0 0.23-0.1 0.23-0.23v-1.29c0-0.13-0.11-0.23-0.23-0.23-0.13 0-0.23 0.1-0.23 0.23v1.29c0 0.13 0.1 0.23 0.23 0.23zm0-2.59c0.12 0 0.23-0.1 0.23-0.23v-1.29c0-0.12-0.11-0.23-0.23-0.23-0.13 0-0.23 0.11-0.23 0.23v1.29c0 0.13 0.1 0.23 0.23 0.23zm0-2.58c0.12 0 0.23-0.1 0.23-0.23v-1.29c0-0.13-0.11-0.23-0.23-0.23-0.13 0-0.23 0.1-0.23 0.23v1.29c0 0.12 0.1 0.23 0.23 0.23zm0-2.59c0.12 0 0.23-0.1 0.23-0.23v-1.29c0-0.12-0.11-0.23-0.23-0.23-0.13 0-0.23 0.11-0.23 0.23v1.29c0 0.13 0.1 0.23 0.23 0.23zm0-2.58c0.12 0 0.23-0.1 0.23-0.23v-1.29c0-0.12-0.11-0.23-0.23-0.23-0.13 0-0.23 0.11-0.23 0.23v1.29c0 0.13 0.1 0.23 0.23 0.23zm0-2.58c0.12 0 0.23-0.11 0.23-0.23v-1.29c0-0.13-0.11-0.23-0.23-0.23-0.13 0-0.23 0.1-0.23 0.23v1.29c0 0.12 0.1 0.23 0.23 0.23zm0-2.59c0.12 0 0.23-0.1 0.23-0.22v-1.3c0-0.13-0.11-0.23-0.23-0.23-0.13 0-0.23 0.1-0.23 0.23v1.29c0 0.13 0.1 0.23 0.23 0.23zm0-2.58c0.12 0 0.23-0.1 0.23-0.23v-1.29c0-0.13-0.11-0.23-0.23-0.23-0.13 0-0.23 0.1-0.23 0.23v1.29c0 0.13 0.1 0.23 0.23 0.23zm0-2.59c0.12 0 0.23-0.1 0.23-0.22v-1.29c0-0.13-0.11-0.23-0.23-0.23-0.13 0-0.23 0.1-0.23 0.23v1.29c0 0.12 0.1 0.22 0.23 0.22zm0-2.58c0.12 0 0.23-0.1 0.23-0.23v-1.29c0-0.13-0.11-0.23-0.23-0.23-0.13 0-0.23 0.1-0.23 0.23v1.29c0 0.13 0.1 0.23 0.23 0.23zm0-2.58c0.12 0 0.23-0.11 0.23-0.23v-1.29c0-0.13-0.11-0.23-0.23-0.23-0.13 0-0.23 0.1-0.23 0.23v1.29c0 0.12 0.1 0.23 0.23 0.23zm5.25 33.59c0.12 0 0.22-0.1 0.22-0.23v-1.29c0-0.13-0.1-0.23-0.22-0.23-0.13 0-0.23 0.1-0.23 0.23v1.29c0 0.13 0.1 0.23 0.23 0.23zm0-2.59c0.12 0 0.22-0.1 0.22-0.23v-1.29c0-0.12-0.1-0.23-0.22-0.23-0.13 0-0.23 0.11-0.23 0.23v1.29c0 0.13 0.1 0.23 0.23 0.23zm0-2.58c0.12 0 0.22-0.1 0.22-0.23v-1.29c0-0.12-0.1-0.23-0.22-0.23-0.13 0-0.23 0.11-0.23 0.23v1.29c0 0.13 0.1 0.23 0.23 0.23zm0-2.58c0.12 0 0.22-0.1 0.22-0.23v-1.29c0-0.13-0.1-0.23-0.22-0.23-0.13 0-0.23 0.1-0.23 0.23v1.29c0 0.13 0.1 0.23 0.23 0.23zm0-2.59c0.12 0 0.22-0.1 0.22-0.23v-1.29c0-0.12-0.1-0.23-0.22-0.23-0.13 0-0.23 0.11-0.23 0.23v1.29c0 0.13 0.1 0.23 0.23 0.23zm0-2.58c0.12 0 0.22-0.1 0.22-0.23v-1.29c0-0.13-0.1-0.23-0.22-0.23-0.13 0-0.23 0.1-0.23 0.23v1.29c0 0.12 0.1 0.23 0.23 0.23zm0-2.59c0.12 0 0.22-0.1 0.22-0.23v-1.29c0-0.12-0.1-0.23-0.22-0.23-0.13 0-0.23 0.11-0.23 0.23v1.29c0 0.13 0.1 0.23 0.23 0.23zm0-2.58c0.12 0 0.22-0.1 0.22-0.23v-1.29c0-0.12-0.1-0.23-0.22-0.23-0.13 0-0.23 0.11-0.23 0.23v1.29c0 0.13 0.1 0.23 0.23 0.23zm0-2.58c0.12 0 0.22-0.11 0.22-0.23v-1.29c0-0.13-0.1-0.23-0.22-0.23-0.13 0-0.23 0.1-0.23 0.23v1.29c0 0.12 0.1 0.23 0.23 0.23zm0-2.59c0.12 0 0.22-0.1 0.22-0.22v-1.3c0-0.13-0.1-0.23-0.22-0.23-0.13 0-0.23 0.1-0.23 0.23v1.29c0 0.13 0.1 0.23 0.23 0.23zm0-2.58c0.12 0 0.22-0.1 0.22-0.23v-1.29c0-0.13-0.1-0.23-0.22-0.23-0.13 0-0.23 0.1-0.23 0.23v1.29c0 0.13 0.1 0.23 0.23 0.23zm0-2.59c0.12 0 0.22-0.1 0.22-0.22v-1.29c0-0.13-0.1-0.23-0.22-0.23-0.13 0-0.23 0.1-0.23 0.23v1.29c0 0.12 0.1 0.22 0.23 0.22zm0-2.58c0.12 0 0.22-0.1 0.22-0.23v-1.29c0-0.13-0.1-0.23-0.22-0.23-0.13 0-0.23 0.1-0.23 0.23v1.29c0 0.13 0.1 0.23 0.23 0.23zm0-2.58c0.12 0 0.22-0.11 0.22-0.23v-1.29c0-0.13-0.1-0.23-0.22-0.23-0.13 0-0.23 0.1-0.23 0.23v1.29c0 0.12 0.1 0.23 0.23 0.23zm5.25 33.59c0.12 0 0.22-0.1 0.22-0.23v-1.29c0-0.13-0.1-0.23-0.22-0.23-0.13 0-0.23 0.1-0.23 0.23v1.29c0 0.13 0.1 0.23 0.23 0.23zm0-2.59c0.12 0 0.22-0.1 0.22-0.23v-1.29c0-0.12-0.1-0.23-0.22-0.23-0.13 0-0.23 0.11-0.23 0.23v1.29c0 0.13 0.1 0.23 0.23 0.23zm0-2.58c0.12 0 0.22-0.1 0.22-0.23v-1.29c0-0.12-0.1-0.23-0.22-0.23-0.13 0-0.23 0.11-0.23 0.23v1.29c0 0.13 0.1 0.23 0.23 0.23zm0-2.58c0.12 0 0.22-0.1 0.22-0.23v-1.29c0-0.13-0.1-0.23-0.22-0.23-0.13 0-0.23 0.1-0.23 0.23v1.29c0 0.13 0.1 0.23 0.23 0.23zm0-2.59c0.12 0 0.22-0.1 0.22-0.23v-1.29c0-0.12-0.1-0.23-0.22-0.23-0.13 0-0.23 0.11-0.23 0.23v1.29c0 0.13 0.1 0.23 0.23 0.23zm0-2.58c0.12 0 0.22-0.1 0.22-0.23v-1.29c0-0.13-0.1-0.23-0.22-0.23-0.13 0-0.23 0.1-0.23 0.23v1.29c0 0.12 0.1 0.23 0.23 0.23zm0-2.59c0.12 0 0.22-0.1 0.22-0.23v-1.29c0-0.12-0.1-0.23-0.22-0.23-0.13 0-0.23 0.11-0.23 0.23v1.29c0 0.13 0.1 0.23 0.23 0.23zm0-2.58c0.12 0 0.22-0.1 0.22-0.23v-1.29c0-0.12-0.1-0.23-0.22-0.23-0.13 0-0.23 0.11-0.23 0.23v1.29c0 0.13 0.1 0.23 0.23 0.23zm0-2.58c0.12 0 0.22-0.11 0.22-0.23v-1.29c0-0.13-0.1-0.23-0.22-0.23-0.13 0-0.23 0.1-0.23 0.23v1.29c0 0.12 0.1 0.23 0.23 0.23zm0-2.59c0.12 0 0.22-0.1 0.22-0.22v-1.3c0-0.13-0.1-0.23-0.22-0.23-0.13 0-0.23 0.1-0.23 0.23v1.29c0 0.13 0.1 0.23 0.23 0.23zm0-2.58c0.12 0 0.22-0.1 0.22-0.23v-1.29c0-0.13-0.1-0.23-0.22-0.23-0.13 0-0.23 0.1-0.23 0.23v1.29c0 0.13 0.1 0.23 0.23 0.23zm0-2.59c0.12 0 0.22-0.1 0.22-0.22v-1.29c0-0.13-0.1-0.23-0.22-0.23-0.13 0-0.23 0.1-0.23 0.23v1.29c0 0.12 0.1 0.22 0.23 0.22zm0-2.58c0.12 0 0.22-0.1 0.22-0.23v-1.29c0-0.13-0.1-0.23-0.22-0.23-0.13 0-0.23 0.1-0.23 0.23v1.29c0 0.13 0.1 0.23 0.23 0.23zm5.24 31.01c0.13 0 0.23-0.1 0.23-0.23v-1.29c0-0.13-0.1-0.23-0.23-0.23-0.12 0-0.22 0.1-0.22 0.23v1.29c0 0.13 0.1 0.23 0.22 0.23zm0-2.59c0.13 0 0.23-0.1 0.23-0.23v-1.29c0-0.12-0.1-0.23-0.23-0.23-0.12 0-0.22 0.11-0.22 0.23v1.29c0 0.13 0.1 0.23 0.22 0.23zm0-2.58c0.13 0 0.23-0.1 0.23-0.23v-1.29c0-0.12-0.1-0.23-0.23-0.23-0.12 0-0.22 0.11-0.22 0.23v1.29c0 0.13 0.1 0.23 0.22 0.23zm0-2.58c0.13 0 0.23-0.1 0.23-0.23v-1.29c0-0.13-0.1-0.23-0.23-0.23-0.12 0-0.22 0.1-0.22 0.23v1.29c0 0.13 0.1 0.23 0.22 0.23zm0-2.59c0.13 0 0.23-0.1 0.23-0.23v-1.29c0-0.12-0.1-0.23-0.23-0.23-0.12 0-0.22 0.11-0.22 0.23v1.29c0 0.13 0.1 0.23 0.22 0.23zm0-2.58c0.13 0 0.23-0.1 0.23-0.23v-1.29c0-0.13-0.1-0.23-0.23-0.23-0.12 0-0.22 0.1-0.22 0.23v1.29c0 0.12 0.1 0.23 0.22 0.23zm0-2.59c0.13 0 0.23-0.1 0.23-0.23v-1.29c0-0.12-0.1-0.23-0.23-0.23-0.12 0-0.22 0.11-0.22 0.23v1.29c0 0.13 0.1 0.23 0.22 0.23zm0-2.58c0.13 0 0.23-0.1 0.23-0.23v-1.29c0-0.12-0.1-0.23-0.23-0.23-0.12 0-0.22 0.11-0.22 0.23v1.29c0 0.13 0.1 0.23 0.22 0.23zm0-2.58c0.13 0 0.23-0.11 0.23-0.23v-1.29c0-0.13-0.1-0.23-0.23-0.23-0.12 0-0.22 0.1-0.22 0.23v1.29c0 0.12 0.1 0.23 0.22 0.23zm0-2.59c0.13 0 0.23-0.1 0.23-0.22v-1.3c0-0.13-0.1-0.23-0.23-0.23-0.12 0-0.22 0.1-0.22 0.23v1.29c0 0.13 0.1 0.23 0.22 0.23zm0-2.58c0.13 0 0.23-0.1 0.23-0.23v-1.29c0-0.13-0.1-0.23-0.23-0.23-0.12 0-0.22 0.1-0.22 0.23v1.29c0 0.13 0.1 0.23 0.22 0.23zm0-2.59c0.13 0 0.23-0.1 0.23-0.22v-1.29c0-0.13-0.1-0.23-0.23-0.23-0.12 0-0.22 0.1-0.22 0.23v1.29c0 0.12 0.1 0.22 0.22 0.22zm5.25 28.43c0.13 0 0.23-0.1 0.23-0.23v-1.29c0-0.13-0.1-0.23-0.23-0.23-0.12 0-0.22 0.1-0.22 0.23v1.29c0 0.13 0.1 0.23 0.22 0.23zm0-2.59c0.13 0 0.23-0.1 0.23-0.23v-1.29c0-0.12-0.1-0.23-0.23-0.23-0.12 0-0.22 0.11-0.22 0.23v1.29c0 0.13 0.1 0.23 0.22 0.23zm0-2.58c0.13 0 0.23-0.1 0.23-0.23v-1.29c0-0.12-0.1-0.23-0.23-0.23-0.12 0-0.22 0.11-0.22 0.23v1.29c0 0.13 0.1 0.23 0.22 0.23zm0-2.58c0.13 0 0.23-0.1 0.23-0.23v-1.29c0-0.13-0.1-0.23-0.23-0.23-0.12 0-0.22 0.1-0.22 0.23v1.29c0 0.13 0.1 0.23 0.22 0.23zm-76.532-46.753l-3.175 9.987 4.51 14.616 11.666-16.552c0.355-0.505 0.917-0.505 1.275 0l11.668 16.552 4.51-14.616-3.184-10.024c-2.093 5.219-8.729 7.467-13.655 7.467-4.927 0-11.513-2.235-13.615-7.43zm26.55-5.476c-0.327 0.202-0.651 0.394-0.967 0.578-1.03 0.603-2.007 1.127-2.829 1.612-2.193 1.289-2.765 2.731-5.525 3.328-1.276 0.28-6.246 0.28-7.522 0-2.762-0.597-3.331-2.039-5.522-3.328-0.826-0.485-1.799-1.009-2.832-1.612-0.208-0.121-0.415-0.245-0.63-0.373l0.379 3.617c0.961 4.123 6.058 7.528 12.513 7.528 6.456 0 11.578-3.405 12.538-7.528l0.397-3.822zm15.342 18.638l3.175 0.83c-0.152-0.001-0.253 0.097-0.253 0.226v1.295c0 0.12 0.101 0.23 0.226 0.23 0.129 0 0.23-0.11 0.23-0.23v-1.295c0-0.094-0.058-0.178-0.143-0.214l4.935 1.289v0.21c0 0.13 0.1 0.23 0.23 0.23 0.12 0 0.22-0.1 0.22-0.23v-0.09l4.83 1.26c-0.02 0.03-0.04 0.08-0.04 0.13v1.29c0 0.13 0.1 0.23 0.23 0.23s0.23-0.1 0.23-0.23v-1.29l4.79 1.22v0.07c0 0.13 0.1 0.23 0.23 0.23 0.11 0 0.2-0.08 0.22-0.18l3.82 1s0.41-0.03 1.06 0.07c-0.05 0.04-0.08 0.1-0.08 0.17v1.3c0 0.12 0.1 0.22 0.23 0.22s0.22-0.1 0.22-0.22v-1.3c0-0.04-0.01-0.08-0.03-0.11 1.33 0.25 3.32 0.98 4.82 3.04v0.95c0 0.13 0.11 0.23 0.23 0.23 0.13 0 0.23-0.1 0.23-0.23v-0.25c0.51 0.86 0.94 1.93 1.22 3.23 0.37 1.69 1.87 7.94 3.57 14.97v0.14c0 0.07 0.03 0.12 0.07 0.17l0.22 0.9c-0.02-0.01-0.04-0.01-0.06-0.01-0.13 0-0.22 0.1-0.22 0.23v1.29c0 0.12 0.09 0.23 0.22 0.23 0.12 0 0.23-0.11 0.23-0.23v-0.83c1.15 4.75 2.36 9.7 3.33 13.72h-3.33v-1.27c0-0.12-0.11-0.22-0.23-0.22-0.13 0-0.22 0.1-0.22 0.22v1.27h-4.8v-1.27c0-0.12-0.1-0.22-0.23-0.22-0.12 0-0.22 0.1-0.22 0.22v1.27h-4.8v-1.27c0-0.12-0.1-0.22-0.23-0.22-0.12 0-0.22 0.1-0.22 0.22v1.27h-4.79v-1.27c0-0.12-0.1-0.22-0.23-0.22s-0.22 0.1-0.22 0.22v1.27h-4.8v-1.27c0-0.12-0.1-0.22-0.22-0.22-0.13 0-0.23 0.1-0.23 0.22v1.27h-4.8v-1.27c0-0.12-0.1-0.22-0.22-0.22-0.13 0-0.23 0.1-0.23 0.22v1.27h-4.793v-1.27c0-0.12-0.102-0.22-0.23-0.22-0.125 0-0.227 0.1-0.227 0.22v1.27h-4.79v-1.27c0-0.12-0.102-0.22-0.23-0.22-0.126 0-0.229 0.1-0.229 0.22v1.27h-4.79v-1.27c0-0.12-0.102-0.22-0.227-0.22-0.129 0-0.23 0.1-0.23 0.22v1.27h-4.791v-1.27c0-0.12-0.101-0.22-0.226-0.22-0.129 0-0.23 0.1-0.23 0.22v1.27h-2.401l2.401-25.81c0 0.12 0.101 0.22 0.23 0.22 0.125 0 0.226-0.1 0.226-0.22v-1.29c0-0.13-0.101-0.23-0.226-0.23-0.032 0-0.062 0.01-0.092 0.02l0.08-0.85c0.137 0 0.238-0.1 0.238-0.23v-1.29c0-0.07-0.029-0.13-0.082-0.17l1.123-12.07-3.601 11.67c-0.236 0.77-0.918 0.88-1.379 0.22l-6.893-9.77-1.672 3.08 5.912 36.73h-18.589l5.913-36.73-1.673-3.08-6.893 9.77c-0.462 0.66-1.145 0.55-1.379-0.22l-3.601-11.67 0.889 9.55c-0.017 0.03-0.026 0.07-0.026 0.1v1.3c0 0.1 0.073 0.19 0.175 0.21l0.079 0.85c-0.152 0-0.254 0.1-0.254 0.22v1.29c0 0.13 0.102 0.23 0.227 0.23 0.073 0 0.14-0.03 0.181-0.09l2.629 28.26h-2.58v-1.27c0-0.12-0.103-0.22-0.23-0.22-0.125 0-0.227 0.1-0.227 0.22v1.27h-4.793v-1.27c0-0.12-0.102-0.22-0.227-0.22-0.126 0-0.227 0.1-0.227 0.22v1.27h-4.792v-1.27c0-0.12-0.1-0.22-0.229-0.22-0.126 0-0.226 0.1-0.226 0.22v1.27h-4.791v-1.27c0-0.12-0.101-0.22-0.228-0.22s-0.229 0.1-0.229 0.22v1.27h-4.792v-1.27c0-0.12-0.1-0.22-0.228-0.22-0.126 0-0.226 0.1-0.226 0.22v1.27h-4.795v-1.27c0-0.12-0.098-0.22-0.225-0.22-0.128 0-0.225 0.1-0.225 0.22v1.27h-4.794v-1.27c0-0.12-0.101-0.22-0.227-0.22-0.128 0-0.228 0.1-0.228 0.22v1.27h-4.792v-1.27c0-0.12-0.102-0.22-0.227-0.22-0.129 0-0.23 0.1-0.23 0.22v1.27h-4.7906v-1.27c0-0.12-0.1015-0.22-0.2284-0.22-0.1254 0-0.2254 0.1-0.2254 0.22v1.27h-4.8009v-1.27c0-0.12-0.1016-0.22-0.227-0.22s-0.2284 0.1-0.2284 0.22v1.27h-3.1603c0.93-3.81 2.0616-8.46 3.1588-12.99v0.1c0 0.12 0.103 0.23 0.2284 0.23s0.227-0.11 0.227-0.23v-1.29c0-0.09-0.0463-0.16-0.1165-0.2 1.8198-7.52 3.4739-14.42 3.8635-16.2 0.2508-1.16 0.615-2.12 1.0524-2.94 0.0209 0.1 0.112 0.18 0.2195 0.18 0.1269 0 0.2284-0.1 0.2284-0.23v-0.69c1.4485-2.15 3.4295-2.96 4.8035-3.26-0.01 0.02-0.013 0.05-0.013 0.08v1.29c0 0.12 0.102 0.23 0.23 0.23 0.125 0 0.227-0.11 0.227-0.23v-1.29c0-0.06-0.021-0.11-0.055-0.16 0.734-0.12 1.215-0.09 1.215-0.09l3.65-0.95c0.033 0.08 0.115 0.13 0.21 0.13 0.126 0 0.227-0.1 0.227-0.22l4.794-1.28v1.28c0 0.13 0.097 0.23 0.225 0.23 0.127 0 0.225-0.1 0.225-0.23v-1.29c0-0.03-0.006-0.06-0.017-0.09l4.812-1.26c0 0.18 0.1 0.29 0.226 0.29 0.128 0 0.228-0.11 0.228-0.23v-0.18l4.839-1.256c-0.03 0.036-0.047 0.088-0.047 0.141v1.295c0 0.12 0.102 0.23 0.229 0.23s0.228-0.11 0.228-0.23v-1.295c0-0.093-0.058-0.178-0.14-0.212l3.239-0.844 1.692-0.676v0.44c0 0.126 0.1 0.227 0.227 0.227 0.128 0 0.228-0.101 0.228-0.227v-0.624l4.693-1.884 0.242-0.092 3.001-1.2 3.441-10.832c0.098-0.318 0.322-0.484 0.566-0.529l-0.429-4.108c-1.137-0.775-2.282-1.671-3.327-2.731-3.435-3.49-5.182-8.997-5.546-13.904-1.295 0.158-2.59-0.21-3.852-1.102-1.019-0.715-2.017-1.764-3.005-3.137-0.595-0.83-1.203-1.796-1.817-2.898-1.068-1.929-1.707-4.013-1.824-5.859-0.082-1.275 0.084-2.489 0.585-3.462 0.426-0.821 1.095-1.465 2.056-1.786 0.984-0.304 2.114-0.251 3.227 0.155 0.683 0.251 1.359 0.63 2.005 1.147-0.061-0.324-0.133-0.691-0.221-1.115-1.076-5.104-2.808-8.332-4.49-12.942-2.233-6.113-1.827-11.003 1.847-16.746 5.731-8.0586 10.557-13.522 20.578-13.9 2.404-0.08811 5.07 0.02236 8.211 0.06266 11.744-0.24632 17.883 3.4424 20.794 7.6582 1.027 1.7701 1.367 3.5251 1.388 5.9351 0.027 3.273-0.991 7.593-3.965 9.802-4.135 3.847-8.496 4.934-15.543 4.945-5.522 0.007-13.451 2.258-14.529 5.441-0.315 0.938-1.33 0.86-1.501-0.116-0.533-3.022 0.709-5.336 2.884-7.108-2.983 0.356-5.552 1.205-6.342 2.647-0.473 0.869-1.461 0.617-1.461-0.373 0.003-1.754 0.565-3.144 1.522-4.241-8.952-0.394-3.63 7.016-4.539 12.408-0.057 0.336-0.394 1.756-0.739 2.796-0.315 0.126-0.603 0.263-0.866 0.412-0.548 0.36-0.965 1.009-0.965 1.748v2.598c0 0.964 0.584 1.633 1.145 2.129 0.139 0.104 0.253 0.383 0.345 0.754 0.048 0.274 0.103 0.559 0.165 0.855 0.138 0.879 0.219 1.872 0.304 2.353-0.257 0.436-0.899 0.5-1.317-0.093-0.619-0.873-0.976-1.423-1.307-1.878-0.229-0.315-0.405-0.552-0.541-0.754-0.052-0.048-0.1-0.107-0.151-0.177-0.98-1.51-2.155-2.392-3.242-2.788-0.84-0.307-1.618-0.322-2.239-0.129-0.49 0.164-0.863 0.501-1.129 1.01-0.33 0.638-0.483 1.545-0.413 2.647 0.101 1.584 0.658 3.449 1.634 5.203 0.583 1.045 1.153 1.958 1.719 2.745 0.924 1.285 1.804 2.19 2.634 2.775 1.239 0.873 2.361 1.032 3.443 0.676 0.624-0.207 1.046 0.315 1.024 0.805 0.205 4.696 1.811 10.314 5.146 13.704 1.618 1.644 3.527 2.887 5.31 3.925 1.034 0.6 2.012 1.128 2.845 1.618 0.23 0.14 0.458 0.275 0.676 0.412 0.318-0.389 1.007-0.476 1.316 0.12 0.341 0.664 0.498 0.949 0.676 1.17 0.419 0.528 1.199 1.073 1.86 1.318 1.3 0.37 6.619 0.37 7.916 0 0.662-0.245 1.444-0.79 1.861-1.318 0.18-0.221 0.338-0.506 0.679-1.17 0.306-0.596 0.997-0.509 1.315-0.12 0.218-0.14 0.446-0.276 0.676-0.412 0.835-0.49 1.811-1.018 2.846-1.618 1.776-1.038 3.691-2.281 5.307-3.925 3.341-3.39 4.944-9.008 5.148-13.704-0.028-0.49 0.401-1.012 1.025-0.805 1.079 0.356 2.198 0.197 3.44-0.676 0.829-0.587 1.71-1.49 2.637-2.775 0.566-0.787 1.134-1.7 1.717-2.745 0.97-1.756 1.533-3.621 1.63-5.203 0.073-1.102-0.082-2.011-0.411-2.647-0.265-0.509-0.639-0.845-1.131-1.01-0.618-0.193-1.395-0.178-2.237 0.129-1.085 0.398-2.26 1.277-3.245 2.788-0.039 0.064-0.082 0.118-0.131 0.161-0.102 0.154-0.23 0.331-0.392 0.546-0.329 0.457-1.04 1.227-1.661 2.101-0.26 0.367-0.606 0.482-0.896 0.41 0.085-0.351 0.15-0.697 0.202-1.028 0.079-0.499 0.131-0.972 0.18-1.401 0.114-0.925 0.208-1.615 0.529-1.852 0.343-0.302 0.694-0.668 0.915-1.129 0.143-0.292 0.23-0.624 0.23-1v-0.399-2.197c0-0.739-0.42-1.388-0.964-1.748-0.339-0.194-0.838-0.391-1.478-0.575-0.085-0.278-0.156-0.609-0.29-1.052-0.721-2.377-0.649-4.279-0.022-6.742 1.218-4.779-0.109-6.583-2.371-7.109 3.65-2.632 4.705-7.8 4.682-11.153-0.008-0.617-0.032-1.22-0.093-1.818 1.897 0.186 4.099 0.155 4.953 2.149 4.374 6.867 3.686 11.64 1.453 17.51-1.575 4.165-3.096 7.318-4.106 12.104-0.107 0.503-0.183 0.927-0.238 1.288 0.71-0.604 1.457-1.043 2.209-1.319 1.114-0.408 2.242-0.463 3.227-0.157 0.96 0.321 1.631 0.964 2.056 1.785 0.497 0.974 0.667 2.189 0.587 3.462-0.12 1.844-0.759 3.931-1.829 5.859-0.612 1.102-1.218 2.07-1.814 2.898-0.988 1.373-1.985 2.423-3.003 3.138-1.263 0.893-2.558 1.261-3.855 1.102-0.361 4.907-2.108 10.415-5.546 13.904-0.939 0.957-1.958 1.775-2.982 2.495l-0.457 4.336c0.255 0.041 0.486 0.208 0.591 0.536l3.442 10.832 2.507 1.003v0.214c0 0.125 0.1 0.227 0.228 0.227 0.126 0 0.226-0.102 0.226-0.227l4.79 1.89v0.694c0 0.125 0.105 0.23 0.23 0.23 0.129 0 0.23-0.105 0.23-0.23v-0.514l1.872 0.757zm-33.977-37.288s0.093-0.107 0.272-0.236c0.918-0.673 2.038-0.543 2.951 0.141 0.405 0.304 0.839 0.515 2.236 0.515 1.402 0 1.866-0.214 2.27-0.515 0.947-0.712 2.396-0.844 3.218 0.095 0.703 0.766-0.446 1.817-1.149 1.051-0.402-0.294-0.796-0.157-1.138 0.097l-0.11 0.079c-0.035 0.041-0.077 0.078-0.123 0.114-0.918 0.7-1.645 1.419-2.93 1.418-1.283 0.001-2.022-0.718-2.94-1.418-0.107-0.076-0.189-0.132-0.271-0.193-0.405-0.298-0.75-0.383-1.142-0.097-0.698 0.766-1.846-0.285-1.144-1.051zm35.124-12.134c1.009 0.247 0.633 1.759-0.377 1.511-0.694-0.172-1.982 0.644-2.985 2.49 0.251 0.308 0.324 0.841 0.152 1.442-0.269 0.933-1.027 1.705-1.694 1.651-1.462-0.115-0.529-2.287-0.441-2.496 1.081-2.738 3.183-5.132 5.345-4.598zm-59.144 0c2.155-0.534 4.262 1.86 5.345 4.598 0.088 0.209 1.021 2.381-0.441 2.496-0.667 0.053-1.425-0.718-1.696-1.651-0.17-0.6-0.097-1.134 0.154-1.442-1.003-1.846-2.291-2.662-2.988-2.49-1.005 0.248-1.381-1.264-0.374-1.511zm40.9 16.126c-0.787 0.218-1.12-0.961-0.333-1.181 1.685-0.473 3.377 1.218 3.548 2.795 0.088 0.813-1.131 0.945-1.221 0.134-0.091-0.839-1.085-2.005-1.994-1.748zm-18.407 4.193c0.416 0.456 0.793 0.881 1.17 1.271l0.075 0.051c0.746 0.591 3.438 1.464 5.744 1.485 2.316-0.018 5-0.845 5.745-1.438 0.449-0.44 0.842-0.888 1.279-1.369-0.857 0.089-1.808 0.136-2.93 0.174-0.133 0.006-1.751 0.073-4.071 0.089-2.42-0.016-4.076-0.091-4.076-0.091-1.125-0.036-2.076-0.083-2.936-0.172zm16.587-0.4c-3.386 3.132-3.899 5.494-9.584 5.497-5.686-0.003-6.191-2.368-9.575-5.497-0.03-0.025-0.055-0.053-0.079-0.08-0.56-0.156-1.12-0.345-1.711-0.584-0.963-0.39-0.381-1.832 0.584-1.447 2.058 0.829 3.639 1.028 6.779 1.129 0 0 1.627 0.073 4.009 0.087 2.387-0.014 4.018-0.087 4.018-0.087 3.139-0.101 4.72-0.3 6.781-1.129 0.965-0.385 1.543 1.057 0.578 1.447-0.592 0.24-1.158 0.43-1.718 0.587-0.027 0.027-0.049 0.052-0.082 0.077zm-21.104-3.793c-0.913-0.257-1.905 0.909-1.998 1.748-0.091 0.811-1.306 0.679-1.218-0.134 0.172-1.577 1.86-3.268 3.549-2.795 0.783 0.22 0.455 1.399-0.333 1.181zm25.37-24.602c4.736-0.176 7.951 0.576 8.969 1.167 0.312 0.201 0.53 0.562 0.53 0.965v2.597c0 0.56-0.306 0.978-0.804 1.419-0.771 0.567-0.753 1.707-0.854 2.554-0.202 1.629-0.382 3.097-1.298 4.544-1.067 1.685-3.039 3.102-6.717 3.46-6.955 0.683-9.983-3.115-11.08-5.975-0.373-0.977-0.597-2.013-1.085-2.944-0.272-0.518-0.559-0.745-1.272-0.747-1.227 0.005-1.426 1.017-1.735 1.926-0.172 0.502-0.364 1.091-0.624 1.765-1.096 2.86-4.117 6.658-11.077 5.975-3.916-0.382-6.84-2.027-7.712-5.957-0.218-0.981-0.282-1.986-0.416-2.982-0.093-0.695-0.214-1.23-0.741-1.619-0.501-0.441-0.804-0.859-0.804-1.419v-2.597c0-0.405 0.218-0.766 0.528-0.965 1.017-0.591 4.234-1.343 8.972-1.167 2.79 0.105 5.091 0.563 6.852 1.051 1.748 0.484 2.962 1 3.596 1.223 1.124 0.392 2.996 0.392 3.162 0.392 0.163 0 2.038 0 3.161-0.392 0.634-0.223 1.849-0.738 3.594-1.223 1.765-0.488 4.065-0.946 6.855-1.051zm5.976 8.39c0.039-6.027-3.565-6.406-7.639-6.11-9.452 0.682-8.513 2.623-8.194 6.28 0.314 3.577 3.323 6.86 8.411 6.86 4.084 0 7.385-2.314 7.422-7.03zm-39.175 0c0.035 4.714 3.335 7.03 7.421 7.03 5.088 0 8.097-3.282 8.412-6.86 0.321-3.657 1.26-5.598-8.195-6.28-4.076-0.296-7.68 0.083-7.638 6.11zm29.342-1.705c-1.475 0.348-2.674 1.19-3.353 2.248-0.627 0.975-2.089 0.035-1.462-0.94 1.26-1.96 3.665-3.229 6.357-3.229 2.693 0 5.074 1.272 6.336 3.229 0.624 0.975-0.839 1.915-1.462 0.94-0.702-1.088-1.933-1.942-3.454-2.276 0.51 0.419 0.834 1.058 0.834 1.769 0 1.27-1.027 2.297-2.294 2.297-1.268 0-2.298-1.027-2.298-2.297-0.006-0.697 0.303-1.323 0.796-1.741zm-19.856 0c0.489 0.418 0.8 1.044 0.8 1.739 0 1.271-1.027 2.298-2.296 2.298-1.268 0-2.295-1.027-2.295-2.298 0-0.71 0.324-1.348 0.832-1.769-1.521 0.336-2.753 1.19-3.452 2.277-0.624 0.975-2.088 0.034-1.461-0.941 1.26-1.958 3.639-3.229 6.336-3.229 2.691 0 5.096 1.269 6.356 3.229 0.627 0.975-0.839 1.916-1.463 0.941-0.684-1.057-1.882-1.899-3.357-2.247z"/>
       </g>
      </g>
      <g id="noun_124842_cc" sketch:type="MSShapeGroup" transform="translate(191 46)">
       <g id="Group">
        <path id="Shape" d="m58.278 130.13c0.247 0.02 0.488 0.06 0.699 0.11-0.212-0.1-0.446-0.15-0.699-0.11z" fill="#000"/>
        <path id="Shape" d="m60.151 129.9c-0.237 0.02-0.455 0.12-0.653 0.3 0.212-0.13 0.431-0.23 0.653-0.3z" fill="#000"/>
        <path id="Shape" d="m57.334 130.7c-0.066-0.04-0.113 0.06-0.05 0.09 0.056 0.03 0.118 0.12 0.168 0.24-0.006 0.03-0.003 0.05 0.015 0.1 0.056 0.13 0.188 0.18 0.129-0.02-0.02-0.07-0.036-0.11-0.048-0.13-0.058-0.13-0.13-0.23-0.214-0.28z" fill="#000"/>
        <path id="Shape" fill="#000" d="m48.269 102.44c0.039 0.06 0.091 0.11 0.154 0.14 0.061 0.04 0.127 0.07 0.196 0.08s0.138 0.01 0.207-0.01c0.074-0.01 0.136-0.04 0.196-0.08 0.056-0.04 0.106-0.09 0.143-0.16 0.04-0.06 0.063-0.13 0.075-0.2 0.012-0.06 0.009-0.14-0.006-0.2-0.018-0.07-0.048-0.14-0.09-0.2-0.039-0.05-0.089-0.1-0.151-0.14s-0.127-0.06-0.197-0.08c-0.07-0.01-0.14 0-0.209 0.01-0.071 0.02-0.136 0.05-0.193 0.09-0.056 0.04-0.105 0.09-0.143 0.15-0.041 0.06-0.063 0.12-0.075 0.2-0.012 0.07-0.01 0.13 0.007 0.21 0.017 0.07 0.046 0.13 0.086 0.19z"/>
        <path id="Shape" fill="#000" d="m48.001 101.29c0.04 0.05 0.091 0.1 0.153 0.14s0.128 0.06 0.197 0.08c0.069 0.01 0.14 0.01 0.209-0.01 0.071-0.02 0.134-0.05 0.193-0.09 0.057-0.04 0.107-0.09 0.146-0.15s0.061-0.13 0.073-0.2 0.009-0.14-0.006-0.21c-0.017-0.07-0.045-0.13-0.088-0.19s-0.093-0.1-0.152-0.14c-0.063-0.04-0.128-0.07-0.198-0.08-0.068-0.01-0.139-0.01-0.208 0.01-0.072 0.02-0.135 0.05-0.193 0.09-0.056 0.04-0.104 0.09-0.144 0.15-0.038 0.06-0.063 0.12-0.075 0.19-0.012 0.08-0.009 0.14 0.006 0.22 0.018 0.07 0.047 0.13 0.087 0.19z"/>
        <path id="Shape" d="m60.494 130.41l0.024-0.05c0.06-0.03 0.006-0.12-0.058-0.09l-0.081 0.05c-0.097-0.05-0.22-0.06-0.35-0.04-0.196 0.04-0.361 0.17-0.399 0.33-0.017 0.07 0.091 0.1 0.112 0.03 0.019-0.09 0.096-0.17 0.215-0.22-0.034 0.04-0.055 0.09-0.043 0.15 0.018 0.09 0.1 0.14 0.187 0.12 0.09-0.01 0.143-0.1 0.127-0.18-0.011-0.06-0.052-0.1-0.1-0.12 0.135-0.01 0.244 0.04 0.297 0.12 0.016 0.02 0.035 0.03 0.066 0.02l0.14-0.06c0.063-0.02 0.025-0.13-0.043-0.1l-0.094 0.04z" fill="#000"/>
        <path id="Shape" fill="#000" d="m47.734 100.13c0.04 0.06 0.093 0.11 0.155 0.15 0.06 0.03 0.127 0.06 0.196 0.07 0.07 0.01 0.138 0.01 0.21-0.01 0.069-0.01 0.133-0.04 0.19-0.08 0.057-0.05 0.107-0.09 0.144-0.15 0.04-0.07 0.064-0.134 0.077-0.206 0.01-0.066 0.007-0.138-0.009-0.208-0.016-0.071-0.046-0.133-0.085-0.191-0.042-0.056-0.092-0.105-0.153-0.141-0.061-0.041-0.126-0.066-0.196-0.078-0.071-0.013-0.14-0.012-0.209 0.006-0.072 0.017-0.136 0.047-0.193 0.086-0.057 0.04-0.104 0.091-0.143 0.155-0.039 0.057-0.063 0.126-0.078 0.192-0.01 0.072-0.007 0.142 0.009 0.213 0.018 0.072 0.046 0.132 0.085 0.192z"/>
        <path id="Shape" d="m61.223 130.22c-0.07 0.07-0.117 0.19-0.137 0.33-0.006 0.03-0.015 0.07-0.018 0.14-0.009 0.2 0.106 0.12 0.131-0.02 0.006-0.05 0.001-0.07-0.01-0.09 0.016-0.14 0.057-0.23 0.103-0.28 0.054-0.05-0.015-0.13-0.069-0.08z" fill="#000"/>
        <path id="Shape" fill="#000" d="m48.027 99.187c0.069-0.014 0.134-0.042 0.192-0.083 0.059-0.043 0.107-0.091 0.144-0.153 0.038-0.065 0.063-0.128 0.075-0.2 0.013-0.069 0.01-0.138-0.006-0.211-0.018-0.068-0.046-0.132-0.088-0.188-0.04-0.057-0.092-0.109-0.152-0.144-0.063-0.04-0.126-0.066-0.199-0.078-0.069-0.009-0.136-0.009-0.207 0.009-0.069 0.018-0.135 0.045-0.19 0.087-0.059 0.039-0.107 0.091-0.146 0.152-0.038 0.062-0.064 0.127-0.076 0.196s-0.009 0.141 0.009 0.213c0.017 0.067 0.044 0.135 0.084 0.189 0.042 0.057 0.092 0.107 0.154 0.147 0.06 0.04 0.127 0.063 0.196 0.072 0.069 0.012 0.14 0.009 0.21-0.008z"/>
        <path id="Shape" d="m59.231 131.57c0.065 0.04 0.106 0.06 0.192 0.05 0.047-0.01 0.085-0.02 0.116-0.04 0.026-0.01 0.081-0.08 0.112-0.06 0.054 0.05 0.126-0.03 0.054-0.09-0.126-0.07-0.181 0.07-0.296 0.08-0.111 0.01-0.195-0.11-0.319 0-0.043 0.06 0.043 0.12 0.09 0.06 0.015-0.02 0.032-0.01 0.051 0z" fill="#000"/>
        <g id="noun_29842_cc" fill="#8666C4">
         <g id="Group">
          <path id="Shape" d="m117.14 142.83h-15.16c-0.2-2-0.75-4.14-1.72-6.42-3.277-7.7-8.934-10.69-16.174-8.49-0.15-0.36-0.292-0.71-0.421-1.07-0.292-0.79-0.831-1.23-1.435-1.39-1.107-3.4-1.588-6.65-1.894-9.75-0.319-3.27-0.388-6.65-1.011-9.89 4.675 1.55 11.277 3.72 11.277 3.72 14.448 4.91 23.558 7.98 25.578 19.34 0.02 0.12 0.82 7.65 0.96 13.95zm-58.17-58.497c-2.638-0.049-4.59-1.393-6.377-3.012-0.719-0.577-1.461-1.284-2.303-2.12-0.547-0.545-1.204-0.942-1.92-1.207-0.183-0.049-0.342-0.102-0.476-0.162-1.029-0.428-0.426-1.996 0.639-1.602l0.062 0.027 0.168 0.051c2.711 0.821 6.992-0.979 10.293 0.562 3.297-1.547 7.593 0.253 10.306-0.562l0.166-0.051 0.062-0.027c1.068-0.394 1.669 1.174 0.641 1.602-0.133 0.055-0.29 0.108-0.466 0.159-2.151 0.804-3.01 2.618-4.929 3.938-1.604 1.337-3.376 2.355-5.68 2.404h-0.186zm-4.803-3.907c1.097 0.754 2.548 1.291 4.911 1.302 2.349-0.013 3.794-0.555 4.889-1.302 0.699-0.607 1.362-1.263 2.005-1.892-2.568 0.207-5.483 0.257-6.825 0.264h-0.152c-1.355-0.007-4.269-0.057-6.836-0.264 0.641 0.629 1.301 1.29 2.008 1.892zm4.036 2.064c-0.445-0.065-0.748-0.081-1.177-0.24-0.632-0.241-0.995 0.701-0.365 0.944 0.545 0.208 0.851 0.221 1.395 0.299 0.67 0.097 0.818-0.904 0.147-1.003zm15.23 60.34h-10.203l8.836-30.35c-1.24-0.89-2.495-1.7-3.588-2.25-1.274-0.63-1.993-0.74-2.261-0.63l-0.116 0.03c-4.197 1.71-6.122 13.41-6.214 17.43 0.009 0.33-0.139 0.58-0.348 0.72-0.147 0.1-0.333 0.16-0.513 0.16-0.184 0-0.366-0.06-0.516-0.16-0.21-0.14-0.354-0.39-0.349-0.72-0.099-4.07-2.023-15.72-6.212-17.43l-0.118-0.03c-0.267-0.1-0.991 0-2.255 0.63-1.11 0.55-2.386 1.38-3.644 2.29l8.838 30.32h-19.246c3.156-1.53 4.698-5.22 3.475-8.58-0.812-2.21-2.639-3.76-4.763-4.32-0.034-0.28-0.065-0.57-0.089-0.87-0.063-0.81-0.45-1.36-0.97-1.68-0.14-7.52 2.748-15.57 8.125-22.45l0.081-0.03 1.051-4.61c0.086-0.31 0.177-0.664 0.287-0.991 0.26-0.811 0.721-1.999 1.762-2.527l-0.231-2.879c-0.04-0.462-0.302-3.012-0.35-3.455-0.124-0.944-0.263-1.832-0.429-2.66-0.381-0.247-0.692-0.459-0.91-0.612-0.533-0.389-1.043-0.809-1.526-1.254-2.987-2.771-5.441-7.099-8.538-15.723-3.481-0.962-6.475-3.833-8.373-7.23-1.336-2.394-2.133-5.051-2.175-7.496-0.095-5.502 4.503-6.642 7.903-4.119-0.781-2.529-1.464-5.094-1.861-7.639-1.574-10.147-2.932-25.722 6.221-34.247 1.843-1.6459 4.093-3.2125 6.777-4.5583 0.114-0.0954 0.255-0.1653 0.401-0.1986 4.593-2.2277 10.416-3.8007 17.608-4.0247 0 0 1.239-0.03654 3.114 0.09216 6.147 0.42744 14.776 2.342 17.381 8.6515 0.117 0 0.241 0.0254 0.373 0.0842 13.945 6.1347 11.419 28.332 7.959 41.995 1.319-1.156 2.976-1.786 4.972-1.237 5.403 1.486 2.693 9.502 1.046 12.634-0.017 0.019-0.025 0.039-0.033 0.062h0.003c-1.74 3.271-4.704 6.223-8.35 7.237-2.46 6.851-4.558 12.479-9.642 16.556-0.439 0.329-0.85 0.618-1.225 0.873-0.284 1.39-0.497 2.987-0.673 4.682-0.071 0.709-0.146 1.403-0.164 1.622l-0.233 2.822c1.062 0.521 1.53 1.723 1.788 2.544 0.104 0.327 0.202 0.68 0.292 0.986l1.251 5.53 2.352 10.31c0.197 0.88-0.776 1.29-1.342 0.91 0.365 3.14 0.883 6.2 1.869 9.3-0.372 0.52-0.512 1.22-0.22 2.02 0.158 0.43 0.317 0.85 0.497 1.28-5.321 2.94-7.598 7.51-6.582 13.19zm15.155-106.05c-1.657 0.76-4.086 1.486-5.516 1.881l-0.075 0.016c0.632 2.809 1.579 5.353 2.692 8.103 0.351 0.847 0.641 1.672 0.85 2.579 0.83-3.573 1.66-7.997 2.049-12.579zm0.228-5.936c-2.534 1.131-4.835 2.366-6.816 3.629-0.953 0.608-1.827-0.626-1.138-1.292-0.694 0.666 0.185 1.902 1.092 1.322 0.314 0.591 0.51 1.278 0.632 2.024l0.076 0.464c1.646-0.46 4.789-1.407 6.037-2.208 0.106-1.329 0.134-2.639 0.117-3.939zm-1.273-9.414c-2.793 3.271-5.34 6.826-7.474 10.552 0.393 0.286 0.743 0.626 1.048 1.012 2.201-1.399 4.79-2.765 7.633-4-0.142-2.647-0.512-5.213-1.207-7.564zm-12.345 9.485c1.258-0.166 2.379-0.066 3.35 0.264 0.852-1.492 1.767-2.955 2.74-4.387 0.024-3.266 0.414-7.002 1.199-10.901 0.229-1.12 1.918-0.779 1.693 0.343-0.564 2.8-0.926 5.512-1.082 8.011 1.208-1.624 2.484-3.195 3.807-4.704-1.347-3.429-3.505-6.262-6.797-8.005 0.049 0.297 0.095 0.6 0.118 0.913 0.295 3.196 0.193 6.033-0.249 8.549-0.006 0.087-0.022 0.165-0.045 0.24-0.754 4.008-2.392 7.188-4.734 9.677zm-32.402-24.961c0.532 0.8564 1.5 2.3198 2.843 4.0024 2.156 2.7076 5.241 5.9396 9.021 8.1546 0.167 0.101 0.287 0.227 0.357 0.363 5.083 3.423 9.864 7.648 12.728 11.86 0.386 0.189 0.76 0.384 1.114 0.585-3.002-7.449-10.077-15.931-16.178-20.735-0.903-0.7106 0.165-2.058 1.068-1.3478 6.818 5.3718 14.681 15.036 17.341 23.171 0.021 0.051 0.031 0.099 0.034 0.146 3.621-2.498 6.144-6.119 7.104-11.24-0.611-3.684-2.174-8.101-4.931-13.065-0.555-1.0011 0.957-1.8336 1.51-0.8295 1.694 3.0605 2.968 5.9445 3.858 8.6085-0.012-0.964-0.064-1.972-0.158-3.019-0.361-3.8766-3.14-6.3966-6.69-7.9633 1.797 6.3463 1.994 12.779 1.62 17.061-0.098 1.141-1.817 0.992-1.719-0.149 0.399-4.559-0.052-13.485-1.947-17.689-3.64-1.1808-7.708-1.5478-10.725-1.4588l-0.574 0.0206c3.869 3.5909 6.516 7.0753 8.251 11.152 0.105 0.069 0.205 0.164 0.283 0.293 2.491 3.94 4.834 8.618 5.706 11.843 0.3 1.108-1.365 1.553-1.666 0.447-0.433-1.599-1.278-3.634-2.343-5.778 0.139 0.768 0.258 1.562 0.362 2.384 0.14 1.136-1.567 1.346-1.708 0.21-1.089-8.757-4.265-14.231-11.238-20.359-5.315 0.4338-9.716 1.6764-13.323 3.332zm-10.678 8.877c2.786 2.051 6.661 4.095 11.196 5.788-4.194-2.162-7.791-4.598-10.438-6.981-0.265 0.389-0.518 0.786-0.758 1.193zm-3.532 14.99c5.18 5.124 10.477 7.237 17.209 7.418 0.129 0.003 0.241 0.027 0.341 0.069 1.723-0.153 3.502-0.199 5.266-0.255-7.225-2.223-15.294-6.29-19.988-10.801-0.828-0.796 0.368-2.032 1.195-1.238 1.965 1.886 4.559 3.696 7.439 5.315 8.378-0.07 17.841 0.547 25.386 4.37 0.089 0.044 0.166 0.1 0.231 0.158 1.313-0.457 2.552-0.994 3.7-1.62-0.034-0.019-0.07-0.042-0.105-0.065-2.558-1.715-6.022-2.975-10.464-4.313-1.1-0.332-0.601-1.976 0.497-1.646 1.88 0.566 3.625 1.132 5.226 1.735-5.087-5.985-13.661-11.711-20.481-14.5-1.062-0.434-0.411-2.024 0.651-1.589 0.62 0.253 1.243 0.528 1.888 0.822-2.093-2.198-3.955-4.6255-5.349-6.9596-2.302 1.2092-4.243 2.5835-5.846 4.0116-0.521 0.487-1.007 0.998-1.455 1.532 5.884 5.366 15.547 9.962 23.244 11.777 1.162 0.275 0.896 1.822-0.293 1.69-8.198-0.902-18.842-4.49-25.57-9.363-1.915 4.012-2.634 8.723-2.722 13.452zm14.795 2.24c4.605 2.21 9.568 3.888 13.68 4.633 2.193-0.243 4.272-0.605 6.217-1.114-6.03-2.659-13.197-3.403-19.897-3.519zm-12.371 16.887c0.212-0.858 0.498-1.688 0.824-2.549-0.744-2.261-1.057-4.668-0.88-7.037 0.085-1.142 1.807-1.017 1.719 0.127-0.174 2.347 0.182 4.719 0.992 6.921 1.193-4.549 3.765-6.83 6.98-8.005-4.417-0.881-8.305-2.845-12.051-6.212 0.094 3.956 0.568 7.843 1.097 11.26 0.217 1.384 0.716 3.374 1.319 5.495zm23.302 42.58c1.381 0.838 3.106 0.788 4.666 0.804 3.541-0.033 3.28-0.139 5.834-1.474 3.601-1.878 7.94-3.399 10.944-6.19 2.712-2.517 5.085-6.588 8.244-15.481 0.169-0.48 2.822-1.357 3.304-1.64 1.732-1.015 3.301-2.664 4.518-4.576h-0.004c1.485-2.342 2.426-5.075 2.47-7.526 0.083-4.718-4.24-4.556-6.544-1.252-0.464 0.664-0.888 1.417-1.226 2.189-0.019 0.049-0.038 0.095-0.062 0.137-0.099 0.238-0.192 0.478-0.276 0.72-0.04 0.114-0.077 0.232-0.109 0.344-0.382 1.154-1.999 0.641-1.65-0.5l0.056-0.173c0.11-0.342 0.265-0.822 0.44-1.427 0.815-6.028-0.673-6.979-2.448-12.109-0.571-1.66-1.143-3.737-1.596-6.58-0.564-3.541-3.432-5.883-9.28-2.898-4.272 2.747-9.833 4.165-16.112 4.678-3.738 0.303-7.087 0.265-9.313 0.37-5.989 0.292-10.202 3.38-11.084 9.101-0.123 0.788-0.116 1.295-0.116 1.295 0.008 1.068-0.998 1.375-1.584 0.482 0 0-0.232-0.353-0.556-1.001-0.447 1.55-0.632 3.095-0.298 5.154 0.298 0.944 0.587 1.835 0.845 2.626l0.158 0.461c0.352 1.162-1.265 1.673-1.641 0.539l-0.058-0.181c-0.062-0.183-0.181-0.509-0.357-0.919-0.956-2.227-2.902-5.386-5.86-4.573-3.846 1.062-1.028 8.199 0.019 10.182 0.149 0.283 0.313 0.569 0.498 0.86h0.005c1.55 2.472 4.272 5.137 7.163 5.656 0.181 0.033 0.602 0.388 0.669 0.563 3.156 8.886 5.53 12.96 8.244 15.477 3.397 3.155 8.174 4.487 12.097 6.862zm-11.261 32.264l-0.801-4.1-3.288 0.64 0.802 4.09-4.109 0.79 0.636 3.28 4.11-0.79 0.8 4.09 3.287-0.64-0.799-4.09 4.106-0.8-0.636-3.27-4.108 0.8zm6.823-15.58c-2.974-2.35-4.471-5.21-5.122-9.337-0.135 0.242-0.264 0.555-0.398 0.958-0.099 0.309-0.176 0.609-0.254 0.899l-1.239 5.46-1.791 7.89c0.922-0.75 2.089-1.68 3.32-2.58 1.445-1.06 3.016-2.11 4.411-2.81 0.344-0.17 0.706-0.34 1.073-0.48zm21.891-10.922c0.172-2.158 0.365-5.401 0.851-8.391-0.218 0.117-0.445 0.238-0.676 0.36-2.454 1.259-5.028 2.311-7.394 3.741-1.697 1.026-3.617 1.034-5.568 1.053-3.799-0.033-3.824-0.211-6.627-1.673-2.12-1.107-4.416-2.074-6.575-3.219l-0.341-0.186c0.477 2.962 0.674 6.173 0.837 8.315 0.572 5.332 2.266 8.252 6.428 10.802 3.272 1.38 5.284 6.96 6.319 12.01 1.03-5.05 3.044-10.63 6.32-12.01 4.166-2.55 5.86-5.47 6.426-10.802zm1.897 14.212c1.23 0.9 2.395 1.83 3.32 2.58l-1.79-7.89-1.236-5.46c-0.085-0.29-0.166-0.59-0.265-0.897-0.128-0.404-0.258-0.713-0.392-0.958-0.651 4.125-2.147 6.985-5.124 9.335 0.367 0.14 0.731 0.3 1.078 0.48 1.391 0.69 2.961 1.75 4.409 2.81zm-47.692 27.49c-1.275-3.49 0.446-7.34 3.857-8.74-0.034-0.28-0.058-0.55-0.08-0.83-0.068-0.86 0.268-1.5 0.778-1.9-0.154-7.12 2.199-14.58 6.516-21.17-4.449 1.47-9.686 3.19-9.686 3.19-14.447 4.91-23.563 7.98-25.575 19.34-0.0228 0.12-0.82324 7.65-0.96357 13.95h28.627c-1.558-0.76-2.834-2.09-3.473-3.84zm58.735-9.69c1.055 2.58-2.826 4.34-4.066 1.71-4.741 2.66-6.69 6.69-5.68 11.82h25.521c-0.22-1.89-0.759-3.86-1.598-5.84-2.97-6.96-7.805-9.57-14.177-7.69zm2.995-66.331h-0.632c0.164 0.15 0.392 0.137 0.632 0zm-51.742 72.391c-0.7-1.91-2.818-2.89-4.734-2.2-1.919 0.69-2.91 2.81-2.212 4.72 0.7 1.91 2.819 2.89 4.736 2.2 1.92-0.69 2.909-2.81 2.21-4.72zm18.038-65.212c-0.776 0.844 0.493 2.01 1.277 1.158 0.27-0.197 0.547-0.092 0.815 0.103 0.971 0.733 1.635 1.078 2.96 1.078 0.784 0 1.397-0.15 1.899-0.382 0.461-0.211 1.429-1.139 1.894-0.799 0.782 0.85 2.053-0.314 1.276-1.158 0 0-0.092-0.105-0.271-0.234-1.843-1.342-2.972 0.858-4.8 0.858-1.822 0-2.926-2.213-4.779-0.858-0.178 0.129-0.271 0.234-0.271 0.234zm10.676-17.468c2.566-1.715 9.188-4.368 15.077-2.643 1.851 0.542 2.44-0.484 0.765-1.427-1.98-1.12-4.02-1.692-6.558-1.792-3.819-0.151-7.452 1.022-10.571 3.106-1.807 1.21-0.521 3.965 1.287 2.756zm23.034 10.288c0.464-0.27 0.99-1.008 1.255-1.974 0.194-0.704 0.162-1.05 0.04-1.522 0.55-2.042 1.379-3.5 2.18-4.093 0.963-0.707 0.012-2.059-0.952-1.352-1.231 0.904-2.199 2.682-2.818 4.814-0.134 0.428-0.333 1.132-0.523 2.249-0.184 1.067-0.072 1.657 0.177 1.879l0.641-0.001zm-38.526-6.057c0.059-0.884-0.333-1.686-0.988-2.188 1.961 0.513 3.361 1.684 3.824 2.927 0.413 1.131 2.116 0.5 1.696-0.626-0.904-2.427-3.728-4.125-6.933-4.349-2.059-0.143-4.001 0.341-5.453 1.306l-1.385-0.612c-1.052-0.467-1.747 1.103-0.698 1.568l0.69 0.305c-0.075 0.091-0.143 0.182-0.208 0.279l-1.557-0.447c-1.106-0.316-1.58 1.335-0.475 1.651l2.269 0.65c0.485 0.138 0.85-0.103 1.045-0.493 0.674-1.247 2.321-2.258 4.484-2.407-0.767 0.388-1.319 1.16-1.385 2.078-0.098 1.402 0.957 2.611 2.359 2.711 1.403 0.097 2.617-0.958 2.715-2.353zm-10.878-6.874c5.891-1.725 12.519 0.928 15.077 2.643 1.81 1.209 3.095-1.545 1.29-2.756-3.122-2.083-6.751-3.257-10.572-3.106-2.539 0.1-4.578 0.672-6.559 1.792-1.672 0.943-1.084 1.969 0.764 1.427zm41.581 5.037l-1.552 0.447c-0.068-0.096-0.137-0.188-0.209-0.28l0.691-0.305c1.054-0.466 0.351-2.036-0.699-1.568l-1.381 0.611c-1.447-0.964-3.391-1.449-5.45-1.306-3.213 0.224-6.035 1.924-6.941 4.349-0.418 1.127 1.28 1.757 1.698 0.626 0.464-1.242 1.861-2.413 3.821-2.927-0.651 0.502-1.046 1.305-0.984 2.188 0.099 1.395 1.311 2.45 2.716 2.353 1.395-0.1 2.454-1.309 2.358-2.71-0.065-0.919-0.619-1.691-1.386-2.079 2.167 0.15 3.811 1.162 4.516 2.457 0.161 0.342 0.523 0.583 1.014 0.445l2.271-0.65c1.099-0.316 0.622-1.967-0.483-1.651zm-49.243 3.766c-0.619-2.133-1.586-3.911-2.816-4.815-0.965-0.707-1.918 0.645-0.955 1.353 0.804 0.592 1.641 2.051 2.185 4.093-0.125 0.471-0.155 0.818 0.041 1.522 0.268 0.967 0.791 1.705 1.255 1.976h0.008c0.237 0.135 0.464 0.15 0.628 0h0.005c0.246-0.222 0.354-0.812 0.174-1.879-0.192-1.119-0.389-1.821-0.525-2.25z"/>
         </g>
        </g>
        <path id="Shape" d="m58.176 130.59l-0.091-0.02c-0.071-0.03-0.1 0.08 0.001 0.13l-0.098-0.01c-0.072-0.02-0.09 0.09-0.018 0.1l0.147 0.03c0.031 0 0.052-0.02 0.061-0.04 0.031-0.09 0.126-0.16 0.262-0.19-0.045 0.03-0.075 0.08-0.073 0.14 0.006 0.09 0.08 0.16 0.167 0.16 0.09-0.01 0.159-0.09 0.153-0.17-0.003-0.06-0.033-0.1-0.08-0.13 0.127 0.02 0.223 0.08 0.262 0.15 0.034 0.07 0.136 0.02 0.1-0.05-0.075-0.14-0.263-0.23-0.465-0.22-0.129 0.01-0.245 0.05-0.328 0.12z" fill="#000"/>
        <path id="Shape" fill="#000" d="m48.537 103.59c0.041 0.06 0.091 0.11 0.153 0.15 0.061 0.04 0.128 0.06 0.195 0.07 0.068 0.02 0.14 0.01 0.209 0 0.071-0.02 0.134-0.05 0.195-0.09 0.057-0.04 0.104-0.09 0.144-0.15 0.038-0.07 0.062-0.13 0.073-0.2 0.015-0.07 0.012-0.14-0.006-0.21-0.016-0.07-0.045-0.14-0.088-0.19-0.041-0.06-0.091-0.11-0.15-0.15-0.063-0.04-0.129-0.06-0.199-0.07-0.069-0.01-0.138-0.01-0.21 0.01-0.069 0.01-0.135 0.04-0.191 0.08s-0.105 0.1-0.146 0.16c-0.037 0.06-0.062 0.12-0.072 0.19-0.012 0.07-0.009 0.14 0.006 0.22 0.017 0.06 0.047 0.13 0.087 0.18z"/>
        <path id="Shape" fill="#000" d="m49.871 109.37c0.042 0.05 0.09 0.1 0.152 0.14s0.128 0.06 0.197 0.08c0.069 0.01 0.14 0 0.211-0.01 0.069-0.02 0.134-0.05 0.189-0.09 0.059-0.04 0.108-0.09 0.145-0.15 0.038-0.06 0.063-0.13 0.073-0.2 0.014-0.07 0.012-0.14-0.004-0.21-0.018-0.07-0.047-0.13-0.088-0.19-0.043-0.06-0.092-0.11-0.152-0.15-0.063-0.03-0.127-0.06-0.199-0.07-0.069-0.01-0.137-0.01-0.21 0.01-0.068 0.02-0.133 0.04-0.19 0.09-0.056 0.04-0.105 0.09-0.144 0.15s-0.064 0.12-0.075 0.19c-0.012 0.07-0.009 0.14 0.009 0.22 0.014 0.06 0.044 0.13 0.086 0.19z"/>
        <path id="Shape" fill="#000" d="m49.604 108.21c0.041 0.06 0.091 0.11 0.153 0.15 0.061 0.03 0.126 0.06 0.197 0.07 0.067 0.01 0.137 0.01 0.209-0.01 0.07-0.01 0.135-0.04 0.193-0.08 0.055-0.04 0.106-0.1 0.142-0.16 0.04-0.06 0.065-0.12 0.077-0.19 0.01-0.07 0.007-0.14-0.006-0.21-0.018-0.07-0.049-0.14-0.088-0.2-0.042-0.05-0.093-0.1-0.153-0.14-0.062-0.04-0.127-0.06-0.198-0.07-0.07-0.02-0.136-0.02-0.21 0-0.069 0.02-0.134 0.05-0.19 0.09s-0.107 0.09-0.146 0.15c-0.038 0.06-0.063 0.13-0.073 0.2-0.013 0.07-0.011 0.14 0.007 0.21 0.015 0.07 0.047 0.13 0.086 0.19z"/>
        <path id="Shape" fill="#000" d="m50.136 110.52c0.04 0.05 0.093 0.11 0.155 0.14 0.059 0.04 0.126 0.07 0.193 0.08 0.072 0.01 0.141 0.01 0.213-0.01 0.069-0.02 0.132-0.05 0.19-0.09 0.057-0.04 0.106-0.09 0.144-0.15s0.063-0.12 0.075-0.2c0.012-0.06 0.009-0.13-0.009-0.21-0.014-0.06-0.044-0.13-0.084-0.19-0.041-0.05-0.091-0.1-0.153-0.14-0.061-0.04-0.126-0.06-0.197-0.08-0.069-0.01-0.138 0-0.209 0.01-0.07 0.02-0.135 0.05-0.19 0.09-0.059 0.04-0.107 0.09-0.145 0.15-0.039 0.06-0.064 0.13-0.075 0.2-0.012 0.07-0.009 0.14 0.007 0.21s0.046 0.13 0.085 0.19z"/>
        <path id="Shape" fill="#000" d="m48.801 104.75c0.042 0.05 0.095 0.1 0.153 0.14 0.062 0.04 0.129 0.07 0.196 0.08 0.071 0.01 0.142 0.01 0.211-0.01 0.072-0.02 0.134-0.04 0.192-0.09 0.056-0.04 0.105-0.09 0.143-0.15 0.04-0.06 0.062-0.13 0.077-0.2 0.012-0.07 0.009-0.14-0.009-0.21-0.016-0.07-0.044-0.13-0.087-0.19-0.04-0.06-0.093-0.1-0.153-0.14s-0.127-0.07-0.196-0.08-0.14-0.01-0.209 0.01c-0.07 0.02-0.135 0.04-0.191 0.09-0.059 0.03-0.107 0.09-0.146 0.15s-0.062 0.12-0.076 0.19c-0.011 0.07-0.008 0.14 0.009 0.22 0.017 0.07 0.045 0.13 0.086 0.19z"/>
        <path id="Shape" fill="#000" d="m49.336 107.06c0.042 0.05 0.094 0.1 0.153 0.14 0.064 0.04 0.128 0.06 0.2 0.07 0.066 0.02 0.137 0.01 0.207 0 0.068-0.02 0.134-0.04 0.195-0.09 0.054-0.04 0.104-0.09 0.142-0.15 0.04-0.07 0.065-0.13 0.077-0.2 0.009-0.07 0.006-0.14-0.009-0.21-0.018-0.07-0.046-0.13-0.087-0.19s-0.092-0.11-0.153-0.14c-0.06-0.04-0.128-0.07-0.196-0.08-0.069-0.01-0.139-0.01-0.21 0.01-0.072 0.01-0.134 0.04-0.193 0.09-0.056 0.04-0.104 0.09-0.143 0.15s-0.061 0.12-0.076 0.19c-0.012 0.07-0.009 0.14 0.009 0.21 0.014 0.08 0.045 0.14 0.084 0.2z"/>
        <path id="Shape" fill="#000" d="m50.404 111.67c0.04 0.06 0.091 0.11 0.153 0.15s0.128 0.06 0.196 0.07c0.071 0.01 0.14 0.01 0.21 0 0.071-0.02 0.134-0.05 0.19-0.09 0.059-0.04 0.109-0.09 0.147-0.16 0.037-0.06 0.061-0.12 0.074-0.19 0.012-0.07 0.009-0.14-0.009-0.21-0.015-0.07-0.044-0.14-0.085-0.19-0.041-0.06-0.091-0.11-0.153-0.15-0.061-0.04-0.127-0.06-0.196-0.07-0.069-0.02-0.141-0.01-0.208 0-0.072 0.02-0.135 0.05-0.194 0.09-0.056 0.04-0.104 0.09-0.143 0.15-0.038 0.06-0.063 0.13-0.075 0.2-0.011 0.07-0.008 0.14 0.006 0.21 0.018 0.07 0.046 0.14 0.087 0.19z"/>
        <path id="Shape" fill="#000" d="m49.069 105.9c0.041 0.06 0.093 0.11 0.153 0.15 0.062 0.04 0.127 0.06 0.198 0.07 0.069 0.01 0.139 0.01 0.21-0.01 0.068-0.01 0.134-0.04 0.19-0.08s0.106-0.09 0.143-0.16c0.041-0.06 0.064-0.13 0.078-0.19 0.01-0.07 0.007-0.14-0.009-0.21-0.018-0.08-0.044-0.14-0.086-0.2-0.041-0.05-0.092-0.1-0.153-0.14-0.06-0.04-0.126-0.06-0.195-0.08-0.071-0.01-0.142 0-0.209 0.01-0.072 0.02-0.134 0.05-0.193 0.09s-0.106 0.09-0.143 0.15c-0.04 0.07-0.063 0.13-0.078 0.2-0.012 0.07-0.009 0.14 0.009 0.21 0.016 0.07 0.044 0.14 0.085 0.19z"/>
        <path id="Shape" fill="#000" d="m50.67 112.83c0.042 0.06 0.093 0.1 0.154 0.14 0.063 0.04 0.128 0.06 0.198 0.08 0.069 0.01 0.137 0.01 0.208-0.01 0.072-0.02 0.135-0.04 0.193-0.09 0.057-0.04 0.107-0.09 0.144-0.15 0.038-0.06 0.063-0.13 0.075-0.2s0.009-0.14-0.009-0.21c-0.015-0.07-0.046-0.13-0.087-0.19s-0.09-0.1-0.151-0.14c-0.062-0.04-0.128-0.07-0.198-0.08-0.069-0.01-0.139-0.01-0.209 0.01s-0.135 0.04-0.194 0.09c-0.054 0.03-0.104 0.09-0.141 0.15-0.041 0.06-0.063 0.12-0.077 0.19-0.011 0.08-0.009 0.14 0.008 0.22 0.017 0.07 0.045 0.13 0.086 0.19z"/>
        <path id="Shape" fill="#000" d="m52.08 114.51c-0.041-0.06-0.092-0.11-0.153-0.14-0.06-0.04-0.126-0.07-0.195-0.08-0.07-0.01-0.14-0.01-0.211 0-0.069 0.02-0.134 0.05-0.19 0.1-0.059 0.03-0.107 0.09-0.147 0.15-0.038 0.06-0.063 0.12-0.075 0.19-0.012 0.08-0.009 0.14 0.009 0.22 0.018 0.07 0.046 0.13 0.087 0.19 0.041 0.05 0.092 0.1 0.153 0.14 0.06 0.04 0.128 0.06 0.196 0.08 0.069 0.01 0.141 0.01 0.21-0.01 0.072-0.02 0.134-0.04 0.193-0.09 0.057-0.04 0.104-0.09 0.143-0.15s0.061-0.13 0.073-0.2c0.015-0.07 0.012-0.14-0.006-0.21-0.017-0.07-0.045-0.13-0.087-0.19z"/>
        <path id="Shape" fill="#000" d="m51.814 113.36c-0.041-0.06-0.093-0.11-0.15-0.15-0.065-0.04-0.13-0.06-0.2-0.07-0.068-0.02-0.137-0.01-0.209 0-0.071 0.02-0.136 0.05-0.192 0.09-0.055 0.04-0.104 0.09-0.142 0.15-0.042 0.06-0.065 0.13-0.077 0.2-0.013 0.07-0.01 0.14 0.008 0.21 0.016 0.07 0.047 0.14 0.086 0.19 0.04 0.06 0.092 0.11 0.153 0.14 0.061 0.05 0.128 0.07 0.196 0.08 0.069 0.01 0.14 0.01 0.209-0.01 0.072-0.01 0.137-0.04 0.194-0.08 0.058-0.04 0.106-0.09 0.145-0.16 0.038-0.06 0.061-0.13 0.073-0.19 0.012-0.07 0.01-0.15-0.006-0.21-0.016-0.08-0.048-0.14-0.088-0.19z"/>
        <path id="Shape" fill="#000" d="m52.348 115.66c-0.04-0.05-0.091-0.1-0.153-0.14-0.059-0.04-0.125-0.06-0.194-0.08-0.072-0.01-0.141 0-0.211 0.01-0.07 0.02-0.132 0.05-0.191 0.09s-0.106 0.09-0.146 0.15c-0.038 0.06-0.061 0.13-0.075 0.2-0.011 0.07-0.008 0.14 0.009 0.21 0.016 0.07 0.044 0.13 0.086 0.19 0.041 0.06 0.091 0.11 0.153 0.14 0.06 0.05 0.126 0.07 0.195 0.08 0.07 0.01 0.142 0.01 0.212-0.01 0.069-0.01 0.131-0.04 0.19-0.08 0.056-0.04 0.105-0.09 0.143-0.15 0.041-0.07 0.063-0.13 0.076-0.2 0.011-0.07 0.011-0.14-0.007-0.21-0.018-0.08-0.044-0.14-0.087-0.2z"/>
        <path id="Shape" fill="#000" d="m52.057 116.61c-0.072 0.02-0.134 0.05-0.193 0.09-0.057 0.04-0.104 0.09-0.144 0.15-0.038 0.06-0.061 0.13-0.075 0.19-0.012 0.07-0.009 0.15 0.009 0.22 0.014 0.07 0.044 0.13 0.083 0.19 0.042 0.05 0.095 0.1 0.154 0.14 0.053 0.03 0.107 0.06 0.164 0.07l0.149-0.02 0.212-0.02c0.026-0.02 0.048-0.03 0.072-0.05 0.057-0.04 0.107-0.09 0.144-0.15 0.039-0.06 0.064-0.13 0.077-0.2 0.01-0.07 0.007-0.14-0.008-0.21-0.017-0.07-0.045-0.13-0.086-0.19-0.04-0.05-0.092-0.11-0.155-0.14-0.059-0.04-0.125-0.07-0.193-0.08-0.072-0.01-0.141-0.01-0.21 0.01z"/>
       </g>
      </g>
     </g>
     <g id="Group-30" sketch:type="MSShapeGroup" transform="translate(62)">
      <path id="Path" stroke="#8666C4" fill="#8666C4" d="m105.5 59.791c-1.66 0.399-3.01 1.356-3.77 2.562-0.71 1.111-2.358 0.04-1.65-1.069 1.42-2.237 4.12-3.678 7.16-3.678 3.03 0 5.71 1.445 7.13 3.678 0.71 1.109-0.95 2.18-1.65 1.069-0.79-1.24-2.18-2.212-3.89-2.594 0.57 0.479 0.94 1.206 0.94 2.018 0 1.443-1.16 2.613-2.59 2.613-1.42 0-2.58-1.172-2.58-2.613 0-0.797 0.35-1.507 0.9-1.986z"/>
      <path id="Path" stroke="#8666C4" fill="#8666C4" d="m107.3 50.84c4.93-0.101 9.06 2.26 9.13 3.691 0.1 2.387-0.23 1.662-2.15 0.929-2.69-1.027-5-1.329-6.96-1.22-1.87 0.022-4.06 0.431-6.58 1.496-1.918 0.809-2.25 1.549-2.144-0.843 0.059-1.4 4.004-3.959 8.704-4.053z"/>
      <path id="Path" stroke="#8666C4" fill="#8666C4" d="m83.143 59.791c0.55 0.479 0.899 1.189 0.899 1.986 0 1.443-1.157 2.613-2.583 2.613-1.431 0-2.586-1.172-2.586-2.613 0-0.812 0.366-1.537 0.939-2.018-1.714 0.382-3.1 1.354-3.888 2.594-0.706 1.111-2.355 0.04-1.652-1.069 1.417-2.235 4.106-3.678 7.135-3.678 3.031 0 5.736 1.443 7.16 3.678 0.705 1.109-0.948 2.18-1.652 1.069-0.764-1.206-2.112-2.163-3.772-2.562z"/>
      <path id="Path" stroke="#8666C4" fill="#8666C4" d="m81.348 50.84c4.691 0.095 8.643 2.654 8.702 4.053 0.108 2.392-0.228 1.652-2.145 0.843-2.517-1.065-4.705-1.474-6.579-1.496-1.961-0.109-4.27 0.193-6.966 1.22-1.915 0.733-2.251 1.458-2.143-0.929 0.066-1.431 4.201-3.792 9.131-3.691z"/>
      <path id="Path" stroke="#8666C4" fill="#8666C4" d="m92.768 60.252c0.55-0.046 1.106-0.069 1.67-0.069 0.567 0 1.123 0.023 1.68 0.069 1.162 0.093 1.021 1.861-0.142 1.765-0.507-0.039-1.02-0.061-1.538-0.061s-1.024 0.022-1.525 0.061c-1.166 0.096-1.304-1.67-0.145-1.765z"/>
      <g id="noun_234769_cc">
       <g id="Group">
        <path id="Shape" fill="#8666C4" d="m125.69 60.264l-0.04 0.098c-0.12 0.344-0.56 1.147-0.71 1.427-1.91 3.805-3.53 3.551-3.29 1.514 0.03-0.246 0.53-6.741 0.53-6.741 0.95-6.307-3.39-8.033-3.39-10.442 0-2.193 3.26-6.89 4.06-8.291 2.83-5.006-2.47-13.465-9.81-12.097-7.11 1.328-11.46 10.011-18.981 10.355-0.709-0.033-1.38-0.135-2.027-0.301-8.615-1.819-17.191 2.242-19.965 9.886l-0.131 0.371c0.1-0.342 0.212-0.676 0.331-1.012 2.429-6.661 8.887-10.773 16.005-10.898l-0.412-0.26c-3.243-1.921-7.994-2.834-14.006-2.299-1.964 0.174-3.876 0.53-5.703 1.044 2.875-1.552 6.32-2.588 9.94-2.834 1.644-0.111 3.211-0.051 4.675 0.158-2.371-1.917-4.804-3.668-7.695-4.208-7.339-1.368-12.639 7.091-9.803 12.097 0.793 1.401 4.055 6.098 4.055 8.291 0 2.409-4.339 4.137-3.383 10.442 0 0 0.495 6.495 0.524 6.741 0.236 2.037-1.38 2.291-3.291-1.514-0.184-0.37-0.352-0.792-0.52-1.267-0.059-0.078-0.116-0.174-0.168-0.279-0.647-1.343-4.304-2.582-5.614-3.395-3.877-2.404-4.301 6.477-0.475 9.989 4.167 3.825 1.711 8.807 7.883 8.807 0.604 0 1.016 0.358 1.171 0.889 1.151 5.162 1.364 9.741 3.631 14.729 2.355 5.187 6.688 10.586 15.153 14.466-0.041-0.19-0.072-0.38-0.092-0.6-0.113-1.3 1.843-1.47 1.955-0.17 0.232 2.63 5.027 3.26 7.436 3.31h1.128c2.412-0.05 7.199-0.68 7.439-3.31 0.11-1.3 2.07-1.13 1.96 0.17-0.02 0.22-0.06 0.41-0.1 0.6 8.47-3.88 12.8-9.279 15.16-14.466 2.26-4.99 2.48-9.567 3.63-14.729 0.15-0.531 0.56-0.889 1.17-0.889 6.17 0 3.71-4.982 7.88-8.807 3.82-3.512 3.4-12.393-0.48-9.989-1.31 0.813-4.96 2.052-5.61 3.395l-0.02 0.019zm-52.407-47.746c1.82-0.77 3.802-1.346 5.928-1.683 13.07-2.1055 23.059 3.694 26.029 12.806-0.02-0.942-0.14-1.902-0.37-2.867-2.03-8.246-11.749-13.844-21.713-12.503-0.5 0.0654-0.987 0.1473-1.468 0.2497 0.663-0.2007 1.335-0.385 2.019-0.5447 14.762-3.5118 24.312 1.5603 25.432 10.806 0.21-0.985 0.3-1.978 0.27-2.963-0.29-8.4348-9.601-13.325-20.794-10.923-4.167 0.8951-8.011 2.6745-11.174 4.9905-1.561 0.7065-2.961 1.5975-4.159 2.6315zm51.107 165.76h27.43l-13.71-8.46-13.72 8.46zm-49.496-69.54l-4.498 14.16 6.391 20.72 16.545-23.47c0.504-0.71 1.3-0.71 1.804 0l16.544 23.47 6.39-20.72-4.52-14.21c-2.96 7.4-12.37 10.58-19.354 10.58-6.985 0-16.318-3.17-19.302-10.53zm1.219-5.55l0.34 3.2c1.359 5.84 8.582 10.68 17.741 10.68 9.156 0 16.416-4.83 17.776-10.68l0.36-3.4c-2.81 2.22-6.15 4.06-10.06 5.59-2.15 1.01-4.216 1.41-5.74 1.58-0.78 0.08-1.427 0.1-1.888 0.1-0.196 0-0.385 0-0.571-0.01-0.452 0-1.683-0.01-2.42-0.09-1.524-0.16-3.588-0.57-5.736-1.58-3.786-1.48-7.042-3.26-9.802-5.39zm38.167 2.38c0.36 0.05 0.69 0.29 0.84 0.75l4.87 15.36 14.3 5.73 32.51 8.47s8.93-0.46 11.22 10.07c0.92 4.21 6.78 28.36 10.44 43.37h-75.77l5.54-59.45-5.11 16.55c-0.33 1.08-1.3 1.24-1.95 0.31l-9.77-13.86-2.378 4.38 8.388 52.07h-26.358l8.383-52.07-2.371-4.38-9.77 13.86c-0.651 0.93-1.623 0.77-1.955-0.31l-5.107-16.55 5.531 59.45h-75.763c3.6592-15.01 9.5218-39.16 10.435-43.37 2.291-10.53 11.221-10.07 11.221-10.07l32.516-8.47 14.293-5.73 4.879-15.36c0.14-0.45 0.457-0.68 0.801-0.75l-0.465-4.47c-4.712-4.5-7.628-10.309-9.042-17.675-0.437-2.275-0.676-4.271-0.981-5.829-7.151-0.308-4.868-5.886-8.599-9.313-5.752-5.283-3.411-16.986 2.841-13.104 1.228 0.76 2.606 1.243 3.851 1.972-1.067-4.783-2.191-11.882-5.24-20.012-2.676-7.15-3.374-13.41 2.212-18.37 1.187-0.442 2.504-0.77 3.935-0.98 12.391-1.811 24.9 4.365 31.668 13.742-0.403-0.961-0.919-1.94-1.564-2.933-5.439-8.471-17.607-14.434-27.161-13.324-0.78 0.09-1.519 0.225-2.216 0.403 2.077-1.058 4.575-2.037 7.567-2.928 0.931-1.409 2.367-2.676 4.187-3.7308-0.608 0.1352-1.317 0.3625-2.035 0.6-3.76 1.2568-7.464 2.8338-11.023 4.6548 5.32-3.965 11.485-7.3188 17.885-9.516-2.304 0.2662-4.712 0.6901-7.223 1.2737-3.563 0.8334-6.986 2.0026-10.205 3.4483 4.867-3.7023 10.91-6.5465 17.501-7.9389 3.408-0.71878 6.698-0.98498 9.77-0.86212 14.652-3.0163 22.882 4.6052 22.532 11.551 4.65-1.376 8.47-0.831 11.54 0.893-7.24-0.684-12.92 2.772-13.12 8.336-0.02 0.721 0.04 1.446 0.2 2.164 0.75-6.055 6.55-9.661 15.66-8.487 5.64 5.266 7.58 15.063 4.98 22.004-3.12 8.338-4.04 15.29-5.05 19.943 1.22-0.69 2.55-1.167 3.73-1.903 6.26-3.882 8.6 7.821 2.84 13.104-3.73 3.427-1.44 9.003-8.6 9.313-0.29 1.558-0.54 3.552-0.97 5.829-1.39 7.227-4.22 12.95-8.78 17.425l-0.49 4.72zm16.65-43.957c1.27 0.312 0.8 2.222-0.47 1.907-0.88-0.217-1.7 0.106-2.96 2.434 0.32 0.389 0.41 1.067 0.19 1.825-0.34 1.175-1.3 2.15-2.13 2.084-1.85-0.145-0.68-2.885-0.56-3.151 1.36-3.459 3.21-5.772 5.93-5.099zm-38.907 39.717h4.864c1.308 0 1.308 1.96 0 1.96h-4.864c-1.312 0-1.312-1.96 0-1.96zm-34.767-39.717c2.723-0.673 4.57 1.643 5.934 5.097 0.112 0.266 1.288 3.006-0.555 3.151-0.844 0.066-1.804-0.907-2.14-2.084-0.215-0.758-0.127-1.434 0.193-1.825-1.264-2.33-2.085-2.653-2.959-2.434-1.272 0.317-1.745-1.593-0.473-1.905z"/>
        <path id="Line" stroke="#fff" stroke-linecap="square" d="m170.5 135.5l6 5"/>
       </g>
       <path id="Line" stroke="#fff" stroke-linecap="square" d="m175.5 139.5l7 22"/>
       <path id="Line" stroke="#fff" stroke-linecap="square" d="m177.5 142.5v3"/>
      </g>
      <path id="Path" stroke="#8666C4" fill="#8666C4" d="m105.73 83.213c-0.73 0.212-1.04-0.923-0.31-1.135 1.57-0.456 3.15 1.173 3.31 2.691 0.08 0.784-1.06 0.912-1.14 0.129-0.08-0.808-1.01-1.93-1.86-1.685z"/>
      <path id="Path" stroke="#8666C4" fill="#8666C4" d="m82.006 83.213c-0.851-0.245-1.779 0.877-1.864 1.685-0.086 0.783-1.22 0.655-1.138-0.128 0.161-1.519 1.738-3.149 3.31-2.692 0.735 0.212 0.427 1.347-0.308 1.135z"/>
      <path id="Path" stroke="#8666C4" fill="#8666C4" d="m103.08 87.019c-0.03 0.026-0.05 0.05-0.08 0.076-3.154 3.012-3.635 5.288-8.939 5.291-5.299-0.003-5.772-2.28-8.93-5.291-0.027-0.027-0.051-0.052-0.074-0.079-0.521-0.149-1.042-0.332-1.597-0.562-0.898-0.373-0.355-1.764 0.544-1.391 1.921 0.798 3.395 0.99 6.322 1.085 0 0 1.518 0.069 3.739 0.085 2.228-0.016 3.751-0.085 3.751-0.085 2.924-0.095 4.404-0.287 6.324-1.085 0.9-0.372 1.44 1.02 0.54 1.391-0.55 0.23-1.08 0.416-1.6 0.565z"/>
      <path id="Path" stroke="#8666C4" fill="#8666C4" d="m88.093 75.698s0.104-0.122 0.307-0.27c1.034-0.764 2.292-0.616 3.322 0.162 0.455 0.345 0.948 0.584 2.52 0.584 1.583 0 2.099-0.241 2.554-0.584 1.068-0.81 2.703-0.96 3.624 0.108 0.79 0.871-0.501 2.071-1.289 1.199-0.457-0.338-0.899-0.183-1.289 0.109l-0.121 0.092c-0.039 0.043-0.09 0.086-0.139 0.125-1.034 0.796-1.855 1.617-3.298 1.614-1.446 0.003-2.281-0.818-3.312-1.614-0.121-0.084-0.214-0.149-0.307-0.217-0.455-0.343-0.84-0.437-1.285-0.109-0.786 0.872-2.079-0.328-1.287-1.199z"/>
      <path id="Path" stroke="#8666C4" fill="#8666C4" d="m99.005 69.623c0.467 0.564 0.992 0.938 1.475 1.127 1.09 0.435 0.44 2.085-0.645 1.648-0.792-0.315-1.542-0.877-2.172-1.636-0.75-0.904 0.591-2.044 1.342-1.139z"/>
      <path id="Path" stroke="#8666C4" fill="#8666C4" d="m90.105 70.762c-0.629 0.759-1.38 1.321-2.171 1.636-1.088 0.437-1.729-1.213-0.643-1.648 0.481-0.189 1.006-0.563 1.473-1.127 0.754-0.905 2.092 0.235 1.341 1.139z"/>
     </g>
     <path id="Line" sketch:type="MSShapeGroup" stroke="#fff" stroke-linecap="square" d="m74.5 139.5l-13 53"/>
    </g>
   </g>
  </g>
 </g>
</svg>
