<?xml version="1.0" encoding="UTF-8" standalone="no"?>
<svg width="87px" height="85px" viewBox="0 0 87 85" version="1.1" xmlns="http://www.w3.org/2000/svg" xmlns:xlink="http://www.w3.org/1999/xlink" xmlns:sketch="http://www.bohemiancoding.com/sketch/ns">
    <!-- Generator: Sketch 3.5 (25232) - http://www.bohemiancoding.com/sketch -->
    <title>noun_313265_cc</title>
    <desc>Created with Sketch.</desc>
    <defs></defs>
    <g id="Page-1" stroke="none" stroke-width="1" fill="none" fill-rule="evenodd" sketch:type="MSPage">
        <g id="noun_313265_cc" sketch:type="MSLayerGroup" fill="#FFFFFF">
            <g id="Group" sketch:type="MSShapeGroup">
                <g>
                    <path d="M83.692,0.317 L4.058,0.317 C2.234,0.317 0.75,1.8 0.75,3.625 L0.75,81.284 C0.75,83.108 2.233,84.592 4.058,84.592 L83.693,84.592 C85.517,84.592 87.001,83.109 87.001,81.284 L87.001,3.625 C87,1.801 85.517,0.317 83.692,0.317 L83.692,0.317 Z M4.058,3.317 L83.693,3.317 C83.86,3.317 84.001,3.458 84.001,3.625 L84.001,10.172 L3.75,10.172 L3.75,3.625 C3.75,3.458 3.891,3.317 4.058,3.317 L4.058,3.317 Z M83.692,81.592 L4.058,81.592 C3.891,81.592 3.75,81.451 3.75,81.284 L3.75,13.172 L84,13.172 L84,81.284 C84,81.451 83.859,81.592 83.692,81.592 L83.692,81.592 Z" id="Shape"></path>
                    <circle id="Oval" cx="9.927" cy="6.682" r="1.487"></circle>
                    <circle id="Oval" cx="14.275" cy="6.682" r="1.487"></circle>
                    <circle id="Oval" cx="18.715" cy="6.682" r="1.487"></circle>
                    <path d="M76.633,21.044 C76.349,20.74 75.952,20.567 75.536,20.567 L75.016,20.567 L64.04,20.567 L9.403,20.567 C8.575,20.567 7.903,21.239 7.903,22.067 L7.903,28.407 C7.903,29.235 8.575,29.907 9.403,29.907 L64.04,29.907 L75.017,29.907 L75.537,29.907 C75.953,29.907 76.349,29.734 76.634,29.43 L79.594,26.26 C80.132,25.684 80.132,24.789 79.594,24.213 L76.633,21.044 L76.633,21.044 Z M10.903,23.567 L62.54,23.567 L62.54,26.907 L10.903,26.907 L10.903,23.567 L10.903,23.567 Z" id="Shape"></path>
                    <path d="M14.275,38.574 L9.403,38.574 C8.575,38.574 7.903,39.246 7.903,40.074 C7.903,40.902 8.575,41.574 9.403,41.574 L14.275,41.574 C15.103,41.574 15.775,40.902 15.775,40.074 C15.775,39.246 15.104,38.574 14.275,38.574 L14.275,38.574 Z" id="Shape"></path>
                    <path d="M57.134,38.574 L19.64,38.574 C18.812,38.574 18.14,39.246 18.14,40.074 C18.14,40.902 18.812,41.574 19.64,41.574 L57.134,41.574 C57.962,41.574 58.634,40.902 58.634,40.074 C58.634,39.246 57.962,38.574 57.134,38.574 L57.134,38.574 Z" id="Shape"></path>
                    <path d="M14.275,45.975 L9.403,45.975 C8.575,45.975 7.903,46.647 7.903,47.475 C7.903,48.303 8.575,48.975 9.403,48.975 L14.275,48.975 C15.103,48.975 15.775,48.303 15.775,47.475 C15.775,46.647 15.104,45.975 14.275,45.975 L14.275,45.975 Z" id="Shape"></path>
                    <path d="M57.134,45.975 L19.64,45.975 C18.812,45.975 18.14,46.647 18.14,47.475 C18.14,48.303 18.812,48.975 19.64,48.975 L57.134,48.975 C57.962,48.975 58.634,48.303 58.634,47.475 C58.634,46.647 57.962,45.975 57.134,45.975 L57.134,45.975 Z" id="Shape"></path>
                    <path d="M14.275,53.374 L9.403,53.374 C8.575,53.374 7.903,54.046 7.903,54.874 C7.903,55.702 8.575,56.374 9.403,56.374 L14.275,56.374 C15.103,56.374 15.775,55.702 15.775,54.874 C15.775,54.046 15.104,53.374 14.275,53.374 L14.275,53.374 Z" id="Shape"></path>
                    <path d="M57.134,53.374 L19.64,53.374 C18.812,53.374 18.14,54.046 18.14,54.874 C18.14,55.702 18.812,56.374 19.64,56.374 L57.134,56.374 C57.962,56.374 58.634,55.702 58.634,54.874 C58.634,54.046 57.962,53.374 57.134,53.374 L57.134,53.374 Z" id="Shape"></path>
                    <path d="M14.275,60.774 L9.403,60.774 C8.575,60.774 7.903,61.446 7.903,62.274 C7.903,63.102 8.575,63.774 9.403,63.774 L14.275,63.774 C15.103,63.774 15.775,63.102 15.775,62.274 C15.775,61.446 15.104,60.774 14.275,60.774 L14.275,60.774 Z" id="Shape"></path>
                    <path d="M57.134,60.774 L19.64,60.774 C18.812,60.774 18.14,61.446 18.14,62.274 C18.14,63.102 18.812,63.774 19.64,63.774 L57.134,63.774 C57.962,63.774 58.634,63.102 58.634,62.274 C58.634,61.446 57.962,60.774 57.134,60.774 L57.134,60.774 Z" id="Shape"></path>
                    <path d="M70.773,39.014 C70.634,38.875 70.467,38.764 70.283,38.688 C70.275,38.685 70.267,38.684 70.26,38.681 C70.09,38.614 69.907,38.575 69.713,38.575 C69.519,38.575 69.336,38.615 69.166,38.681 C69.158,38.684 69.15,38.685 69.143,38.688 C68.958,38.764 68.792,38.875 68.653,39.014 L61.5,46.167 C60.914,46.753 60.914,47.702 61.5,48.288 C61.793,48.581 62.177,48.727 62.561,48.727 C62.945,48.727 63.329,48.581 63.622,48.288 L68.215,43.695 L68.215,62.274 C68.215,63.102 68.887,63.774 69.715,63.774 C70.543,63.774 71.215,63.102 71.215,62.274 L71.215,43.695 L75.808,48.288 C76.101,48.581 76.485,48.727 76.869,48.727 C77.253,48.727 77.637,48.581 77.93,48.288 C78.516,47.702 78.516,46.753 77.93,46.167 L70.773,39.014 L70.773,39.014 Z" id="Shape"></path>
                </g>
            </g>
        </g>
    </g>
</svg>