<?xml version="1.0" encoding="UTF-8"?>
<svg width="77px" height="73px" viewBox="0 0 77 73" version="1.1" xmlns="http://www.w3.org/2000/svg" xmlns:xlink="http://www.w3.org/1999/xlink">
    <!-- Generator: Sketch 40.3 (33839) - http://www.bohemiancoding.com/sketch -->
    <title>Group</title>
    <desc>Created with Sketch.</desc>
    <defs></defs>
    <g id="Page-1" stroke="none" stroke-width="1" fill="none" fill-rule="evenodd">
        <g id="Group" transform="translate(0.000000, 0.500000)" fill="#FFFFFF">
            <path d="M56.844,49 L58.482,49 L58.482,46.886 L59.728,46.886 L59.728,45.444 L58.482,45.444 L58.482,39.662 L56.228,39.662 L52.392,45.57 L52.392,46.886 L56.844,46.886 L56.844,49 Z M56.844,41.132 L56.844,45.444 L54.002,45.444 L56.844,41.132 Z M61.156,48.118 C61.786,48.748 62.682,49.154 63.83,49.154 C66.532,49.154 67.946,47.026 67.946,44.338 C67.946,41.734 66.84,39.508 64.096,39.508 C62.01,39.508 60.652,40.922 60.652,42.644 C60.652,44.632 62.108,45.668 63.788,45.668 C64.88,45.668 65.86,44.982 66.294,44.352 L66.294,44.632 C66.294,46.158 65.524,47.698 63.83,47.698 C62.948,47.698 62.402,47.39 61.912,46.886 L61.156,48.118 Z M66.266,43.162 C65.804,43.834 65.02,44.254 64.222,44.254 C63.214,44.254 62.318,43.736 62.318,42.588 C62.318,41.846 62.962,40.964 64.18,40.964 C65.622,40.964 66.182,42.154 66.266,43.162 L66.266,43.162 Z M69.57,48.118 C70.2,48.748 71.096,49.154 72.244,49.154 C74.946,49.154 76.36,47.026 76.36,44.338 C76.36,41.734 75.254,39.508 72.51,39.508 C70.424,39.508 69.066,40.922 69.066,42.644 C69.066,44.632 70.522,45.668 72.202,45.668 C73.294,45.668 74.274,44.982 74.708,44.352 L74.708,44.632 C74.708,46.158 73.938,47.698 72.244,47.698 C71.362,47.698 70.816,47.39 70.326,46.886 L69.57,48.118 Z M74.68,43.162 C74.218,43.834 73.434,44.254 72.636,44.254 C71.628,44.254 70.732,43.736 70.732,42.588 C70.732,41.846 71.376,40.964 72.594,40.964 C74.036,40.964 74.596,42.154 74.68,43.162 L74.68,43.162 Z" id="499"></path>
            <path d="M71.367033,6.48791209 L41.9340659,35.7626374 L41.9340659,63.4549451 L29.2747253,71.6043956 L29.2747253,35.7626374 L0,6.40879121 L0,0 L71.367033,0 L71.367033,6.48791209 L71.367033,6.48791209 L71.367033,6.48791209 Z M68.1230769,3.16483516 L3.24395604,3.16483516 L3.24395604,4.74725275 L32.5186813,34.1010989 L32.5186813,65.2747253 L38.9274725,61.1604396 L38.8483516,34.021978 L68.1230769,4.66813187 L68.1230769,3.16483516 L68.1230769,3.16483516 L68.1230769,3.16483516 Z" id="Shape"></path>
        </g>
    </g>
</svg>