<?xml version="1.0" encoding="UTF-8" standalone="no"?>
<svg width="101px" height="76px" viewBox="0 0 101 76" version="1.1" xmlns="http://www.w3.org/2000/svg" xmlns:xlink="http://www.w3.org/1999/xlink" xmlns:sketch="http://www.bohemiancoding.com/sketch/ns">
    <!-- Generator: Sketch 3.5 (25232) - http://www.bohemiancoding.com/sketch -->
    <title>noun_97524_cc</title>
    <desc>Created with Sketch.</desc>
    <defs>
        <path id="path-1" d="M0.47178174,30.3936984 L29.8034836,27.2916984 L17.8074174,0.203412698 C5.90352052,5.53212698 -0.89044898,17.3618413 0.47178174,30.3936984"></path>
        <path id="path-3" d="M0.47178174,31.4631429 L29.8034836,28.3611429 L17.8074174,1.27285714 C5.90352052,6.60157143 -0.89044898,18.4312857 0.47178174,31.4631429"></path>
        <path id="path-5" d="M0.47178174,30.3936984 L29.8034836,27.2916984 L17.8074174,0.203412698 C5.90352052,5.53212698 -0.89044898,17.3618413 0.47178174,30.3936984"></path>
        <path id="path-7" d="M0.47178174,30.3936984 L29.8034836,27.2916984 L17.8074174,0.203412698 C5.90352052,5.53212698 -0.89044898,17.3618413 0.47178174,30.3936984"></path>
        <path id="path-9" d="M0.47178174,30.3936984 L29.8034836,27.2916984 L17.8074174,0.203412698 C5.90352052,5.53212698 -0.89044898,17.3618413 0.47178174,30.3936984"></path>
        <path id="path-11" d="M0.47178174,30.3936984 L29.8034836,27.2916984 L17.8074174,0.203412698 C5.90352052,5.53212698 -0.89044898,17.3618413 0.47178174,30.3936984"></path>
        <path id="path-13" d="M0.47178174,31.4631429 L29.8034836,28.3611429 L17.8074174,1.27285714 C5.90352052,6.60157143 -0.89044898,18.4312857 0.47178174,31.4631429"></path>
        <path id="path-15" d="M0.47178174,30.3936984 L29.8034836,27.2916984 L17.8074174,0.203412698 C5.90352052,5.53212698 -0.89044898,17.3618413 0.47178174,30.3936984"></path>
        <path id="path-17" d="M0.47178174,31.4631429 L29.8034836,28.3611429 L17.8074174,1.27285714 C5.90352052,6.60157143 -0.89044898,18.4312857 0.47178174,31.4631429"></path>
        <path id="path-19" d="M29.8034836,27.2916984 L17.8074174,0.203412698 C5.90352052,5.53212698 -0.89044898,17.3618413 0.47178174,30.3936984 L29.8034836,27.2916984 Z"></path>
        <path id="path-21" d="M29.6800705,0.997857143 L0.468657358,4.09671429 C0.581135124,5.17314286 0.726418904,6.105 0.949812245,7.16257143 C4.32102084,23.1895714 19.9179377,33.4211429 35.7851136,30.0142857"></path>
        <path id="path-23" d="M29.6800705,0.997857143 L0.468657358,4.09671429 C0.581135124,5.17314286 0.726418904,6.105 0.949812245,7.16257143 C4.32102084,23.1895714 19.9179377,33.4211429 35.7851136,30.0142857"></path>
        <path id="path-25" d="M29.6800705,0.997857143 L0.468657358,4.09671429 C0.581135124,5.17314286 0.726418904,6.105 0.949812245,7.16257143 C4.32102084,23.1895714 19.9179377,33.4211429 35.7851136,30.0142857"></path>
        <path id="path-27" d="M29.6800705,0.997857143 L0.468657358,4.09671429 C0.581135124,5.17314286 0.726418904,6.105 0.949812245,7.16257143 C4.32102084,23.1895714 19.9179377,33.4211429 35.7851136,30.0142857"></path>
        <path id="path-29" d="M29.6800705,0.997857143 L0.468657358,4.09671429 C0.581135124,5.17314286 0.726418904,6.105 0.949812245,7.16257143 C4.32102084,23.1895714 19.9179377,33.4211429 35.7851136,30.0142857"></path>
        <path id="path-31" d="M29.6800705,0.997857143 L0.468657358,4.09671429 C0.581135124,5.17314286 0.726418904,6.105 0.949812245,7.16257143 C4.32102084,23.1895714 19.9179377,33.4211429 35.7851136,30.0142857"></path>
        <path id="path-33" d="M29.6800705,0.997857143 L0.468657358,4.09671429 C0.581135124,5.17314286 0.726418904,6.105 0.949812245,7.16257143 C4.32102084,23.1895714 19.9179377,33.4211429 35.7851136,30.0142857"></path>
        <path id="path-35" d="M29.6800705,0.997857143 L0.468657358,4.09671429 C0.581135124,5.17314286 0.726418904,6.105 0.949812245,7.16257143 C4.32102084,23.1895714 19.9179377,33.4211429 35.7851136,30.0142857"></path>
        <path id="path-37" d="M29.6800705,0.997857143 L0.468657358,4.09671429 C0.581135124,5.17314286 0.726418904,6.105 0.949812245,7.16257143 C4.32102084,23.1895714 19.9179377,33.4211429 35.7851136,30.0142857"></path>
        <path id="path-39" d="M29.6800705,0.997857143 L0.468657358,4.09671429 C0.581135124,5.17314286 0.726418904,6.105 0.949812245,7.16257143 C4.32102084,23.1895714 19.9179377,33.4211429 35.7851136,30.0142857"></path>
        <path id="path-41" d="M29.6800705,0.997857143 L0.468657358,4.09671429 C0.581135124,5.17314286 0.726418904,6.105 0.949812245,7.16257143 C4.32102084,23.1895714 19.9179377,33.4211429 35.7851136,30.0142857"></path>
        <path id="path-43" d="M29.6800705,0.997857143 L0.468657358,4.09671429 C0.581135124,5.17314286 0.726418904,6.105 0.949812245,7.16257143 C4.32102084,23.1895714 19.9179377,33.4211429 35.7851136,30.0142857"></path>
    </defs>
    <g id="Welcome" stroke="none" stroke-width="1" fill="none" fill-rule="evenodd" sketch:type="MSPage">
        <g id="Landing-page" sketch:type="MSArtboardGroup" transform="translate(-1149.000000, -4710.000000)">
            <g id="Group-27" sketch:type="MSLayerGroup" transform="translate(230.000000, 4640.000000)">
                <g id="Group-26" transform="translate(778.000000, 0.000000)">
                    <g id="noun_97524_cc" transform="translate(141.000000, 70.000000)">
                        <g id="Group">
                            <path d="M91.9497057,4.78028571 L73.4924168,4.78028571 C72.1989224,4.78028571 71.14913,3.72428571 71.14913,2.42314286 C71.14913,1.12042857 72.1989224,0.066 73.4924168,0.066 L91.9497057,0.066 C93.2432,0.066 94.2929925,1.12042857 94.2929925,2.42314286 C94.2929925,3.72428571 93.2432,4.78028571 91.9497057,4.78028571 L91.9497057,4.78028571 Z" id="Shape" fill="#FFFFFF" sketch:type="MSShapeGroup"></path>
                            <path d="M98.5249684,12.6374286 L73.4924168,12.6374286 C72.1989224,12.6374286 71.14913,11.5814286 71.14913,10.2802857 C71.14913,8.97757143 72.1989224,7.92314286 73.4924168,7.92314286 L98.5249684,7.92314286 C99.8200249,7.92314286 100.868255,8.97757143 100.868255,10.2802857 C100.868255,11.5814286 99.8200249,12.6374286 98.5249684,12.6374286 L98.5249684,12.6374286 Z" id="Shape" fill="#FFFFFF" sketch:type="MSShapeGroup"></path>
                            <path d="M86.8554002,20.4945714 L73.4908546,20.4945714 C72.1973603,20.4945714 71.1475678,19.4385714 71.1475678,18.1374286 C71.1475678,16.8347143 72.1973603,15.7802857 73.4908546,15.7802857 L86.8554002,15.7802857 C88.1488945,15.7802857 89.198687,16.8347143 89.198687,18.1374286 C89.198687,19.4385714 88.1488945,20.4945714 86.8554002,20.4945714 L86.8554002,20.4945714 Z" id="Shape" fill="#FFFFFF" sketch:type="MSShapeGroup"></path>
                            <g transform="translate(64.548872, 0.000000)" id="Shape" fill="#FFFFFF" sketch:type="MSShapeGroup">
                                <path d="M2.51669001,16.1731429 C1.2950565,16.1731429 0.3015029,17.1694286 0.3015029,18.3998571 C0.3015029,19.6302857 1.2950565,20.6265714 2.51669001,20.6265714 C3.73988571,20.6265714 4.73187712,19.6302857 4.73187712,18.3998571 C4.73187712,17.1694286 3.7430101,16.1731429 2.51669001,16.1731429"></path>
                                <path d="M2.51669001,8.316 C1.2950565,8.316 0.3015029,9.31228571 0.3015029,10.5427143 C0.3015029,11.7731429 1.2950565,12.7694286 2.51669001,12.7694286 C3.73988571,12.7694286 4.73187712,11.7731429 4.73187712,10.5427143 C4.73187712,9.31228571 3.7430101,8.316 2.51669001,8.316"></path>
                                <path d="M2.51669001,0.458857143 C1.2950565,0.458857143 0.3015029,1.45514286 0.3015029,2.68557143 C0.3015029,3.916 1.2950565,4.91228571 2.51669001,4.91228571 C3.73988571,4.91228571 4.73187712,3.916 4.73187712,2.68557143 C4.73187712,1.45514286 3.7430101,0.458857143 2.51669001,0.458857143"></path>
                            </g>
                            <path d="M62.7601633,46.5897143 L72.6082165,46.5897143 C73.903273,46.5897143 74.9515033,45.5337143 74.9515033,44.2325714 L74.9515033,36.6048571 C74.9515033,36.542 74.9374436,36.4822857 74.9311948,36.4194286 C77.5213078,35.4592857 79.3818776,32.978 79.3818776,30.0472857 C79.3818776,26.29 76.3434157,23.2351429 72.6082165,23.2351429 C68.8745796,23.2351429 65.8376799,26.29 65.8376799,30.0472857 C65.8376799,32.978 67.6966874,35.4592857 70.283676,36.4178571 C70.2789895,36.4807143 70.2649298,36.5404286 70.2649298,36.6032857 L70.2649298,41.8738571 L62.7851583,41.8738571 L62.7601633,46.5897143 Z M58.550058,41.8722857 L53.0605182,41.8722857 C51.7670238,41.8722857 50.7172314,42.9282857 50.7172314,44.2294286 C50.7172314,45.5305714 51.7670238,46.5865714 53.0605182,46.5865714 L58.7875111,46.5865714 L58.550058,41.8722857 Z M72.6082165,32.1435714 C71.4615682,32.1435714 70.5242535,31.2022857 70.5242535,30.0472857 C70.5242535,28.8907143 71.4615682,27.9494286 72.6082165,27.9494286 C73.7595515,27.9494286 74.695304,28.8907143 74.695304,30.0472857 C74.695304,31.2022857 73.7579893,32.1435714 72.6082165,32.1435714 L72.6082165,32.1435714 Z" id="Shape" fill="#FFFFFF" sketch:type="MSShapeGroup"></path>
                            <g transform="translate(0.000000, 12.069444)">
                                <g id="Clipped" transform="translate(2.061224, 4.714286)">
                                    <mask id="mask-2" sketch:name="ar" fill="white">
                                        <use xlink:href="#path-1"></use>
                                    </mask>
                                    <g id="ar"></g>
                                    <path d="M21.1083274,41.6875556 C20.9083669,41.6875556 20.7084064,41.6105556 20.5553117,41.458127 L-10.9525224,9.7624127 C-11.2587119,9.4544127 -11.2587119,8.95626984 -10.9525224,8.64826984 C-10.646333,8.34026984 -10.1511184,8.34026984 -9.84492889,8.64826984 L21.6629053,40.3424127 C21.9690947,40.6504127 21.9690947,41.150127 21.6629053,41.458127 C21.5098105,41.6105556 21.3098501,41.6875556 21.1083274,41.6875556 L21.1083274,41.6875556 Z" id="Shape" fill="#FFFFFF" sketch:type="MSShapeGroup" mask="url(#mask-2)"></path>
                                </g>
                                <g id="Clipped" transform="translate(2.061224, 3.644841)">
                                    <mask id="mask-4" sketch:name="ap" fill="white">
                                        <use xlink:href="#path-3"></use>
                                    </mask>
                                    <g id="ap"></g>
                                    <path d="M18.3401246,45.5431429 C18.1386019,45.5431429 17.9386415,45.4661429 17.7855467,45.3121429 L-13.7207252,13.6164286 C-14.0269147,13.31 -14.0269147,12.8102857 -13.7207252,12.5038571 C-13.4145358,12.1942857 -12.9193212,12.1942857 -12.6131317,12.5038571 L18.8947025,44.198 C19.1993298,44.506 19.1993298,45.0057143 18.8947025,45.3121429 C18.7400455,45.4677143 18.5400851,45.5431429 18.3401246,45.5431429 L18.3401246,45.5431429 Z" id="Shape" fill="#000000" sketch:type="MSShapeGroup" mask="url(#mask-4)"></path>
                                </g>
                                <g id="Clipped" transform="translate(2.061224, 4.714286)">
                                    <mask id="mask-6" sketch:name="an" fill="white">
                                        <use xlink:href="#path-5"></use>
                                    </mask>
                                    <g id="an"></g>
                                    <path d="M18.2198359,27.6342698 C18.0198754,27.6342698 17.8199149,27.5572698 17.6668202,27.4048413 L-13.841014,-4.29087302 C-14.1472034,-4.59887302 -14.1472034,-5.09701587 -13.841014,-5.40501587 C-13.5348245,-5.71301587 -13.0396099,-5.71301587 -12.7334204,-5.40501587 L18.7744137,26.289127 C19.079041,26.597127 19.079041,27.0952698 18.7744137,27.4048413 C18.6197568,27.5572698 18.4213585,27.6342698 18.2198359,27.6342698 L18.2198359,27.6342698 Z" id="Shape" fill="#FFFFFF" sketch:type="MSShapeGroup" mask="url(#mask-6)"></path>
                                </g>
                                <g id="Clipped" transform="translate(2.061224, 4.714286)">
                                    <mask id="mask-8" sketch:name="al" fill="white">
                                        <use xlink:href="#path-7"></use>
                                    </mask>
                                    <g id="al"></g>
                                    <path d="M23.8796546,38.8998413 C23.6796941,38.8998413 23.4781714,38.8228413 23.3266389,38.6704127 L-8.18275747,6.97469841 C-8.48894694,6.66669841 -8.48894694,6.16698413 -8.18275747,5.86055556 C-7.87656799,5.55255556 -7.38135338,5.55255556 -7.07516391,5.86055556 L24.4326702,37.5546984 C24.7388597,37.861127 24.7388597,38.3608413 24.4326702,38.6688413 C24.2795755,38.8228413 24.079615,38.8998413 23.8796546,38.8998413 L23.8796546,38.8998413 Z" id="Shape" fill="#FFFFFF" sketch:type="MSShapeGroup" mask="url(#mask-8)"></path>
                                </g>
                                <g id="Clipped" transform="translate(2.061224, 4.714286)">
                                    <mask id="mask-10" sketch:name="aj" fill="white">
                                        <use xlink:href="#path-9"></use>
                                    </mask>
                                    <g id="aj"></g>
                                    <path d="M21.178626,19.4644127 C20.9786655,19.4644127 20.778705,19.3842698 20.6256103,19.2334127 L-10.8806617,-12.4607302 C-11.1868511,-12.7687302 -11.1868511,-13.2684444 -10.8806617,-13.5764444 C-10.5744722,-13.882873 -10.0792576,-13.882873 -9.7730681,-13.5764444 L21.7347661,18.1192698 C22.0409555,18.4272698 22.0409555,18.9238413 21.7347661,19.2334127 C21.5801091,19.3889841 21.3801487,19.4644127 21.178626,19.4644127 L21.178626,19.4644127 Z" id="Shape" fill="#FFFFFF" sketch:type="MSShapeGroup" mask="url(#mask-10)"></path>
                                </g>
                                <g id="Clipped" transform="translate(2.061224, 4.714286)">
                                    <mask id="mask-12" sketch:name="ah" fill="white">
                                        <use xlink:href="#path-11"></use>
                                    </mask>
                                    <g id="ah"></g>
                                    <path d="M18.1464129,21.9849841 C17.9448902,21.9849841 17.7433676,21.9079841 17.5933972,21.7555556 L-13.9159991,-9.94015873 C-14.2221886,-10.2481587 -14.2221886,-10.7463016 -13.9159991,-11.0543016 C-13.6098097,-11.3623016 -13.1145951,-11.3623016 -12.8084056,-11.0543016 L18.6994286,20.6382698 C19.005618,20.9478413 19.005618,21.4444127 18.6994286,21.7539841 C18.5463338,21.9079841 18.3463734,21.9849841 18.1464129,21.9849841 L18.1464129,21.9849841 Z" id="Shape" fill="#FFFFFF" sketch:type="MSShapeGroup" mask="url(#mask-12)"></path>
                                </g>
                                <g id="Clipped" transform="translate(2.061224, 3.644841)">
                                    <mask id="mask-14" sketch:name="af" fill="white">
                                        <use xlink:href="#path-13"></use>
                                    </mask>
                                    <g id="af"></g>
                                    <path d="M37.7316039,26.0354286 C37.5300812,26.0354286 37.3301207,25.9584286 37.1785882,25.8044286 L5.66919184,-5.88814286 C5.36300236,-6.19614286 5.36300236,-6.69585714 5.66919184,-7.00228571 C5.97538131,-7.31028571 6.47059592,-7.31028571 6.77678539,-7.00228571 L38.2846195,24.6902857 C38.590809,24.9982857 38.590809,25.498 38.2846195,25.8044286 C38.133087,25.96 37.9331265,26.0354286 37.7316039,26.0354286 L37.7316039,26.0354286 Z" id="Shape" fill="#000000" sketch:type="MSShapeGroup" mask="url(#mask-14)"></path>
                                </g>
                                <g id="Clipped" transform="translate(2.061224, 4.714286)">
                                    <mask id="mask-16" sketch:name="ad" fill="white">
                                        <use xlink:href="#path-15"></use>
                                    </mask>
                                    <g id="ad"></g>
                                    <path d="M22.6049066,15.3252698 C22.4049461,15.3252698 22.2034234,15.2482698 22.0518909,15.0958413 L-9.45594329,-16.599873 C-9.76213276,-16.907873 -9.76213276,-17.4060159 -9.45594329,-17.7140159 C-9.14975381,-18.0220159 -8.65453921,-18.0220159 -8.34834973,-17.7140159 L23.1594844,13.980127 C23.4656739,14.288127 23.4656739,14.7862698 23.1594844,15.0942698 C23.0063897,15.2498413 22.8064292,15.3252698 22.6049066,15.3252698 L22.6049066,15.3252698 Z" id="Shape" fill="#FFFFFF" sketch:type="MSShapeGroup" mask="url(#mask-16)"></path>
                                </g>
                                <g id="Clipped" transform="translate(2.061224, 3.644841)">
                                    <mask id="mask-18" sketch:name="ab" fill="white">
                                        <use xlink:href="#path-17"></use>
                                    </mask>
                                    <g id="ab"></g>
                                    <path d="M43.272696,20.4615714 C43.0727356,20.4615714 42.8680885,20.3845714 42.7196803,20.2321429 L11.210284,-11.462 C10.9040945,-11.77 10.9040945,-12.2697143 11.210284,-12.5761429 C11.5164735,-12.8841429 12.0116881,-12.8841429 12.3178776,-12.5761429 L43.8257117,19.118 C44.1319012,19.4244286 44.1319012,19.9241429 43.8257117,20.2321429 C43.672617,20.3861429 43.4710943,20.4615714 43.272696,20.4615714 L43.272696,20.4615714 Z" id="Shape" fill="#000000" sketch:type="MSShapeGroup" mask="url(#mask-18)"></path>
                                </g>
                                <g id="Clipped" transform="translate(2.061224, 4.714286)">
                                    <mask id="mask-20" sketch:name="z" fill="white">
                                        <use xlink:href="#path-19"></use>
                                    </mask>
                                    <g id="z"></g>
                                    <path d="M40.4998067,22.1798413 C40.2998462,22.1798413 40.0998857,22.1028413 39.946791,21.9504127 L8.43895682,-9.74530159 C8.13276735,-10.0533016 8.13276735,-10.5530159 8.43895682,-10.8610159 C8.74670849,-11.1690159 9.24192309,-11.1690159 9.54655038,-10.8610159 L41.0543845,20.833127 C41.3621362,21.141127 41.3621362,21.6408413 41.0543845,21.9488413 C40.902852,22.1028413 40.7013293,22.1798413 40.4998067,22.1798413 L40.4998067,22.1798413 Z" id="Shape" fill="#000000" sketch:type="MSShapeGroup" mask="url(#mask-20)"></path>
                                </g>
                                <g transform="translate(2.061224, 30.359127)" id="Clipped">
                                    <g>
                                        <mask id="mask-22" sketch:name="x" fill="white">
                                            <use xlink:href="#path-21"></use>
                                        </mask>
                                        <g id="x"></g>
                                        <path d="M37.8706389,29.6277143 C37.8706389,28.974 38.3970973,28.446 39.0469689,28.446 L39.0469689,28.446 C39.6968404,28.446 40.2217366,28.974 40.2217366,29.6277143 L40.2217366,29.6277143 C40.2217366,30.2735714 39.6968404,30.8094286 39.0469689,30.8094286 L39.0469689,30.8094286 C38.3970973,30.8094286 37.8706389,30.2751429 37.8706389,29.6277143 L37.8706389,29.6277143 Z M33.2153091,29.6277143 C33.2153091,28.974 33.7511407,28.446 34.3994501,28.446 L34.3994501,28.446 C35.0415106,28.446 35.5664069,28.974 35.5664069,29.6277143 L35.5664069,29.6277143 C35.5664069,30.2735714 35.0415106,30.8094286 34.3994501,30.8094286 L34.3994501,30.8094286 C33.7495785,30.8094286 33.2153091,30.2751429 33.2153091,29.6277143 L33.2153091,29.6277143 Z M28.5709147,29.6277143 C28.5709147,28.974 29.1051841,28.446 29.7456825,28.446 L29.7456825,28.446 C30.395554,28.446 30.9220125,28.974 30.9220125,29.6277143 L30.9220125,29.6277143 C30.9220125,30.2735714 30.395554,30.8094286 29.7456825,30.8094286 L29.7456825,30.8094286 C29.1020597,30.8094286 28.5709147,30.2751429 28.5709147,29.6277143 L28.5709147,29.6277143 Z M23.9233959,29.6277143 C23.9233959,28.974 24.4482922,28.446 25.0997259,28.446 L25.0997259,28.446 C25.7495974,28.446 26.2744937,28.974 26.2744937,29.6277143 L26.2744937,29.6277143 C26.2744937,30.2735714 25.7495974,30.8094286 25.0997259,30.8094286 L25.0997259,30.8094286 C24.4482922,30.8094286 23.9233959,30.2751429 23.9233959,29.6277143 L23.9233959,29.6277143 Z M19.2758771,29.6277143 C19.2758771,28.974 19.8007734,28.446 20.4506449,28.446 L20.4506449,28.446 C21.1005164,28.446 21.6254127,28.974 21.6254127,29.6277143 L21.6254127,29.6277143 C21.6254127,30.2735714 21.1005164,30.8094286 20.4506449,30.8094286 L20.4506449,30.8094286 C19.8007734,30.8094286 19.2758771,30.2751429 19.2758771,29.6277143 L19.2758771,29.6277143 Z M14.6314827,29.6277143 C14.6314827,28.974 15.1563789,28.446 15.8062505,28.446 L15.8062505,28.446 C16.4483111,28.446 16.9825805,28.974 16.9825805,29.6277143 L16.9825805,29.6277143 C16.9825805,30.2735714 16.4483111,30.8094286 15.8062505,30.8094286 L15.8062505,30.8094286 C15.1563789,30.8094286 14.6314827,30.2751429 14.6314827,29.6277143 L14.6314827,29.6277143 Z M9.98396391,29.6277143 C9.98396391,28.974 10.5088602,28.446 11.1509207,28.446 L11.1509207,28.446 C11.8007923,28.446 12.3350617,28.974 12.3350617,29.6277143 L12.3350617,29.6277143 C12.3350617,30.2735714 11.8007923,30.8094286 11.1509207,30.8094286 L11.1509207,30.8094286 C10.5088602,30.8094286 9.98396391,30.2751429 9.98396391,29.6277143 L9.98396391,29.6277143 Z M5.33175854,29.6277143 C5.33175854,28.974 5.85665478,28.446 6.50652632,28.446 L6.50652632,28.446 C7.15796004,28.446 7.68129409,28.974 7.68129409,29.6277143 L7.68129409,29.6277143 C7.68129409,30.2735714 7.15639785,30.8094286 6.50652632,30.8094286 L6.50652632,30.8094286 C5.85665478,30.8094286 5.33175854,30.2751429 5.33175854,29.6277143 L5.33175854,29.6277143 Z M0.682677551,29.6277143 C0.682677551,28.974 1.20757379,28.446 1.85744533,28.446 L1.85744533,28.446 C2.50887905,28.446 3.0322131,28.974 3.0322131,29.6277143 L3.0322131,29.6277143 C3.0322131,30.2735714 2.50731686,30.8094286 1.85744533,30.8094286 L1.85744533,30.8094286 C1.20757379,30.8094286 0.682677551,30.2751429 0.682677551,29.6277143 L0.682677551,29.6277143 Z M-3.96327905,29.6277143 C-3.96327905,28.974 -3.43838281,28.446 -2.78851128,28.446 L-2.78851128,28.446 C-2.13863974,28.446 -1.6137435,28.974 -1.6137435,29.6277143 L-1.6137435,29.6277143 C-1.6137435,30.2735714 -2.13863974,30.8094286 -2.78851128,30.8094286 L-2.78851128,30.8094286 C-3.43838281,30.8094286 -3.96327905,30.2751429 -3.96327905,29.6277143 L-3.96327905,29.6277143 Z" id="Shape" fill="#000000" sketch:type="MSShapeGroup" mask="url(#mask-22)"></path>
                                    </g>
                                    <g>
                                        <mask id="mask-24" sketch:name="v" fill="white">
                                            <use xlink:href="#path-23"></use>
                                        </mask>
                                        <g id="v"></g>
                                        <path d="M43.6882389,30.8062857 L-7.42978131,30.8062857 C-8.07809066,30.8062857 -8.60454909,30.2782857 -8.60454909,29.6245714 C-8.60454909,28.9724286 -8.07809066,28.4428571 -7.42978131,28.4428571 L43.6882389,28.4428571 C44.3365482,28.4428571 44.8630067,28.9724286 44.8630067,29.6245714 C44.8630067,30.2798571 44.3381104,30.8062857 43.6882389,30.8062857 L43.6882389,30.8062857 Z" id="Shape" fill="#000000" sketch:type="MSShapeGroup" mask="url(#mask-24)"></path>
                                    </g>
                                    <g>
                                        <mask id="mask-26" sketch:name="t" fill="white">
                                            <use xlink:href="#path-25"></use>
                                        </mask>
                                        <g id="t"></g>
                                        <path d="M37.8706389,33.5688571 C37.8706389,32.9151429 38.3970973,32.3871429 39.0469689,32.3871429 L39.0469689,32.3871429 C39.6968404,32.3871429 40.2217366,32.9151429 40.2217366,33.5688571 L40.2217366,33.5688571 C40.2217366,34.2147143 39.6968404,34.7521429 39.0469689,34.7521429 L39.0469689,34.7521429 C38.3970973,34.7521429 37.8706389,34.2147143 37.8706389,33.5688571 L37.8706389,33.5688571 Z M33.2231201,33.5688571 C33.2231201,32.9151429 33.7495785,32.3871429 34.3994501,32.3871429 L34.3994501,32.3871429 C35.0415106,32.3871429 35.5742178,32.9151429 35.5742178,33.5688571 L35.5742178,33.5688571 C35.5742178,34.2147143 35.0415106,34.7521429 34.3994501,34.7521429 L34.3994501,34.7521429 C33.7495785,34.7521429 33.2231201,34.2147143 33.2231201,33.5688571 L33.2231201,33.5688571 Z M28.5709147,33.5688571 C28.5709147,32.9151429 29.1051841,32.3871429 29.7456825,32.3871429 L29.7456825,32.3871429 C30.395554,32.3871429 30.9220125,32.9151429 30.9220125,33.5688571 L30.9220125,33.5688571 C30.9220125,34.2147143 30.395554,34.7521429 29.7456825,34.7521429 L29.7456825,34.7521429 C29.1020597,34.7521429 28.5709147,34.2147143 28.5709147,33.5688571 L28.5709147,33.5688571 Z M23.9233959,33.5688571 C23.9233959,32.9151429 24.4482922,32.3871429 25.0997259,32.3871429 L25.0997259,32.3871429 C25.7495974,32.3871429 26.2744937,32.9151429 26.2744937,33.5688571 L26.2744937,33.5688571 C26.2744937,34.2147143 25.7495974,34.7521429 25.0997259,34.7521429 L25.0997259,34.7521429 C24.4482922,34.7521429 23.9233959,34.2147143 23.9233959,33.5688571 L23.9233959,33.5688571 Z M19.2758771,33.5688571 C19.2758771,32.9151429 19.8007734,32.3871429 20.4506449,32.3871429 L20.4506449,32.3871429 C21.1005164,32.3871429 21.6254127,32.9151429 21.6254127,33.5688571 L21.6254127,33.5688571 C21.6254127,34.2147143 21.1005164,34.7521429 20.4506449,34.7521429 L20.4506449,34.7521429 C19.8007734,34.7521429 19.2758771,34.2147143 19.2758771,33.5688571 L19.2758771,33.5688571 Z M14.6314827,33.5688571 C14.6314827,32.9151429 15.1563789,32.3871429 15.8062505,32.3871429 L15.8062505,32.3871429 C16.4483111,32.3871429 16.9825805,32.9151429 16.9825805,33.5688571 L16.9825805,33.5688571 C16.9825805,34.2147143 16.4483111,34.7521429 15.8062505,34.7521429 L15.8062505,34.7521429 C15.1563789,34.7521429 14.6314827,34.2147143 14.6314827,33.5688571 L14.6314827,33.5688571 Z M9.97459076,33.5688571 C9.97459076,32.9151429 10.5088602,32.3871429 11.1509207,32.3871429 L11.1509207,32.3871429 C11.8007923,32.3871429 12.3256885,32.9151429 12.3256885,33.5688571 L12.3256885,33.5688571 C12.3256885,34.2147143 11.8007923,34.7521429 11.1509207,34.7521429 L11.1509207,34.7521429 C10.5088602,34.7521429 9.97459076,34.2147143 9.97459076,33.5688571 L9.97459076,33.5688571 Z M5.33175854,33.5688571 C5.33175854,32.9151429 5.85665478,32.3871429 6.50652632,32.3871429 L6.50652632,32.3871429 C7.15796004,32.3871429 7.68129409,32.9151429 7.68129409,33.5688571 L7.68129409,33.5688571 C7.68129409,34.2147143 7.15639785,34.7521429 6.50652632,34.7521429 L6.50652632,34.7521429 C5.85665478,34.7521429 5.33175854,34.2147143 5.33175854,33.5688571 L5.33175854,33.5688571 Z M0.682677551,33.5688571 C0.682677551,32.9151429 1.20757379,32.3871429 1.85744533,32.3871429 L1.85744533,32.3871429 C2.50887905,32.3871429 3.0322131,32.9151429 3.0322131,33.5688571 L3.0322131,33.5688571 C3.0322131,34.2147143 2.50731686,34.7521429 1.85744533,34.7521429 L1.85744533,34.7521429 C1.20757379,34.7521429 0.682677551,34.2147143 0.682677551,33.5688571 L0.682677551,33.5688571 Z M-3.96327905,33.5688571 C-3.96327905,32.9151429 -3.43838281,32.3871429 -2.78851128,32.3871429 L-2.78851128,32.3871429 C-2.13863974,32.3871429 -1.6137435,32.9151429 -1.6137435,33.5688571 L-1.6137435,33.5688571 C-1.6137435,34.2147143 -2.13863974,34.7521429 -2.78851128,34.7521429 L-2.78851128,34.7521429 C-3.43838281,34.7521429 -3.96327905,34.2147143 -3.96327905,33.5688571 L-3.96327905,33.5688571 Z" id="Shape" fill="#000000" sketch:type="MSShapeGroup" mask="url(#mask-26)"></path>
                                    </g>
                                    <g>
                                        <mask id="mask-28" sketch:name="r" fill="white">
                                            <use xlink:href="#path-27"></use>
                                        </mask>
                                        <g id="r"></g>
                                        <path d="M43.6882389,34.749 L-7.42978131,34.749 C-8.07809066,34.749 -8.60454909,34.2194286 -8.60454909,33.5657143 C-8.60454909,32.9135714 -8.07809066,32.384 -7.42978131,32.384 L43.6882389,32.384 C44.3365482,32.384 44.8630067,32.9135714 44.8630067,33.5657143 C44.8630067,34.2194286 44.3381104,34.749 43.6882389,34.749 L43.6882389,34.749 Z" id="Shape" fill="#000000" sketch:type="MSShapeGroup" mask="url(#mask-28)"></path>
                                    </g>
                                    <g>
                                        <mask id="mask-30" sketch:name="p" fill="white">
                                            <use xlink:href="#path-29"></use>
                                        </mask>
                                        <g id="p"></g>
                                        <path d="M37.8706389,21.747 C37.8706389,21.0917143 38.3970973,20.5637143 39.0469689,20.5637143 L39.0469689,20.5637143 C39.6890294,20.5637143 40.2217366,21.0917143 40.2217366,21.747 L40.2217366,21.747 C40.2217366,22.3928571 39.6890294,22.9287143 39.0469689,22.9287143 L39.0469689,22.9287143 C38.3970973,22.9287143 37.8706389,22.3928571 37.8706389,21.747 L37.8706389,21.747 Z M33.2231201,21.747 C33.2231201,21.0917143 33.7495785,20.5637143 34.3916391,20.5637143 L34.3916391,20.5637143 C35.0415106,20.5637143 35.5742178,21.0917143 35.5742178,21.747 L35.5742178,21.747 C35.5742178,22.3928571 35.0415106,22.9287143 34.3916391,22.9287143 L34.3916391,22.9287143 C33.7495785,22.9287143 33.2231201,22.3928571 33.2231201,21.747 L33.2231201,21.747 Z M28.5709147,21.747 C28.5709147,21.0917143 29.0973731,20.5637143 29.7456825,20.5637143 L29.7456825,20.5637143 C30.395554,20.5637143 30.9220125,21.0917143 30.9220125,21.747 L30.9220125,21.747 C30.9220125,22.3928571 30.395554,22.9287143 29.7456825,22.9287143 L29.7456825,22.9287143 C29.095811,22.9287143 28.5709147,22.3928571 28.5709147,21.747 L28.5709147,21.747 Z M23.9233959,21.747 C23.9233959,21.0917143 24.4482922,20.5637143 25.0997259,20.5637143 L25.0997259,20.5637143 C25.7495974,20.5637143 26.2744937,21.0917143 26.2744937,21.747 L26.2744937,21.747 C26.2744937,22.3928571 25.7495974,22.9287143 25.0997259,22.9287143 L25.0997259,22.9287143 C24.4482922,22.9287143 23.9233959,22.3928571 23.9233959,21.747 L23.9233959,21.747 Z M19.2758771,21.747 C19.2758771,21.0917143 19.8007734,20.5637143 20.4506449,20.5637143 L20.4506449,20.5637143 C21.1005164,20.5637143 21.6254127,21.0917143 21.6254127,21.747 L21.6254127,21.747 C21.6254127,22.3928571 21.1005164,22.9287143 20.4506449,22.9287143 L20.4506449,22.9287143 C19.8007734,22.9287143 19.2758771,22.3928571 19.2758771,21.747 L19.2758771,21.747 Z M14.6314827,21.747 C14.6314827,21.0917143 15.1563789,20.5637143 15.8062505,20.5637143 L15.8062505,20.5637143 C16.4483111,20.5637143 16.9825805,21.0917143 16.9825805,21.747 L16.9825805,21.747 C16.9825805,22.3928571 16.4483111,22.9287143 15.8062505,22.9287143 L15.8062505,22.9287143 C15.1563789,22.9287143 14.6314827,22.3928571 14.6314827,21.747 L14.6314827,21.747 Z M9.98396391,21.747 C9.98396391,21.0917143 10.5088602,20.5637143 11.1509207,20.5637143 L11.1509207,20.5637143 C11.8007923,20.5637143 12.3350617,21.0917143 12.3350617,21.747 L12.3350617,21.747 C12.3350617,22.3928571 11.8007923,22.9287143 11.1509207,22.9287143 L11.1509207,22.9287143 C10.5088602,22.9287143 9.98396391,22.3928571 9.98396391,21.747 L9.98396391,21.747 Z M5.33175854,21.747 C5.33175854,21.0917143 5.85665478,20.5637143 6.50652632,20.5637143 L6.50652632,20.5637143 C7.15796004,20.5637143 7.68129409,21.0917143 7.68129409,21.747 L7.68129409,21.747 C7.68129409,22.3928571 7.15639785,22.9287143 6.50652632,22.9287143 L6.50652632,22.9287143 C5.85665478,22.9287143 5.33175854,22.3928571 5.33175854,21.747 L5.33175854,21.747 Z M0.682677551,21.747 C0.682677551,21.0917143 1.20757379,20.5637143 1.85744533,20.5637143 L1.85744533,20.5637143 C2.50887905,20.5637143 3.0322131,21.0917143 3.0322131,21.747 L3.0322131,21.747 C3.0322131,22.3928571 2.50731686,22.9287143 1.85744533,22.9287143 L1.85744533,22.9287143 C1.20757379,22.9287143 0.682677551,22.3928571 0.682677551,21.747 L0.682677551,21.747 Z M-3.96327905,21.747 C-3.96327905,21.0917143 -3.43838281,20.5637143 -2.78851128,20.5637143 L-2.78851128,20.5637143 C-2.13863974,20.5637143 -1.6137435,21.0917143 -1.6137435,21.747 L-1.6137435,21.747 C-1.6137435,22.3928571 -2.13863974,22.9287143 -2.78851128,22.9287143 L-2.78851128,22.9287143 C-3.43838281,22.9287143 -3.96327905,22.3928571 -3.96327905,21.747 L-3.96327905,21.747 Z" id="Shape" fill="#FFFFFF" sketch:type="MSShapeGroup" mask="url(#mask-30)"></path>
                                    </g>
                                    <g>
                                        <mask id="mask-32" sketch:name="n" fill="white">
                                            <use xlink:href="#path-31"></use>
                                        </mask>
                                        <g id="n"></g>
                                        <path d="M37.8706389,25.6881429 C37.8706389,25.0344286 38.3970973,24.5064286 39.0469689,24.5064286 L39.0469689,24.5064286 C39.6968404,24.5064286 40.2217366,25.0344286 40.2217366,25.6881429 L40.2217366,25.6881429 C40.2217366,26.334 39.6968404,26.8698571 39.0469689,26.8698571 L39.0469689,26.8698571 C38.3970973,26.8698571 37.8706389,26.334 37.8706389,25.6881429 L37.8706389,25.6881429 Z M33.2231201,25.6881429 C33.2231201,25.0344286 33.7495785,24.5064286 34.3994501,24.5064286 L34.3994501,24.5064286 C35.0415106,24.5064286 35.5742178,25.0344286 35.5742178,25.6881429 L35.5742178,25.6881429 C35.5742178,26.334 35.0415106,26.8698571 34.3994501,26.8698571 L34.3994501,26.8698571 C33.7495785,26.8698571 33.2231201,26.334 33.2231201,25.6881429 L33.2231201,25.6881429 Z M28.5709147,25.6881429 C28.5709147,25.0344286 29.1051841,24.5064286 29.7456825,24.5064286 L29.7456825,24.5064286 C30.395554,24.5064286 30.9220125,25.0344286 30.9220125,25.6881429 L30.9220125,25.6881429 C30.9220125,26.334 30.395554,26.8698571 29.7456825,26.8698571 L29.7456825,26.8698571 C29.1020597,26.8698571 28.5709147,26.334 28.5709147,25.6881429 L28.5709147,25.6881429 Z M23.9233959,25.6881429 C23.9233959,25.0344286 24.4482922,24.5064286 25.0997259,24.5064286 L25.0997259,24.5064286 C25.7495974,24.5064286 26.2744937,25.0344286 26.2744937,25.6881429 L26.2744937,25.6881429 C26.2744937,26.334 25.7495974,26.8698571 25.0997259,26.8698571 L25.0997259,26.8698571 C24.4482922,26.8698571 23.9233959,26.334 23.9233959,25.6881429 L23.9233959,25.6881429 Z M19.2758771,25.6881429 C19.2758771,25.0344286 19.8007734,24.5064286 20.4506449,24.5064286 L20.4506449,24.5064286 C21.1005164,24.5064286 21.6254127,25.0344286 21.6254127,25.6881429 L21.6254127,25.6881429 C21.6254127,26.334 21.1005164,26.8698571 20.4506449,26.8698571 L20.4506449,26.8698571 C19.8007734,26.8698571 19.2758771,26.334 19.2758771,25.6881429 L19.2758771,25.6881429 Z M14.6314827,25.6881429 C14.6314827,25.0344286 15.1563789,24.5064286 15.8062505,24.5064286 L15.8062505,24.5064286 C16.4483111,24.5064286 16.9825805,25.0344286 16.9825805,25.6881429 L16.9825805,25.6881429 C16.9825805,26.334 16.4483111,26.8698571 15.8062505,26.8698571 L15.8062505,26.8698571 C15.1563789,26.8698571 14.6314827,26.334 14.6314827,25.6881429 L14.6314827,25.6881429 Z M9.98396391,25.6881429 C9.98396391,25.0344286 10.5088602,24.5064286 11.1509207,24.5064286 L11.1509207,24.5064286 C11.8007923,24.5064286 12.3256885,25.0344286 12.3256885,25.6881429 L12.3256885,25.6881429 C12.3256885,26.334 11.8007923,26.8698571 11.1509207,26.8698571 L11.1509207,26.8698571 C10.5088602,26.8698571 9.98396391,26.334 9.98396391,25.6881429 L9.98396391,25.6881429 Z M5.33175854,25.6881429 C5.33175854,25.0344286 5.85665478,24.5064286 6.50652632,24.5064286 L6.50652632,24.5064286 C7.15796004,24.5064286 7.68129409,25.0344286 7.68129409,25.6881429 L7.68129409,25.6881429 C7.68129409,26.334 7.15639785,26.8698571 6.50652632,26.8698571 L6.50652632,26.8698571 C5.85665478,26.8698571 5.33175854,26.334 5.33175854,25.6881429 L5.33175854,25.6881429 Z M0.682677551,25.6881429 C0.682677551,25.0344286 1.20757379,24.5064286 1.85744533,24.5064286 L1.85744533,24.5064286 C2.50887905,24.5064286 3.0322131,25.0344286 3.0322131,25.6881429 L3.0322131,25.6881429 C3.0322131,26.334 2.50731686,26.8698571 1.85744533,26.8698571 L1.85744533,26.8698571 C1.20757379,26.8698571 0.682677551,26.334 0.682677551,25.6881429 L0.682677551,25.6881429 Z M-3.96327905,25.6881429 C-3.96327905,25.0344286 -3.43838281,24.5064286 -2.78851128,24.5064286 L-2.78851128,24.5064286 C-2.13863974,24.5064286 -1.6137435,25.0344286 -1.6137435,25.6881429 L-1.6137435,25.6881429 C-1.6137435,26.334 -2.13863974,26.8698571 -2.78851128,26.8698571 L-2.78851128,26.8698571 C-3.43838281,26.8698571 -3.96327905,26.334 -3.96327905,25.6881429 L-3.96327905,25.6881429 Z" id="Shape" fill="#FFFFFF" sketch:type="MSShapeGroup" mask="url(#mask-32)"></path>
                                    </g>
                                    <g>
                                        <mask id="mask-34" sketch:name="l" fill="white">
                                            <use xlink:href="#path-33"></use>
                                        </mask>
                                        <g id="l"></g>
                                        <path d="M37.8706389,13.8647143 C37.8706389,13.2094286 38.3970973,12.6814286 39.0469689,12.6814286 L39.0469689,12.6814286 C39.6968404,12.6814286 40.2217366,13.2094286 40.2217366,13.8647143 L40.2217366,13.8647143 C40.2217366,14.5105714 39.6968404,15.0464286 39.0469689,15.0464286 L39.0469689,15.0464286 C38.3970973,15.0464286 37.8706389,14.5105714 37.8706389,13.8647143 L37.8706389,13.8647143 Z M33.2153091,13.8647143 C33.2153091,13.2094286 33.7511407,12.6814286 34.3916391,12.6814286 L34.3916391,12.6814286 C35.0415106,12.6814286 35.5742178,13.2094286 35.5742178,13.8647143 L35.5742178,13.8647143 C35.5742178,14.5105714 35.0415106,15.0464286 34.3916391,15.0464286 L34.3916391,15.0464286 C33.7495785,15.0464286 33.2153091,14.5105714 33.2153091,13.8647143 L33.2153091,13.8647143 Z M28.5709147,13.8647143 C28.5709147,13.2094286 29.0973731,12.6814286 29.7456825,12.6814286 L29.7456825,12.6814286 C30.395554,12.6814286 30.9220125,13.2094286 30.9220125,13.8647143 L30.9220125,13.8647143 C30.9220125,14.5105714 30.395554,15.0464286 29.7456825,15.0464286 L29.7456825,15.0464286 C29.095811,15.0464286 28.5709147,14.5105714 28.5709147,13.8647143 L28.5709147,13.8647143 Z M23.9233959,13.8647143 C23.9233959,13.2094286 24.4482922,12.6814286 25.0997259,12.6814286 L25.0997259,12.6814286 C25.7495974,12.6814286 26.2744937,13.2094286 26.2744937,13.8647143 L26.2744937,13.8647143 C26.2744937,14.5105714 25.7495974,15.0464286 25.0997259,15.0464286 L25.0997259,15.0464286 C24.4482922,15.0464286 23.9233959,14.5105714 23.9233959,13.8647143 L23.9233959,13.8647143 Z M19.2758771,13.8647143 C19.2758771,13.2094286 19.8007734,12.6814286 20.4506449,12.6814286 L20.4506449,12.6814286 C21.1005164,12.6814286 21.6254127,13.2094286 21.6254127,13.8647143 L21.6254127,13.8647143 C21.6254127,14.5105714 21.1005164,15.0464286 20.4506449,15.0464286 L20.4506449,15.0464286 C19.8007734,15.0464286 19.2758771,14.5105714 19.2758771,13.8647143 L19.2758771,13.8647143 Z M14.6314827,13.8647143 C14.6314827,13.2094286 15.1563789,12.6814286 15.8062505,12.6814286 L15.8062505,12.6814286 C16.456122,12.6814286 16.9825805,13.2094286 16.9825805,13.8647143 L16.9825805,13.8647143 C16.9825805,14.5105714 16.456122,15.0464286 15.8062505,15.0464286 L15.8062505,15.0464286 C15.1563789,15.0464286 14.6314827,14.5105714 14.6314827,13.8647143 L14.6314827,13.8647143 Z M9.97459076,13.8647143 C9.97459076,13.2094286 10.5088602,12.6814286 11.1587317,12.6814286 L11.1587317,12.6814286 C11.8007923,12.6814286 12.3256885,13.2094286 12.3256885,13.8647143 L12.3256885,13.8647143 C12.3256885,14.5105714 11.8007923,15.0464286 11.1587317,15.0464286 L11.1587317,15.0464286 C10.5088602,15.0464286 9.97459076,14.5105714 9.97459076,13.8647143 L9.97459076,13.8647143 Z M5.33175854,13.8647143 C5.33175854,13.2094286 5.85665478,12.6814286 6.50652632,12.6814286 L6.50652632,12.6814286 C7.15796004,12.6814286 7.68129409,13.2094286 7.68129409,13.8647143 L7.68129409,13.8647143 C7.68129409,14.5105714 7.15639785,15.0464286 6.50652632,15.0464286 L6.50652632,15.0464286 C5.85665478,15.0464286 5.33175854,14.5105714 5.33175854,13.8647143 L5.33175854,13.8647143 Z M0.682677551,13.8647143 C0.682677551,13.2094286 1.20757379,12.6814286 1.85744533,12.6814286 L1.85744533,12.6814286 C2.50887905,12.6814286 3.0322131,13.2094286 3.0322131,13.8647143 L3.0322131,13.8647143 C3.0322131,14.5105714 2.50731686,15.0464286 1.85744533,15.0464286 L1.85744533,15.0464286 C1.20757379,15.0464286 0.682677551,14.5105714 0.682677551,13.8647143 L0.682677551,13.8647143 Z M-3.96327905,13.8647143 C-3.96327905,13.2094286 -3.43838281,12.6814286 -2.78851128,12.6814286 L-2.78851128,12.6814286 C-2.13863974,12.6814286 -1.6137435,13.2094286 -1.6137435,13.8647143 L-1.6137435,13.8647143 C-1.6137435,14.5105714 -2.13863974,15.0464286 -2.78851128,15.0464286 L-2.78851128,15.0464286 C-3.43838281,15.0464286 -3.96327905,14.5105714 -3.96327905,13.8647143 L-3.96327905,13.8647143 Z" id="Shape" fill="#FFFFFF" sketch:type="MSShapeGroup" mask="url(#mask-34)"></path>
                                    </g>
                                    <g>
                                        <mask id="mask-36" sketch:name="j" fill="white">
                                            <use xlink:href="#path-35"></use>
                                        </mask>
                                        <g id="j"></g>
                                        <path d="M37.8706389,17.8058571 C37.8706389,17.1505714 38.3970973,16.6225714 39.0469689,16.6225714 L39.0469689,16.6225714 C39.6968404,16.6225714 40.2217366,17.1505714 40.2217366,17.8058571 L40.2217366,17.8058571 C40.2217366,18.4517143 39.6968404,18.9875714 39.0469689,18.9875714 L39.0469689,18.9875714 C38.3970973,18.9875714 37.8706389,18.4517143 37.8706389,17.8058571 L37.8706389,17.8058571 Z M33.2153091,17.8058571 C33.2153091,17.1505714 33.7511407,16.6225714 34.3916391,16.6225714 L34.3916391,16.6225714 C35.0415106,16.6225714 35.5742178,17.1505714 35.5742178,17.8058571 L35.5742178,17.8058571 C35.5742178,18.4517143 35.0415106,18.9875714 34.3916391,18.9875714 L34.3916391,18.9875714 C33.7495785,18.9875714 33.2153091,18.4517143 33.2153091,17.8058571 L33.2153091,17.8058571 Z M28.5709147,17.8058571 C28.5709147,17.1505714 29.0973731,16.6225714 29.7456825,16.6225714 L29.7456825,16.6225714 C30.395554,16.6225714 30.9220125,17.1505714 30.9220125,17.8058571 L30.9220125,17.8058571 C30.9220125,18.4517143 30.395554,18.9875714 29.7456825,18.9875714 L29.7456825,18.9875714 C29.095811,18.9875714 28.5709147,18.4517143 28.5709147,17.8058571 L28.5709147,17.8058571 Z M23.9233959,17.8058571 C23.9233959,17.1505714 24.4482922,16.6225714 25.0997259,16.6225714 L25.0997259,16.6225714 C25.7495974,16.6225714 26.2744937,17.1505714 26.2744937,17.8058571 L26.2744937,17.8058571 C26.2744937,18.4517143 25.7495974,18.9875714 25.0997259,18.9875714 L25.0997259,18.9875714 C24.4482922,18.9875714 23.9233959,18.4517143 23.9233959,17.8058571 L23.9233959,17.8058571 Z M19.2758771,17.8058571 C19.2758771,17.1505714 19.8007734,16.6225714 20.4506449,16.6225714 L20.4506449,16.6225714 C21.1005164,16.6225714 21.6254127,17.1505714 21.6254127,17.8058571 L21.6254127,17.8058571 C21.6254127,18.4517143 21.1005164,18.9875714 20.4506449,18.9875714 L20.4506449,18.9875714 C19.8007734,18.9875714 19.2758771,18.4517143 19.2758771,17.8058571 L19.2758771,17.8058571 Z M14.6314827,17.8058571 C14.6314827,17.1505714 15.1563789,16.6225714 15.8062505,16.6225714 L15.8062505,16.6225714 C16.456122,16.6225714 16.9825805,17.1505714 16.9825805,17.8058571 L16.9825805,17.8058571 C16.9825805,18.4517143 16.456122,18.9875714 15.8062505,18.9875714 L15.8062505,18.9875714 C15.1563789,18.9875714 14.6314827,18.4517143 14.6314827,17.8058571 L14.6314827,17.8058571 Z M9.97459076,17.8058571 C9.97459076,17.1505714 10.5088602,16.6225714 11.1587317,16.6225714 L11.1587317,16.6225714 C11.8007923,16.6225714 12.3256885,17.1505714 12.3256885,17.8058571 L12.3256885,17.8058571 C12.3256885,18.4517143 11.8007923,18.9875714 11.1587317,18.9875714 L11.1587317,18.9875714 C10.5088602,18.9875714 9.97459076,18.4517143 9.97459076,17.8058571 L9.97459076,17.8058571 Z M5.33175854,17.8058571 C5.33175854,17.1505714 5.85665478,16.6225714 6.50652632,16.6225714 L6.50652632,16.6225714 C7.15796004,16.6225714 7.68129409,17.1505714 7.68129409,17.8058571 L7.68129409,17.8058571 C7.68129409,18.4517143 7.15639785,18.9875714 6.50652632,18.9875714 L6.50652632,18.9875714 C5.85665478,18.9875714 5.33175854,18.4517143 5.33175854,17.8058571 L5.33175854,17.8058571 Z M0.682677551,17.8058571 C0.682677551,17.1505714 1.20757379,16.6225714 1.85744533,16.6225714 L1.85744533,16.6225714 C2.50887905,16.6225714 3.0322131,17.1505714 3.0322131,17.8058571 L3.0322131,17.8058571 C3.0322131,18.4517143 2.50731686,18.9875714 1.85744533,18.9875714 L1.85744533,18.9875714 C1.20757379,18.9875714 0.682677551,18.4517143 0.682677551,17.8058571 L0.682677551,17.8058571 Z M-3.96327905,17.8058571 C-3.96327905,17.1505714 -3.43838281,16.6225714 -2.78851128,16.6225714 L-2.78851128,16.6225714 C-2.13863974,16.6225714 -1.6137435,17.1505714 -1.6137435,17.8058571 L-1.6137435,17.8058571 C-1.6137435,18.4517143 -2.13863974,18.9875714 -2.78851128,18.9875714 L-2.78851128,18.9875714 C-3.43838281,18.9875714 -3.96327905,18.4517143 -3.96327905,17.8058571 L-3.96327905,17.8058571 Z" id="Shape" fill="#FFFFFF" sketch:type="MSShapeGroup" mask="url(#mask-36)"></path>
                                    </g>
                                    <g>
                                        <mask id="mask-38" sketch:name="h" fill="white">
                                            <use xlink:href="#path-37"></use>
                                        </mask>
                                        <g id="h"></g>
                                        <path d="M37.8706389,5.98242857 C37.8706389,5.32871429 38.3970973,4.80071429 39.0469689,4.80071429 L39.0469689,4.80071429 C39.6968404,4.80071429 40.2217366,5.32871429 40.2217366,5.98242857 L40.2217366,5.98242857 C40.2217366,6.62985714 39.6968404,7.16571429 39.0469689,7.16571429 L39.0469689,7.16571429 C38.3970973,7.16571429 37.8706389,6.62985714 37.8706389,5.98242857 L37.8706389,5.98242857 Z M33.2153091,5.98242857 C33.2153091,5.32871429 33.7511407,4.80071429 34.3916391,4.80071429 L34.3916391,4.80071429 C35.0415106,4.80071429 35.5742178,5.32871429 35.5742178,5.98242857 L35.5742178,5.98242857 C35.5742178,6.62985714 35.0415106,7.16571429 34.3916391,7.16571429 L34.3916391,7.16571429 C33.7495785,7.16571429 33.2153091,6.62985714 33.2153091,5.98242857 L33.2153091,5.98242857 Z M20.4506449,7.16571429 L20.4506449,7.16571429 C19.8007734,7.16571429 19.2758771,6.62985714 19.2758771,5.98242857 L20.4506449,7.16571429 Z M14.6314827,5.98242857 C14.6314827,5.32871429 15.1563789,4.80071429 15.8062505,4.80071429 L15.8062505,4.80071429 C16.456122,4.80071429 16.9825805,5.32871429 16.9825805,5.98242857 L16.9825805,5.98242857 C16.9825805,6.62985714 16.456122,7.16571429 15.8062505,7.16571429 L15.8062505,7.16571429 C15.1563789,7.16571429 14.6314827,6.62985714 14.6314827,5.98242857 L14.6314827,5.98242857 Z M9.97459076,5.98242857 C9.97459076,5.32871429 10.5088602,4.80071429 11.1587317,4.80071429 L11.1587317,4.80071429 C11.8007923,4.80071429 12.3256885,5.32871429 12.3256885,5.98242857 L12.3256885,5.98242857 C12.3256885,6.62985714 11.8007923,7.16571429 11.1587317,7.16571429 L11.1587317,7.16571429 C10.5088602,7.16571429 9.97459076,6.62985714 9.97459076,5.98242857 L9.97459076,5.98242857 Z M5.33175854,5.98242857 C5.33175854,5.32871429 5.85665478,4.80071429 6.50652632,4.80071429 L6.50652632,4.80071429 C7.15796004,4.80071429 7.68129409,5.32871429 7.68129409,5.98242857 L7.68129409,5.98242857 C7.68129409,6.62985714 7.15639785,7.16571429 6.50652632,7.16571429 L6.50652632,7.16571429 C5.85665478,7.16571429 5.33175854,6.62985714 5.33175854,5.98242857 L5.33175854,5.98242857 Z M0.682677551,5.98242857 C0.682677551,5.32871429 1.20757379,4.80071429 1.85744533,4.80071429 L1.85744533,4.80071429 C2.50887905,4.80071429 3.0322131,5.32871429 3.0322131,5.98242857 L3.0322131,5.98242857 C3.0322131,6.62985714 2.50731686,7.16571429 1.85744533,7.16571429 L1.85744533,7.16571429 C1.20757379,7.16571429 0.682677551,6.62985714 0.682677551,5.98242857 L0.682677551,5.98242857 Z M-3.96327905,5.98242857 C-3.96327905,5.32871429 -3.43838281,4.80071429 -2.78851128,4.80071429 L-2.78851128,4.80071429 C-2.13863974,4.80071429 -1.6137435,5.32871429 -1.6137435,5.98242857 L-1.6137435,5.98242857 C-1.6137435,6.62985714 -2.13863974,7.16571429 -2.78851128,7.16571429 L-2.78851128,7.16571429 C-3.43838281,7.16571429 -3.96327905,6.62985714 -3.96327905,5.98242857 L-3.96327905,5.98242857 Z" id="Shape" fill="#FFFFFF" sketch:type="MSShapeGroup" mask="url(#mask-38)"></path>
                                    </g>
                                    <g>
                                        <mask id="mask-40" sketch:name="f" fill="white">
                                            <use xlink:href="#path-39"></use>
                                        </mask>
                                        <g id="f"></g>
                                        <path d="M37.8706389,9.92357143 C37.8706389,9.26828571 38.3970973,8.74028571 39.0469689,8.74028571 L39.0469689,8.74028571 C39.6968404,8.74028571 40.2217366,9.26828571 40.2217366,9.92357143 L40.2217366,9.92357143 C40.2217366,10.5694286 39.6968404,11.1052857 39.0469689,11.1052857 L39.0469689,11.1052857 C38.3970973,11.1052857 37.8706389,10.571 37.8706389,9.92357143 L37.8706389,9.92357143 Z M33.2153091,9.92357143 C33.2153091,9.26828571 33.7511407,8.74028571 34.3916391,8.74028571 L34.3916391,8.74028571 C35.0415106,8.74028571 35.5742178,9.26828571 35.5742178,9.92357143 L35.5742178,9.92357143 C35.5742178,10.5694286 35.0415106,11.1052857 34.3916391,11.1052857 L34.3916391,11.1052857 C33.7495785,11.1052857 33.2153091,10.571 33.2153091,9.92357143 L33.2153091,9.92357143 Z M25.0997259,11.1052857 L25.0997259,11.1052857 C24.4482922,11.1052857 23.9233959,10.5694286 23.9233959,9.92357143 L25.0997259,11.1052857 Z M19.2758771,9.92357143 C19.2758771,9.26828571 19.8007734,8.74028571 20.4506449,8.74028571 L20.4506449,8.74028571 C21.1005164,8.74028571 21.6254127,9.26828571 21.6254127,9.92357143 L21.6254127,9.92357143 C21.6254127,10.5694286 21.1005164,11.1052857 20.4506449,11.1052857 L20.4506449,11.1052857 C19.8007734,11.1052857 19.2758771,10.571 19.2758771,9.92357143 L19.2758771,9.92357143 Z M14.6314827,9.92357143 C14.6314827,9.26828571 15.1563789,8.74028571 15.8062505,8.74028571 L15.8062505,8.74028571 C16.456122,8.74028571 16.9825805,9.26828571 16.9825805,9.92357143 L16.9825805,9.92357143 C16.9825805,10.5694286 16.456122,11.1052857 15.8062505,11.1052857 L15.8062505,11.1052857 C15.1563789,11.1052857 14.6314827,10.571 14.6314827,9.92357143 L14.6314827,9.92357143 Z M9.97459076,9.92357143 C9.97459076,9.26828571 10.5088602,8.74028571 11.1587317,8.74028571 L11.1587317,8.74028571 C11.8007923,8.74028571 12.3256885,9.26828571 12.3256885,9.92357143 L12.3256885,9.92357143 C12.3256885,10.5694286 11.8007923,11.1052857 11.1587317,11.1052857 L11.1587317,11.1052857 C10.5088602,11.1052857 9.97459076,10.571 9.97459076,9.92357143 L9.97459076,9.92357143 Z M5.33175854,9.92357143 C5.33175854,9.26828571 5.85665478,8.74028571 6.50652632,8.74028571 L6.50652632,8.74028571 C7.15796004,8.74028571 7.68129409,9.26828571 7.68129409,9.92357143 L7.68129409,9.92357143 C7.68129409,10.5694286 7.15639785,11.1052857 6.50652632,11.1052857 L6.50652632,11.1052857 C5.85665478,11.1052857 5.33175854,10.571 5.33175854,9.92357143 L5.33175854,9.92357143 Z M0.682677551,9.92357143 C0.682677551,9.26828571 1.20757379,8.74028571 1.85744533,8.74028571 L1.85744533,8.74028571 C2.50887905,8.74028571 3.0322131,9.26828571 3.0322131,9.92357143 L3.0322131,9.92357143 C3.0322131,10.5694286 2.50731686,11.1052857 1.85744533,11.1052857 L1.85744533,11.1052857 C1.20757379,11.1052857 0.682677551,10.571 0.682677551,9.92357143 L0.682677551,9.92357143 Z M-3.96327905,9.92357143 C-3.96327905,9.26828571 -3.43838281,8.74028571 -2.78851128,8.74028571 L-2.78851128,8.74028571 C-2.13863974,8.74028571 -1.6137435,9.26828571 -1.6137435,9.92357143 L-1.6137435,9.92357143 C-1.6137435,10.5694286 -2.13863974,11.1052857 -2.78851128,11.1052857 L-2.78851128,11.1052857 C-3.43838281,11.1052857 -3.96327905,10.571 -3.96327905,9.92357143 L-3.96327905,9.92357143 Z" id="Shape" fill="#FFFFFF" sketch:type="MSShapeGroup" mask="url(#mask-40)"></path>
                                    </g>
                                    <g>
                                        <mask id="mask-42" sketch:name="d" fill="white">
                                            <use xlink:href="#path-41"></use>
                                        </mask>
                                        <g id="d"></g>
                                        <path d="M37.8706389,-1.89985714 C37.8706389,-2.55357143 38.3970973,-3.08157143 39.0469689,-3.08157143 L39.0469689,-3.08157143 C39.6968404,-3.08157143 40.2217366,-2.55357143 40.2217366,-1.89985714 L40.2217366,-1.89985714 C40.2217366,-1.25242857 39.6968404,-0.716571429 39.0469689,-0.716571429 L39.0469689,-0.716571429 C38.3970973,-0.716571429 37.8706389,-1.25242857 37.8706389,-1.89985714 L37.8706389,-1.89985714 Z M33.2153091,-1.89985714 C33.2153091,-2.55357143 33.7511407,-3.08157143 34.3916391,-3.08157143 L34.3916391,-3.08157143 C35.0415106,-3.08157143 35.5742178,-2.55357143 35.5742178,-1.89985714 L35.5742178,-1.89985714 C35.5742178,-1.25242857 35.0415106,-0.716571429 34.3916391,-0.716571429 L34.3916391,-0.716571429 C33.7495785,-0.716571429 33.2153091,-1.25242857 33.2153091,-1.89985714 L33.2153091,-1.89985714 Z M28.5709147,-1.89985714 C28.5709147,-2.55357143 29.0973731,-3.08157143 29.7456825,-3.08157143 L29.7456825,-3.08157143 C30.395554,-3.08157143 30.9220125,-2.55357143 30.9220125,-1.89985714 L30.9220125,-1.89985714 C30.9220125,-1.25242857 30.395554,-0.716571429 29.7456825,-0.716571429 L29.7456825,-0.716571429 C29.095811,-0.716571429 28.5709147,-1.25242857 28.5709147,-1.89985714 L28.5709147,-1.89985714 Z M23.9233959,-1.89985714 C23.9233959,-2.55357143 24.4482922,-3.08157143 25.0997259,-3.08157143 L25.0997259,-3.08157143 C25.7495974,-3.08157143 26.2744937,-2.55357143 26.2744937,-1.89985714 L26.2744937,-1.89985714 C26.2744937,-1.25242857 25.7495974,-0.716571429 25.0997259,-0.716571429 L25.0997259,-0.716571429 C24.4482922,-0.716571429 23.9233959,-1.25242857 23.9233959,-1.89985714 L23.9233959,-1.89985714 Z M19.2758771,-1.89985714 C19.2758771,-2.55357143 19.8007734,-3.08157143 20.4506449,-3.08157143 L20.4506449,-3.08157143 C21.1005164,-3.08157143 21.6254127,-2.55357143 21.6254127,-1.89985714 L21.6254127,-1.89985714 C21.6254127,-1.25242857 21.1005164,-0.716571429 20.4506449,-0.716571429 L20.4506449,-0.716571429 C19.8007734,-0.716571429 19.2758771,-1.25242857 19.2758771,-1.89985714 L19.2758771,-1.89985714 Z M14.6314827,-1.89985714 C14.6314827,-2.55357143 15.1563789,-3.08157143 15.8062505,-3.08157143 L15.8062505,-3.08157143 C16.456122,-3.08157143 16.9825805,-2.55357143 16.9825805,-1.89985714 L16.9825805,-1.89985714 C16.9825805,-1.25242857 16.456122,-0.716571429 15.8062505,-0.716571429 L15.8062505,-0.716571429 C15.1563789,-0.716571429 14.6314827,-1.25242857 14.6314827,-1.89985714 L14.6314827,-1.89985714 Z M9.97459076,-1.89985714 C9.97459076,-2.55357143 10.5088602,-3.08157143 11.1587317,-3.08157143 L11.1587317,-3.08157143 C11.8007923,-3.08157143 12.3256885,-2.55357143 12.3256885,-1.89985714 L12.3256885,-1.89985714 C12.3256885,-1.25242857 11.8007923,-0.716571429 11.1587317,-0.716571429 L11.1587317,-0.716571429 C10.5088602,-0.716571429 9.97459076,-1.25242857 9.97459076,-1.89985714 L9.97459076,-1.89985714 Z M5.33175854,-1.89985714 C5.33175854,-2.55357143 5.85665478,-3.08157143 6.50652632,-3.08157143 L6.50652632,-3.08157143 C7.15796004,-3.08157143 7.68129409,-2.55357143 7.68129409,-1.89985714 L7.68129409,-1.89985714 C7.68129409,-1.25242857 7.15639785,-0.716571429 6.50652632,-0.716571429 L6.50652632,-0.716571429 C5.85665478,-0.716571429 5.33175854,-1.25242857 5.33175854,-1.89985714 L5.33175854,-1.89985714 Z M0.682677551,-1.89985714 C0.682677551,-2.55357143 1.20757379,-3.08157143 1.85744533,-3.08157143 L1.85744533,-3.08157143 C2.50887905,-3.08157143 3.0322131,-2.55357143 3.0322131,-1.89985714 L3.0322131,-1.89985714 C3.0322131,-1.25242857 2.50731686,-0.716571429 1.85744533,-0.716571429 L1.85744533,-0.716571429 C1.20757379,-0.716571429 0.682677551,-1.25242857 0.682677551,-1.89985714 L0.682677551,-1.89985714 Z M-3.96327905,-1.89985714 C-3.96327905,-2.55357143 -3.43838281,-3.08157143 -2.78851128,-3.08157143 L-2.78851128,-3.08157143 C-2.13863974,-3.08157143 -1.6137435,-2.55357143 -1.6137435,-1.89985714 L-1.6137435,-1.89985714 C-1.6137435,-1.25242857 -2.13863974,-0.716571429 -2.78851128,-0.716571429 L-2.78851128,-0.716571429 C-3.43838281,-0.716571429 -3.96327905,-1.25242857 -3.96327905,-1.89985714 L-3.96327905,-1.89985714 Z" id="Shape" fill="#000000" sketch:type="MSShapeGroup" mask="url(#mask-42)"></path>
                                    </g>
                                    <g>
                                        <mask id="mask-44" sketch:name="b" fill="white">
                                            <use xlink:href="#path-43"></use>
                                        </mask>
                                        <g id="b"></g>
                                        <path d="M43.6882389,-0.719714286 L-7.42978131,-0.719714286 C-8.07809066,-0.719714286 -8.60454909,-1.24928571 -8.60454909,-1.903 C-8.60454909,-2.55514286 -8.07809066,-3.08471429 -7.42978131,-3.08471429 L43.6882389,-3.08471429 C44.3365482,-3.08471429 44.8630067,-2.55514286 44.8630067,-1.903 C44.8630067,-1.24771429 44.3381104,-0.719714286 43.6882389,-0.719714286 L43.6882389,-0.719714286 Z" id="Shape" fill="#000000" sketch:type="MSShapeGroup" mask="url(#mask-44)"></path>
                                    </g>
                                </g>
                                <path d="M32.1052855,0.0761269841 C32.0240516,0.0682698413 31.945942,0.050984127 31.8647081,0.050984127 C31.7350462,0.050984127 31.6116331,0.0588412698 31.4819712,0.0604126984 C31.3679313,0.0588412698 31.2538913,0.050984127 31.1398513,0.050984127 C31.0695527,0.050984127 31.0008163,0.0666984127 30.9320799,0.072984127 C26.5063923,0.176698413 22.6321581,1.02526984 18.5110977,2.80726984 C18.2564606,2.91726984 18.0299429,3.07912698 17.8315446,3.26612698 C5.66363738,9.23598413 -1.23343673,21.6989841 0.195968206,35.3546984 C0.217838883,35.5668413 0.275639957,35.7632698 0.347500752,35.9518413 C0.444356606,36.6369841 0.559958754,37.3032698 0.709929108,38.0135556 C3.80462986,52.7189841 16.8442397,63.392127 31.7116133,63.392127 C33.9252382,63.392127 36.1544851,63.1532698 38.3368662,62.6865556 C38.5883789,62.6315556 38.8164589,62.5294127 39.0257925,62.4068413 C53.197991,58.8302698 62.9819944,46.3908413 62.9819944,31.7215556 C62.9835566,14.5788413 49.2175278,0.585269841 32.1052855,0.0761269841 L32.1052855,0.0761269841 Z M28.7887536,4.93812698 L28.7887536,19.2506984 L22.9930243,6.15912698 C24.8973353,5.53369841 26.7953976,5.13612698 28.7887536,4.93812698 L28.7887536,4.93812698 Z M39.6084898,57.3216984 L36.6450131,43.2432698 C35.239041,43.8796984 33.6940339,44.2584127 32.0677929,44.3306984 L32.0677929,44.3322698 C31.8772056,44.3416984 31.6913048,44.3605556 31.4991553,44.3605556 C31.4772846,44.3605556 31.4601005,44.3574127 31.4397921,44.3574127 L34.4673186,58.508127 C33.5487502,58.6039841 32.6286195,58.6636984 31.7100511,58.6636984 C19.1031682,58.6636984 8.04285456,49.642127 5.34651257,37.1885556 L19.5749499,35.6846984 C19.1640937,34.4385556 18.9360137,33.1059841 18.9360137,31.723127 C18.9360137,31.250127 18.9672576,30.7865556 19.0172477,30.3276984 L4.72944705,31.844127 C4.73257143,21.988127 9.83468786,13.1834127 18.3861224,8.32455556 L24.3505684,21.3344127 C26.381417,19.9185556 28.8418681,19.0825556 31.5007175,19.0825556 C32.4349078,19.0825556 33.3425409,19.1909841 34.217368,19.3874127 L34.217368,4.95855556 C47.739695,6.48126984 58.2844855,17.8976984 58.2844855,31.7215556 C58.2813611,43.5858413 50.739102,53.7356984 39.6084898,57.3216984 L39.6084898,57.3216984 Z" id="Shape" fill="#FFFFFF" sketch:type="MSShapeGroup"></path>
                                <path d="M31.4975931,46.7255556 C23.2726565,46.7255556 16.5817916,39.995127 16.5817916,31.7215556 C16.5817916,23.4479841 23.2726565,16.7175556 31.4975931,16.7175556 C39.7209676,16.7175556 46.4118324,23.4479841 46.4118324,31.7215556 C46.4118324,39.995127 39.7209676,46.7255556 31.4975931,46.7255556 L31.4975931,46.7255556 Z M31.4975931,21.4459841 C25.8643317,21.4459841 21.2824249,26.0565556 21.2824249,31.7215556 C21.2824249,37.3865556 25.8658939,41.9955556 31.4975931,41.9955556 C37.1277302,41.9955556 41.7111991,37.3865556 41.7111991,31.7215556 C41.7111991,26.0565556 37.1292924,21.4459841 31.4975931,21.4459841 L31.4975931,21.4459841 Z" id="Shape" fill="#FFFFFF" sketch:type="MSShapeGroup"></path>
                            </g>
                        </g>
                    </g>
                </g>
            </g>
        </g>
    </g>
</svg>