<?xml version="1.0" encoding="UTF-8" standalone="no"?>
<svg width="111px" height="72px" viewBox="0 0 111 72" version="1.1" xmlns="http://www.w3.org/2000/svg" xmlns:xlink="http://www.w3.org/1999/xlink" xmlns:sketch="http://www.bohemiancoding.com/sketch/ns">
    <!-- Generator: Sketch 3.5 (25232) - http://www.bohemiancoding.com/sketch -->
    <title>content-optimization</title>
    <desc>Created with Sketch.</desc>
    <defs></defs>
    <g id="Page-1" stroke="none" stroke-width="1" fill="none" fill-rule="evenodd" sketch:type="MSPage">
        <g id="content-optimization" sketch:type="MSLayerGroup" fill="#FFFFFF">
            <path d="M16.4571502,29.9338088 C10.2731153,29.9338088 5.245426,24.9061195 5.245426,18.7255329 C5.245426,12.5460958 10.2731153,7.5138087 16.4571502,7.5138087 C22.6377366,7.5138087 27.6654262,12.5460958 27.6654262,18.7255329 C27.6654262,24.9061195 22.6377366,29.9338088 16.4571502,29.9338088 Z M12.7569044,23.2430957 L12.7569044,13.7569043 L22.2430957,18.5 L12.7569044,23.2430957 Z" id="Shape-path" sketch:type="MSShapeGroup"></path>
            <g id="revenue-optimization" transform="translate(55.500000, 36.000000) rotate(-180.000000) translate(-55.500000, -36.000000) " sketch:type="MSShapeGroup">
                <g id="Page-1">
                    <g id="revenue-optimization" transform="translate(0.000000, 0.000000)">
                        <g id="Page-1" transform="translate(0.000000, 0.000000)">
                            <g id="noun_247229_cc" transform="translate(0.000000, 0.000000)">
                                <path d="M43.1353739,55.0822997 C43.1353739,48.8971154 48.1665116,43.8694261 54.3470981,43.8694261 C60.5265352,43.8694261 65.5576728,48.8971154 65.5576728,55.0822997 C65.5576728,61.2605874 60.5265352,66.2894262 54.3470981,66.2894262 C48.1665116,66.2894262 43.1353739,61.2605874 43.1353739,55.0822997 Z M47,55.3808051 L57,55.3808051 L57,53.8969727 L47,53.8969727 L47,55.3808051 Z M47,59.0903863 L62,59.0903863 L62,57.6065538 L47,57.6065538 L47,59.0903863 Z M47,51.671224 L52,51.671224 L52,50.1873915 L47,50.1873915 L47,51.671224 Z" id="Shape-path" transform="translate(54.346523, 55.079426) scale(-1, 1) translate(-54.346523, -55.079426) "></path>
                                <g id="Group" transform="translate(0.000000, 0.000000)">
                                    <path d="M64.376,8.93801739 C64.7216,8.63248696 64.7629217,7.99763478 64.4661565,7.50177391 L62.8946783,4.84716522 C62.6066783,4.35631304 62.0181565,4.08208696 61.5936696,4.2386087 L60.4466783,4.65933913 L59.5138087,5.00243478 L58.7136696,5.29544348 C58.6861217,5.30921739 58.6560696,5.32048696 58.6272696,5.33175652 C57.9360696,4.79206957 57.1672348,4.35631304 56.3445565,4.04076522 C56.3395478,4.01321739 56.3357913,3.97815652 56.3270261,3.94184348 L55.8136348,1.30351304 L55.7372522,0.929113043 C55.6558609,0.502121739 55.1900522,0.165286957 54.6441043,0.135234783 C54.6153043,0.126469565 54.5852522,0.126469565 54.5539478,0.126469565 L51.4911304,0.160278261 C50.9163826,0.160278261 50.4029913,0.520904348 50.3228522,0.977947826 L49.8044522,4.01196522 C49.7994435,4.0370087 49.7969391,4.06455652 49.7969391,4.08834783 C49.3849739,4.25363478 48.9780174,4.45523478 48.5773217,4.6893913 C48.2029217,4.90852174 47.8410435,5.16396522 47.4954435,5.4432 C47.4704,5.43443478 47.4466087,5.42692174 47.4215652,5.41565217 L44.5152696,4.41516522 C44.0832696,4.2624 43.5085217,4.5504 43.2330435,5.04125217 L41.7304348,7.71088696 C41.4512,8.2130087 41.5088,8.83784348 41.8631652,9.13586087 L44.2247652,11.1017739 C44.2460522,11.1180522 44.2648348,11.1343304 44.2823652,11.1468522 C44.165913,11.9908174 44.165913,12.8422957 44.2898783,13.6774957 C44.294887,13.7225739 44.3036522,13.7676522 44.3111652,13.8139826 C44.2873739,13.8290087 44.266087,13.8490435 44.2410435,13.8703304 L43.6863304,14.3524174 L41.9307826,15.8825739 C41.5801739,16.1881043 41.5388522,16.8129391 41.8318609,17.3125565 L43.3945739,19.9483826 C43.6212174,20.3365565 44.0331826,20.5957565 44.4138435,20.5957565 C44.5102609,20.5957565 44.6041739,20.5782261 44.6905739,20.5506783 L47.5718261,19.4925913 C47.5993739,19.4800696 47.6244174,19.4675478 47.650713,19.4562783 C48.3456696,19.9997217 49.119513,20.4354783 49.954713,20.7560348 C49.9597217,20.7885913 49.9634783,20.8173913 49.9722435,20.8512 L50.5645217,23.8701913 C50.6509217,24.314713 51.1655652,24.6690783 51.7390609,24.6690783 L54.8406957,24.6415304 C55.4229565,24.6327652 55.9363478,24.2671304 56.0152348,23.8138435 L56.5336348,20.7898435 C56.5424,20.7535304 56.5461565,20.7197217 56.549913,20.6834087 C56.938087,20.5256348 57.3287652,20.3340522 57.7106783,20.1024 C58.0938435,19.8757565 58.4519652,19.6290783 58.7775304,19.3661217 C58.810087,19.3811478 58.8476522,19.3949217 58.8852174,19.4061913 L61.7890087,20.4066783 C62.2260174,20.555687 62.7970087,20.2714435 63.0762435,19.778087 L64.5863652,17.0871652 C64.8718609,16.5800348 64.8142609,15.9501913 64.4561391,15.6584348 L62.0982957,13.6825043 C62.0694957,13.6574609 62.0394435,13.6374261 62.0118957,13.6173913 C62.1308522,12.7571478 62.1233391,11.8843826 61.9868522,11.0203826 C62.0118957,10.9990957 62.0394435,10.9790609 62.0682435,10.9540174 L64.376,8.93801739 L64.376,8.93801739 L64.376,8.93801739 L64.376,8.93801739 Z M57.4251826,13.3231304 C57.1346783,14.4601043 56.4209391,15.4092522 55.4179478,16.0077913 C54.7430261,16.4047304 53.9766957,16.6150957 53.1953391,16.6150957 C51.6526609,16.6150957 50.2076522,15.7936696 49.421287,14.4638609 C48.824,13.4546087 48.6574609,12.2750609 48.9442087,11.1418435 C49.2322087,10.0123826 49.9434435,9.06073043 50.9526957,8.46344348 C51.6238609,8.06525217 52.3926957,7.85488696 53.1702957,7.85488696 C54.7129739,7.85488696 56.1629913,8.67756522 56.9481043,10.0073739 C57.5453913,11.0116174 57.7144348,12.1924174 57.4251826,13.3231304 L57.4251826,13.3231304 L57.4251826,13.3231304 L57.4251826,13.3231304 Z" id="Shape"></path>
                                    <path d="M53.1377391,9.81328696 C52.6769391,9.81328696 52.2249043,9.9410087 51.8292174,10.1751652 C50.6033391,10.9001739 50.198887,12.4841739 50.9238957,13.7062957 C51.3846957,14.4876522 52.2349217,14.9734957 53.1452522,14.9734957 C53.6048,14.9734957 54.058087,14.8495304 54.4537739,14.6153739 C55.0460522,14.2660174 55.4705391,13.7025391 55.6383304,13.0351304 C55.8061217,12.3677217 55.7084522,11.6727652 55.3578435,11.0792348 C54.8957913,10.2991304 54.0468174,9.81328696 53.1377391,9.81328696 L53.1377391,9.81328696 L53.1377391,9.81328696 L53.1377391,9.81328696 Z" id="Shape"></path>
                                    <path d="M17.3744,15.5945739 C17.3744,14.4338087 18.3160348,13.4909217 19.4780522,13.4909217 L41.9670957,13.4909217 L42.4278957,13.0939826 C42.4191304,12.693287 42.4141217,12.3364174 42.4278957,11.9682783 L40.723687,10.5007304 C40.3743304,10.2089739 40.1026087,9.82205217 39.946087,9.38504348 L19.4780522,9.31492174 C16.0170435,9.31492174 13.2009043,12.1335652 13.2009043,15.5945739 L13.2009043,37.5163826 C5.61273043,38.9325913 0.115686957,45.5490783 0.115686957,53.2762435 C0.115686957,57.2681739 1.58073043,60.9220174 4.00368696,63.7331478 C4.86017391,64.7336348 5.84813913,65.6314435 6.93001739,66.391513 C9.53829565,68.2372174 12.7188174,69.3190957 16.1510261,69.3190957 C24.998887,69.3190957 32.1926261,62.1216 32.1926261,53.2762435 C32.1926261,44.9229913 25.690087,37.9195826 17.3744,37.2847304 L17.3744,15.5945739 Z M16.1510261,65.4861913 C9.4205913,65.4861913 3.94233043,60.0091826 3.94233043,53.2762435 C3.94233043,46.5445565 9.4205913,41.0625391 16.1510261,41.0625391 C22.8889739,41.0625391 28.3647304,46.5445565 28.3647304,53.2762435 C28.3647304,60.0091826 22.8889739,65.4861913 16.1510261,65.4861913 L16.1510261,65.4861913 L16.1510261,65.4861913 L16.1510261,65.4861913 Z M4.94233043,53.2742633 C4.94233043,47.0948262 9.9711692,42.0625391 16.1494569,42.0625391 C22.3346412,42.0625391 27.361181,47.0948262 27.361181,53.2742633 C27.361181,59.4548499 22.3346412,64.4825392 16.1494569,64.4825392 C9.9711692,64.4825392 4.94233043,59.4548499 4.94233043,53.2742633 Z M14.008878,53.0543261 L17.4190828,56.0566235 L23.6711248,50.5524115 L7.75683594,50.5524115 L12.3037757,54.5554749 L14.008878,53.0543261 Z M11.956102,56.2680186 C11.3027957,56.2680186 10.7731863,56.7342794 10.7731863,57.3094413 C10.7731863,57.8846033 11.3027957,58.3508641 11.956102,58.3508641 C12.6094084,58.3508641 13.1390178,57.8846033 13.1390178,57.3094413 C13.1390178,56.7342794 12.6094084,56.2680186 11.956102,56.2680186 Z" id="Shape"></path>
                                    <path d="M96.6307478,37.3773913 L96.6307478,15.5945739 C96.6307478,12.1335652 93.8121043,9.31492174 90.3510957,9.31492174 L66.2329739,9.31492174 L66.2041739,9.37753043 C66.0514087,9.72563478 65.8285217,10.0286609 65.5467826,10.2753391 L63.8475826,11.7566609 L63.850087,11.8092522 C63.8713739,12.117287 63.8751304,12.4403478 63.8638609,12.7884522 L63.8601043,12.8385391 L64.6414609,13.4909217 L90.3523478,13.4909217 C91.513113,13.4909217 92.456,14.4338087 92.456,15.5945739 L92.456,37.3773913 C84.4971826,38.4166957 78.5042783,45.2360348 78.5042783,53.2762435 C78.5042783,62.1203478 85.6980174,69.3190957 94.5458783,69.3190957 C103.389983,69.3190957 110.58247,62.1216 110.58247,53.2762435 C110.579965,45.2360348 104.589565,38.4166957 96.6307478,37.3773913 L96.6307478,37.3773913 L96.6307478,37.3773913 L96.6307478,37.3773913 Z M94.5446261,65.4861913 C87.8079304,65.4861913 82.3309217,60.0091826 82.3309217,53.2762435 C82.3309217,46.5445565 87.8079304,41.0625391 94.5446261,41.0625391 C101.277565,41.0625391 106.754574,46.5445565 106.754574,53.2762435 C106.754574,60.0091826 101.277565,65.4861913 94.5446261,65.4861913 L94.5446261,65.4861913 L94.5446261,65.4861913 L94.5446261,65.4861913 Z" id="Shape"></path>
                                    <path d="M56.0006957,39.1291826 L56.0006957,26.0840348 L55.895513,26.0890435 C55.6563478,26.1040696 55.3896348,26.1629217 55.1041391,26.2267826 C54.743513,26.3094261 54.3353043,26.4058435 53.9020522,26.4158609 L53.8707478,26.4158609 C53.8707478,26.4158609 53.8707478,26.4158609 53.8619826,26.4158609 L51.8246957,26.4371478 L52.0400696,39.2118261 C44.202713,40.3462957 38.3074783,47.153113 38.3074783,55.0843826 C38.3074783,63.9272348 45.5049739,71.1197217 54.3490783,71.1197217 C63.1919304,71.1197217 70.3894261,63.9272348 70.3894261,55.0843826 C70.3894261,51.0749217 68.9005913,47.239513 66.1921391,44.2768696 C63.5250087,41.3580522 59.9112348,39.5323826 56.0006957,39.1291826 L56.0006957,39.1291826 L56.0006957,39.1291826 L56.0006957,39.1291826 Z M54.3490783,67.2930783 C47.6161391,67.2930783 42.1353739,61.8148174 42.1353739,55.0843826 C42.1353739,48.3464348 47.6161391,42.8694261 54.3490783,42.8694261 C61.0807652,42.8694261 66.5615304,48.3464348 66.5615304,55.0843826 C66.5615304,61.8148174 61.0807652,67.2930783 54.3490783,67.2930783 L54.3490783,67.2930783 L54.3490783,67.2930783 L54.3490783,67.2930783 Z" id="Shape"></path>
                                </g>
                            </g>
                        </g>
                    </g>
                </g>
            </g>
        </g>
    </g>
</svg>