<?xml version="1.0" encoding="UTF-8" standalone="no"?>
<svg width="108px" height="72px" viewBox="0 0 108 72" version="1.1" xmlns="http://www.w3.org/2000/svg" xmlns:xlink="http://www.w3.org/1999/xlink" xmlns:sketch="http://www.bohemiancoding.com/sketch/ns">
    <!-- Generator: Sketch 3.5 (25232) - http://www.bohemiancoding.com/sketch -->
    <title>case-study</title>
    <desc>Created with Sketch.</desc>
    <defs></defs>
    <g id="Page-1" stroke="none" stroke-width="1" fill="none" fill-rule="evenodd" sketch:type="MSPage">
        <g id="case-study" sketch:type="MSLayerGroup">
            <g id="Shape" fill="#FFFFFF" sketch:type="MSShapeGroup">
                <g id="Page-1">
                    <g id="noun_150258_cc">
                        <g id="Group">
                            <path d="M86.7444923,36.4300308 L83.4081231,38.5512615 L47.4158769,21.9380923 L50.7533538,19.8146462 L86.7444923,36.4300308 L86.7444923,36.4300308 L86.7444923,36.4300308 Z M93.0860308,31.9881846 L89.7496615,34.1116308 L53.7563077,17.4940308 L57.0926769,15.3728 L93.0860308,31.9881846 Z M0,18.5773538 C0,28.7858462 8.26338462,37.0713846 18.4707692,37.0713846 C28.6792615,37.0713846 36.9426462,28.7858462 36.9426462,18.5773538 C36.9426462,8.36886154 28.6792615,0.0833230769 18.4707692,0.0833230769 C8.26338462,0.0844307692 0,8.36996923 0,18.5773538 Z M24.4379077,14.7779692 L27.4652308,14.7779692 C28.3048615,14.7779692 28.9894154,15.4614154 28.9894154,16.3010462 L28.9894154,25.4284308 C28.9894154,26.2658462 28.3048615,26.9515077 27.4652308,26.9515077 L24.4379077,26.9515077 C23.5982769,26.9515077 22.9137231,26.2658462 22.9137231,25.4284308 L22.9137231,16.3010462 C22.9126154,15.4614154 23.5982769,14.7779692 24.4379077,14.7779692 L24.4379077,14.7779692 L24.4379077,14.7779692 Z M8.59569231,19.8368 L11.6219077,19.8368 C12.4615385,19.8368 13.1472,20.5224615 13.1472,21.3620923 L13.1472,25.4295385 C13.1472,26.2669538 12.4615385,26.9526154 11.6219077,26.9526154 L8.59569231,26.9526154 C7.75495385,26.9526154 7.07150769,26.2669538 7.07150769,25.4295385 L7.07150769,21.3620923 C7.0704,20.5224615 7.75495385,19.8368 8.59569231,19.8368 L8.59569231,19.8368 L8.59569231,19.8368 Z M16.1955692,8.68012308 L19.2228923,8.68012308 C20.0625231,8.68012308 20.7470769,9.36356923 20.7470769,10.2032 L20.7470769,25.4284308 C20.7470769,26.2658462 20.0614154,26.9515077 19.2228923,26.9515077 L16.1955692,26.9515077 C15.3570462,26.9515077 14.6713846,26.2658462 14.6713846,25.4284308 L14.6713846,10.2032 C14.6713846,9.36356923 15.3570462,8.68012308 16.1955692,8.68012308 L16.1955692,8.68012308 L16.1955692,8.68012308 Z" id="Shape"></path>
                        </g>
                    </g>
                </g>
            </g>
            <path d="M7.47851562,41.5820312 L58.2421875,9.07714844 L104.464844,30.0849609 L52.8505859,62.7773438 L7.47851562,41.5820312 Z" id="Path-9" stroke="#FFFFFF" stroke-width="3" sketch:type="MSShapeGroup"></path>
            <path d="M11,49.75 C11,49.75 12.2235589,50.3297283 12.8353384,50.6195925 C26.2658766,56.9830486 53.1269531,69.7099609 53.1269531,69.7099609 L101.862305,39" id="Path-9" stroke="#FFFFFF" stroke-width="3" sketch:type="MSShapeGroup"></path>
        </g>
    </g>
</svg>