<?xml version="1.0" encoding="UTF-8" standalone="no"?>
<svg width="102px" height="74px" viewBox="0 0 102 74" version="1.1" xmlns="http://www.w3.org/2000/svg" xmlns:xlink="http://www.w3.org/1999/xlink" xmlns:sketch="http://www.bohemiancoding.com/sketch/ns">
    <!-- Generator: Sketch 3.5 (25232) - http://www.bohemiancoding.com/sketch -->
    <title>Group 4</title>
    <desc>Created with Sketch.</desc>
    <defs></defs>
    <g id="Page-1" stroke="none" stroke-width="1" fill="none" fill-rule="evenodd" sketch:type="MSPage">
        <g id="Group-4" sketch:type="MSLayerGroup" transform="translate(0.000000, 1.000000)">
            <g id="Group-38" transform="translate(76.000000, 0.000000)">
                <g id="Group-37">
                    <g id="Group">
                        <circle id="Oval-17" stroke="#FFFFFF" stroke-width="2" sketch:type="MSShapeGroup" cx="12.5" cy="12.5" r="12.5"></circle>
                        <text id="x4" sketch:type="MSTextLayer" font-family="Proxima Nova" font-size="14" font-weight="526" fill="#FFFFFF">
                            <tspan x="5" y="17">x4</tspan>
                        </text>
                    </g>
                </g>
            </g>
            <g id="noun_219468_cc" transform="translate(0.000000, 1.000000)" fill="#FFFFFF" sketch:type="MSShapeGroup">
                <g id="Group">
                    <g id="Shape">
                        <path d="M19.8,34.56 L52.2,34.56 C52.416,34.56 52.56,34.416 52.56,34.2 C52.56,33.984 52.416,33.84 52.2,33.84 L19.8,33.84 C19.584,33.84 19.44,33.984 19.44,34.2 C19.44,34.416 19.584,34.56 19.8,34.56 L19.8,34.56 Z"></path>
                        <path d="M43.56,21.312 C41.976,21.312 40.752,22.536 40.752,24.12 C40.752,25.704 41.976,26.928 43.56,26.928 C45.144,26.928 46.368,25.704 46.368,24.12 C46.368,22.536 45.144,21.312 43.56,21.312 L43.56,21.312 Z M43.56,26.208 C42.408,26.208 41.472,25.272 41.472,24.12 C41.472,22.968 42.408,22.032 43.56,22.032 C44.712,22.032 45.648,22.968 45.648,24.12 C45.648,25.272 44.712,26.208 43.56,26.208 L43.56,26.208 Z"></path>
                        <path d="M24.48,26.64 L32.4,26.64 L32.4,29.52 L50.4,29.52 L50.4,18.72 L48.96,18.72 L48.96,17.28 L46.08,17.28 L46.08,18.72 L36,18.72 L36,18 L39.6,17.64 L39.6,12.96 L32.76,11.16 C32.76,11.16 31.464,11.88 29.88,11.88 C28.296,11.88 27,11.16 27,11.16 L20.88,12.96 L20.88,16.92 L24.48,17.64 L24.48,26.64 L24.48,26.64 Z M48.96,28.08 L46.08,28.08 C47.376,27.216 48.24,25.776 48.24,24.12 C48.24,22.464 47.376,21.024 46.08,20.16 L48.96,20.16 L48.96,28.08 L48.96,28.08 Z M43.56,28.08 C41.4,28.08 39.6,26.28 39.6,24.12 C39.6,21.96 41.4,20.16 43.56,20.16 C45.72,20.16 47.52,21.96 47.52,24.12 C47.52,26.28 45.72,28.08 43.56,28.08 L43.56,28.08 Z M46.8,18 L48.24,18 L48.24,18.72 L46.8,18.72 L46.8,18 L46.8,18 Z M41.04,20.16 C39.744,21.024 38.88,22.464 38.88,24.12 C38.88,25.776 39.744,27.216 41.04,28.08 L33.84,28.08 L33.84,20.16 L41.04,20.16 L41.04,20.16 Z M31.464,13.176 L29.88,14.976 L28.296,13.176 C28.8,13.248 29.304,13.32 29.88,13.32 C30.456,13.32 30.96,13.248 31.464,13.176 L31.464,13.176 Z M22.32,15.768 L22.32,14.04 L26.856,12.672 C26.856,12.672 26.928,12.672 26.928,12.744 L29.808,16.056 L32.688,12.744 C32.76,12.744 32.76,12.744 32.832,12.672 L38.088,14.04 L38.088,16.272 L35.856,16.56 L34.56,16.704 L34.56,18 L34.56,18.72 L32.4,18.72 L32.4,25.2 L25.92,25.2 L25.92,17.64 L25.92,16.488 L24.768,16.272 L22.32,15.768 L22.32,15.768 Z"></path>
                        <path d="M59.04,15.12 L59.04,7.2 C59.04,5.976 58.104,5.04 56.88,5.04 L44.928,5.04 L39.384,1.08 C38.376,0.36 37.224,0 36.072,0 C34.92,0 33.768,0.36 32.76,1.08 L27.072,5.04 L15.12,5.04 C13.896,5.04 12.96,5.976 12.96,7.2 L12.96,15.12 L0,24.336 L0,72 L72,72 L72,24.336 L59.04,15.12 L59.04,15.12 Z M12.96,32.616 L2.88,25.2 L12.96,25.2 L12.96,32.616 L12.96,32.616 Z M2.16,26.424 L31.824,48.384 L32.04,48.24 L2.16,68.832 L2.16,26.424 L2.16,26.424 Z M33.192,47.592 L33.192,47.592 L30.168,45.36 L41.904,45.36 L38.808,47.592 C37.008,46.8 34.992,46.8 33.192,47.592 L33.192,47.592 Z M42.912,44.64 L29.16,44.64 L25.272,41.76 L46.8,41.76 L42.912,44.64 L42.912,44.64 Z M47.808,41.04 L24.336,41.04 L20.448,38.16 L51.768,38.16 L47.808,41.04 L47.808,41.04 Z M33.264,50.04 C34.92,48.888 37.08,48.888 38.736,50.04 L67.464,69.84 L4.536,69.84 L33.264,50.04 L33.264,50.04 Z M39.96,48.24 L40.176,48.384 L69.84,26.712 L69.84,68.904 L39.96,48.24 L39.96,48.24 Z M59.04,17.784 L68.472,24.48 L59.04,24.48 L59.04,17.784 L59.04,17.784 Z M59.04,25.2 L69.48,25.2 L58.824,32.976 L59.04,32.832 L59.04,25.2 L59.04,25.2 Z M33.912,2.808 C34.56,2.376 35.28,2.16 36,2.16 C36.72,2.16 37.44,2.376 38.088,2.808 L41.184,5.04 L30.816,5.04 L33.912,2.808 L33.912,2.808 Z M56.88,7.2 L56.88,34.416 L52.488,37.656 C52.416,37.584 52.344,37.512 52.2,37.512 L19.8,37.512 C19.728,37.512 19.656,37.584 19.584,37.584 L15.12,34.272 L15.12,7.2 L56.88,7.2 L56.88,7.2 Z M12.96,24.48 L3.528,24.48 L12.96,17.784 L12.96,24.48 L12.96,24.48 Z"></path>
                    </g>
                </g>
            </g>
        </g>
    </g>
</svg>