<?xml version="1.0" encoding="UTF-8" standalone="no"?>
<svg width="104px" height="69px" viewBox="0 0 104 69" version="1.1" xmlns="http://www.w3.org/2000/svg" xmlns:xlink="http://www.w3.org/1999/xlink" xmlns:sketch="http://www.bohemiancoding.com/sketch/ns">
    <!-- Generator: Sketch 3.5 (25232) - http://www.bohemiancoding.com/sketch -->
    <title>Group</title>
    <desc>Created with Sketch.</desc>
    <defs></defs>
    <g id="Welcome" stroke="none" stroke-width="1" fill="none" fill-rule="evenodd" sketch:type="MSPage">
        <g id="Landing-page" sketch:type="MSArtboardGroup" transform="translate(-736.000000, -5128.000000)" fill="#FFFFFF">
            <g id="Group-27" sketch:type="MSLayerGroup" transform="translate(230.000000, 4640.000000)">
                <g id="Group-21" transform="translate(389.000000, 414.000000)" sketch:type="MSShapeGroup">
                    <g id="noun_30221" transform="translate(117.000000, 74.000000)">
                        <g id="Group">
                            <path d="M34.7958,57.8701698 C34.7958,58.7437358 35.503,59.4506604 36.3753,59.4506604 L62.1621,59.4506604 C63.0344,59.4506604 63.7416,58.7437358 63.7416,57.8701698 L63.7416,42.6198679 C63.7416,41.7463019 63.0344,41.0380755 62.1621,41.0380755 L36.374,41.0380755 C35.5017,41.0380755 34.7945,41.7463019 34.7945,42.6198679 L34.7945,49.9546981 L20.0603,49.9546981 C19.4792,49.9546981 19.0073,50.4259811 19.0073,51.0092264 C19.0073,51.5924717 19.4779,52.0637547 20.0603,52.0637547 L34.7958,52.0637547 L34.7958,57.8701698 L34.7958,57.8701698 Z M37.9522,53.7262642 L44.161,49.2360566 L47.4188,51.9556981 L42.1096,56.2896792 L37.9522,56.2896792 L37.9522,53.7262642 L37.9522,53.7262642 Z M51.1628,51.6185094 L56.5994,56.2883774 L45.4415,56.2883774 L51.1628,51.6185094 L51.1628,51.6185094 Z M60.5839,44.2003585 L60.5839,56.2896792 L59.8338,56.2896792 L51.8674,49.4456604 C51.48,49.1136792 50.9132,49.1058679 50.5167,49.4287358 L49.0828,50.5991321 L44.8825,47.0931509 C44.5107,46.7846038 43.9829,46.7676792 43.5916,47.0488868 L37.9535,51.1263962 L37.9535,44.2016604 L60.5839,44.2016604 L60.5839,44.2003585 Z" id="Shape"></path>
                            <path d="M13.3419,42.3803208 C13.3419,43.2538868 14.0491,43.9608113 14.9214,43.9608113 C15.7924,43.9608113 16.4996,43.2538868 16.4996,42.3803208 C16.4996,38.9745849 13.6253,36.1312642 9.8293,35.5024528 L9.8293,33.1447358 C9.8293,32.2711698 9.1221,31.5642453 8.2511,31.5642453 C7.3788,31.5642453 6.6716,32.2711698 6.6716,33.1447358 L6.6716,35.5024528 C2.8756,36.1299623 0,38.9745849 0,42.3803208 C0,45.7873585 2.8756,48.633283 6.6716,49.2607925 L6.6716,56.8820377 C4.6397,56.3769057 3.159,54.9448302 3.159,53.2419623 C3.159,52.3683962 2.4518,51.6614717 1.5795,51.6614717 C0.7085,51.6614717 0,52.3683962 0,53.2419623 C0,56.649 2.8756,59.4936226 6.6716,60.1211321 L6.6716,62.0362075 C6.6716,62.9097736 7.3788,63.6166981 8.2511,63.6166981 C9.1221,63.6166981 9.8293,62.9097736 9.8293,62.0362075 L9.8293,60.1211321 C13.6253,59.4936226 16.4996,56.649 16.4996,53.2419623 C16.4996,49.8349245 13.6253,46.9916038 9.8293,46.3627925 L9.8293,38.7415472 C11.8612,39.2466792 13.3419,40.6787547 13.3419,42.3803208 L13.3419,42.3803208 Z M3.159,42.3803208 C3.159,40.6774528 4.6397,39.2466792 6.6716,38.7415472 L6.6716,46.0216981 C4.6384,45.5152642 3.159,44.0844906 3.159,42.3803208 L3.159,42.3803208 Z M13.3419,53.2419623 C13.3419,54.9448302 11.8612,56.3769057 9.8293,56.8820377 L9.8293,49.6018868 C11.8612,50.1070189 13.3419,51.5390943 13.3419,53.2419623 L13.3419,53.2419623 Z" id="Shape"></path>
                            <ellipse id="Oval" cx="59.0102" cy="47.9016226" rx="2.2087" ry="2.21190566"></ellipse>
                            <g id="Group-17" transform="translate(25.000000, 0.000000)">
                                <g id="Group-16">
                                    <path d="M77.4218,0.289018868 L2.1648,0.289018868 C1.2938,0.289018868 0.5866,0.995943396 0.5866,1.86950943 L0.5866,46.6544151 C0.5866,47.5279811 1.2938,48.2349057 2.1648,48.2349057 C3.0371,48.2349057 3.7443,47.5279811 3.7443,46.6544151 L3.7443,15.4273585 L75.8436,15.4273585 L75.8436,65.5460943 L3.743,65.5460943 L3.743,55.8639623 C3.743,54.9903962 3.0358,54.2834717 2.1635,54.2834717 C1.2925,54.2834717 0.5853,54.9903962 0.5853,55.8639623 L0.5853,67.1265849 C0.5853,68.0001509 1.2925,68.7070755 2.1635,68.7070755 L77.4218,68.7070755 C78.2928,68.7070755 79,68.0001509 79,67.1265849 L79,1.86950943 C79,0.995943396 78.2928,0.289018868 77.4218,0.289018868 L77.4218,0.289018868 Z M3.743,12.2650755 L3.743,3.45 L75.8423,3.45 L75.8423,12.2650755 L3.743,12.2650755 L3.743,12.2650755 Z" id="Shape"></path>
                                    <ellipse id="Oval" cx="58.122" cy="7.96364151" rx="1.8356" ry="1.83826415"></ellipse>
                                    <ellipse id="Oval" cx="64.7884" cy="7.96364151" rx="1.8356" ry="1.83826415"></ellipse>
                                    <ellipse id="Oval" cx="70.9283" cy="7.96364151" rx="1.8356" ry="1.83826415"></ellipse>
                                    <path d="M11.374,37.3628491 L37.1608,37.3628491 C38.0331,37.3628491 38.7403,36.6546226 38.7403,35.7810566 L38.7403,20.5307547 C38.7403,19.6571887 38.0331,18.9502642 37.1608,18.9502642 L11.374,18.9502642 C10.5017,18.9502642 9.7945,19.6571887 9.7945,20.5307547 L9.7945,35.7810566 C9.7958,36.6546226 10.503,37.3628491 11.374,37.3628491 L11.374,37.3628491 Z M12.9522,22.1112453 L35.5826,22.1112453 L35.5826,34.200566 L28.5301,34.200566 C28.2506,31.8988302 26.3162,30.1100377 23.9437,30.1100377 C21.5712,30.1100377 19.6368,31.8988302 19.3573,34.200566 L12.9522,34.200566 L12.9522,22.1112453 L12.9522,22.1112453 Z" id="Shape"></path>
                                    <path d="M44.0027,48.6801509 L70.1444,48.6801509 C71.0167,48.6801509 71.7239,47.9732264 71.7239,47.0996604 C71.7239,46.2260943 71.0167,45.5191698 70.1444,45.5191698 L44.0027,45.5191698 C43.1317,45.5191698 42.4245,46.2260943 42.4245,47.0996604 C42.4245,47.9732264 43.1317,48.6801509 44.0027,48.6801509 L44.0027,48.6801509 Z" id="Shape"></path>
                                    <path d="M44.0027,56.0423208 L70.1444,56.0423208 C71.0167,56.0423208 71.7239,55.3353962 71.7239,54.4618302 C71.7239,53.5882642 71.0167,52.8813396 70.1444,52.8813396 L44.0027,52.8813396 C43.1317,52.8813396 42.4245,53.5882642 42.4245,54.4618302 C42.4245,55.3353962 43.1317,56.0423208 44.0027,56.0423208 L44.0027,56.0423208 Z" id="Shape"></path>
                                    <path d="M44.0027,26.4335094 L70.1444,26.4335094 C71.0167,26.4335094 71.7239,25.725283 71.7239,24.851717 C71.7239,23.9781509 71.0167,23.2712264 70.1444,23.2712264 L44.0027,23.2712264 C43.1317,23.2712264 42.4245,23.9781509 42.4245,24.851717 C42.4245,25.725283 43.1317,26.4335094 44.0027,26.4335094 L44.0027,26.4335094 Z" id="Shape"></path>
                                    <path d="M44.0027,33.7956792 L70.1444,33.7956792 C71.0167,33.7956792 71.7239,33.0887547 71.7239,32.2151887 C71.7239,31.3416226 71.0167,30.6333962 70.1444,30.6333962 L44.0027,30.6333962 C43.1317,30.6333962 42.4245,31.3416226 42.4245,32.2151887 C42.4245,33.0887547 43.1317,33.7956792 44.0027,33.7956792 L44.0027,33.7956792 Z" id="Shape"></path>
                                </g>
                                <ellipse id="Oval" cx="23.9437" cy="26.3905472" rx="2.7859" ry="2.7899434"></ellipse>
                            </g>
                        </g>
                    </g>
                </g>
            </g>
        </g>
    </g>
</svg>