<svg id="Layer_1" data-name="Layer 1" xmlns="http://www.w3.org/2000/svg" xmlns:xlink="http://www.w3.org/1999/xlink" width="108.8" height="105.1" viewBox="0 0 108.8 105.1"><defs><style>.cls-1{fill:none;}.cls-2{clip-path:url(#clip-path);}.cls-3{fill:#fff;}</style><clipPath id="clip-path"><path class="cls-1" d="M55,67.51A15.5,15.5,0,1,0,39.46,52h0A15.5,15.5,0,0,0,55,67.51ZM86.76,14a9,9,0,0,1-9,9,8.68,8.68,0,0,1-2.8-.5l-8.8,14.7A18.79,18.79,0,0,1,73.66,52l12.7,1.3a9,9,0,1,1-.4,3.9L73.26,55.9a18.41,18.41,0,0,1-12.2,13.8l2.8,12.4a9,9,0,1,1-3.8.9l-2.7-12.5a16.2,16.2,0,0,1-2.2.1,18.6,18.6,0,0,1-16.9-10.9L23,64.81c0,0.3.1,0.6,0.1,1a9.08,9.08,0,1,1-1.3-4.6l15.3-5.1a17.52,17.52,0,0,1-.4-4,18.75,18.75,0,0,1,3.8-11.3l-7.1-6.7a8.83,8.83,0,0,1-5.1,1.6,9,9,0,1,1,9-9,8.83,8.83,0,0,1-1.3,4.6l7.1,6.7A18.6,18.6,0,0,1,63,35.21l8.8-14.7A8.75,8.75,0,0,1,69,13.9,8.77,8.77,0,0,1,77.6,5h0.16a9,9,0,0,1,9,9h0Z"/></clipPath></defs><title>linkedin-management</title><g class="cls-2"><rect class="cls-3" x="0.06" y="0.01" width="108.8" height="105.1"/></g><path class="cls-3" d="M55,39A13,13,0,1,0,68,52,13,13,0,0,0,55,39ZM51.25,58.67H48.46v-9h2.79v9Zm-1.4-10.19a1.62,1.62,0,1,1,1.62-1.62A1.62,1.62,0,0,1,49.85,48.48Zm9,10.29V54.42c0-1,0-2.38-1.45-2.38s-1.67,1.13-1.67,2.3v4.44H53v-9h2.67V51a2.93,2.93,0,0,1,2.64-1.43c2.82,0,3.34,1.86,3.34,4.27v4.93H58.9Z"/></svg>