<?xml version="1.0" encoding="UTF-8" standalone="no"?>
<svg width="101px" height="73px" viewBox="0 0 101 73" version="1.1" xmlns="http://www.w3.org/2000/svg" xmlns:xlink="http://www.w3.org/1999/xlink" xmlns:sketch="http://www.bohemiancoding.com/sketch/ns">
    <!-- Generator: Sketch 3.5 (25232) - http://www.bohemiancoding.com/sketch -->
    <title>retargeting-management</title>
    <desc>Created with Sketch.</desc>
    <defs></defs>
    <g id="Page-1" stroke="none" stroke-width="1" fill="none" fill-rule="evenodd" sketch:type="MSPage">
        <g id="retargeting-management" sketch:type="MSLayerGroup" transform="translate(1.000000, 1.000000)">
            <g id="Page-1" sketch:type="MSShapeGroup">
                <g id="Group-4">
                    <g id="noun_5867_cc" transform="translate(0.172973, 0.216216)">
                        <g id="Group-7" transform="translate(0.000000, -0.000000)">
                            <g id="Group" transform="translate(13.600000, 12.000000)" fill="#FFFFFF">
                                <ellipse id="Oval" cx="43.8296339" cy="6.49592138" rx="6.51776883" ry="6.49592138"></ellipse>
                                <path d="M40.8921126,19.0486129 L34.8149719,25.105383 L22.6606906,12.9918427 L0.377841671,35.2 L57.097821,35.2 L40.8921126,19.0486129 L40.8921126,19.0486129 Z" id="Shape"></path>
                            </g>
                            <g id="Group-6" transform="translate(0.627027, 0.583784)">
                                <path d="M84.583784,39.2099082 L84.583784,6.39814355 C84.583784,2.86623893 81.7218968,3.55271368e-15 78.1915806,3.55271368e-15 L6.39220326,3.55271368e-15 C2.86272098,3.55271368e-15 0,2.86454644 0,6.39814355 L0,51.2018565 C0,54.733761 2.86188688,57.6 6.39220326,57.6 L66.404171,57.6 C66.612755,47.606901 74.6186798,39.5308167 84.583784,39.2099082 L84.583784,39.2099082 Z" id="Rectangle-3" stroke="#FFFFFF" stroke-width="3"></path>
                                <path d="M81.6,70.4 C90.878384,70.4 98.4,62.8783838 98.4,53.6 C98.4,44.3216162 90.878384,36.8 81.6,36.8 C72.3216162,36.8 64.8,44.3216162 64.8,53.6 C64.8,62.8783838 72.3216162,70.4 81.6,70.4 L81.6,70.4 Z M92.0613504,49.055931 C90.8343832,47.8749857 89.2507496,47.2610912 87.5906872,47.3186182 C83.876092,47.4566829 82.4625736,50.7291424 81.2150613,53.6153499 C79.8229098,56.8385007 78.8063271,58.7935941 76.2956882,58.7007293 C73.5516542,58.6029332 71.402613,56.4259505 71.402613,53.741909 C71.402613,51.3504329 72.6813543,48.7913071 76.2685682,48.7822673 C77.2613186,48.7855546 78.102855,49.3148022 78.7118186,49.8645949 L77.7872787,50.6987352 L77.7938534,50.774342 L81.2503991,51.3759091 L81.0079644,47.8741637 L80.9323574,47.8610146 L79.9256364,48.7691181 C79.0865654,47.9760685 77.8448058,47.1567207 76.2759646,47.1575427 C76.2726774,47.1575429 76.2685683,47.156721 76.2644591,47.1575427 C72.3846798,47.1665827 69.7778886,49.812821 69.7778886,53.7410873 C69.7770668,57.3052906 72.615609,60.1964288 76.2381611,60.3246319 C80.0250758,60.4626965 81.4517434,57.1655824 82.7074736,54.2596512 C83.865408,51.5764315 84.9608848,49.042782 87.6506792,48.941699 C88.8661408,48.8981429 90.0273624,49.3526057 90.9330008,50.2253709 C91.919176,51.1753867 92.4854056,52.5157639 92.484584,53.9021626 C92.484584,56.604284 90.3782768,58.736889 87.584112,58.8618046 C86.494388,58.9045389 85.6676448,58.4607598 85.087444,57.9660282 L85.9930824,57.1770877 L85.9897952,57.1014809 L84.0675744,56.7324869 C84.0642872,56.7275559 84.0601776,56.7185161 84.0577128,56.7160508 L84.0371672,56.7267342 L82.5422896,56.4399214 L82.7255536,59.9449542 L82.8011608,59.9597469 L83.8539032,59.0417815 C84.6436656,59.7773042 85.8205016,60.4906382 87.4164624,60.490638 C87.4953568,60.490638 87.576716,60.4881726 87.656432,60.4840635 C91.2756968,60.3246317 94.1101304,57.4326718 94.1101304,53.9021624 C94.110952,52.0769158 93.363924,50.3108396 92.0613504,49.055931 L92.0613504,49.055931 Z" id="Oval-2" fill="#FFFFFF"></path>
                            </g>
                        </g>
                    </g>
                </g>
            </g>
        </g>
    </g>
</svg>