<?xml version="1.0" encoding="UTF-8" standalone="no"?>
<svg width="99px" height="96px" viewBox="0 0 99 96" version="1.1" xmlns="http://www.w3.org/2000/svg" xmlns:xlink="http://www.w3.org/1999/xlink" xmlns:sketch="http://www.bohemiancoding.com/sketch/ns">
    <!-- Generator: Sketch 3.5 (25232) - http://www.bohemiancoding.com/sketch -->
    <title>Group 5</title>
    <desc>Created with Sketch.</desc>
    <defs></defs>
    <g id="Page-1" stroke="none" stroke-width="1" fill="none" fill-rule="evenodd" sketch:type="MSPage">
        <g id="Group-5" sketch:type="MSLayerGroup">
            <path d="M50,60 C57.1797017,60 63,54.1797017 63,47 C63,39.8202983 57.1797017,34 50,34 C42.8202983,34 37,39.8202983 37,47 C37,54.1797017 42.8202983,60 50,60 Z M45.5260408,45.57216 C45.7172245,46.38032 46.0429388,46.79808 46.3539592,47.01248 C46.4563265,47.41008 46.6850612,47.99536 47.1565714,48.6216 L47.1559184,48.62192 C47.1570612,48.62256 47.1614694,48.62816 47.1621224,48.62912 C47.1890612,48.66512 47.2076735,48.6992 47.236898,48.73504 C47.236898,48.73504 47.5755102,49.11968 48.0486531,49.47536 C48.2780408,49.64352 48.5446531,49.80592 48.8466939,49.93168 C48.8489796,49.93232 48.8512653,49.9336 48.8540408,49.93456 C48.9526531,49.97552 49.0605714,50.004 49.1662041,50.03616 C49.3203265,50.0752 49.4666122,50.10624 49.6016327,50.12736 C49.669551,50.13744 49.7353469,50.15168 49.8063673,50.15616 C49.8321633,50.15952 49.8597551,50.16272 49.8850612,50.1656 C49.9221224,50.1672 49.9580408,50.16848 49.9952653,50.16848 C50.6700408,50.16848 51.3273469,49.9232 51.9614694,49.44912 C51.9614694,49.44912 52.6161633,48.85536 52.8979592,48.51472 C53.3164082,47.93072 53.5312653,47.3872 53.6275918,47.0128 C53.9377959,46.7984 54.264,46.38064 54.4553469,45.57248 C54.5666939,45.104 54.6497959,44.51248 54.307102,44.0888 C54.298449,44.07872 54.2901224,44.0688 54.2822857,44.05872 C54.5893878,41.09088 52.6483265,39.59152 51.5084082,39.20128 L51.4917551,39.196 L51.4754286,39.19136 C51.0460408,39.06464 50.6324898,39 50.2471837,39 C50.1572245,39 50.0716735,39.004 49.9900408,39.01008 C49.906449,39.00336 49.8202449,39 49.7342041,39 C49.3484082,39 48.9345306,39.06464 48.5048163,39.1912 L48.4889796,39.19616 L48.4731429,39.20112 C47.3325714,39.59136 45.392,41.09088 45.699102,44.05824 C45.6906122,44.06832 45.6821224,44.07824 45.674449,44.08832 C45.3312653,44.51216 45.4145306,45.10368 45.5260408,45.57216 Z M53.6945306,45.39808 C53.4566531,46.40128 53.0515918,46.46272 52.9560816,46.46272 C52.9423673,46.46272 52.9356735,46.46176 52.9356735,46.46176 C52.9356735,46.46176 52.8845714,47.40208 52.0013061,48.41616 C52.0009796,48.424 52.0003265,48.4328 51.9996735,48.44048 C51.3124898,49.12576 50.6115918,49.45792 49.9085714,49.432 C49.034449,49.39632 48.3438367,48.812 48.0006531,48.45792 C48.0006531,48.45264 47.9995102,48.4448 47.9995102,48.43952 C47.0982857,47.41632 47.045551,46.4616 47.045551,46.4616 C47.045551,46.4616 47.037551,46.46256 47.0246531,46.46256 C46.9284898,46.46256 46.5240816,46.40096 46.2862041,45.39792 C46.1017143,44.61824 46.2953469,44.49472 46.4370612,44.49472 C46.5033469,44.49472 46.5573878,44.52128 46.5573878,44.52128 C46.5555918,44.51344 46.5555918,44.50752 46.554449,44.50032 L46.5825306,44.5256 L46.9043265,45.5056 C46.9043265,45.5056 46.6884898,42.75408 48.2003265,42.5424 C48.2003265,42.5424 49.805551,44.16608 51.8,44.51776 C51.8,44.51776 51.368,43.74176 51.0078367,43.03616 C51.0078367,43.03616 52.16,44.30624 53.1678367,44.51776 C53.1678367,44.51776 53.3240816,44.32144 53.4969796,44.00096 C53.4788571,44.16976 53.4587755,44.33936 53.4233469,44.52128 C53.4233469,44.52128 53.4778776,44.49472 53.5441633,44.49472 C53.6860408,44.49504 53.8795102,44.6184 53.6945306,45.39808 Z M57.8336327,52.80688 C57.1186939,50.96064 55.908898,50.5288 54.9353469,50.3584 C54.122449,50.21552 53.1090612,49.91904 52.7506939,49.7256 L50.8437551,52.856 L50.5580408,51.6288 C50.893551,51.43904 51.1217959,51.08816 51.1217959,50.68064 C51.1217959,50.63568 51.1137959,50.59248 51.1080816,50.54848 C50.7652245,50.64224 50.3960816,50.69568 50.0091429,50.69568 C49.6155102,50.69568 49.2403265,50.64 48.8927347,50.54416 C48.8870204,50.58944 48.8786939,50.63392 48.8786939,50.6808 C48.8786939,51.08832 49.1069388,51.4392 49.4421224,51.62896 L49.1564082,52.85648 L47.2471837,49.7272 C46.8871837,49.91904 45.876898,50.216 45.0648163,50.3584 C44.0906122,50.5288 42.8811429,50.96064 42.1668571,52.8064 C42.0453878,53.12048 42.0886531,53.4608 42.2850612,53.74016 C43.019102,54.78128 46.8860408,55 49.9996735,55 C53.1146122,55 56.980898,54.78128 57.7142857,53.74 C57.9111837,53.46064 57.954449,53.12032 57.8336327,52.80688 Z" id="Oval-1" fill="#FFFFFF" sketch:type="MSShapeGroup"></path>
            <g id="noun_17241" transform="translate(42.000000, 39.000000)">
                <g id="Group"></g>
            </g>
            <g id="instagram-management" fill="#FFFFFF" sketch:type="MSShapeGroup">
                <g id="Group-4">
                    <g id="Page-1">
                        <g id="Group-4">
                            <g id="noun_216718_cc">
                                <g id="Group">
                                    <path d="M81.7,9 C81.7,14 77.7,18 72.7,18 C71.7,18 70.8,17.8 69.9,17.5 L61.1,32.2 C65.6,35.6 68.5,40.9 68.6,47 L81.3,48.3 C82.5,44.7 85.8,42.1 89.8,42.1 C94.8,42.1 98.8,46.1 98.8,51.1 C98.8,56.1 94.8,60.1 89.8,60.1 C85.2,60.1 81.4,56.6 80.9,52.2 L68.2,50.9 C66.9,57.4 62.2,62.6 56,64.7 L58.8,77.1 C63.9,77.1 67.9,81.1 67.9,86.1 C67.9,91.1 63.9,95.1 58.9,95.1 C53.9,95.1 49.9,91.1 49.9,86.1 C49.9,82.5 52,79.4 55,78 L52.3,65.5 C51.6,65.6 50.8,65.6 50.1,65.6 C42.6,65.6 36.1,61.1 33.2,54.7 L17.9,59.8 C17.9,60.1 18,60.4 18,60.8 C18,65.8 14,69.8 9,69.8 C4,69.8 0,65.8 0,60.8 C0,55.8 4,51.8 9,51.8 C12.3,51.8 15.1,53.6 16.7,56.2 L32,51.1 C31.7,49.8 31.6,48.5 31.6,47.1 C31.6,42.9 33,39 35.4,35.8 L28.3,29.1 C26.9,30.1 25.1,30.7 23.2,30.7 C18.2,30.7 14.2,26.7 14.2,21.7 C14.2,16.7 18.2,12.7 23.2,12.7 C28.2,12.7 32.2,16.7 32.2,21.7 C32.2,23.4 31.7,25 30.9,26.3 L38,33 C41.2,30.2 45.5,28.5 50.1,28.5 C52.9,28.5 55.5,29.1 57.9,30.2 L66.7,15.5 C64.9,13.9 63.9,11.5 63.9,8.9 C63.8,4 67.8,0 72.7,0 C77.7,0 81.7,4 81.7,9 L81.7,9 Z M49.9,62.5 C58.4604136,62.5 65.4,55.5604136 65.4,47 C65.4,38.4395864 58.4604136,31.5 49.9,31.5 C41.3395864,31.5 34.4,38.4395864 34.4,47 C34.4,55.5604136 41.3395864,62.5 49.9,62.5 L49.9,62.5 Z" id="Shape"></path>
                                </g>
                            </g>
                        </g>
                    </g>
                </g>
            </g>
        </g>
    </g>
</svg>