<?xml version="1.0" encoding="UTF-8" standalone="no"?>
<svg width="95px" height="72px" viewBox="0 0 95 72" version="1.1" xmlns="http://www.w3.org/2000/svg" xmlns:xlink="http://www.w3.org/1999/xlink" xmlns:sketch="http://www.bohemiancoding.com/sketch/ns">
    <!-- Generator: Sketch 3.5 (25232) - http://www.bohemiancoding.com/sketch -->
    <title>noun_78032_cc</title>
    <desc>Created with Sketch.</desc>
    <defs></defs>
    <g id="Page-1" stroke="none" stroke-width="1" fill="none" fill-rule="evenodd" sketch:type="MSPage">
        <g id="noun_78032_cc" sketch:type="MSLayerGroup" fill="#FFFFFF">
            <g id="Group" sketch:type="MSShapeGroup">
                <g>
                    <path d="M94.0173913,65.0086957 L84.7304348,65.0086957 L84.7304348,17.8434783 C84.7304348,15.6521739 82.9565217,13.8782609 80.7652174,13.8782609 L62.6086957,13.8782609 L62.6086957,12.2086957 L66.4695652,12.2086957 L59.5826087,0.834782609 L52.6956522,12.2086957 L56.5565217,12.2086957 L56.5565217,13.8782609 L15.2347826,13.8782609 C13.0434783,13.8782609 11.2695652,15.6521739 11.2695652,17.8434783 L11.2695652,65.0086957 L1.87826087,65.0086957 C1.35652174,65.0086957 0.939130435,65.426087 0.939130435,65.9478261 L0.939130435,68.0347826 C0.939130435,70.226087 2.71304348,72 4.90434783,72 L90.8869565,72 C93.0782609,72 94.8521739,70.226087 94.8521739,68.0347826 L94.8521739,65.9478261 C94.9565217,65.426087 94.5391304,65.0086957 94.0173913,65.0086957 L94.0173913,65.0086957 Z M13.0434783,17.8434783 C13.0434783,16.6956522 13.9826087,15.6521739 15.2347826,15.6521739 L56.5565217,15.6521739 L56.5565217,19.826087 L17.3217391,19.826087 L17.3217391,60.7304348 L78.6782609,60.7304348 L78.6782609,19.826087 L62.6086957,19.826087 L62.6086957,15.6521739 L80.7652174,15.6521739 C81.9130435,15.6521739 82.9565217,16.5913043 82.9565217,17.8434783 L82.9565217,65.0086957 L13.0434783,65.0086957 L13.0434783,17.8434783 L13.0434783,17.8434783 Z M62.6086957,51.8608696 L62.6086957,21.3913043 L77.1130435,21.3913043 L77.1130435,59.1652174 L18.8869565,59.1652174 L18.8869565,21.3913043 L56.6608696,21.3913043 L56.6608696,51.8608696 L62.6086957,51.8608696 L62.6086957,51.8608696 Z M93.0782609,67.9304348 C93.0782609,69.0782609 92.1391304,70.1217391 90.8869565,70.1217391 L5.00869565,70.1217391 C3.86086957,70.1217391 2.8173913,69.1826087 2.8173913,67.9304348 L2.8173913,66.7826087 L12.1043478,66.7826087 L12.1043478,66.7826087 L12.1043478,66.7826087 L39.4434783,66.7826087 L39.4434783,68.4521739 L56.3478261,68.4521739 L56.3478261,66.7826087 L83.6869565,66.7826087 L83.6869565,66.7826087 L83.6869565,66.7826087 L92.973913,66.7826087 L92.973913,67.9304348 L93.0782609,67.9304348 Z" id="Shape"></path>
                    <rect id="Rectangle-path" x="47.7913043" y="31.7217391" width="6.05217391" height="20.1391304"></rect>
                    <rect id="Rectangle-path" x="38.5043478" y="38.4" width="6.05217391" height="13.4608696"></rect>
                    <rect id="Rectangle-path" x="29.5304348" y="44.0347826" width="6.05217391" height="8.13913043"></rect>
                </g>
            </g>
        </g>
    </g>
</svg>