<?xml version="1.0" encoding="UTF-8" standalone="no"?>
<svg width="79px" height="85px" viewBox="0 0 79 85" version="1.1" xmlns="http://www.w3.org/2000/svg" xmlns:xlink="http://www.w3.org/1999/xlink" xmlns:sketch="http://www.bohemiancoding.com/sketch/ns">
    <!-- Generator: Sketch 3.5 (25232) - http://www.bohemiancoding.com/sketch -->
    <title>noun_28689_cc</title>
    <desc>Created with Sketch.</desc>
    <defs></defs>
    <g id="Page-1" stroke="none" stroke-width="1" fill="none" fill-rule="evenodd" sketch:type="MSPage">
        <g id="noun_28689_cc" sketch:type="MSLayerGroup" fill="#FFFFFF">
            <g id="Group" sketch:type="MSShapeGroup">
                <path d="M71.64,12.26 L59.36,24.55 L38.03,45.87 L23.22,31.06 L11.53,42.75 L7.11,38.33 C7.17,40.01 7.39,41.64 7.76,43.22 C10.34,54.151 20.17,62.31 31.88,62.31 C45.54,62.31 56.651,51.191 56.651,37.53 C56.651,35.66 56.441,33.85 56.05,32.1 L61.481,26.67 C62.731,30.06 63.411,33.71 63.411,37.53 C63.411,43.651 61.661,49.361 58.64,54.191 L75.54,71.031 C78.37,73.841 78.37,78.43 75.54,81.241 L74.84,81.941 C72.03,84.77 67.441,84.77 64.63,81.941 L47.51,64.91 C42.901,67.559 37.56,69.07 31.88,69.07 C14.49,69.07 0.34,54.92 0.34,37.529 C0.34,36.959 0.36,36.399 0.38,35.839 C0.42,35.059 0.49,34.289 0.6,33.519 C0.7,32.669 0.85,31.829 1.02,30.999 C4.04,16.729 16.73,5.999 31.88,5.999 C40.66,5.999 48.62,9.609 54.34,15.419 L49.56,20.199 C45.06,15.609 38.8,12.759 31.88,12.759 C22.1,12.759 13.63,18.439 9.61,26.679 C9.13,27.649 8.72,28.649 8.38,29.689 L11.53,32.849 L23.22,21.159 L38.03,35.969 L51.68,22.319 L56.46,17.539 L66.69,7.309 L56.53,7.309 L56.53,0.309 L78.64,0.309 L78.64,22.879 L71.64,22.879 L71.64,12.26 Z" id="Shape"></path>
            </g>
        </g>
    </g>
</svg>