<?xml version="1.0" encoding="UTF-8"?>
<svg width="99px" height="96px" viewBox="0 0 99 96" version="1.1" xmlns="http://www.w3.org/2000/svg" xmlns:xlink="http://www.w3.org/1999/xlink">
    <!-- Generator: Sketch 45 (43475) - http://www.bohemiancoding.com/sketch -->
    <title>wordpress-mgmt</title>
    <desc>Created with Sketch.</desc>
    <defs></defs>
    <g id="Page-1" stroke="none" stroke-width="1" fill="none" fill-rule="evenodd">
        <g id="wordpress-mgmt" fill-rule="nonzero" fill="#FFFFFF">
            <g id="social-media-management">
                <g id="instagram-management">
                    <g id="Group-4">
                        <g id="Page-1">
                            <g id="Group-4">
                                <g id="noun_216718_cc">
                                    <g id="Group">
                                        <path d="M81.7000015,9.00000014 C81.7000015,14.0000002 77.7000012,18.0000003 72.7000014,18.0000003 C71.7000011,18.0000003 70.8000011,17.8000003 69.9000011,17.5000003 L61.1000008,32.2000005 C65.6000008,35.6000005 68.5000013,40.9000007 68.6000009,47.0000007 L81.3000013,48.3000008 C82.5000013,44.7000007 85.8000014,42.1000007 89.8000016,42.1000007 C94.8000015,42.1000007 98.8000018,46.1000007 98.8000018,51.1000008 C98.8000018,56.1000009 94.8000015,60.1000012 89.8000016,60.1000012 C85.2000014,60.1000012 81.4000015,56.6000009 80.9000011,52.2000008 L68.2000013,50.9000008 C66.9000011,57.4000009 62.2000012,62.6000008 56.0000009,64.7000008 L58.8000009,77.1000012 C63.900001,77.1000012 67.9000013,81.1000015 67.9000013,86.1000014 C67.9000013,91.1000013 63.900001,95.1000015 58.900001,95.1000015 C53.9000008,95.1000015 49.9000008,91.1000013 49.9000008,86.1000014 C49.9000008,82.5000013 52.0000009,79.4000011 55.0000009,78.0000012 L52.3000009,65.5000012 C51.6000008,65.6000008 50.8000008,65.6000008 50.1000008,65.6000008 C42.6000007,65.6000008 36.1000006,61.1000008 33.2000005,54.7000009 L17.9000003,59.800001 C17.9000003,60.1000012 18.0000003,60.4000012 18.0000003,60.8000008 C18.0000003,65.8000013 14.0000002,69.8000009 9.00000014,69.8000009 C4.00000007,69.8000009 0,65.8000013 0,60.8000008 C0,55.8000009 4.00000007,51.8000008 9.00000014,51.8000008 C12.3000002,51.8000008 15.1000003,53.6000008 16.7000002,56.2000009 L32.0000005,51.1000008 C31.7000005,49.8000008 31.6000005,48.5000008 31.6000005,47.1000008 C31.6000005,42.9000007 33.0000005,39.0000006 35.4000006,35.8000006 L28.3000005,29.1000005 C26.9000004,30.1000005 25.1000004,30.7000005 23.2000004,30.7000005 C18.2000003,30.7000005 14.2000002,26.7000004 14.2000002,21.7000004 C14.2000002,16.7000002 18.2000003,12.7000002 23.2000004,12.7000002 C28.2000005,12.7000002 32.2000005,16.7000002 32.2000005,21.7000004 C32.2000005,23.4000004 31.7000005,25.0000004 30.9000005,26.3000004 L38.0000006,33.0000005 C41.2000007,30.2000005 45.5000007,28.5000005 50.1000008,28.5000005 C52.9000009,28.5000005 55.5000009,29.1000005 57.9000009,30.2000005 L66.7000013,15.5000002 C64.9000012,13.9000002 63.900001,11.5000002 63.900001,8.90000012 C63.8000008,4.00000007 67.8000011,0 72.7000014,0 C77.7000012,0 81.7000015,4.00000007 81.7000015,9.00000014 L81.7000015,9.00000014 Z M49.9000008,62.5000012 C58.4604146,62.5000012 65.400001,55.5604145 65.400001,47.0000007 C65.400001,38.439587 58.4604146,31.5000005 49.9000008,31.5000005 C41.3395871,31.5000005 34.4000005,38.439587 34.4000005,47.0000007 C34.4000005,55.5604145 41.3395871,62.5000012 49.9000008,62.5000012 L49.9000008,62.5000012 Z" id="Shape"></path>
                                    </g>
                                </g>
                            </g>
                        </g>
                    </g>
                </g>
            </g>
            <g id="WordPress_logo" transform="translate(36.600001, 34.200001)">
                <g id="Group">
                    <path d="M0.175110631,13.1728703 C0.175110631,18.3178581 3.16509992,22.7641346 7.50081936,24.8711508 L1.3004685,7.88294635 C0.579250137,9.49950441 0.175110631,11.2884524 0.175110631,13.1728703 Z" id="Shape"></path>
                    <path d="M21.9481884,12.5169475 C21.9481884,10.91053 21.3711642,9.7980334 20.8762541,8.93212616 C20.2173633,7.86142855 19.5997768,6.95471159 19.5997768,5.88401399 C19.5997768,4.689156 20.505999,3.5769067 21.7824764,3.5769067 C21.8401046,3.5769067 21.8947648,3.58407931 21.950909,3.58729462 C19.6383604,1.46865385 16.5573532,0.175110631 13.173365,0.175110631 C8.63236052,0.175110631 4.63721641,2.50497242 2.31304325,6.0338968 C2.61800287,6.04304806 2.90540195,6.04947868 3.14951804,6.04947868 C4.50909874,6.04947868 6.61364165,5.88450866 6.61364165,5.88450866 C7.3143315,5.84320431 7.39694016,6.87235025 6.69699233,6.95520629 C6.69699233,6.95520629 5.99283981,7.03806233 5.20929394,7.07911931 L9.94272226,21.1584593 L12.7872807,12.6272572 L10.7621312,7.07862467 C10.0621833,7.03756763 9.39908787,6.95471159 9.39908787,6.95471159 C8.69864534,6.91365461 8.78075936,5.84270965 9.48120189,5.88401399 C9.48120189,5.88401399 11.6277911,6.04898404 12.9050104,6.04898404 C14.2643438,6.04898404 16.369134,5.88401399 16.369134,5.88401399 C17.0703185,5.84270965 17.1526799,6.87185561 16.4524847,6.95471159 C16.4524847,6.95471159 15.7468482,7.03756763 14.9647863,7.07862467 L19.6621042,21.0513647 L20.9586155,16.7188606 C21.5205524,14.9210087 21.9481884,13.6296914 21.9481884,12.5169475 Z" id="Shape"></path>
                    <path d="M13.4014046,14.3098527 L9.50148303,25.6423302 C10.6659193,25.9846369 11.8973823,26.1718667 13.173365,26.1718667 C14.6870332,26.1718667 16.1386212,25.9101901 17.4897926,25.4350664 C17.4549189,25.3794169 17.4232604,25.3203047 17.3972906,25.2559985 L13.4014046,14.3098527 Z" id="Shape"></path>
                    <path d="M24.5788052,6.93665645 C24.6347021,7.35068922 24.6663605,7.79514372 24.6663605,8.27323531 C24.6663605,9.59225367 24.4200184,11.0750054 23.6780242,12.9290016 L19.7076132,24.4083938 C23.571919,22.1549575 26.1711247,17.9683788 26.1711247,13.1731177 C26.171372,10.9132507 25.5941006,8.78817926 24.5788052,6.93665645 Z" id="Shape"></path>
                </g>
            </g>
        </g>
    </g>
</svg>