<?xml version="1.0" encoding="UTF-8" standalone="no"?>
<svg width="79px" height="72px" viewBox="0 0 79 72" version="1.1" xmlns="http://www.w3.org/2000/svg" xmlns:xlink="http://www.w3.org/1999/xlink" xmlns:sketch="http://www.bohemiancoding.com/sketch/ns">
    <!-- Generator: Sketch 3.5 (25232) - http://www.bohemiancoding.com/sketch -->
    <title>noun_337995_cc</title>
    <desc>Created with Sketch.</desc>
    <defs></defs>
    <g id="Page-1" stroke="none" stroke-width="1" fill="none" fill-rule="evenodd" sketch:type="MSPage">
        <g id="noun_337995_cc" sketch:type="MSLayerGroup" transform="translate(-8.000000, 0.000000)">
            <g id="Group">
                <g>
                    <g id="Group-6" transform="translate(8.000000, 0.000000)" fill="#FFFFFF" sketch:type="MSShapeGroup">
                        <path d="M47.2195122,39.5121951 C47.9465366,39.5121951 48.5365854,38.9221463 48.5365854,38.195122 L48.5365854,9.65853659 C48.5365854,8.93063415 47.9465366,8.34146341 47.2195122,8.34146341 C46.4924878,8.34146341 45.902439,8.93063415 45.902439,9.65853659 L45.902439,38.195122 C45.902439,38.9221463 46.4924878,39.5121951 47.2195122,39.5121951 L47.2195122,39.5121951 Z" id="Shape"></path>
                        <path d="M53.804878,10.9756098 L62.5853659,10.9756098 C63.3123902,10.9756098 63.902439,10.386439 63.902439,9.65853659 C63.902439,8.93063415 63.3123902,8.34146341 62.5853659,8.34146341 L53.804878,8.34146341 C53.0778537,8.34146341 52.4878049,8.93063415 52.4878049,9.65853659 C52.4878049,10.386439 53.0778537,10.9756098 53.804878,10.9756098 L53.804878,10.9756098 Z" id="Shape"></path>
                        <path d="M53.804878,15.3658537 L58.195122,15.3658537 C58.9221463,15.3658537 59.5121951,14.7766829 59.5121951,14.0487805 C59.5121951,13.320878 58.9221463,12.7317073 58.195122,12.7317073 L53.804878,12.7317073 C53.0778537,12.7317073 52.4878049,13.320878 52.4878049,14.0487805 C52.4878049,14.7766829 53.0778537,15.3658537 53.804878,15.3658537 L53.804878,15.3658537 Z" id="Shape"></path>
                        <path d="M53.804878,21.9512195 L62.5853659,21.9512195 C63.3123902,21.9512195 63.902439,21.3620488 63.902439,20.6341463 C63.902439,19.9062439 63.3123902,19.3170732 62.5853659,19.3170732 L53.804878,19.3170732 C53.0778537,19.3170732 52.4878049,19.9062439 52.4878049,20.6341463 C52.4878049,21.3620488 53.0778537,21.9512195 53.804878,21.9512195 L53.804878,21.9512195 Z" id="Shape"></path>
                        <path d="M53.804878,26.3414634 L58.195122,26.3414634 C58.9221463,26.3414634 59.5121951,25.7522927 59.5121951,25.0243902 C59.5121951,24.2964878 58.9221463,23.7073171 58.195122,23.7073171 L53.804878,23.7073171 C53.0778537,23.7073171 52.4878049,24.2964878 52.4878049,25.0243902 C52.4878049,25.7522927 53.0778537,26.3414634 53.804878,26.3414634 L53.804878,26.3414634 Z" id="Shape"></path>
                        <path d="M53.804878,32.9268293 L62.5853659,32.9268293 C63.3123902,32.9268293 63.902439,32.3376585 63.902439,31.6097561 C63.902439,30.8818537 63.3123902,30.2926829 62.5853659,30.2926829 L53.804878,30.2926829 C53.0778537,30.2926829 52.4878049,30.8818537 52.4878049,31.6097561 C52.4878049,32.3376585 53.0778537,32.9268293 53.804878,32.9268293 L53.804878,32.9268293 Z" id="Shape"></path>
                        <path d="M53.804878,37.3170732 L58.195122,37.3170732 C58.9221463,37.3170732 59.5121951,36.7279024 59.5121951,36 C59.5121951,35.2720976 58.9221463,34.6829268 58.195122,34.6829268 L53.804878,34.6829268 C53.0778537,34.6829268 52.4878049,35.2720976 52.4878049,36 C52.4878049,36.7279024 53.0778537,37.3170732 53.804878,37.3170732 L53.804878,37.3170732 Z" id="Shape"></path>
                        <path d="M16.4878049,10.9756098 L38.4390244,10.9756098 C39.1669268,10.9756098 39.7560976,10.386439 39.7560976,9.65853659 C39.7560976,8.93063415 39.1669268,8.34146341 38.4390244,8.34146341 L16.4878049,8.34146341 C15.7599024,8.34146341 15.1707317,8.93063415 15.1707317,9.65853659 C15.1707317,10.386439 15.7599024,10.9756098 16.4878049,10.9756098 L16.4878049,10.9756098 Z" id="Shape"></path>
                        <path d="M16.4878049,15.3658537 L36.2439024,15.3658537 C36.9718049,15.3658537 37.5609756,14.7766829 37.5609756,14.0487805 C37.5609756,13.320878 36.9718049,12.7317073 36.2439024,12.7317073 L16.4878049,12.7317073 C15.7599024,12.7317073 15.1707317,13.320878 15.1707317,14.0487805 C15.1707317,14.7766829 15.7599024,15.3658537 16.4878049,15.3658537 L16.4878049,15.3658537 Z" id="Shape"></path>
                        <path d="M16.4878049,21.9512195 L38.4390244,21.9512195 C39.1669268,21.9512195 39.7560976,21.3620488 39.7560976,20.6341463 C39.7560976,19.9062439 39.1669268,19.3170732 38.4390244,19.3170732 L16.4878049,19.3170732 C15.7599024,19.3170732 15.1707317,19.9062439 15.1707317,20.6341463 C15.1707317,21.3620488 15.7599024,21.9512195 16.4878049,21.9512195 L16.4878049,21.9512195 Z" id="Shape"></path>
                        <path d="M16.4878049,26.3414634 L27.4634146,26.3414634 C28.1913171,26.3414634 28.7804878,25.7522927 28.7804878,25.0243902 C28.7804878,24.2964878 28.1913171,23.7073171 27.4634146,23.7073171 L16.4878049,23.7073171 C15.7599024,23.7073171 15.1707317,24.2964878 15.1707317,25.0243902 C15.1707317,25.7522927 15.7599024,26.3414634 16.4878049,26.3414634 L16.4878049,26.3414634 Z" id="Shape"></path>
                        <path d="M16.4878049,32.9268293 L38.4390244,32.9268293 C39.1669268,32.9268293 39.7560976,32.3376585 39.7560976,31.6097561 C39.7560976,30.8818537 39.1669268,30.2926829 38.4390244,30.2926829 L16.4878049,30.2926829 C15.7599024,30.2926829 15.1707317,30.8818537 15.1707317,31.6097561 C15.1707317,32.3376585 15.7599024,32.9268293 16.4878049,32.9268293 L16.4878049,32.9268293 Z" id="Shape"></path>
                        <path d="M16.4878049,37.3170732 L27.4634146,37.3170732 C28.1913171,37.3170732 28.7804878,36.7279024 28.7804878,36 C28.7804878,35.2720976 28.1913171,34.6829268 27.4634146,34.6829268 L16.4878049,34.6829268 C15.7599024,34.6829268 15.1707317,35.2720976 15.1707317,36 C15.1707317,36.7279024 15.7599024,37.3170732 16.4878049,37.3170732 L16.4878049,37.3170732 Z" id="Shape"></path>
                        <path d="M73.6585366,8.34146341 L70.2350244,8.34146341 C70.7039024,7.82517073 70.6986341,7.03053659 70.1999024,6.53180488 C69.9426341,6.27453659 69.6054634,6.14634146 69.2682927,6.14634146 C68.931122,6.14634146 68.5939512,6.27453659 68.3366829,6.53180488 L66.1433171,8.72517073 C66.0203902,8.84809756 65.9229268,8.99473171 65.8553171,9.15804878 C65.8526829,9.16419512 65.8518049,9.17121951 65.8491707,9.17736585 C65.7903415,9.32663415 65.7560976,9.48819512 65.7560976,9.65853659 C65.7560976,9.82887805 65.7912195,9.98956098 65.8491707,10.1397073 C65.8518049,10.1458537 65.8526829,10.152878 65.8553171,10.1590244 C65.9229268,10.3223415 66.0203902,10.4689756 66.1433171,10.5919024 L68.3366829,12.7852683 C68.8512195,13.2998049 69.6844878,13.2998049 70.1990244,12.7852683 C70.6977561,12.2874146 70.7030244,11.4927805 70.2341463,10.9756098 L73.6585366,10.9756098 C74.386439,10.9756098 74.9756098,10.386439 74.9756098,9.65853659 C74.9756098,8.93063415 74.386439,8.34146341 73.6585366,8.34146341 L73.6585366,8.34146341 L73.6585366,8.34146341 Z" id="Shape"></path>
                        <path d="M74.6585366,0.658536585 L4.41463415,0.658536585 C2.47765854,0.658536585 0.902439024,2.2337561 0.902439024,4.17073171 L0.902439024,52.4634146 C0.902439024,54.4003902 2.47765854,55.9756098 4.41463415,55.9756098 L29.4390244,55.9756098 L29.4390244,61.2439024 C29.4390244,62.1842927 28.964,63.7524878 28.442439,64.5348293 L26.4870244,67.4675122 C25.8899512,68.363122 25.7872195,69.3254634 26.2069268,70.109561 C26.6257561,70.8927805 27.4836098,71.3414634 28.5609756,71.3414634 L50.5121951,71.3414634 C51.589561,71.3414634 52.4465366,70.8919024 52.8662439,70.109561 C53.2859512,69.3254634 53.1832195,68.363122 52.5861463,67.4675122 L50.6307317,64.5348293 C50.1091707,63.7524878 49.6341463,62.1842927 49.6341463,61.2439024 L49.6341463,55.9756098 L74.6585366,55.9756098 C76.5955122,55.9756098 78.1707317,54.4003902 78.1707317,52.4634146 L78.1707317,4.17073171 C78.1707317,2.2337561 76.5955122,0.658536585 74.6585366,0.658536585 L74.6585366,0.658536585 Z M4.41463415,3.29268293 L74.6585366,3.29268293 C75.1432195,3.29268293 75.5365854,3.68692683 75.5365854,4.17073171 L75.5365854,44.5609756 L3.53658537,44.5609756 L3.53658537,4.17073171 C3.53658537,3.68692683 3.93082927,3.29268293 4.41463415,3.29268293 L4.41463415,3.29268293 Z M48.439122,65.9959024 L50.2470244,68.7073171 L28.8270244,68.7073171 L30.6349268,65.9959024 C31.4550244,64.7666341 32.0740488,62.7225366 32.0740488,61.2439024 L32.0740488,55.9756098 L47.000878,55.9756098 L47.000878,61.2439024 C47,62.7234146 47.6181463,64.7666341 48.439122,65.9959024 L48.439122,65.9959024 Z M74.6585366,53.3414634 L4.41463415,53.3414634 C3.93082927,53.3414634 3.53658537,52.9480976 3.53658537,52.4634146 L3.53658537,47.195122 L75.5365854,47.195122 L75.5365854,52.4634146 C75.5365854,52.9480976 75.1432195,53.3414634 74.6585366,53.3414634 L74.6585366,53.3414634 Z" id="Shape"></path>
                        <path d="M5.85365854,11.4146341 L9.27717073,11.4146341 C8.80829268,11.9309268 8.81356098,12.725561 9.31229268,13.2242927 C9.56956098,13.481561 9.90673171,13.6097561 10.2439024,13.6097561 C10.5810732,13.6097561 10.9182439,13.481561 11.1755122,13.2242927 L13.368878,11.0309268 C13.4918049,10.908 13.5892683,10.7613659 13.656878,10.5980488 C13.6595122,10.5919024 13.6603902,10.584878 13.6630244,10.5787317 C13.7218537,10.4294634 13.7560976,10.2679024 13.7560976,10.097561 C13.7560976,9.92721951 13.7209756,9.76653659 13.6630244,9.61639024 C13.6603902,9.6102439 13.6595122,9.60321951 13.656878,9.59707317 C13.5892683,9.4337561 13.4918049,9.28712195 13.368878,9.16419512 L11.1755122,6.97082927 C10.6609756,6.45629268 9.82770732,6.45629268 9.31317073,6.97082927 C8.81443902,7.46868293 8.80917073,8.26331707 9.27804878,8.7804878 L5.85365854,8.7804878 C5.1257561,8.7804878 4.53658537,9.36965854 4.53658537,10.097561 C4.53658537,10.8254634 5.1257561,11.4146341 5.85365854,11.4146341 L5.85365854,11.4146341 Z" id="Shape"></path>
                    </g>
                    <g id="Group-7">
                        <circle id="Oval" fill="#FFFFFF" sketch:type="MSShapeGroup" cx="46.5365854" cy="50.2682927" r="2.19512195"></circle>
                        <g id="Group-4">
                            <g id="Group-5"></g>
                        </g>
                    </g>
                </g>
            </g>
        </g>
    </g>
</svg>