<?xml version="1.0" encoding="UTF-8" standalone="no"?>
<svg width="80px" height="84px" viewBox="0 0 80 84" version="1.1" xmlns="http://www.w3.org/2000/svg" xmlns:xlink="http://www.w3.org/1999/xlink" xmlns:sketch="http://www.bohemiancoding.com/sketch/ns">
    <!-- Generator: Sketch 3.5 (25232) - http://www.bohemiancoding.com/sketch -->
    <title>get-more-instagram-followers</title>
    <desc>Created with Sketch.</desc>
    <defs></defs>
    <g id="Page-1" stroke="none" stroke-width="1" fill="none" fill-rule="evenodd" sketch:type="MSPage">
        <g id="get-more-instagram-followers" sketch:type="MSLayerGroup" fill="#FFFFFF">
            <g id="Group-4" sketch:type="MSShapeGroup">
                <g id="Page-1">
                    <g id="Group-15">
                        <g id="noun_223757_cc">
                            <g id="Group">
                                <g id="Group-3">
                                    <g id="Group-4">
                                        <path d="M32.4676745,52.6251338 C32.8102214,52.1113135 32.8102214,51.4262197 32.3820378,50.9980361 L31.1831238,49.7991221 L29.9842097,48.600208 C29.5560261,48.1720244 28.8709324,48.0863877 28.3571121,48.4289346 L26.3874676,49.8847588 C25.959284,50.141669 25.4454637,50.2273057 24.9316433,49.9703955 C24.2465496,49.6278486 23.5614559,49.2853018 22.7907254,49.1140283 C22.2769051,48.9427549 21.9343582,48.5145713 21.8487215,48.000751 L21.4205379,45.5172862 C21.3349012,44.9178291 20.8210809,44.4896456 20.2216238,44.4896456 L18.5945262,44.4896456 L16.9674286,44.4896456 C16.3679715,44.4896456 15.8541512,44.9178291 15.6828778,45.5172862 L15.2546942,48.000751 C15.1690575,48.5145713 14.8265106,48.9427549 14.3126903,49.0283916 C13.6275965,49.2853018 12.9425028,49.5422119 12.2574091,49.8847588 C11.8292255,50.141669 11.2297684,50.0560322 10.8015848,49.7991221 L8.74630361,48.3432979 C8.2324833,48.000751 7.54738955,48.000751 7.11920596,48.4289346 L5.92029191,49.6278486 L4.72137785,50.8267627 C4.29319426,51.2549463 4.20755754,51.94004 4.55010441,52.4538603 L6.00592862,54.5091416 C6.26283878,54.9373252 6.3484755,55.4511455 6.09156534,55.9649658 C5.74901847,56.6500595 5.49210831,57.3351533 5.23519816,58.020247 C5.06392472,58.5340673 4.63574113,58.8766142 4.12192082,58.9622509 L1.638456,59.3904345 C1.03899897,59.4760712 0.610815377,59.9898916 0.610815377,60.5893486 L0.610815377,62.2164462 L0.610815377,63.8435439 C0.610815377,64.4430009 1.03899897,64.9568212 1.638456,65.1280946 L4.12192082,65.5562782 C4.63574113,65.641915 5.06392472,65.9844618 5.14956144,66.4982821 C5.4064716,67.1833759 5.66338175,67.8684696 6.00592862,68.5535634 C6.26283878,68.981747 6.17720206,69.581204 5.92029191,70.0093876 L4.4644677,72.0646688 C4.12192082,72.5784891 4.12192082,73.2635829 4.55010441,73.6917665 L5.74901847,74.8906805 L6.94793252,76.0895946 C7.37611611,76.5177782 8.06120986,76.6034149 8.57503017,76.260868 L10.6303114,74.8050438 C11.058495,74.5481336 11.5723153,74.4624969 12.0861356,74.7194071 C12.6855926,75.061954 13.3706864,75.3188641 14.0557801,75.5757743 C14.5696004,75.7470477 14.9121473,76.1752313 14.997784,76.6890516 L15.4259676,79.1725164 C15.5116043,79.7719735 16.0254247,80.200157 16.6248817,80.200157 L18.2519793,80.200157 L19.879077,80.200157 C20.478534,80.200157 20.9923543,79.7719735 21.1636277,79.1725164 L21.5918113,76.7746883 C21.6774481,76.260868 22.0199949,75.8326844 22.5338152,75.661411 C23.218909,75.4045008 23.9040027,75.1475907 24.5890965,74.8050438 C25.0172801,74.5481336 25.6167371,74.6337704 26.0449207,74.8906805 L28.1002019,76.3465047 C28.6140222,76.6890516 29.299116,76.6890516 29.7272996,76.260868 L30.9262136,75.061954 L32.1251277,73.8630399 C32.5533113,73.4348563 32.638948,72.7497626 32.2964011,72.2359423 L30.9262136,70.2662977 C30.6693035,69.8381141 30.5836667,69.3242938 30.8405769,68.8104735 C31.1831238,68.1253798 31.4400339,67.440286 31.6969441,66.7551923 C31.8682175,66.241372 32.2964011,65.8988251 32.8102214,65.8131884 L35.2936862,65.3850048 C35.8931433,65.2993681 36.3213269,64.7855478 36.3213269,64.1860907 L36.3213269,62.5589931 L36.3213269,60.9318955 C36.3213269,60.3324384 35.8931433,59.8186181 35.2936862,59.6473447 L32.8958581,59.2191611 C32.3820378,59.1335244 31.9538542,58.7909775 31.7825808,58.2771572 C31.5256706,57.5920634 31.2687605,56.9069697 30.9262136,56.221876 C30.6693035,55.7936924 30.7549402,55.1942353 31.0118503,54.7660517 L32.4676745,52.6251338 L32.4676745,52.6251338 L32.4676745,52.6251338 Z M23.6470926,67.3546493 C20.8210809,70.2662977 16.1966981,70.2662977 13.2850497,67.440286 C10.3734013,64.6142743 10.3734013,59.9898916 13.199413,57.0782431 C16.0254247,54.1665947 20.6498074,54.1665947 23.5614559,56.9926064 C26.4731043,59.8186181 26.4731043,64.4430009 23.6470926,67.3546493 L23.6470926,67.3546493 L23.6470926,67.3546493 Z M39.0617018,67.0121024 C38.8904284,67.3546493 38.6335183,67.5259228 38.2053347,67.5259228 L36.4926003,67.5259228 C36.0644167,67.5259228 35.7218698,67.8684696 35.6362331,68.2966532 L35.4649597,69.4099306 L35.2936862,70.5232079 C35.2080495,70.9513915 35.4649597,71.3795751 35.8931433,71.4652118 L37.5202409,71.9790321 C37.8627878,72.0646688 38.1196979,72.4072157 38.1196979,72.7497626 C38.2053347,73.2635829 38.2909714,73.7774032 38.4622448,74.2055868 C38.5478815,74.5481336 38.4622448,74.8906805 38.2909714,75.1475907 L37.0920573,76.3465047 C36.8351472,76.6890516 36.7495105,77.1172352 37.0064206,77.4597821 L37.6915144,78.401786 L38.3766081,79.3437899 C38.6335183,79.6863367 39.0617018,79.7719735 39.4898854,79.6007 L41.0313464,78.8299696 C41.3738932,78.6586961 41.7164401,78.6586961 41.9733503,78.9156063 C42.4015339,79.1725164 42.8297174,79.4294266 43.257901,79.6863367 C43.6004479,79.8576102 43.7717213,80.1145203 43.7717213,80.5427039 L43.7717213,82.2554383 C43.7717213,82.6836219 44.1142682,83.0261687 44.5424518,83.1118055 L45.6557292,83.2830789 L46.7690065,83.4543523 C47.1971901,83.5399891 47.6253737,83.2830789 47.7110104,82.8548953 L48.2248307,81.2277977 C48.3104674,80.8852508 48.6530143,80.6283406 48.9955612,80.6283406 C49.5093815,80.5427039 50.0232018,80.4570672 50.4513854,80.2857938 C50.7939322,80.200157 51.1364791,80.2857938 51.3933893,80.4570672 L52.67794,81.6559813 C53.0204869,81.9128914 53.4486705,81.9985281 53.7912174,81.741618 L54.7332213,81.0565242 L55.6752252,80.3714305 C56.0177721,80.1145203 56.1034088,79.6863367 55.9321353,79.2581531 L55.1614049,77.7166922 C54.9901314,77.3741453 54.9901314,77.0315985 55.2470416,76.7746883 C55.5039517,76.3465047 55.8464986,75.9183211 56.0177721,75.4901375 C56.1890455,75.1475907 56.4459556,74.9763172 56.8741392,74.9763172 L58.5868736,74.9763172 C59.0150572,74.9763172 59.3576041,74.6337704 59.4432408,74.2055868 L59.6145142,73.0923094 L59.7857877,71.9790321 C59.8714244,71.5508485 59.6145142,71.1226649 59.1863306,71.0370282 L57.559233,70.5232079 C57.2166861,70.4375712 56.959776,70.0950243 56.8741392,69.7524774 C56.7885025,69.2386571 56.7028658,68.8104735 56.5315924,68.2966532 C56.4459556,67.9541063 56.5315924,67.6115595 56.7028658,67.3546493 L57.9017799,66.0700985 C58.15869,65.7275517 58.2443267,65.2993681 57.9874166,64.9568212 L57.3879595,63.9291806 L56.7028658,63.0728134 C56.4459556,62.7302665 56.0177721,62.6446298 55.5895885,62.8159033 L54.1337643,63.5866337 C53.7912174,63.7579072 53.4486705,63.6722704 53.1061236,63.500997 C52.67794,63.1584501 52.2497565,62.90154 51.7359361,62.7302665 C51.3933893,62.5589931 51.2221158,62.3020829 51.2221158,61.8738994 L51.2221158,60.161165 C51.2221158,59.7329814 50.879569,59.3904345 50.4513854,59.3047978 L49.338108,59.1335244 L48.2248307,58.9622509 C47.7966471,58.8766142 47.3684635,59.1335244 47.2828268,59.561708 L46.7690065,61.1888056 C46.6833698,61.5313525 46.3408229,61.7882626 45.998276,61.7882626 C45.4844557,61.8738994 44.9706354,61.9595361 44.5424518,62.1308095 C44.1999049,62.2164462 43.8573581,62.1308095 43.6004479,61.9595361 L42.4015339,60.760622 C42.058987,60.5037119 41.6308034,60.4180751 41.2882565,60.6749853 L40.3462526,61.360079 L39.4042487,62.0451728 C39.0617018,62.3020829 38.9760651,62.7302665 39.1473386,63.1584501 L39.918069,64.6999111 C40.0893425,65.0424579 40.0893425,65.3850048 39.8324323,65.641915 C39.5755222,66.0700985 39.318612,66.5839189 39.0617018,67.0121024 L39.0617018,67.0121024 L39.0617018,67.0121024 Z M44.5424518,67.1833759 C46.7690065,65.4706415 49.8519283,65.8988251 51.5646627,68.1253798 C53.2773971,70.3519345 52.8492135,73.4348563 50.6226588,75.1475907 C48.3961041,76.860325 45.3131823,76.4321414 43.6004479,74.2055868 C41.8877135,72.0646688 42.3158971,68.8961102 44.5424518,67.1833759 Z M79.2028788,36.8679776 C79.5454257,35.840337 79.2028788,34.8126964 78.2608749,34.2988761 L74.7497695,32.2435949 C73.979039,31.8154113 73.5508554,30.9590441 73.6364921,30.1026769 C73.7221288,28.8181261 73.6364921,27.5335754 73.5508554,26.2490246 C73.4652187,25.3926574 73.8077656,24.5362902 74.4928593,24.0224699 L77.918328,21.7102785 C78.7746952,21.1108215 79.1172421,19.9975442 78.6890585,19.0555403 L77.5757812,16.5720754 L76.4625038,14.0886106 C76.0343202,13.1466067 75.0066796,12.6327864 73.979039,12.8896965 L69.9541132,14.0029739 C69.0977461,14.259884 68.2413789,13.9173372 67.6419218,13.3178801 C66.7855547,12.3758762 65.9291875,11.5195091 64.9015469,10.7487786 C64.2164531,10.2349583 63.8739062,9.3785911 64.0451797,8.52222391 L64.8159101,4.41166144 C64.9871836,3.38402082 64.4733633,2.44201692 63.5313594,2.01383333 L60.9622578,1.07182943 L58.3931563,0.129825529 C57.3655157,-0.212721343 56.337875,0.129825529 55.8240547,1.07182943 L53.7687735,4.66857159 C53.3405899,5.43930206 52.5698594,5.86748565 51.6278555,5.78184893 C50.2576681,5.69621221 48.9731173,5.69621221 47.7742032,5.86748565 C46.917836,5.95312237 46.0614689,5.61057549 45.6332853,4.92548175 L43.3210939,1.50001302 C42.7216368,0.643645839 41.6083595,0.301098966 40.6663556,0.729282557 L38.1828908,1.84255989 L35.699426,2.95583723 C34.7574221,3.38402082 34.2436017,4.41166144 34.5005119,5.43930206 L35.6137892,9.46422781 C35.8706994,10.320595 35.5281525,11.1769622 34.9286955,11.7764192 C33.9866916,12.6327864 33.1303244,13.4891536 32.3595939,14.5167942 C31.8457736,15.2018879 30.9894065,15.5444348 30.1330393,15.3731614 L26.0224768,14.6024309 C24.9948362,14.4311575 23.9671956,15.0306145 23.6246487,15.9726184 L22.6826448,18.5417199 L21.7406409,21.1108215 C21.398094,22.1384621 21.7406409,23.1661027 22.6826448,23.679923 L26.279387,25.7352043 C27.0501174,26.1633879 27.478301,27.019755 27.3926643,27.8761222 C27.3070276,29.0750363 27.3926643,30.2739503 27.478301,31.3872277 C27.5639377,32.2435949 27.2213909,33.099962 26.5362971,33.5281456 L23.0251917,35.9259737 C22.1688245,36.5254308 21.8262776,37.6387081 22.2544612,38.580712 L23.3677385,41.0641768 L24.4810159,43.5476417 C24.9091995,44.4896456 25.9368401,45.0034659 26.9644807,44.7465557 L30.9894065,43.6332784 C31.8457736,43.3763682 32.7021408,43.7189151 33.3015978,44.3183721 C34.157965,45.260376 35.0143322,46.0311065 35.9563361,46.8874737 C36.6414299,47.401294 36.9839767,48.2576612 36.8127033,49.1140283 L36.0419728,53.3102275 C35.8706994,54.3378682 36.4701564,55.3655088 37.4121603,55.7080556 L39.9812619,56.6500595 L42.5503634,57.5920634 C43.578004,57.9346103 44.6056446,57.5920634 45.119465,56.6500595 L47.1747462,53.0533174 C47.6029298,52.2825869 48.459297,51.8544033 49.3156642,51.94004 C50.6002149,52.0256768 51.799129,51.94004 52.998043,51.8544033 C53.8544102,51.7687666 54.7107774,52.1113135 55.138961,52.7964072 L57.5367891,56.3075127 C58.1362461,57.1638799 59.2495235,57.5064267 60.1915274,57.0782431 L62.6749922,55.9649658 L65.158457,54.8516885 C66.1004609,54.4235049 66.6142812,53.3958642 66.3573711,52.3682236 L65.2440937,48.4289346 C64.9871836,47.5725674 65.2440937,46.7162002 65.9291875,46.1167432 C66.7855547,45.260376 67.6419218,44.4040088 68.4126523,43.4620049 C68.9264726,42.7769112 69.7828398,42.4343643 70.639207,42.6056378 L74.8354062,43.3763682 C75.8630468,43.5476417 76.8906874,42.9481846 77.2332343,42.0061807 L78.2608749,39.4370792 L79.2028788,36.8679776 Z M50.5,46 C60.1649831,46 68,38.1649831 68,28.5 C68,18.8350169 60.1649831,11 50.5,11 C40.8350169,11 33,18.8350169 33,28.5 C33,38.1649831 40.8350169,46 50.5,46 Z" id="Shape"></path>
                                        <path d="M50.5,43 C58.5081289,43 65,36.5081289 65,28.5 C65,20.4918711 58.5081289,14 50.5,14 C42.4918711,14 36,20.4918711 36,28.5 C36,36.5081289 42.4918711,43 50.5,43 Z M50.5159328,25.1866827 C48.6481678,25.1866827 47.134137,26.6538103 47.134137,28.4634156 C47.134137,30.2731914 48.6481678,31.7403191 50.5159328,31.7403191 C52.3836979,31.7403191 53.8977286,30.2731914 53.8977286,28.4634156 C53.8977286,26.6538103 52.3836979,25.1866827 50.5159328,25.1866827 Z M57.0160145,27.2016381 L55.5340484,27.2016381 C55.6742459,27.6595825 55.7499731,28.1443042 55.7499731,28.6464228 C55.7499731,31.447303 53.4065257,33.717752 50.5159328,33.717752 C47.62534,33.717752 45.2820632,31.447303 45.2820632,28.6464228 C45.2820632,28.1443042 45.3576197,27.6595825 45.4979878,27.2016381 L43.9513808,27.2016381 L43.9513808,34.3145295 C43.9513808,34.6827612 44.2525837,34.9839641 44.6208153,34.9839641 L56.3467505,34.9839641 C56.7149822,34.9839641 57.0160145,34.6827612 57.0160145,34.3145295 L57.0160145,27.2016381 Z M54.3468041,21.951395 C53.9299639,21.951395 53.5888506,22.2925081 53.5888506,22.7095189 L53.5888506,24.5240704 C53.5888506,24.9410812 53.9299639,25.2821944 54.3468041,25.2821944 L56.2502155,25.2821944 C56.6670558,25.2821944 57.0081689,24.9410812 57.0081689,24.5240704 L57.0081689,22.7095189 C57.0081689,22.2925081 56.6670558,21.951395 56.2502155,21.951395 L54.3468041,21.951395 Z M44.2418386,20.0805599 L56.7579624,20.0805599 C57.9467418,20.0805599 58.9192554,21.0530735 58.9192554,22.2418529 L58.9192554,34.7581471 C58.9192554,35.9469265 57.9467418,36.9194401 56.7579624,36.9194401 L44.2418386,36.9194401 C43.0530592,36.9194401 42.0805457,35.9469265 42.0805457,34.7581471 L42.0805457,22.2418529 C42.0805457,21.0530735 43.0530592,20.0805599 44.2418386,20.0805599 Z" id="Oval-1-Copy"></path>
                                    </g>
                                </g>
                            </g>
                        </g>
                    </g>
                </g>
            </g>
        </g>
    </g>
</svg>