<?xml version="1.0" encoding="UTF-8" standalone="no"?>
<svg width="111px" height="72px" viewBox="0 0 111 72" version="1.1" xmlns="http://www.w3.org/2000/svg" xmlns:xlink="http://www.w3.org/1999/xlink" xmlns:sketch="http://www.bohemiancoding.com/sketch/ns">
    <!-- Generator: Sketch 3.5 (25232) - http://www.bohemiancoding.com/sketch -->
    <title>revenue-optimization</title>
    <desc>Created with Sketch.</desc>
    <defs></defs>
    <g id="Page-1" stroke="none" stroke-width="1" fill="none" fill-rule="evenodd" sketch:type="MSPage">
        <g id="revenue-optimization" sketch:type="MSLayerGroup" fill="#FFFFFF">
            <g id="Page-1" sketch:type="MSShapeGroup">
                <g id="noun_247229_cc">
                    <path d="M16,63 C21.5228475,63 26,58.5228475 26,53 C26,47.4771525 21.5228475,43 16,43 C10.4771525,43 6,47.4771525 6,53 C6,58.5228475 10.4771525,63 16,63 Z M20.7850435,48.4616348 L18.6325565,48.4616348 C18.3157565,48.4616348 18.0528,48.7245913 18.0528,49.0476522 L18.0528,57.5073391 C18.0528,57.8291478 18.3157565,58.0870957 18.6325565,58.0870957 L20.7850435,58.0870957 C21.1056,58.0870957 21.3648,57.8291478 21.3648,57.5073391 L21.3648,49.0476522 C21.3648,48.7245913 21.1056,48.4616348 20.7850435,48.4616348 Z M16.8845217,52.4736 L14.7320348,52.4736 C14.4114783,52.4736 14.1510261,52.7378087 14.1510261,53.0533565 L14.1510261,57.5073391 C14.1510261,57.8291478 14.4114783,58.0870957 14.7320348,58.0870957 L16.8845217,58.0870957 C17.2063304,58.0870957 17.4642783,57.8291478 17.4642783,57.5073391 L17.4642783,53.0533565 C17.4642783,52.7378087 17.2063304,52.4736 16.8845217,52.4736 Z M12.9789913,55.7505391 L10.831513,55.7505391 C10.5097043,55.7505391 10.2454957,56.008487 10.2454957,56.3302957 L10.2454957,57.506087 C10.2454957,57.8278957 10.5097043,58.0858435 10.831513,58.0858435 L12.9789913,58.0858435 C13.2995478,58.0858435 13.5650087,57.8278957 13.5650087,57.506087 L13.5650087,56.3302957 C13.5650087,56.008487 13.2995478,55.7505391 12.9789913,55.7505391 Z" id="Oval-1"></path>
                    <g id="Group">
                        <path d="M64.376,8.93801739 C64.7216,8.63248696 64.7629217,7.99763478 64.4661565,7.50177391 L62.8946783,4.84716522 C62.6066783,4.35631304 62.0181565,4.08208696 61.5936696,4.2386087 L60.4466783,4.65933913 L59.5138087,5.00243478 L58.7136696,5.29544348 C58.6861217,5.30921739 58.6560696,5.32048696 58.6272696,5.33175652 C57.9360696,4.79206957 57.1672348,4.35631304 56.3445565,4.04076522 C56.3395478,4.01321739 56.3357913,3.97815652 56.3270261,3.94184348 L55.8136348,1.30351304 L55.7372522,0.929113043 C55.6558609,0.502121739 55.1900522,0.165286957 54.6441043,0.135234783 C54.6153043,0.126469565 54.5852522,0.126469565 54.5539478,0.126469565 L51.4911304,0.160278261 C50.9163826,0.160278261 50.4029913,0.520904348 50.3228522,0.977947826 L49.8044522,4.01196522 C49.7994435,4.0370087 49.7969391,4.06455652 49.7969391,4.08834783 C49.3849739,4.25363478 48.9780174,4.45523478 48.5773217,4.6893913 C48.2029217,4.90852174 47.8410435,5.16396522 47.4954435,5.4432 C47.4704,5.43443478 47.4466087,5.42692174 47.4215652,5.41565217 L44.5152696,4.41516522 C44.0832696,4.2624 43.5085217,4.5504 43.2330435,5.04125217 L41.7304348,7.71088696 C41.4512,8.2130087 41.5088,8.83784348 41.8631652,9.13586087 L44.2247652,11.1017739 C44.2460522,11.1180522 44.2648348,11.1343304 44.2823652,11.1468522 C44.165913,11.9908174 44.165913,12.8422957 44.2898783,13.6774957 C44.294887,13.7225739 44.3036522,13.7676522 44.3111652,13.8139826 C44.2873739,13.8290087 44.266087,13.8490435 44.2410435,13.8703304 L43.6863304,14.3524174 L41.9307826,15.8825739 C41.5801739,16.1881043 41.5388522,16.8129391 41.8318609,17.3125565 L43.3945739,19.9483826 C43.6212174,20.3365565 44.0331826,20.5957565 44.4138435,20.5957565 C44.5102609,20.5957565 44.6041739,20.5782261 44.6905739,20.5506783 L47.5718261,19.4925913 C47.5993739,19.4800696 47.6244174,19.4675478 47.650713,19.4562783 C48.3456696,19.9997217 49.119513,20.4354783 49.954713,20.7560348 C49.9597217,20.7885913 49.9634783,20.8173913 49.9722435,20.8512 L50.5645217,23.8701913 C50.6509217,24.314713 51.1655652,24.6690783 51.7390609,24.6690783 L54.8406957,24.6415304 C55.4229565,24.6327652 55.9363478,24.2671304 56.0152348,23.8138435 L56.5336348,20.7898435 C56.5424,20.7535304 56.5461565,20.7197217 56.549913,20.6834087 C56.938087,20.5256348 57.3287652,20.3340522 57.7106783,20.1024 C58.0938435,19.8757565 58.4519652,19.6290783 58.7775304,19.3661217 C58.810087,19.3811478 58.8476522,19.3949217 58.8852174,19.4061913 L61.7890087,20.4066783 C62.2260174,20.555687 62.7970087,20.2714435 63.0762435,19.778087 L64.5863652,17.0871652 C64.8718609,16.5800348 64.8142609,15.9501913 64.4561391,15.6584348 L62.0982957,13.6825043 C62.0694957,13.6574609 62.0394435,13.6374261 62.0118957,13.6173913 C62.1308522,12.7571478 62.1233391,11.8843826 61.9868522,11.0203826 C62.0118957,10.9990957 62.0394435,10.9790609 62.0682435,10.9540174 L64.376,8.93801739 L64.376,8.93801739 L64.376,8.93801739 Z M57.4251826,13.3231304 C57.1346783,14.4601043 56.4209391,15.4092522 55.4179478,16.0077913 C54.7430261,16.4047304 53.9766957,16.6150957 53.1953391,16.6150957 C51.6526609,16.6150957 50.2076522,15.7936696 49.421287,14.4638609 C48.824,13.4546087 48.6574609,12.2750609 48.9442087,11.1418435 C49.2322087,10.0123826 49.9434435,9.06073043 50.9526957,8.46344348 C51.6238609,8.06525217 52.3926957,7.85488696 53.1702957,7.85488696 C54.7129739,7.85488696 56.1629913,8.67756522 56.9481043,10.0073739 C57.5453913,11.0116174 57.7144348,12.1924174 57.4251826,13.3231304 L57.4251826,13.3231304 L57.4251826,13.3231304 Z" id="Shape"></path>
                        <path d="M53.1377391,9.81328696 C52.6769391,9.81328696 52.2249043,9.9410087 51.8292174,10.1751652 C50.6033391,10.9001739 50.198887,12.4841739 50.9238957,13.7062957 C51.3846957,14.4876522 52.2349217,14.9734957 53.1452522,14.9734957 C53.6048,14.9734957 54.058087,14.8495304 54.4537739,14.6153739 C55.0460522,14.2660174 55.4705391,13.7025391 55.6383304,13.0351304 C55.8061217,12.3677217 55.7084522,11.6727652 55.3578435,11.0792348 C54.8957913,10.2991304 54.0468174,9.81328696 53.1377391,9.81328696 L53.1377391,9.81328696 L53.1377391,9.81328696 Z" id="Shape"></path>
                        <path d="M71.2654609,26.8002783 C71.2566957,26.7902609 71.2441739,26.784 71.237913,26.7752348 C71.2980174,26.2969043 71.2942609,25.8085565 71.2203826,25.322713 C71.2329043,25.3126957 71.2404174,25.3064348 71.2491826,25.2976696 L72.5777391,24.1369043 C72.7968696,23.9478261 72.8244174,23.5596522 72.6453565,23.2553739 L71.7387826,21.7289739 C71.5609739,21.4322087 71.1978435,21.2644174 70.9361391,21.362087 L69.2857739,21.966887 C69.2732522,21.9718957 69.2607304,21.9756522 69.2544696,21.9794087 C68.8625391,21.6801391 68.4305391,21.4359652 67.9747478,21.2594087 C67.9697391,21.246887 67.9697391,21.2343652 67.9659826,21.2230957 L67.6278957,19.490087 C67.5740522,19.2058435 67.2647652,18.9929739 66.8991304,18.9929739 L65.1423304,19.0142609 C64.7892174,19.0142609 64.4761739,19.2358957 64.4273391,19.518887 L64.1268174,21.2656696 L64.1268174,21.2869565 C63.8914087,21.3796174 63.6660174,21.4960696 63.4481391,21.6250435 C63.2390261,21.7477565 63.0324174,21.8917565 62.8345739,22.0482783 L61.1441391,21.463513 C60.8749217,21.3733565 60.5218087,21.5436522 60.3527652,21.8466783 L59.4900174,23.3818435 C59.3159652,23.694887 59.3535304,24.0680348 59.5751652,24.2533565 L60.9375304,25.3853217 C60.941287,25.3890783 60.9462957,25.394087 60.9513043,25.3978435 C60.8849391,25.8949565 60.8886957,26.3983304 60.9675826,26.8904348 C60.9588174,26.8992 60.9513043,26.9042087 60.941287,26.9129739 L59.6127304,28.0687304 C59.3936,28.2628174 59.3660522,28.6359652 59.5501217,28.9452522 L60.4479304,30.462887 C60.6207304,30.7596522 60.9876174,30.9249391 61.2455652,30.8260174 L62.9046957,30.2174609 L62.9259826,30.2086957 C63.3204174,30.5092174 63.7524174,30.7571478 64.2169739,30.9324522 C64.2169739,30.9462261 64.2219826,30.9574957 64.2219826,30.9687652 L64.5625739,32.7017739 C64.6201739,32.983513 64.9332174,33.198887 65.2825739,33.198887 L67.0631652,33.1826087 C67.4250435,33.1738435 67.7343304,32.9559652 67.7831652,32.6692174 L68.083687,30.9312 C68.083687,30.9199304 68.0874435,30.9036522 68.0874435,30.8911304 C68.3053217,30.7997217 68.5244522,30.6945391 68.7373217,30.5655652 C68.947687,30.4416 69.149287,30.3026087 69.3358609,30.1536 C69.3471304,30.1586087 69.3634087,30.1661217 69.3759304,30.1711304 L71.0463304,30.7421217 C71.3142957,30.837287 71.6686609,30.664487 71.8414609,30.3589565 L72.7092174,28.8125217 C72.8820174,28.504487 72.8444522,28.1213217 72.6240696,27.936 L71.2654609,26.8002783 L71.2654609,26.8002783 L71.2654609,26.8002783 Z M68.5119304,26.6199652 C68.3466435,27.2623304 67.9446957,27.8007652 67.3774609,28.1338435 C66.9930435,28.3617391 66.5622957,28.4781913 66.1215304,28.4781913 C65.2500174,28.4781913 64.4348522,28.0136348 63.9903304,27.2610783 C63.2941217,26.0840348 63.6822957,24.5664 64.8530783,23.8689391 C65.2337391,23.6435478 65.6682435,23.5245913 66.1102609,23.5245913 C66.9805217,23.5245913 67.7969391,23.9941565 68.2414609,24.7429565 C68.5770435,25.3101913 68.6734609,25.9763478 68.5119304,26.6199652 L68.5119304,26.6199652 L68.5119304,26.6199652 Z" id="Shape"></path>
                        <path d="M66.0889739,24.5701565 C65.8172522,24.5701565 65.549287,24.6402783 65.3151304,24.7805217 C64.5901217,25.207513 64.3484522,26.1466435 64.7804522,26.8704 C65.0521739,27.3349565 65.5568,27.6229565 66.0939826,27.6229565 C66.3682087,27.6229565 66.6361739,27.5490783 66.8690783,27.4088348 C67.594087,26.9818435 67.8345043,26.0439652 67.4050087,25.3189565 C67.1307826,24.8531478 66.6286609,24.5701565 66.0889739,24.5701565 L66.0889739,24.5701565 L66.0889739,24.5701565 Z" id="Shape"></path>
                        <path d="M55.3491816,44.8721434 C49.7198394,44.8721434 45.1422609,49.4555569 45.1422609,55.0848991 C45.1422609,60.7098649 49.7198394,65.290361 55.3491816,65.290361 C60.9756062,65.290361 65.5546435,60.7098649 65.5546435,55.0848991 C65.5546435,49.4555569 60.9756062,44.8721434 55.3491816,44.8721434 L55.3491816,44.8721434 L55.3491816,44.8721434 Z M54.135496,61.224806 C52.936398,61.1722908 51.6716559,60.8601169 50.8751747,60.4283249 L51.4178322,58.3306327 C52.0640614,58.664688 53.2398194,59.1489953 54.6489783,59.1489953 C55.9049679,59.1489953 56.6824852,58.6325954 56.6824852,57.7923515 C56.6824852,56.8777111 55.8028549,56.3934038 54.4870563,55.9455655 C52.0261338,55.1169917 50.9772877,54.0637694 50.9772877,52.4080805 C50.9772877,50.6634075 52.2055608,49.3782428 54.2521965,48.975626 L54.351392,48.9552034 L54.351392,47.086536 L56.0625136,47.086536 L56.0625136,48.8355853 L56.1792141,48.8399616 C57.2557766,48.8881006 58.1572882,49.0850327 58.9348055,49.4438869 L58.4184057,51.4686412 L58.3994418,51.4569711 C57.8626194,51.2235701 56.9611077,50.8355408 55.6292628,50.8355408 C53.9225175,50.8355408 53.7912294,51.7778976 53.7912294,52.0725665 C53.7912294,52.83112 54.621262,53.280417 56.2652808,53.8974711 C58.5715751,54.7143749 59.5153907,55.7588447 59.5153907,57.513729 C59.5153907,59.3459274 58.1922984,60.7157 56.0639723,61.0847654 L55.9647769,61.105188 L55.9647769,63.1182723 L54.2536553,63.1182723 L54.2536553,61.2291823 L54.135496,61.224806 L54.135496,61.224806 L54.135496,61.224806 Z" id="Shape"></path>
                        <path d="M94.5446261,42.8074783 C88.7644884,42.8074783 84.0786266,47.4978806 84.0786266,53.2765048 C84.0786266,59.0566425 88.7644884,63.7425043 94.5446261,63.7425043 C100.324764,63.7425043 105.010626,59.0566425 105.010626,53.2765048 C105.010626,47.4978806 100.324764,42.8074783 94.5446261,42.8074783 L94.5446261,42.8074783 L94.5446261,42.8074783 Z M99.9766539,55.6905712 L98.6841067,57.7096086 C98.6023766,57.8322038 98.4479974,57.879123 98.3390239,57.8049604 L93.1113215,54.4570514 C93.0311048,54.4086187 92.9978074,54.3087263 93.011429,54.2088339 C93.011429,54.2088339 93.011429,54.2088339 93.011429,54.2042934 L93.011429,45.5469517 C93.011429,45.3971131 93.1355378,45.277545 93.2808358,45.277545 L95.6782535,45.277545 C95.8280921,45.277545 95.9476603,45.3971131 95.9476603,45.5469517 L95.9476603,52.789151 L99.9206536,55.3364073 C100.031141,55.4120833 100.053843,55.5664625 99.9766539,55.6905712 L99.9766539,55.6905712 L99.9766539,55.6905712 Z" id="Shape"></path>
                        <path d="M17.3744,37.2847304 L17.3744,15.5945739 C17.3744,14.4338087 18.3160348,13.4909217 19.4780522,13.4909217 L41.9670957,13.4909217 L42.4278957,13.0939826 L42.4391652,13.0802087 L42.4391652,13.0313739 C42.4191304,12.693287 42.4141217,12.3364174 42.4278957,11.9682783 L42.4278957,11.9206957 L40.723687,10.5007304 C40.3743304,10.2089739 40.1026087,9.82205217 39.946087,9.38504348 L39.9248,9.31993043 L39.9210435,9.31492174 L19.4780522,9.31492174 C16.0170435,9.31492174 13.2009043,12.1335652 13.2009043,15.5945739 L13.2009043,37.5163826 C5.61273043,38.9325913 0.115686957,45.5490783 0.115686957,53.2762435 C0.115686957,57.2681739 1.58073043,60.9220174 4.00368696,63.7331478 C4.86017391,64.7336348 5.84813913,65.6314435 6.93001739,66.391513 C9.53829565,68.2372174 12.7188174,69.3190957 16.1510261,69.3190957 C24.998887,69.3190957 32.1926261,62.1216 32.1926261,53.2762435 C32.1926261,44.9229913 25.690087,37.9195826 17.3744,37.2847304 L17.3744,37.2847304 L17.3744,37.2847304 Z M16.1510261,65.4861913 C9.4205913,65.4861913 3.94233043,60.0091826 3.94233043,53.2762435 C3.94233043,46.5445565 9.4205913,41.0625391 16.1510261,41.0625391 C22.8889739,41.0625391 28.3647304,46.5445565 28.3647304,53.2762435 C28.3647304,60.0091826 22.8889739,65.4861913 16.1510261,65.4861913 L16.1510261,65.4861913 L16.1510261,65.4861913 Z" id="Shape"></path>
                        <path d="M96.6307478,37.3773913 L96.6307478,15.5945739 C96.6307478,12.1335652 93.8121043,9.31492174 90.3510957,9.31492174 L66.2329739,9.31492174 L66.2041739,9.37753043 C66.0514087,9.72563478 65.8285217,10.0286609 65.5467826,10.2753391 L63.8475826,11.7566609 L63.850087,11.8092522 C63.8713739,12.117287 63.8751304,12.4403478 63.8638609,12.7884522 L63.8601043,12.8385391 L64.6414609,13.4909217 L90.3523478,13.4909217 C91.513113,13.4909217 92.456,14.4338087 92.456,15.5945739 L92.456,37.3773913 C84.4971826,38.4166957 78.5042783,45.2360348 78.5042783,53.2762435 C78.5042783,62.1203478 85.6980174,69.3190957 94.5458783,69.3190957 C103.389983,69.3190957 110.58247,62.1216 110.58247,53.2762435 C110.579965,45.2360348 104.589565,38.4166957 96.6307478,37.3773913 L96.6307478,37.3773913 L96.6307478,37.3773913 Z M94.5446261,65.4861913 C87.8079304,65.4861913 82.3309217,60.0091826 82.3309217,53.2762435 C82.3309217,46.5445565 87.8079304,41.0625391 94.5446261,41.0625391 C101.277565,41.0625391 106.754574,46.5445565 106.754574,53.2762435 C106.754574,60.0091826 101.277565,65.4861913 94.5446261,65.4861913 L94.5446261,65.4861913 L94.5446261,65.4861913 Z" id="Shape"></path>
                        <path d="M57.0006957,39.1291826 L57.0006957,26.0840348 L56.895513,26.0890435 C56.6563478,26.1040696 56.3896348,26.1629217 56.1041391,26.2267826 C55.743513,26.3094261 55.3353043,26.4058435 54.9020522,26.4158609 L54.8707478,26.4158609 C54.8707478,26.4158609 54.8707478,26.4158609 54.8619826,26.4158609 L52.8246957,26.4371478 L53.0400696,39.2118261 C45.202713,40.3462957 39.3074783,47.153113 39.3074783,55.0843826 C39.3074783,63.9272348 46.5049739,71.1197217 55.3490783,71.1197217 C64.1919304,71.1197217 71.3894261,63.9272348 71.3894261,55.0843826 C71.3894261,51.0749217 69.9005913,47.239513 67.1921391,44.2768696 C64.5250087,41.3580522 60.9112348,39.5323826 57.0006957,39.1291826 L57.0006957,39.1291826 L57.0006957,39.1291826 Z M55.3490783,67.2930783 C48.6161391,67.2930783 43.1353739,61.8148174 43.1353739,55.0843826 C43.1353739,48.3464348 48.6161391,42.8694261 55.3490783,42.8694261 C62.0807652,42.8694261 67.5615304,48.3464348 67.5615304,55.0843826 C67.5615304,61.8148174 62.0807652,67.2930783 55.3490783,67.2930783 L55.3490783,67.2930783 L55.3490783,67.2930783 Z" id="Shape"></path>
                    </g>
                </g>
            </g>
        </g>
    </g>
</svg>