<?xml version="1.0" encoding="UTF-8" standalone="no"?>
<svg width="626px" height="659px" viewBox="0 0 626 659" version="1.1" xmlns="http://www.w3.org/2000/svg" xmlns:xlink="http://www.w3.org/1999/xlink" xmlns:sketch="http://www.bohemiancoding.com/sketch/ns">
    <!-- Generator: Sketch 3.5 (25232) - http://www.bohemiancoding.com/sketch -->
    <title>iMac 27</title>
    <desc>Created with Sketch.</desc>
    <defs>
        <linearGradient x1="106.928853%" y1="66.2618856%" x2="-3.46326863%" y2="100%" id="linearGradient-1">
            <stop stop-color="#2B8BE3" offset="0%"></stop>
            <stop stop-color="#663FB5" offset="100%"></stop>
        </linearGradient>
    </defs>
    <g id="Welcome" stroke="none" stroke-width="1" fill="none" fill-rule="evenodd" sketch:type="MSPage">
        <g id="Landing-page" sketch:type="MSArtboardGroup" transform="translate(-974.000000, -3337.000000)">
            <g id="iMac-27" sketch:type="MSLayerGroup" transform="translate(975.000000, 3338.000000)">
                <g id="growth-geeks-graph-long" transform="translate(24.000000, 27.000000)" sketch:type="MSShapeGroup">
                    <rect id="Rectangle-59" stroke="#979797" fill="#FFFFFF" x="3" y="0" width="729" height="414"></rect>
                    <path d="M2.11325967,353.354381 C2.11325967,353.354381 22.2131768,348.910654 32.2631354,346.68879 C42.3130939,344.466926 62.413011,340.023199 62.413011,340.023199 C62.413011,340.023199 83.1130939,342.211943 93.4631354,343.306314 C103.813177,344.400686 124.51326,346.58943 124.51326,346.58943 C124.51326,346.58943 144.29337,340.26561 154.183425,337.1037 C164.073481,333.94179 183.853591,327.617969 183.853591,327.617969 C183.853591,327.617969 204.760773,325.4856 215.214365,324.419416 C225.667956,323.353231 246.575138,321.220862 246.575138,321.220862 C246.575138,321.220862 266.932873,311.172091 277.11174,306.147705 C287.290608,301.123319 307.648343,291.074548 307.648343,291.074548 C307.648343,291.074548 327.527072,293.719926 337.466436,295.042615 L367.28453,299.010682 C367.28453,299.010682 387.525331,282.990431 397.645732,274.980306 C407.766133,266.970181 428.006934,250.94993 428.006934,250.94993 C428.006934,250.94993 448.199834,234.272916 458.296285,225.934409 C468.392735,217.595902 488.585635,200.918887 488.585635,200.918887 C488.585635,200.918887 508.872928,181.139861 519.016575,171.250348 C529.160221,161.360834 549.447514,141.581808 549.447514,141.581808 C549.447514,141.581808 569.875691,131.951618 580.089779,127.136523 C590.303867,122.321428 610.732044,112.691238 610.732044,112.691238 L610.732044,414.577191 L2.11325967,414.577191 L2.11325967,353.354381 Z" id="Shape" stroke="#C3C0C0" stroke-width="2" fill-opacity="0.8" fill="url(#linearGradient-1)"></path>
                    <ellipse id="Oval" fill="#1D62F0" cx="1.9441989" cy="354.242281" rx="1.77513812" ry="1.77579972"></ellipse>
                    <path d="M62.5524862,341.004117 L62.5524862,410.499997" id="Shape" stroke="#F9F5F5" stroke-dasharray="1,6" fill="#000000"></path>
                    <path d="M125,345.5 L125,410.49588" id="Shape-Copy-2" stroke="#F9F5F5" stroke-dasharray="1,6" fill="#000000"></path>
                    <path id="Shape" fill="#000000"></path>
                    <path id="Shape" stroke="#F9F5F5" stroke-linecap="round" stroke-dasharray="1,6" d="M124.399144,346.762782 L124.399144,378.274771 L124.399144,409.786759"></path>
                    <path id="Shape" fill="#000000"></path>
                    <path d="M183.963481,328.43822 L183.963481,409.786759" id="Shape" stroke="#F9F5F5" stroke-dasharray="1,6" fill="#000000"></path>
                    <path id="Shape" fill="#000000"></path>
                    <path d="M246.938619,329.5 L246.938619,408.500003" id="Shape" stroke="#F9F5F5" stroke-dasharray="1,6" fill="#000000"></path>
                    <path id="Shape" fill="#000000"></path>
                    <path d="M307.800497,300.5 L307.800497,411.499996" id="Shape" stroke="#F9F5F5" stroke-dasharray="1,6"></path>
                    <path id="Shape" fill="#000000"></path>
                    <path d="M367.677597,307.5 L367.677597,409.499998" id="Shape" stroke="#F9F5F5" stroke-dasharray="1,6" fill="#000000"></path>
                    <path id="Shape" fill="#000000"></path>
                    <path d="M428.116823,258.5 L428.116823,411.500004" id="Shape" stroke="#F9F5F5" stroke-dasharray="1,6"></path>
                    <path id="Shape" fill="#000000"></path>
                    <path id="Shape" fill="#000000"></path>
                    <path d="M489,211.188929 L489,410.499995" id="Shape" stroke="#F8F5F5" stroke-dasharray="1,6"></path>
                    <path id="Shape" fill="#000000"></path>
                    <circle id="Oval" stroke="#C3C0C0" stroke-width="2" fill="#FFFFFF" cx="62" cy="340" r="3"></circle>
                    <path id="Shape" fill="#000000"></path>
                    <path d="M549.447514,154.061196 L549.447514,411.500008" id="Shape" stroke="#F8F5F5" stroke-dasharray="1,6"></path>
                    <path id="Shape" fill="#000000"></path>
                    <circle id="Oval" stroke="#C3C0C0" stroke-width="2" fill="#FFFFFF" cx="125" cy="346" r="3"></circle>
                    <circle id="Oval" stroke="#C3C0C0" stroke-width="2" fill="#FFFFFF" cx="549" cy="142" r="3"></circle>
                    <circle id="Oval" stroke="#C3C0C0" stroke-width="2" fill="#FFFFFF" cx="488" cy="201" r="3"></circle>
                    <circle id="Oval" stroke="#C3C0C0" stroke-width="2" fill="#FFFFFF" cx="428" cy="250" r="3"></circle>
                    <circle id="Oval" stroke="#C3C0C0" stroke-width="2" fill="#FFFFFF" cx="183.963481" cy="328" r="3"></circle>
                    <circle id="Oval" stroke="#C3C0C0" stroke-width="2" fill="#FFFFFF" cx="247" cy="320" r="3"></circle>
                    <circle id="Oval" stroke="#C3C0C0" stroke-width="2" fill="#FFFFFF" cx="308" cy="291" r="3"></circle>
                    <circle id="Oval" stroke="#C3C0C0" stroke-width="2" fill="#FFFFFF" cx="367" cy="297.866926" r="3"></circle>
                </g>
                <path d="M769.687637,0 L23.7251386,0 C11.5866956,0 0,9.93781513 0,22.0840336 L0,520.078992 C0,532.22521 12.138443,541.610924 23.7251386,541.610924 L327.186214,541.610924 L319.461751,591.3 C317.806508,602.894118 310.633792,620.561345 303.461076,629.947059 L295.736612,639.884874 C288.563896,649.270588 292.426127,657 304.56457,657 L487.744711,657 C499.883154,657 503.745386,649.270588 496.572669,639.884874 L488.848206,629.947059 C481.675489,620.561345 474.502773,602.894118 472.847531,590.747899 L465.123067,541.058824 L768.584143,541.058824 C780.722586,541.058824 787.895302,531.673109 787.895302,519.526891 L787.895302,22.0840336 C788.998797,9.93781513 781.274333,0 769.687637,0 L769.687637,0 Z M394.499398,11.0420168 C396.154641,11.0420168 397.258135,12.1462185 397.258135,13.802521 C397.258135,15.4588235 396.154641,16.5630252 394.499398,16.5630252 C392.844156,16.5630252 391.740661,15.4588235 391.740661,13.802521 C391.740661,12.1462185 392.844156,11.0420168 394.499398,11.0420168 L394.499398,11.0420168 Z M761.411426,441.680672 L27.5873705,441.680672 L27.5873705,27.605042 L761.411426,27.605042 L761.411426,441.680672 L761.411426,441.680672 Z" stroke="#886AC6" fill="#FFFFFF" sketch:type="MSShapeGroup"></path>
            </g>
        </g>
    </g>
</svg>