<?xml version="1.0" encoding="UTF-8" standalone="no"?>
<svg xmlns:sketch="http://www.bohemiancoding.com/sketch/ns" xmlns="http://www.w3.org/2000/svg" height="198px" width="326px" version="1.1" xmlns:xlink="http://www.w3.org/1999/xlink" viewBox="0 0 326 198"><!-- Generator: Sketch 3.5 (25232) - http://www.bohemiancoding.com/sketch -->
 <title>Group 42</title>
 <desc>Created with Sketch.</desc>
 <defs>
  <rect id="path-1" rx="6" height="116.06" width="148" y="0" x="144"/>
  <rect id="path-3" rx="6" height="116.06" width="148" y="-.058594" x="-28"/>
  <path id="path-5" d="m0.355 22.894l22.071-2.337-9.026-20.404c-8.9577 4.0141-14.07 12.925-13.045 22.741"/>
  <path id="path-7" d="m0.355 23.7l22.071-2.337-9.026-20.404c-8.9577 4.0136-14.07 12.924-13.045 22.741"/>
  <path id="path-9" d="m0.355 22.894l22.071-2.337-9.026-20.404c-8.9577 4.0141-14.07 12.925-13.045 22.741"/>
  <path id="path-11" d="m0.355 22.894l22.071-2.337-9.026-20.404c-8.9577 4.0141-14.07 12.925-13.045 22.741"/>
  <path id="path-13" d="m0.355 22.894l22.071-2.337-9.026-20.404c-8.9577 4.0141-14.07 12.925-13.045 22.741"/>
  <path id="path-15" d="m0.355 22.894l22.071-2.337-9.026-20.404c-8.9577 4.0141-14.07 12.925-13.045 22.741"/>
  <path id="path-17" d="m0.355 23.7l22.071-2.337-9.026-20.404c-8.9577 4.0136-14.07 12.924-13.045 22.741"/>
  <path id="path-19" d="m0.355 22.894l22.071-2.337-9.026-20.404c-8.9577 4.0141-14.07 12.925-13.045 22.741"/>
  <path id="path-21" d="m0.355 23.7l22.071-2.337-9.026-20.404c-8.9577 4.0136-14.07 12.924-13.045 22.741"/>
  <path id="path-23" d="m22.426 20.557l-9.026-20.404c-8.9577 4.0141-14.07 12.925-13.045 22.741l22.071-2.337z"/>
  <path id="path-25" d="m22.334 0.75163l-21.981 2.3342c0.08429 0.8109 0.19361 1.5128 0.36171 2.3094 2.5368 12.072 14.273 19.779 26.212 17.213"/>
  <path id="path-27" d="m22.334 0.75163l-21.981 2.3342c0.08429 0.8109 0.19361 1.5128 0.36171 2.3094 2.5368 12.072 14.273 19.779 26.212 17.213"/>
  <path id="path-29" d="m22.334 0.75163l-21.981 2.3342c0.08429 0.8109 0.19361 1.5128 0.36171 2.3094 2.5368 12.072 14.273 19.779 26.212 17.213"/>
  <path id="path-31" d="m22.334 0.75163l-21.981 2.3342c0.08429 0.8109 0.19361 1.5128 0.36171 2.3094 2.5368 12.072 14.273 19.779 26.212 17.213"/>
  <path id="path-33" d="m22.334 0.75163l-21.981 2.3342c0.08429 0.8109 0.19361 1.5128 0.36171 2.3094 2.5368 12.072 14.273 19.779 26.212 17.213"/>
  <path id="path-35" d="m22.334 0.75163l-21.981 2.3342c0.08429 0.8109 0.19361 1.5128 0.36171 2.3094 2.5368 12.072 14.273 19.779 26.212 17.213"/>
  <path id="path-37" d="m22.334 0.75163l-21.981 2.3342c0.08429 0.8109 0.19361 1.5128 0.36171 2.3094 2.5368 12.072 14.273 19.779 26.212 17.213"/>
  <path id="path-39" d="m22.334 0.75163l-21.981 2.3342c0.08429 0.8109 0.19361 1.5128 0.36171 2.3094 2.5368 12.072 14.273 19.779 26.212 17.213"/>
  <path id="path-41" d="m22.334 0.75163l-21.981 2.3342c0.08429 0.8109 0.19361 1.5128 0.36171 2.3094 2.5368 12.072 14.273 19.779 26.212 17.213"/>
  <path id="path-43" d="m22.334 0.75163l-21.981 2.3342c0.08429 0.8109 0.19361 1.5128 0.36171 2.3094 2.5368 12.072 14.273 19.779 26.212 17.213"/>
  <path id="path-45" d="m22.334 0.75163l-21.981 2.3342c0.08429 0.8109 0.19361 1.5128 0.36171 2.3094 2.5368 12.072 14.273 19.779 26.212 17.213"/>
  <path id="path-47" d="m22.334 0.75163l-21.981 2.3342c0.08429 0.8109 0.19361 1.5128 0.36171 2.3094 2.5368 12.072 14.273 19.779 26.212 17.213"/>
  <rect id="path-49" rx="6" height="116.06" width="148" y="16" x="57"/>
  <path id="path-51" d="m25.212 59.576h20.431v16.507h-20.431"/>
 </defs>
 <g id="Welcome" fill-rule="evenodd" sketch:type="MSPage" fill="none">
  <g id="Landing-page" transform="translate(-638 -1012)" sketch:type="MSArtboardGroup">
   <g id="Group-42" transform="translate(652 1012)" sketch:type="MSLayerGroup">
    <rect id="Rectangle-60" sketch:type="MSShapeGroup" height="190" width="301" y="0" x="0" fill="#FDFBFB"/>
    <g id="Group-12" transform="translate(17 62)">
     <mask id="mask-2" sketch:name="Mask Copy 2" fill="white">
      <use xlink:href="#path-1"/>
     </mask>
     <g id="Mask-Copy-2">
      <use xlink:href="#path-1" stroke="#8666C4" stroke-width="3" sketch:type="MSShapeGroup" fill="none"/>
      <use xlink:href="#path-1" fill-rule="evenodd" fill="#FCFAFA"/>
     </g>
     <mask id="mask-4" sketch:name="Mask Copy 3" fill="white">
      <use xlink:href="#path-3"/>
     </mask>
     <g id="Mask-Copy-3">
      <use xlink:href="#path-3" stroke="#8666C4" stroke-width="3" sketch:type="MSShapeGroup" fill="none"/>
      <use xlink:href="#path-3" fill-rule="evenodd" fill="#FCFAFA"/>
     </g>
     <g id="Group" sketch:type="MSShapeGroup" transform="translate(0 28)">
      <g id="Rectangle-path" fill="#8666C4" transform="translate(9.2903 11.613)">
       <rect y=".092903" x=".75019" height="1.7419" width="34.019"/>
       <rect y="5.6868" x=".75019" height="1.7419" width="23.43"/>
       <rect y="11.282" x=".75019" height="1.7419" width="23.43"/>
      </g>
      <g id="Rectangle-path" fill="#8666C4" transform="translate(48.774 33.677)">
       <rect y=".092903" x=".069677" height="1.7419" width="34.019"/>
       <rect y="5.6868" x=".069677" height="1.7419" width="34.019"/>
       <rect y="11.282" x=".069677" height="1.7419" width="34.019"/>
      </g>
      <path id="Shape" fill="#000" d="m0.2009 0.20671v35.929h8.0977v13.593l16.286-13.593h8.886v-3.484h-10.105l-0.377 0.314-0.018-0.021-11.189 9.338v-9.631h-0.062-3.4214-4.6138v-28.961l47.211-0.0004v13.454h3.484v-16.938l-54.179-0.00029z"/>
      <path id="Shape" fill="#8666C4" d="m0.2009 0.20671v35.929h8.0977v13.593l16.286-13.593h8.886v-3.484h-10.105l-11.584 9.631v-9.631h-0.062-8.0352v-28.961l47.211-0.0004v13.454h3.484v-16.938l-54.179-0.00029z"/>
      <path id="Shape" fill="#8666C4" d="m92.702 22.271v35.929h-8.097v13.593l-16.286-13.593h-29.796v-3.483h31.014l11.584 9.63v-9.63h0.062 8.035v-28.962h-47.211v32.445h-3.484v-35.929h54.179z"/>
     </g>
     <g id="noun_97524_cc" transform="translate(191 28)">
      <g id="Group">
       <path id="Shape" sketch:type="MSShapeGroup" fill="#8666C4" d="m69.19 3.6007h-13.889c-0.973 0-1.763-0.7954-1.763-1.7755 0-0.98124 0.79-1.7755 1.763-1.7755l13.889 0.000014c0.973 0 1.763 0.79425 1.763 1.7755 0 0.9801-0.79 1.7755-1.763 1.7755z"/>
       <path id="Shape" sketch:type="MSShapeGroup" fill="#8666C4" d="m74.138 9.5191h-18.837c-0.973 0-1.763-0.7954-1.763-1.7755 0-0.9813 0.79-1.7755 1.763-1.7755h18.837c0.974 0 1.763 0.7942 1.763 1.7755 0 0.9801-0.789 1.7755-1.763 1.7755z"/>
       <path id="Shape" sketch:type="MSShapeGroup" fill="#8666C4" d="m65.357 15.437h-10.057c-0.973 0-1.763-0.795-1.763-1.775 0-0.981 0.79-1.776 1.763-1.776h10.057c0.973 0 1.763 0.795 1.763 1.776 0 0.98-0.79 1.775-1.763 1.775z"/>
       <g id="Shape" sketch:type="MSShapeGroup" fill="#8666C4" transform="translate(48.571)">
        <path d="m1.8937 12.182c-0.9192 0-1.6668 0.751-1.6668 1.678-0.00003 0.926 0.7476 1.677 1.6668 1.677 0.9205 0 1.6669-0.751 1.6669-1.677 0-0.927-0.7441-1.678-1.6669-1.678"/>
        <path d="m1.8937 6.264c-0.9192 0-1.6668 0.7504-1.6668 1.6773-0.00003 0.9268 0.7476 1.6772 1.6668 1.6772 0.9205 0 1.6669-0.7504 1.6669-1.6772 0-0.9269-0.7441-1.6773-1.6669-1.6773"/>
        <path d="m1.8937 0.34563c-0.9192 0-1.6668 0.75047-1.6668 1.6773-0.00003 0.9268 0.7476 1.6773 1.6668 1.6773 0.9205 0 1.6669-0.7505 1.6669-1.6773s-0.7441-1.6773-1.6669-1.6773"/>
       </g>
       <path id="Shape" sketch:type="MSShapeGroup" fill="#8666C4" d="m47.225 35.094h7.411c0.974 0 1.763-0.796 1.763-1.776v-5.746c0-0.047-0.01-0.092-0.015-0.139 1.949-0.723 3.349-2.592 3.349-4.8 0-2.83-2.286-5.131-5.097-5.131-2.81 0-5.095 2.301-5.095 5.131 0 2.208 1.399 4.077 3.346 4.799-0.004 0.047-0.014 0.092-0.014 0.139v3.97h-5.629l-0.019 3.553zm-3.168-3.554h-4.13c-0.974 0-1.764 0.796-1.764 1.776s0.79 1.775 1.764 1.775h4.309l-0.179-3.551zm10.579-7.328c-0.863 0-1.568-0.709-1.568-1.579 0-0.871 0.705-1.58 1.568-1.58 0.866 0 1.57 0.709 1.57 1.58 0 0.87-0.705 1.579-1.57 1.579z"/>
       <g transform="translate(0 9.0913)">
        <g id="Clipped" transform="translate(1.551 3.551)">
         <mask id="mask-6" sketch:name="ar" fill="white">
          <use xlink:href="#path-5"/>
         </mask>
         <path id="Shape" sketch:type="MSShapeGroup" fill="#fff" mask="url(#mask-6)" d="m15.883 31.401c-0.15 0-0.3-0.058-0.416-0.173l-23.708-23.874c-0.2309-0.2325-0.2309-0.6077-0.0005-0.8397s0.603-0.232 0.8334 0l23.709 23.874c0.23 0.232 0.23 0.608 0 0.84-0.115 0.115-0.266 0.173-0.418 0.173z"/>
        </g>
        <g id="Clipped" transform="translate(1.551 2.7455)">
         <mask id="mask-8" sketch:name="ap" fill="white">
          <use xlink:href="#path-7"/>
         </mask>
         <path id="Shape" sketch:type="MSShapeGroup" fill="#000" mask="url(#mask-8)" d="m13.8 34.305c-0.151 0-0.302-0.058-0.417-0.174l-23.708-23.874c-0.23-0.231-0.23-0.6077 0-0.8385 0.231-0.2332 0.6035-0.2332 0.8339 0l23.709 23.874c0.229 0.232 0.229 0.608 0 0.839-0.117 0.117-0.267 0.174-0.418 0.174z"/>
        </g>
        <g id="Clipped" transform="translate(1.551 3.551)">
         <mask id="mask-10" sketch:name="an" fill="white">
          <use xlink:href="#path-9"/>
         </mask>
         <path id="Shape" sketch:type="MSShapeGroup" fill="#fff" mask="url(#mask-10)" d="m13.71 20.815c-0.15 0-0.301-0.058-0.416-0.172l-23.709-23.875c-0.23-0.2321-0.23-0.6073 0-0.8393s0.603-0.232 0.8334 0l23.709 23.873c0.23 0.232 0.23 0.607 0 0.841-0.116 0.114-0.265 0.172-0.417 0.172z"/>
        </g>
        <g id="Clipped" transform="translate(1.551 3.551)">
         <mask id="mask-12" sketch:name="al" fill="white">
          <use xlink:href="#path-11"/>
         </mask>
         <path id="Shape" sketch:type="MSShapeGroup" fill="#fff" mask="url(#mask-12)" d="m17.969 29.301c-0.151 0-0.302-0.058-0.416-0.173l-23.71-23.874c-0.2307-0.2323-0.2307-0.6087-0.0003-0.8396 0.2304-0.232 0.603-0.232 0.8334 0l23.709 23.874c0.23 0.231 0.23 0.607 0 0.839-0.115 0.116-0.266 0.174-0.416 0.174z"/>
        </g>
        <g id="Clipped" transform="translate(1.551 3.551)">
         <mask id="mask-14" sketch:name="aj" fill="white">
          <use xlink:href="#path-13"/>
         </mask>
         <path id="Shape" sketch:type="MSShapeGroup" fill="#fff" mask="url(#mask-14)" d="m15.936 14.662c-0.15 0-0.301-0.061-0.416-0.174l-23.707-23.874c-0.2308-0.232-0.2308-0.6084-0.0004-0.84 0.2304-0.231 0.603-0.231 0.8334 0l23.709 23.874c0.23 0.232 0.23 0.606 0 0.84-0.117 0.117-0.267 0.174-0.419 0.174z"/>
        </g>
        <g id="Clipped" transform="translate(1.551 3.551)">
         <mask id="mask-16" sketch:name="ah" fill="white">
          <use xlink:href="#path-15"/>
         </mask>
         <path id="Shape" sketch:type="MSShapeGroup" fill="#fff" mask="url(#mask-16)" d="m13.655 16.56c-0.152 0-0.304-0.058-0.416-0.173l-23.71-23.874c-0.231-0.2324-0.231-0.6076 0-0.8396 0.23-0.232 0.6026-0.232 0.833 0l23.709 23.873c0.23 0.233 0.23 0.607 0 0.84-0.115 0.116-0.266 0.174-0.416 0.174z"/>
        </g>
        <g id="Clipped" transform="translate(1.551 2.7455)">
         <mask id="mask-18" sketch:name="af" fill="white">
          <use xlink:href="#path-17"/>
         </mask>
         <path id="Shape" sketch:type="MSShapeGroup" fill="#000" mask="url(#mask-18)" d="m28.392 19.611c-0.152 0-0.302-0.058-0.416-0.174l-23.71-23.872c-0.2305-0.2322-0.2305-0.6086-0.0001-0.8394 0.2304-0.232 0.6031-0.232 0.8335 0l23.709 23.872c0.231 0.232 0.231 0.608 0 0.839-0.114 0.117-0.264 0.174-0.416 0.174z"/>
        </g>
        <g id="Clipped" transform="translate(1.551 3.551)">
         <mask id="mask-20" sketch:name="ad" fill="white">
          <use xlink:href="#path-19"/>
         </mask>
         <path id="Shape" sketch:type="MSShapeGroup" fill="#fff" mask="url(#mask-20)" d="m17.01 11.544c-0.151 0-0.302-0.058-0.416-0.173l-23.709-23.875c-0.2308-0.232-0.2308-0.607-0.0004-0.839s0.6031-0.232 0.8335 0l23.709 23.873c0.23 0.232 0.23 0.608 0 0.84-0.115 0.117-0.266 0.174-0.417 0.174z"/>
        </g>
        <g id="Clipped" transform="translate(1.551 2.7455)">
         <mask id="mask-22" sketch:name="ab" fill="white">
          <use xlink:href="#path-21"/>
         </mask>
         <path id="Shape" sketch:type="MSShapeGroup" fill="#000" mask="url(#mask-22)" d="m32.562 15.413c-0.151 0-0.305-0.058-0.416-0.173l-23.71-23.874c-0.2309-0.2317-0.2309-0.6081-0.0005-0.8389 0.2304-0.232 0.603-0.232 0.8334 0l23.709 23.874c0.23 0.23 0.23 0.607 0 0.839-0.115 0.116-0.267 0.173-0.416 0.173z"/>
        </g>
        <g id="Clipped" transform="translate(1.551 3.551)">
         <mask id="mask-24" sketch:name="z" fill="white">
          <use xlink:href="#path-23"/>
         </mask>
         <path id="Shape" sketch:type="MSShapeGroup" fill="#000" mask="url(#mask-24)" d="m30.475 16.707c-0.15 0-0.301-0.058-0.416-0.173l-23.709-23.875c-0.2303-0.2316-0.2303-0.608 0.0001-0.84 0.2316-0.232 0.6042-0.232 0.8334 0l23.708 23.873c0.232 0.232 0.232 0.609 0 0.841-0.114 0.116-0.265 0.174-0.417 0.174z"/>
        </g>
        <g id="Clipped" transform="translate(1.551 22.868)">
         <mask id="mask-26" sketch:name="x" fill="white">
          <use xlink:href="#path-25"/>
         </mask>
         <path id="Shape" sketch:type="MSShapeGroup" fill="#000" mask="url(#mask-26)" d="m28.497 22.317c0-0.492 0.396-0.89 0.885-0.89s0.884 0.398 0.884 0.89c0 0.486-0.395 0.89-0.884 0.89s-0.885-0.402-0.885-0.89zm-3.503 0c0-0.492 0.403-0.89 0.891-0.89 0.483 0 0.878 0.398 0.878 0.89 0 0.486-0.395 0.89-0.878 0.89-0.489 0-0.891-0.402-0.891-0.89zm-3.495 0c0-0.492 0.402-0.89 0.884-0.89 0.489 0 0.885 0.398 0.885 0.89 0 0.486-0.396 0.89-0.885 0.89-0.484 0-0.884-0.402-0.884-0.89zm-3.497 0c0-0.492 0.395-0.89 0.885-0.89 0.489 0 0.884 0.398 0.884 0.89 0 0.486-0.395 0.89-0.884 0.89-0.49 0-0.885-0.402-0.885-0.89zm-3.497 0c0-0.492 0.395-0.89 0.884-0.89s0.884 0.398 0.884 0.89c0 0.486-0.395 0.89-0.884 0.89s-0.884-0.402-0.884-0.89zm-3.495 0c0-0.492 0.395-0.89 0.884-0.89 0.483 0 0.885 0.398 0.885 0.89 0 0.486-0.402 0.89-0.885 0.89-0.489 0-0.884-0.402-0.884-0.89zm-3.4973 0c0-0.492 0.395-0.89 0.8781-0.89 0.489 0 0.891 0.398 0.891 0.89 0 0.486-0.402 0.89-0.891 0.89-0.4831 0-0.8781-0.402-0.8781-0.89zm-3.5007 0c0-0.492 0.395-0.89 0.884-0.89 0.4902 0 0.884 0.398 0.884 0.89 0 0.486-0.395 0.89-0.884 0.89s-0.884-0.402-0.884-0.89zm-3.4983 0c0-0.492 0.39497-0.89 0.884-0.89 0.4902 0 0.884 0.398 0.884 0.89 0 0.486-0.395 0.89-0.884 0.89-0.48903 0-0.884-0.402-0.884-0.89zm-3.496 0c0-0.492 0.395-0.89 0.884-0.89s0.884 0.398 0.884 0.89c0 0.486-0.395 0.89-0.884 0.89s-0.884-0.402-0.884-0.89z"/>
         <mask id="mask-28" sketch:name="v" fill="white">
          <use xlink:href="#path-27"/>
         </mask>
         <path id="Shape" sketch:type="MSShapeGroup" fill="#000" mask="url(#mask-28)" d="m32.874 23.205h-38.465c-0.4876 0-0.8837-0.398-0.8837-0.89s0.3961-0.891 0.884-0.891h38.465c0.488 0 0.884 0.399 0.884 0.891 0 0.493-0.395 0.89-0.884 0.89z"/>
         <mask id="mask-30" sketch:name="t" fill="white">
          <use xlink:href="#path-29"/>
         </mask>
         <path id="Shape" sketch:type="MSShapeGroup" fill="#000" mask="url(#mask-30)" d="m28.497 25.286c0-0.493 0.396-0.89 0.885-0.89s0.884 0.397 0.884 0.89c0 0.486-0.395 0.891-0.884 0.891s-0.885-0.405-0.885-0.891zm-3.497 0c0-0.493 0.396-0.89 0.885-0.89 0.483 0 0.884 0.397 0.884 0.89 0 0.486-0.401 0.891-0.884 0.891-0.489 0-0.885-0.405-0.885-0.891zm-3.501 0c0-0.493 0.402-0.89 0.884-0.89 0.489 0 0.885 0.397 0.885 0.89 0 0.486-0.396 0.891-0.885 0.891-0.484 0-0.884-0.405-0.884-0.891zm-3.497 0c0-0.493 0.395-0.89 0.885-0.89 0.489 0 0.884 0.397 0.884 0.89 0 0.486-0.395 0.891-0.884 0.891-0.49 0-0.885-0.405-0.885-0.891zm-3.497 0c0-0.493 0.395-0.89 0.884-0.89s0.884 0.397 0.884 0.89c0 0.486-0.395 0.891-0.884 0.891s-0.884-0.405-0.884-0.891zm-3.495 0c0-0.493 0.395-0.89 0.884-0.89 0.483 0 0.885 0.397 0.885 0.89 0 0.486-0.402 0.891-0.885 0.891-0.489 0-0.884-0.405-0.884-0.891zm-3.5044 0c0-0.493 0.4021-0.89 0.8852-0.89 0.489 0 0.884 0.397 0.884 0.89 0 0.486-0.395 0.891-0.884 0.891-0.4831 0-0.8852-0.405-0.8852-0.891zm-3.4936 0c0-0.493 0.395-0.89 0.884-0.89 0.4902 0 0.884 0.397 0.884 0.89 0 0.486-0.395 0.891-0.884 0.891s-0.884-0.405-0.884-0.891zm-3.4983 0c0-0.493 0.39497-0.89 0.884-0.89 0.4902 0 0.884 0.397 0.884 0.89 0 0.486-0.395 0.891-0.884 0.891-0.48903 0-0.884-0.405-0.884-0.891zm-3.496 0c0-0.493 0.395-0.89 0.884-0.89s0.884 0.397 0.884 0.89c0 0.486-0.395 0.891-0.884 0.891s-0.884-0.405-0.884-0.891z"/>
         <mask id="mask-32" sketch:name="r" fill="white">
          <use xlink:href="#path-31"/>
         </mask>
         <path id="Shape" sketch:type="MSShapeGroup" fill="#000" mask="url(#mask-32)" d="m32.874 26.175h-38.465c-0.4876 0-0.8837-0.399-0.8837-0.892 0-0.491 0.3961-0.89 0.884-0.89h38.465c0.488 0 0.884 0.399 0.884 0.89 0 0.493-0.395 0.892-0.884 0.892z"/>
         <mask id="mask-34" sketch:name="p" fill="white">
          <use xlink:href="#path-33"/>
         </mask>
         <path id="Shape" sketch:type="MSShapeGroup" fill="#fff" mask="url(#mask-34)" d="m28.497 16.381c0-0.494 0.396-0.891 0.885-0.891 0.483 0 0.884 0.397 0.884 0.891 0 0.486-0.401 0.89-0.884 0.89-0.489 0-0.885-0.404-0.885-0.89zm-3.497 0c0-0.494 0.396-0.891 0.879-0.891 0.489 0 0.89 0.397 0.89 0.891 0 0.486-0.401 0.89-0.89 0.89-0.483 0-0.879-0.404-0.879-0.89zm-3.501 0c0-0.494 0.396-0.891 0.884-0.891 0.489 0 0.885 0.397 0.885 0.891 0 0.486-0.396 0.89-0.885 0.89s-0.884-0.404-0.884-0.89zm-3.497 0c0-0.494 0.395-0.891 0.885-0.891 0.489 0 0.884 0.397 0.884 0.891 0 0.486-0.395 0.89-0.884 0.89-0.49 0-0.885-0.404-0.885-0.89zm-3.497 0c0-0.494 0.395-0.891 0.884-0.891s0.884 0.397 0.884 0.891c0 0.486-0.395 0.89-0.884 0.89s-0.884-0.404-0.884-0.89zm-3.495 0c0-0.494 0.395-0.891 0.884-0.891 0.483 0 0.885 0.397 0.885 0.891 0 0.486-0.402 0.89-0.885 0.89-0.489 0-0.884-0.404-0.884-0.89zm-3.4973 0c0-0.494 0.395-0.891 0.8781-0.891 0.489 0 0.891 0.397 0.891 0.891 0 0.486-0.402 0.89-0.891 0.89-0.4831 0-0.8781-0.404-0.8781-0.89zm-3.5007 0c0-0.494 0.395-0.891 0.884-0.891 0.4902 0 0.884 0.397 0.884 0.891 0 0.486-0.395 0.89-0.884 0.89s-0.884-0.404-0.884-0.89zm-3.4983 0c0-0.494 0.39497-0.891 0.884-0.891 0.4902 0 0.884 0.397 0.884 0.891 0 0.486-0.395 0.89-0.884 0.89-0.48903 0-0.884-0.404-0.884-0.89zm-3.496 0c0-0.494 0.395-0.891 0.884-0.891s0.884 0.397 0.884 0.891c0 0.486-0.395 0.89-0.884 0.89s-0.884-0.404-0.884-0.89z"/>
         <mask id="mask-36" sketch:name="n" fill="white">
          <use xlink:href="#path-35"/>
         </mask>
         <path id="Shape" sketch:type="MSShapeGroup" fill="#fff" mask="url(#mask-36)" d="m28.497 19.35c0-0.493 0.396-0.891 0.885-0.891s0.884 0.398 0.884 0.891c0 0.486-0.395 0.89-0.884 0.89s-0.885-0.404-0.885-0.89zm-3.497 0c0-0.493 0.396-0.891 0.885-0.891 0.483 0 0.884 0.398 0.884 0.891 0 0.486-0.401 0.89-0.884 0.89-0.489 0-0.885-0.404-0.885-0.89zm-3.501 0c0-0.493 0.402-0.891 0.884-0.891 0.489 0 0.885 0.398 0.885 0.891 0 0.486-0.396 0.89-0.885 0.89-0.484 0-0.884-0.404-0.884-0.89zm-3.497 0c0-0.493 0.395-0.891 0.885-0.891 0.489 0 0.884 0.398 0.884 0.891 0 0.486-0.395 0.89-0.884 0.89-0.49 0-0.885-0.404-0.885-0.89zm-3.497 0c0-0.493 0.395-0.891 0.884-0.891s0.884 0.398 0.884 0.891c0 0.486-0.395 0.89-0.884 0.89s-0.884-0.404-0.884-0.89zm-3.495 0c0-0.493 0.395-0.891 0.884-0.891 0.483 0 0.885 0.398 0.885 0.891 0 0.486-0.402 0.89-0.885 0.89-0.489 0-0.884-0.404-0.884-0.89zm-3.4973 0c0-0.493 0.395-0.891 0.8781-0.891 0.489 0 0.884 0.398 0.884 0.891 0 0.486-0.395 0.89-0.884 0.89-0.4831 0-0.8781-0.404-0.8781-0.89zm-3.5007 0c0-0.493 0.395-0.891 0.884-0.891 0.4902 0 0.884 0.398 0.884 0.891 0 0.486-0.395 0.89-0.884 0.89s-0.884-0.404-0.884-0.89zm-3.4983 0c0-0.493 0.39497-0.891 0.884-0.891 0.4902 0 0.884 0.398 0.884 0.891 0 0.486-0.395 0.89-0.884 0.89-0.48903 0-0.884-0.404-0.884-0.89zm-3.496 0c0-0.493 0.395-0.891 0.884-0.891s0.884 0.398 0.884 0.891c0 0.486-0.395 0.89-0.884 0.89s-0.884-0.404-0.884-0.89z"/>
         <mask id="mask-38" sketch:name="l" fill="white">
          <use xlink:href="#path-37"/>
         </mask>
         <path id="Shape" sketch:type="MSShapeGroup" fill="#fff" mask="url(#mask-38)" d="m28.497 10.444c0-0.494 0.396-0.8918 0.885-0.8918s0.884 0.3978 0.884 0.8918c0 0.486-0.395 0.89-0.884 0.89s-0.885-0.404-0.885-0.89zm-3.503 0c0-0.494 0.403-0.8918 0.885-0.8918 0.489 0 0.89 0.3978 0.89 0.8918 0 0.486-0.401 0.89-0.89 0.89-0.483 0-0.885-0.404-0.885-0.89zm-3.495 0c0-0.494 0.396-0.8918 0.884-0.8918 0.489 0 0.885 0.3978 0.885 0.8918 0 0.486-0.396 0.89-0.885 0.89s-0.884-0.404-0.884-0.89zm-3.497 0c0-0.494 0.395-0.8918 0.885-0.8918 0.489 0 0.884 0.3978 0.884 0.8918 0 0.486-0.395 0.89-0.884 0.89-0.49 0-0.885-0.404-0.885-0.89zm-3.497 0c0-0.494 0.395-0.8918 0.884-0.8918s0.884 0.3978 0.884 0.8918c0 0.486-0.395 0.89-0.884 0.89s-0.884-0.404-0.884-0.89zm-3.495 0c0-0.494 0.395-0.8918 0.884-0.8918s0.885 0.3978 0.885 0.8918c0 0.486-0.396 0.89-0.885 0.89s-0.884-0.404-0.884-0.89zm-3.5044 0c0-0.494 0.4021-0.8918 0.8911-0.8918 0.4831 0 0.8781 0.3978 0.8781 0.8918 0 0.486-0.395 0.89-0.8781 0.89-0.489 0-0.8911-0.404-0.8911-0.89zm-3.4936 0c0-0.494 0.395-0.8918 0.884-0.8918 0.4902 0 0.884 0.3978 0.884 0.8918 0 0.486-0.395 0.89-0.884 0.89s-0.884-0.404-0.884-0.89zm-3.4983 0c0-0.494 0.39497-0.8918 0.884-0.8918 0.4902 0 0.884 0.3978 0.884 0.8918 0 0.486-0.395 0.89-0.884 0.89-0.48903 0-0.884-0.404-0.884-0.89zm-3.496 0c0-0.494 0.395-0.8918 0.884-0.8918s0.884 0.3978 0.884 0.8918c0 0.486-0.395 0.89-0.884 0.89s-0.884-0.404-0.884-0.89z"/>
         <mask id="mask-40" sketch:name="j" fill="white">
          <use xlink:href="#path-39"/>
         </mask>
         <path id="Shape" sketch:type="MSShapeGroup" fill="#fff" mask="url(#mask-40)" d="m28.497 13.412c0-0.493 0.396-0.891 0.885-0.891s0.884 0.398 0.884 0.891c0 0.487-0.395 0.89-0.884 0.89s-0.885-0.403-0.885-0.89zm-3.503 0c0-0.493 0.403-0.891 0.885-0.891 0.489 0 0.89 0.398 0.89 0.891 0 0.487-0.401 0.89-0.89 0.89-0.483 0-0.885-0.403-0.885-0.89zm-3.495 0c0-0.493 0.396-0.891 0.884-0.891 0.489 0 0.885 0.398 0.885 0.891 0 0.487-0.396 0.89-0.885 0.89s-0.884-0.403-0.884-0.89zm-3.497 0c0-0.493 0.395-0.891 0.885-0.891 0.489 0 0.884 0.398 0.884 0.891 0 0.487-0.395 0.89-0.884 0.89-0.49 0-0.885-0.403-0.885-0.89zm-3.497 0c0-0.493 0.395-0.891 0.884-0.891s0.884 0.398 0.884 0.891c0 0.487-0.395 0.89-0.884 0.89s-0.884-0.403-0.884-0.89zm-3.495 0c0-0.493 0.395-0.891 0.884-0.891s0.885 0.398 0.885 0.891c0 0.487-0.396 0.89-0.885 0.89s-0.884-0.403-0.884-0.89zm-3.5044 0c0-0.493 0.4021-0.891 0.8911-0.891 0.4831 0 0.8781 0.398 0.8781 0.891 0 0.487-0.395 0.89-0.8781 0.89-0.489 0-0.8911-0.403-0.8911-0.89zm-3.4936 0c0-0.493 0.395-0.891 0.884-0.891 0.4902 0 0.884 0.398 0.884 0.891 0 0.487-0.395 0.89-0.884 0.89s-0.884-0.403-0.884-0.89zm-3.4983 0c0-0.493 0.39497-0.891 0.884-0.891 0.4902 0 0.884 0.398 0.884 0.891 0 0.487-0.395 0.89-0.884 0.89-0.48903 0-0.884-0.403-0.884-0.89zm-3.496 0c0-0.493 0.395-0.891 0.884-0.891s0.884 0.398 0.884 0.891c0 0.487-0.395 0.89-0.884 0.89s-0.884-0.403-0.884-0.89z"/>
         <mask id="mask-42" sketch:name="h" fill="white">
          <use xlink:href="#path-41"/>
         </mask>
         <path id="Shape" sketch:type="MSShapeGroup" fill="#fff" mask="url(#mask-42)" d="m28.497 4.5062c0-0.4924 0.396-0.8901 0.885-0.8901s0.884 0.3977 0.884 0.8901c0 0.4877-0.395 0.8914-0.884 0.8914s-0.885-0.4037-0.885-0.8914zm-3.503 0c0-0.4924 0.403-0.8901 0.885-0.8901 0.489 0 0.89 0.3977 0.89 0.8901 0 0.4877-0.401 0.8914-0.89 0.8914-0.483 0-0.885-0.4037-0.885-0.8914zm-9.605 0.8914c-0.489 0-0.884-0.4037-0.884-0.8914l0.884 0.8914zm-4.379-0.8914c0-0.4924 0.395-0.8901 0.884-0.8901s0.885 0.3977 0.885 0.8901c0 0.4877-0.396 0.8914-0.885 0.8914s-0.884-0.4037-0.884-0.8914zm-3.5044 0c0-0.4924 0.4021-0.8901 0.8911-0.8901 0.4831 0 0.8781 0.3977 0.8781 0.8901 0 0.4877-0.395 0.8914-0.8781 0.8914-0.489 0-0.8911-0.4037-0.8911-0.8914zm-3.4936 0c0-0.4924 0.395-0.8901 0.884-0.8901 0.4902 0 0.884 0.3977 0.884 0.8901 0 0.4877-0.395 0.8914-0.884 0.8914s-0.884-0.4037-0.884-0.8914zm-3.4983 0c0-0.4924 0.39497-0.8901 0.884-0.8901 0.4902 0 0.884 0.3977 0.884 0.8901 0 0.4877-0.395 0.8914-0.884 0.8914-0.48903 0-0.884-0.4037-0.884-0.8914zm-3.496 0c0-0.4924 0.395-0.8901 0.884-0.8901s0.884 0.3977 0.884 0.8901c0 0.4877-0.395 0.8914-0.884 0.8914s-0.884-0.4037-0.884-0.8914z"/>
         <mask id="mask-44" sketch:name="f" fill="white">
          <use xlink:href="#path-43"/>
         </mask>
         <path id="Shape" sketch:type="MSShapeGroup" fill="#fff" mask="url(#mask-44)" d="m28.497 7.4749c0-0.4936 0.396-0.8913 0.885-0.8913s0.884 0.3977 0.884 0.8913c0 0.4865-0.395 0.8901-0.884 0.8901s-0.885-0.4024-0.885-0.8901zm-3.503 0c0-0.4936 0.403-0.8913 0.885-0.8913 0.489 0 0.89 0.3977 0.89 0.8913 0 0.4865-0.401 0.8901-0.89 0.8901-0.483 0-0.885-0.4024-0.885-0.8901zm-6.107 0.8901c-0.49 0-0.885-0.4036-0.885-0.8901l0.885 0.8901zm-4.382-0.8901c0-0.4936 0.395-0.8913 0.884-0.8913s0.884 0.3977 0.884 0.8913c0 0.4865-0.395 0.8901-0.884 0.8901s-0.884-0.4024-0.884-0.8901zm-3.495 0c0-0.4936 0.395-0.8913 0.884-0.8913s0.885 0.3977 0.885 0.8913c0 0.4865-0.396 0.8901-0.885 0.8901s-0.884-0.4024-0.884-0.8901zm-3.5044 0c0-0.4936 0.4021-0.8913 0.8911-0.8913 0.4831 0 0.8781 0.3977 0.8781 0.8913 0 0.4865-0.395 0.8901-0.8781 0.8901-0.489 0-0.8911-0.4024-0.8911-0.8901zm-3.4936 0c0-0.4936 0.395-0.8913 0.884-0.8913 0.4902 0 0.884 0.3977 0.884 0.8913 0 0.4865-0.395 0.8901-0.884 0.8901s-0.884-0.4024-0.884-0.8901zm-3.4983 0c0-0.4936 0.39497-0.8913 0.884-0.8913 0.4902 0 0.884 0.3977 0.884 0.8913 0 0.4865-0.395 0.8901-0.884 0.8901-0.48903 0-0.884-0.4024-0.884-0.8901zm-3.496 0c0-0.4936 0.395-0.8913 0.884-0.8913s0.884 0.3977 0.884 0.8913c0 0.4865-0.395 0.8901-0.884 0.8901s-0.884-0.4024-0.884-0.8901z"/>
         <mask id="mask-46" sketch:name="d" fill="white">
          <use xlink:href="#path-45"/>
         </mask>
         <path id="Shape" sketch:type="MSShapeGroup" fill="#000" mask="url(#mask-46)" d="m28.497-1.4311c0-0.4924 0.396-0.8901 0.885-0.8901s0.884 0.3977 0.884 0.8901c0 0.48771-0.395 0.89134-0.884 0.89134s-0.885-0.40363-0.885-0.89134zm-3.503 0c0-0.4924 0.403-0.8901 0.885-0.8901 0.489 0 0.89 0.3977 0.89 0.8901 0 0.48771-0.401 0.89134-0.89 0.89134-0.483 0-0.885-0.40363-0.885-0.89134zm-3.495 0c0-0.4924 0.396-0.8901 0.884-0.8901 0.489 0 0.885 0.3977 0.885 0.8901 0 0.48771-0.396 0.89134-0.885 0.89134s-0.884-0.40363-0.884-0.89134zm-3.497 0c0-0.4924 0.395-0.8901 0.885-0.8901 0.489 0 0.884 0.3977 0.884 0.8901 0 0.48771-0.395 0.89134-0.884 0.89134-0.49 0-0.885-0.40363-0.885-0.89134zm-3.497 0c0-0.4924 0.395-0.8901 0.884-0.8901s0.884 0.3977 0.884 0.8901c0 0.48771-0.395 0.89134-0.884 0.89134s-0.884-0.40363-0.884-0.89134zm-3.495 0c0-0.4924 0.395-0.8901 0.884-0.8901s0.885 0.3977 0.885 0.8901c0 0.48771-0.396 0.89134-0.885 0.89134s-0.884-0.40363-0.884-0.89134zm-3.5044 0c0-0.4924 0.4021-0.8901 0.8911-0.8901 0.4831 0 0.8781 0.3977 0.8781 0.8901 0 0.48771-0.395 0.89134-0.8781 0.89134-0.489 0-0.8911-0.40363-0.8911-0.89134zm-3.4936 0c0-0.4924 0.395-0.8901 0.884-0.8901 0.4902 0 0.884 0.3977 0.884 0.8901 0 0.48771-0.395 0.89134-0.884 0.89134s-0.884-0.40363-0.884-0.89134zm-3.4983 0c0-0.4924 0.39497-0.8901 0.884-0.8901 0.4902 0 0.884 0.3977 0.884 0.8901 0 0.48771-0.395 0.89134-0.884 0.89134-0.48903 0-0.884-0.40363-0.884-0.89134zm-3.496 0c0-0.4924 0.395-0.8901 0.884-0.8901s0.884 0.3977 0.884 0.8901c0 0.48771-0.395 0.89134-0.884 0.89134s-0.884-0.40363-0.884-0.89134z"/>
         <mask id="mask-48" sketch:name="b" fill="white">
          <use xlink:href="#path-47"/>
         </mask>
         <path id="Shape" sketch:type="MSShapeGroup" fill="#000" mask="url(#mask-48)" d="m32.874-0.54212h-38.465c-0.4876 0-0.8837-0.3989-0.8837-0.89128 0-0.4913 0.3961-0.8902 0.884-0.8902h38.465c0.488 0 0.884 0.3989 0.884 0.8902 0 0.49356-0.395 0.89128-0.884 0.89128z"/>
        </g>
        <path id="Shape" sketch:type="MSShapeGroup" fill="#8666C4" d="m24.158 0.057342c-0.061-0.005918-0.119-0.018938-0.181-0.018938-0.097 0-0.19 0.005918-0.288 0.007102-0.085-0.001184-0.171-0.007102-0.257-0.007102-0.053 0-0.105 0.011836-0.156 0.016571-3.331 0.078125-6.246 0.7173-9.347 2.0596-0.191 0.0828-0.362 0.2047-0.511 0.3456-9.1563 4.4968-14.346 13.885-13.271 24.171 0.01692 0.16 0.06041 0.308 0.11449 0.45 0.07288 0.516 0.15987 1.018 0.27271 1.553 2.3287 11.076 12.141 19.116 23.328 19.116 1.666 0 3.343-0.18 4.986-0.532 0.189-0.041 0.36-0.118 0.518-0.21 10.664-2.694 18.026-12.064 18.026-23.114 0.002-12.913-10.357-23.453-23.234-23.837v0.000342zm-2.495 3.6623v10.781l-4.361-9.8617c1.433-0.4711 2.861-0.7705 4.361-0.9197zm8.141 39.457l-2.23-10.604c-1.057 0.479-2.22 0.765-3.444 0.819v0.001c-0.143 0.007-0.283 0.021-0.428 0.021-0.016 0-0.029-0.002-0.044-0.002l2.278 10.659c-0.691 0.072-1.384 0.117-2.075 0.117-9.486 0-17.809-6.795-19.838-16.176l10.707-1.133c-0.309-0.938-0.481-1.942-0.481-2.984 0-0.356 0.023-0.705 0.061-1.051l-10.751 1.142c0.0021-7.424 3.8414-14.056 10.276-17.716l4.488 9.8c1.528-1.066 3.38-1.696 5.381-1.696 0.702 0 1.385 0.082 2.044 0.23v-10.869c10.175 1.147 18.11 9.746 18.11 20.159-0.003 8.937-5.678 16.582-14.054 19.283z"/>
        <path id="Shape" sketch:type="MSShapeGroup" fill="#8666C4" d="m23.701 35.196c-6.189 0-11.224-5.07-11.224-11.302s5.035-11.302 11.224-11.302c6.188 0 11.223 5.07 11.223 11.302s-5.035 11.302-11.223 11.302zm0-19.042c-4.239 0-7.687 3.473-7.687 7.74s3.449 7.739 7.687 7.739c4.237 0 7.686-3.472 7.686-7.739s-3.448-7.74-7.686-7.74z"/>
       </g>
      </g>
     </g>
     <mask id="mask-50" sketch:name="Mask Copy" fill="white">
      <use xlink:href="#path-49"/>
     </mask>
     <g id="Mask-Copy">
      <use xlink:href="#path-49" stroke="#8666C4" stroke-width="3" sketch:type="MSShapeGroup" fill="none"/>
      <use xlink:href="#path-49" fill-rule="evenodd" fill="#FCFAFA"/>
     </g>
     <g id="Group-23" mask="url(#mask-50)">
      <g transform="translate(94 38)">
       <g id="noun_31789_cc" transform="translate(.87065 .62838)">
        <g id="Layer-1">
         <g id="Group-24">
          <path id="Fill-1" sketch:type="MSShapeGroup" fill="#8666C4" d="m45.643 59.965c-0.752 0.331-1.56 0.555-2.408 0.656 0.865-0.516 1.53-1.333 1.843-2.306-0.81 0.478-1.707 0.824-2.662 1.011-0.765-0.81-1.855-1.316-3.06-1.316-2.316 0-4.193 1.866-4.193 4.168 0 0.327 0.037 0.645 0.108 0.95-3.484-0.174-6.573-1.833-8.641-4.355-0.361 0.616-0.568 1.332-0.568 2.096 0 1.446 0.74 2.722 1.865 3.469-0.687-0.022-1.333-0.209-1.899-0.521v0.052c0 2.02 1.445 3.704 3.363 4.087-0.352 0.096-0.722 0.147-1.104 0.147-0.271 0-0.533-0.027-0.789-0.075 0.533 1.656 2.082 2.861 3.916 2.895-1.435 1.118-3.242 1.784-5.207 1.784-0.338 0-0.672-0.02-1-0.058 1.856 1.182 4.059 1.872 6.427 1.872 7.712 0 11.929-6.351 11.929-11.859 0-0.181-0.004-0.361-0.012-0.54 0.819-0.587 1.53-1.321 2.092-2.157"/>
          <g id="Group-9">
           <g id="Group-10">
            <path id="Shape" sketch:type="MSShapeGroup" fill="#8666C4" d="m34.808 24.667c2.828 0 5.12 2.279 5.12 5.091 0 2.811-2.292 5.09-5.12 5.09s-5.12-2.279-5.12-5.09c0-2.812 2.292-5.091 5.12-5.091zm11.422 3.916c2.176 0 3.939 1.753 3.939 3.915 0 2.163-1.763 3.916-3.939 3.916-2.175 0-3.938-1.753-3.938-3.916 0-2.162 1.763-3.915 3.938-3.915zm5.514 15.662c0-3.893-2.469-7.048-5.514-7.048-2.103 0-3.93 1.506-4.86 3.72-1.272-3.149-3.734-5.286-6.563-5.286-4.134 0-7.483 4.557-7.483 10.18h14.967c0-0.534-0.039-1.056-0.097-1.566h9.55zm1.837-25.358h-1.243c-1.374 0-2.487-1.032-2.487-2.303v-10.365c0-1.273 1.114-2.3035 2.487-2.3035h18.658c1.373 0 2.487 1.0313 2.487 2.3031v10.364c0 1.272-1.114 2.303-2.487 2.303h-12.439l-4.976 4.607v-4.606zm-44.463 0.649l1.928-3.834c0.133-0.266 0.406-0.433 0.705-0.433h1.088c0.435 0 0.788 0.35 0.788 0.783v3.132c0 0.433 0.353 0.783 0.788 0.783h3.151c0.434 0 0.787 0.35 0.787 0.783v7.831c0 0.433-0.353 0.783-0.787 0.783h-6.764c-0.209 0-0.41-0.082-0.557-0.229l-1.9014-1.89c-0.1481-0.148-0.3482-0.23-0.5569-0.23h-0.4616c-0.4348 0-0.7877-0.35-0.7877-0.783v-5.482c0-0.433 0.3529-0.783 0.7877-0.783h1.0886c0.2978 0.002 0.5703-0.166 0.7043-0.431zm-3.3692 0.433v7.831c0 0.433-0.3529 0.783-0.7877 0.783h-2.4829c-0.3852 0-0.7137-0.277-0.7767-0.655l-1.3132-7.831c-0.07085-0.426 0.21825-0.83 0.6476-0.9 0.0425-0.008 0.0858-0.011 0.1299-0.011h3.7961c0.4348 0 0.7869 0.35 0.7869 0.783zm45.995 46.753c-0.626 0-1.217-0.374-1.463-0.987-0.322-0.802 0.071-1.714 0.879-2.036 11.314-4.488 18.625-15.211 18.625-27.316 0-4.117-0.845-8.11-2.515-11.867-0.351-0.791 0.009-1.716 0.805-2.066 0.793-0.349 1.725 0.008 2.078 0.799 1.845 4.159 2.782 8.578 2.782 13.134 0 13.394-8.089 25.257-20.606 30.226-0.192 0.076-0.389 0.113-0.585 0.113zm-32.974-2.911c-0.321 0-0.644-0.096-0.924-0.298-8.4712-6.112-13.529-15.961-13.529-26.345-0.0003-1.077 0.0549-2.173 0.1636-3.258 0.0866-0.861 0.857-1.491 1.7235-1.404 0.8658 0.086 1.4975 0.853 1.4117 1.714-0.0985 0.982-0.1481 1.974-0.1481 2.947 0 9.384 4.5713 18.286 12.228 23.811 0.705 0.507 0.861 1.487 0.35 2.187-0.308 0.423-0.788 0.646-1.276 0.646zm-2.436-50.624c-0.397 0-0.794-0.148-1.101-0.445-0.623-0.604-0.635-1.596-0.027-2.215 6.216-6.3296 14.533-9.8152 23.42-9.8152 2.397 0.00003 4.812 0.26785 7.184 0.7957 0.849 0.1895 1.383 1.0266 1.192 1.8708-0.19 0.8441-1.029 1.3735-1.882 1.1856-2.145-0.4777-4.328-0.7197-6.494-0.7197-8.031 0-15.547 3.1504-21.165 8.8718-0.309 0.314-0.718 0.471-1.127 0.471z"/>
            <mask id="mask-52" sketch:name="Clip 2" fill="white">
             <use xlink:href="#path-51"/>
            </mask>
           </g>
          </g>
         </g>
        </g>
       </g>
      </g>
     </g>
    </g>
   </g>
  </g>
 </g>
</svg>
