<?xml version="1.0" encoding="UTF-8" standalone="no"?>
<svg width="301px" height="190px" viewBox="0 0 301 190" version="1.1" xmlns="http://www.w3.org/2000/svg" xmlns:xlink="http://www.w3.org/1999/xlink" xmlns:sketch="http://www.bohemiancoding.com/sketch/ns">
    <!-- Generator: Sketch 3.5 (25232) - http://www.bohemiancoding.com/sketch -->
    <title>Group 35</title>
    <desc>Created with Sketch.</desc>
    <defs></defs>
    <g id="Welcome" stroke="none" stroke-width="1" fill="none" fill-rule="evenodd" sketch:type="MSPage">
        <g id="Landing-page" sketch:type="MSArtboardGroup" transform="translate(-165.000000, -1014.000000)">
            <g id="Group-11" sketch:type="MSLayerGroup" transform="translate(165.000000, 1014.000000)">
                <g id="Group-6" sketch:type="MSShapeGroup">
                    <g id="Group-35">
                        <path d="M255.984084,166.612274 C256.800076,166.932478 257.476343,167.454613 257.908092,168.099349 L257.956995,167.972421 C257.512671,167.336339 256.835007,166.819974 256.024604,166.505539 L255.984084,166.612274 L255.984084,166.612274 Z M257.803298,168.353205 C257.35618,167.679622 256.675721,167.153159 255.870907,166.866129 L255.805237,167.006038 C256.621228,167.291626 257.297495,167.83107 257.732039,168.520519 L257.803298,168.353205 L257.803298,168.353205 Z M256.125206,166.248798 C256.918842,166.59785 257.582533,167.108446 258.046419,167.72145 L258.074364,167.634908 C257.604889,167.029116 256.9398,166.524289 256.153151,166.178123 L256.125206,166.248798 L256.125206,166.248798 Z M256.236986,165.928594 C257.018046,166.309377 257.669163,166.824301 258.135843,167.435862 L258.163788,167.346436 C257.688724,166.742086 257.03621,166.230048 256.262136,165.853591 L256.236986,165.928594 L256.236986,165.928594 Z M258.229458,167.111331 C257.7516,166.521405 257.101881,166.015136 256.333396,165.630025 L256.31104,165.700701 C257.086511,166.093023 257.73623,166.607946 258.204308,167.2022 L258.229458,167.111331 L258.229458,167.111331 Z M255.279872,167.968094 C256.098658,168.239258 256.766542,168.843608 257.138209,169.629695 L257.277934,169.404687 C256.879719,168.644562 256.207644,168.051751 255.400036,167.767606 L255.279872,167.968094 L255.279872,167.968094 Z M255.590061,167.430093 C256.408847,167.722892 257.079525,168.307049 257.470754,169.051308 L257.57415,168.85082 C257.159168,168.125311 256.48849,167.558463 255.680882,167.258452 L255.590061,167.430093 L255.590061,167.430093 Z M253.740108,169.788355 C254.58125,169.893648 255.30642,170.49367 255.696252,171.351876 C255.782881,171.271103 255.868113,171.193216 255.953345,171.112444 C255.552335,170.297509 254.870479,169.693159 254.054488,169.495556 C253.951092,169.596521 253.846298,169.693159 253.740108,169.788355 L253.740108,169.788355 Z M254.853713,168.579656 C255.675293,168.839281 256.35156,169.445073 256.726022,170.228276 C256.786103,170.148946 256.84339,170.0725 256.900678,169.990286 C256.499668,169.228719 255.830387,168.63735 255.019985,168.354647 L254.853713,168.579656 L254.853713,168.579656 Z M256.477312,170.536941 C256.084686,169.758066 255.409816,169.159485 254.605003,168.891206 C254.533743,168.977748 254.459689,169.059962 254.389827,169.142177 C255.208613,169.372955 255.890469,169.975862 256.267725,170.7807 L256.477312,170.536941 L256.477312,170.536941 Z M254.521168,160.150491 C254.29202,160.930809 253.956681,161.566891 253.552877,161.986618 C253.392193,162.175567 253.298578,162.383268 253.298578,162.614046 C253.298578,162.815976 253.367043,163.002041 253.487206,163.165028 L253.530521,163.214068 C253.902188,163.687163 254.177446,164.239588 254.329745,164.846822 C254.618975,164.102563 254.790836,163.193875 254.790836,162.213069 C254.790836,161.470252 254.693029,160.770707 254.521168,160.150491 L254.521168,160.150491 Z M240.385233,165.764165 C240.385233,165.764165 240.923172,165.767049 241.582672,166.003597 C241.81741,166.087254 249.310839,169.349877 251.483556,170.298951 L251.483556,169.879224 C250.470553,169.325357 248.304822,168.157043 246.34728,167.161814 C243.68413,165.807435 241.834177,163.822745 241.834177,163.822745 C241.452729,163.444846 240.935748,163.214068 240.385233,163.214068 C239.834718,163.214068 239.320532,163.444846 238.939083,163.822745 C238.939083,163.822745 237.08913,165.807435 234.42598,167.161814 C232.47263,168.155601 230.305502,169.325357 229.289704,169.879224 L229.289704,170.298951 C231.462422,169.354204 238.953056,166.087254 239.187793,166.003597 C239.850088,165.767049 240.385233,165.764165 240.385233,165.764165 L240.385233,165.764165 Z M253.382413,155.02722 L243.252381,155.02722 C243.252381,155.02722 243.012055,155.387811 244.0544,155.901292 C245.09954,156.411888 250.399293,159.332671 250.399293,159.332671 C250.399293,159.332671 251.837059,160.304824 252.729899,159.137953 C254.352101,157.019123 253.382413,155.02722 253.382413,155.02722 L253.382413,155.02722 Z M224.790573,166.612274 L224.747258,166.509866 C223.936856,166.824301 223.263384,167.336339 222.814868,167.973863 L222.863771,168.103676 C223.29552,167.454613 223.973184,166.932478 224.790573,166.612274 L224.790573,166.612274 Z M222.968565,168.353205 L223.042619,168.516192 C223.471573,167.828185 224.150635,167.288741 224.969421,167.003154 L224.900956,166.863245 C224.09195,167.153159 223.412889,167.681064 222.968565,168.353205 L222.968565,168.353205 Z M224.646657,166.248798 L224.618712,166.178123 C223.83346,166.524289 223.166974,167.029116 222.694704,167.634908 L222.722649,167.72145 C223.189329,167.108446 223.853021,166.602177 224.646657,166.248798 L224.646657,166.248798 Z M224.534877,165.928594 L224.509727,165.855033 C223.734255,166.232932 223.083139,166.742086 222.608075,167.347878 L222.63602,167.437305 C223.099906,166.824301 223.753817,166.30505 224.534877,165.928594 L224.534877,165.928594 Z M222.542405,167.111331 L222.567555,167.200757 C223.039824,166.603619 223.686749,166.090138 224.460823,165.699258 L224.435673,165.625698 C223.669982,166.015136 223.020263,166.521405 222.542405,167.111331 L222.542405,167.111331 Z M225.494785,167.968094 L225.371827,167.767606 C224.564219,168.051751 223.892144,168.640235 223.493929,169.404687 L223.630859,169.629695 C224.005321,168.843608 224.675999,168.237816 225.494785,167.968094 L225.494785,167.968094 Z M225.181802,167.430093 L225.095173,167.261337 C224.287565,167.559906 223.615489,168.129639 223.201905,168.853704 L223.299712,169.055635 C223.690941,168.307049 224.363016,167.722892 225.181802,167.430093 L225.181802,167.430093 Z M227.031755,169.788355 C226.928359,169.696044 226.822168,169.596521 226.717375,169.495556 C225.901383,169.693159 225.216733,170.297509 224.818518,171.112444 C224.90375,171.193216 224.98479,171.272546 225.075611,171.351876 C225.465443,170.49367 226.190613,169.892205 227.031755,169.788355 L227.031755,169.788355 Z M225.915356,168.579656 L225.751878,168.354647 C224.94427,168.635908 224.272195,169.225834 223.871185,169.990286 C223.925678,170.071058 223.98576,170.148946 224.043047,170.225391 C224.420303,169.440746 225.093775,168.837838 225.915356,168.579656 L225.915356,168.579656 Z M224.291756,170.536941 L224.504138,170.782143 C224.8786,169.978747 225.560456,169.37584 226.382036,169.145062 C226.307982,169.059962 226.236722,168.977748 226.16686,168.891206 C225.362047,169.160928 224.689971,169.758066 224.291756,170.536941 L224.291756,170.536941 Z M243.719061,158.550911 C245.766026,160.312035 249.632205,161.530831 252.583188,162.374613 C253.087594,162.520292 253.304167,161.728435 252.792775,161.581314 C249.801272,160.724551 246.118132,159.543256 244.229056,157.917714 C241.813218,155.843597 239.252067,155.663302 236.546999,157.913387 C234.62858,159.510082 230.963605,160.727436 227.974896,161.581314 C227.402025,161.747186 227.740159,162.501541 228.184483,162.374613 C231.139658,161.530831 234.9737,160.275976 237.043021,158.556681 C239.446284,156.559009 241.591056,156.717669 243.719061,158.550911 L243.719061,158.550911 Z M226.250695,160.150491 C226.076039,160.770707 225.981026,161.470252 225.981026,162.210184 C225.981026,163.193875 226.152888,164.102563 226.439323,164.846822 C226.594417,164.239588 226.871072,163.685721 227.241342,163.212626 L227.281862,163.162143 C227.40482,163.002041 227.473285,162.813091 227.473285,162.612603 C227.473285,162.38471 227.378272,162.175567 227.221781,161.986618 C226.819374,161.566891 226.479843,160.930809 226.250695,160.150491 L226.250695,160.150491 Z M227.38945,155.02722 C227.38945,155.02722 226.423953,157.019123 228.041964,159.139395 C228.934804,160.306266 230.37257,159.334114 230.37257,159.334114 C230.37257,159.334114 235.669528,156.417657 236.717463,155.902734 C237.762603,155.390696 237.522276,155.030105 237.522276,155.030105 L227.38945,155.02722 L227.38945,155.02722 L227.38945,155.02722 Z M255.95055,161.056294 C255.95055,159.673069 256.039974,155.178668 256.039974,155.178668 C256.048358,154.626244 255.4182,154.851252 255.415405,155.167129 C255.415405,155.167129 255.325982,159.670184 255.325982,161.056294 C255.325982,161.402461 255.317598,161.790457 255.328776,162.184222 C255.366502,163.466482 255.655732,164.292955 256.070714,164.892978 C256.46334,165.464153 256.952376,165.813205 257.481932,166.224278 C258.409703,166.946902 259.239667,167.730104 258.89315,170.535499 C258.789754,171.389377 258.286745,172.127867 257.616067,172.621154 C257.495904,172.709139 257.419056,172.753852 257.419056,172.753852 C257.156373,172.895203 257.241605,173.587537 257.719464,173.323585 C258.650029,172.802892 259.380789,171.6966 259.514924,170.619156 C259.910345,167.402688 258.922492,166.427651 257.2444,165.221836 C255.861127,164.223722 255.95055,162.576544 255.95055,161.056294 L255.95055,161.056294 Z M225.445881,161.056294 C225.445881,159.670184 225.359252,155.164245 225.359252,155.164245 C225.350869,154.734421 224.723505,154.750287 224.731889,155.178668 C224.731889,155.178668 224.824107,159.674511 224.824107,161.056294 C224.824107,161.80488 224.852052,162.565005 224.701149,163.303495 C224.392358,164.810763 223.521874,165.174238 222.531227,166.032444 C221.630003,166.809877 220.9216,167.878668 221.256939,170.620598 C221.38828,171.666311 221.990493,172.564902 222.799498,173.153386 C222.951798,173.26589 223.059386,173.325027 223.059386,173.325027 C223.52886,173.590422 223.618284,172.902415 223.354204,172.755294 C222.598295,172.326913 221.989095,171.405243 221.88011,170.536941 C221.522415,167.621927 222.343996,166.861802 223.886555,165.75551 C225.494785,164.592966 225.445881,162.820303 225.445881,161.056294 L225.445881,161.056294 Z M248.193042,176.374181 C250.351787,175.616941 251.890154,176.11744 252.046646,178.239155 C252.087166,178.808888 252.693571,178.482914 252.671215,178.191557 C252.471409,175.396259 250.266555,174.963551 247.987647,175.759735 C246.155858,176.404471 245.089759,176.469377 244.139632,173.50388 C243.596104,171.807662 242.068914,170.789354 240.383836,170.894647 C240.2497,170.885993 239.602775,170.8658 238.869221,171.12831 C237.136636,171.744198 236.819462,173.117327 236.192098,174.610172 C235.705857,175.765504 235.100849,176.573227 232.784216,175.759735 C230.505308,174.959224 228.303249,175.396259 228.100648,178.191557 C228.071306,178.619939 228.695875,178.666094 228.725217,178.239155 C228.877517,176.11744 230.422871,175.616941 232.581615,176.374181 C234.680278,177.11267 236.148784,177.075169 237.22606,173.705811 C237.662001,172.341336 239.00196,171.423994 240.383836,171.542268 C241.769903,171.423994 243.109862,172.342779 243.5472,173.705811 C244.625874,177.075169 246.094379,177.11267 248.193042,176.374181 L248.193042,176.374181 Z M254.930561,179.675748 L251.571582,179.675748 C251.686156,179.117554 251.669389,178.485799 251.503117,177.774715 C251.188737,176.456396 249.267524,176.586208 247.870278,176.917951 L247.807402,176.938145 C246.456266,177.822313 245.447454,177.823755 245.447454,177.823755 C245.447454,177.823755 245.225292,178.692057 245.190361,179.675748 L244.391136,179.675748 L244.391136,178.094919 C244.391136,177.776157 244.167577,177.522301 243.895114,177.522301 L243.783334,177.522301 C243.510872,177.522301 243.288709,177.780484 243.281723,178.116554 L243.281723,176.329468 C243.281723,176.012148 243.058164,175.755408 242.782907,175.755408 L242.673921,175.755408 C242.401458,175.755408 242.177899,176.015033 242.177899,176.329468 L242.166721,176.698712 L242.166721,174.405357 C242.166721,174.086594 241.945956,173.831296 241.672096,173.831296 L241.557522,173.831296 C241.285059,173.831296 241.062897,174.090922 241.062897,174.405357 L241.054514,174.493341 L241.054514,174.405357 C241.054514,174.086594 240.830954,173.831296 240.558491,173.831296 L240.446712,173.831296 C240.174249,173.831296 239.952087,174.090922 239.952087,174.405357 L239.940909,174.493341 L239.940909,174.405357 C239.940909,174.086594 239.717349,173.831296 239.444886,173.831296 L239.333107,173.831296 C239.057849,173.831296 238.837085,174.090922 238.837085,174.405357 L238.828701,176.698712 L238.828701,176.329468 C238.828701,176.012148 238.605142,175.755408 238.332679,175.755408 L238.220899,175.755408 C237.948436,175.755408 237.724877,176.015033 237.724877,176.329468 L237.716493,178.096361 C237.716493,177.780484 237.495729,177.525186 237.221868,177.525186 L237.110089,177.525186 C236.834831,177.525186 236.614067,177.781926 236.614067,178.096361 L236.614067,179.675748 L235.59268,179.675748 C235.557749,178.689172 235.335587,177.822313 235.335587,177.822313 C235.335587,177.822313 234.322584,177.822313 232.975639,176.93526 L232.909968,176.917951 C231.512722,176.586208 229.591509,176.456396 229.282718,177.774715 C229.116446,178.484357 229.099679,179.121881 229.214253,179.675748 L225.85248,179.675748 C225.268431,178.71802 224.8786,177.597304 224.646657,176.358315 C224.455234,175.354431 224.494357,174.034669 223.456203,173.50388 C223.361191,173.453397 223.284342,173.433204 223.284342,173.433204 C221.741783,173.114442 220.615603,171.700927 220.460509,170.07827 C220.179662,167.140178 221.423211,165.844937 222.384516,165.035772 C223.025852,164.494886 223.69653,163.537157 223.661599,162.615488 L223.661599,160.989946 L223.806912,161.028889 L223.806912,158.61726 C223.806912,158.61726 223.781762,158.217726 223.661599,158.005698 L223.661599,156.217169 C223.661599,155.921485 223.748228,155.614262 223.97039,155.341655 L224.829696,154.463257 C225.975437,153.916601 229.725645,152.705017 240.425753,152.705017 C250.933041,152.705017 254.730755,153.876215 255.94077,154.434409 L256.825226,155.340213 C257.034813,155.555125 257.134018,155.927254 257.134018,156.217169 L257.104675,158.050411 C257.015252,158.214841 256.992896,158.61726 256.992896,158.61726 L256.992896,161.028889 L257.135415,160.989946 L257.138209,162.624142 C257.110264,163.545811 257.765573,164.489116 258.415292,165.035772 C259.376597,165.846379 260.620146,167.140178 260.339299,170.07827 C260.189794,171.64756 259.299748,172.791353 257.916475,173.312046 C257.681738,173.40003 257.515466,173.434647 257.515466,173.434647 C256.361341,173.746197 256.330601,175.41501 256.155946,176.359757 C255.907236,177.600189 255.517404,178.719462 254.930561,179.675748 L254.930561,179.675748 Z M240.05688,53.3262613 C241.219389,52.7103726 242.307843,51.9055345 243.274737,50.9261706 C243.964976,50.2266249 242.947782,49.1549498 242.256145,49.8559378 C240.592025,51.549271 238.51991,52.6454663 236.329028,53.1026951 C235.613639,53.2527008 235.602461,54.1224452 236.045388,54.4570732 C236.143195,54.543615 236.271741,54.6041942 236.432425,54.627272 C238.34246,54.8984361 240.495615,54.9691118 242.562142,54.5046712 C243.50668,54.2897592 243.197889,52.8272039 242.250556,53.0377888 C241.536563,53.2007757 240.79742,53.2930869 240.05688,53.3262613 L240.05688,53.3262613 Z M213.880878,63.0420131 L213.812413,63.1098041 C212.961491,63.587226 213.654525,64.9026603 214.502653,64.4281231 C216.317675,63.4127002 217.990178,62.2169819 219.513176,60.8669309 C220.24673,60.2164255 219.303589,59.0798441 218.568638,59.7289071 C218.331106,59.939492 218.087985,60.1457498 217.84207,60.3476805 C218.114533,59.9351649 218.38001,59.5154375 218.627322,59.0884983 C219.131728,58.2375046 217.893768,57.4557443 217.387965,58.3096227 C216.402907,59.9885323 215.22922,61.5736883 213.880878,63.0420131 L213.880878,63.0420131 Z M264.181725,56.0306904 C263.638196,55.2042169 262.435168,56.0422293 262.978696,56.8701452 C264.937635,59.8616044 265.363795,62.6828649 265.148619,65.7998096 C265.07736,65.5877824 265.001908,65.3815246 264.92506,65.1767091 C264.572954,64.2463855 263.219023,64.7901561 263.571129,65.7204797 C264.384326,67.8710417 264.842622,70.1773789 264.463969,71.5490654 C264.199889,72.5096786 265.597135,72.9221942 265.861214,71.9630233 C266.055432,71.2605929 266.087568,70.4442159 266.013514,69.5831257 C266.105732,69.4821603 266.174198,69.3451359 266.202142,69.1691677 C266.973422,64.3286002 266.997175,60.341911 264.181725,56.0306904 L264.181725,56.0306904 Z M247.010972,43.557142 C247.972277,43.672531 248.138549,42.1825709 247.17445,42.0686243 C245.493563,41.8681359 243.773554,41.7931331 242.040969,41.8378463 C240.494218,41.0618554 238.865029,40.4243313 237.161787,39.9368129 C236.228427,39.6699759 235.844184,41.1166652 236.77475,41.3835022 C237.476167,41.5839906 238.160818,41.8104414 238.835687,42.0628548 C237.856218,42.1724743 236.873954,42.3239224 235.894485,42.5128718 C234.938769,42.6946094 235.20704,44.1687036 236.157167,43.9855236 C238.023888,43.6263754 239.887813,43.4143482 241.726589,43.3479995 C243.871361,44.4600608 245.844272,45.8461709 247.610391,47.4630589 C248.336958,48.1265455 249.296866,47.0058301 248.571696,46.3423435 C247.378448,45.2475906 246.091584,44.2509183 244.718092,43.3681926 C245.490769,43.4028093 246.252268,43.4677156 247.010972,43.557142 L247.010972,43.557142 Z M225.067228,46.216858 C226.017355,46.017812 225.728125,44.5494872 224.777998,44.7470909 C224.431481,44.8206513 224.084964,44.8985389 223.741242,44.9850806 C225.711358,43.6624345 227.85613,42.5561427 230.137833,41.6863983 C231.046042,41.338789 230.541637,39.9324858 229.636221,40.2800951 C225.823138,41.7325539 222.357968,43.8225367 219.426547,46.4808102 C218.695787,47.1414121 219.279836,48.116449 220.176868,47.7385501 C221.754358,47.0765058 223.389136,46.567352 225.067228,46.216858 L225.067228,46.216858 Z M240.898022,61.755426 C242.844385,60.5972091 244.600723,59.0567663 246.055256,57.1658294 C246.658866,56.3826268 245.520111,55.4523031 244.920693,56.2340635 C242.827618,58.9514739 240.055483,60.8842392 237.003898,61.9198553 C236.826448,61.9501449 236.689518,62.0395713 236.5973,62.1592874 C236.463164,62.3251591 236.408671,62.5501676 236.439411,62.7636372 C236.464561,62.974222 236.570752,63.1775951 236.756586,63.2958688 C236.882338,63.3824106 237.037432,63.4271238 237.214882,63.4054883 C242.388883,63.5151079 248.821803,62.4419904 252.562229,57.1485211 C253.1351,56.3407983 251.961414,55.4580726 251.391338,56.2643531 C248.860926,59.8385266 244.887159,61.3097361 240.898022,61.755426 L240.898022,61.755426 Z M214.835197,53.6219455 C214.701062,53.7459887 214.632597,53.8974367 214.617227,54.0517694 C214.579501,54.2738932 214.657747,54.4902476 214.794677,54.6503498 C214.937196,54.810452 215.132811,54.9171868 215.341,54.9229562 C215.490505,54.9272833 215.646997,54.8796854 215.78253,54.7642964 C216.418277,54.3734162 217.073585,54.0315764 217.752646,53.7330074 C217.853248,54.1109063 218.210943,54.4138024 218.686006,54.245046 C219.289617,54.0330187 219.903007,53.8541658 220.530371,53.7156991 C221.474909,53.5022294 221.166118,52.0396742 220.218785,52.2502591 C219.964486,52.3079535 219.714379,52.3685328 219.462875,52.4377661 C219.399999,52.0223658 219.026934,51.648794 218.507159,51.831974 L218.444283,51.8550518 C219.415369,50.9261706 220.468892,50.0708498 221.602058,49.3539957 C222.423639,48.8318606 221.664934,47.5539277 220.840559,48.0760628 C218.484803,49.5746772 216.46718,51.6112926 214.835197,53.6219455 L214.835197,53.6219455 Z M227.009399,63.2598098 L227.272082,63.0405707 C228.707053,61.9876463 230.080545,60.8092364 231.37719,59.5154375 C231.437271,59.4534159 231.486175,59.3885096 231.522503,59.3221609 C233.034323,58.9139724 234.502828,58.3831831 235.916841,57.7341202 C236.798503,57.3302587 236.208865,55.9585723 235.327203,56.3653184 C232.895996,57.4773797 230.29153,58.2346198 227.579476,58.5764597 C228.553356,57.6461361 229.454579,56.658118 230.281749,55.6196172 C230.89514,54.8450687 229.774549,53.8959943 229.159761,54.6676581 C227.951143,56.1879079 226.574856,57.5913263 225.042077,58.8490661 C224.881394,58.9817635 224.796162,59.1404233 224.769614,59.2990831 C224.663424,59.7390036 224.914928,60.2813318 225.500374,60.2553693 C226.613979,60.2048866 227.716406,60.0894976 228.799271,59.9106447 C227.811418,60.7818315 226.78584,61.5866696 225.726728,62.3193896 C219.687832,61.691962 219.439122,64.3011953 219.922569,67.6402638 C220.211799,69.6220694 220.763711,71.8635003 220.515001,73.8395365 C220.375277,74.9270776 220.020376,75.9511548 219.707393,76.9939827 C219.426547,77.911325 219.163864,78.9354022 219.123344,80.371995 C219.08003,81.8807058 219.281233,83.8437608 219.964486,86.620308 C220.199224,87.583806 219.222549,88.0468043 218.667842,87.2390814 C217.674401,85.7923921 217.144844,85.0856346 216.847231,84.6226364 C216.822081,84.5966739 216.803916,84.5663843 216.781561,84.5346523 C215.121633,81.9066683 212.93634,81.2979915 211.639696,81.7350272 C207.325001,83.1975825 213.669894,97.8923687 218.940305,96.2480757 C219.453094,96.0894159 219.953308,96.4903926 219.979856,97.0341631 C220.025965,98.0539132 220.463303,104.404634 223.505107,108.661045 C225.818946,111.899148 229.183514,113.5795 232.423727,115.554094 C232.627724,115.681022 232.819147,115.809392 232.999392,115.942089 C233.291416,115.554094 233.946724,115.46034 234.238749,116.045939 C234.560115,116.680579 234.705429,116.95607 234.868907,117.168097 C235.204246,117.602248 235.827417,118.091209 236.411466,118.352277 C236.623847,118.435934 236.852996,118.502282 237.098911,118.559977 C238.169201,118.800851 239.238094,118.885951 240.231536,118.885951 C241.227772,118.885951 242.419623,118.800851 243.489913,118.559977 C243.735828,118.505167 243.964976,118.435934 244.180152,118.352277 C244.761407,118.089767 245.383181,117.600806 245.717123,117.168097 C245.883395,116.95607 246.031503,116.680579 246.34728,116.045939 C246.639305,115.46034 247.300202,115.554094 247.589432,115.942089 C247.772471,115.809392 247.963894,115.681022 248.165097,115.554094 C251.401118,113.5795 254.772672,111.899148 257.083717,108.661045 C260.129712,104.406076 260.560064,98.0539132 260.611762,97.0341631 C260.639707,96.4903926 261.135729,96.0894159 261.648519,96.2480757 C266.917532,97.8923687 273.262425,83.1961402 268.949128,81.7350272 C267.81177,81.3484742 265.991158,81.7725287 264.437421,83.6562537 L263.984713,84.2649306 C263.924632,84.3529146 263.867345,84.4423411 263.807263,84.5360946 C263.755565,84.6183093 263.698278,84.6832156 263.635402,84.7351406 L263.381103,85.0784228 C262.982888,85.6236357 262.516208,86.3621252 261.874872,87.1597515 C261.874872,87.1597515 261.580054,87.7179457 260.913567,87.5477469 C260.367244,87.2722557 260.403573,86.8049304 260.575434,86.0895187 C261.225153,83.4370146 261.328549,82.0855213 261.311782,80.6171965 C261.303399,80.4253624 261.289426,80.2349706 261.271262,80.0460211 C261.260084,79.9234203 261.246112,79.7964924 261.230742,79.6724493 C261.081237,78.4709616 260.755679,77.2016828 260.269437,75.5083496 C259.647663,73.3130743 259.756648,71.4711778 260.309957,69.2210928 C261.939146,62.6121891 258.672385,61.9083164 254.969684,62.2818882 C251.667992,65.7435575 247.330941,67.8018083 244.157796,68.7667487 C243.256573,69.0393551 242.771729,68.1465329 243.464762,67.4945852 C244.182947,66.816675 244.884364,66.0608772 245.557837,65.2300765 C245.609535,65.1594008 245.629096,65.068532 245.603946,64.9762208 C245.56622,64.8190033 245.412523,64.7151532 245.260223,64.7526546 C245.216909,64.7656359 245.173594,64.785829 245.128882,64.8161186 L245.068801,64.8608318 C243.95799,65.6498039 242.809454,66.3637732 241.627384,66.9940855 C241.627384,66.9940855 240.527752,67.5551644 238.666621,68.2460559 C236.822256,68.9326203 234.212201,69.751882 231.167603,70.2913255 C230.217476,70.4571972 229.847205,69.4230235 230.67158,68.9109849 C232.796791,67.5912235 234.090641,66.5368567 234.23316,66.4171406 C234.642553,66.0594348 235.043562,65.6887477 235.433394,65.3050794 C235.53679,65.1896904 235.56753,65.0944945 235.56753,64.9978562 C235.56753,64.7887137 235.409641,64.6113031 235.209835,64.6113031 C235.149753,64.6113031 235.098055,64.6213997 235.035179,64.6430351 C235.007234,64.654574 234.980686,64.6675553 234.949947,64.6834213 C234.265296,65.0079528 233.569468,65.3021946 232.865256,65.570474 C232.865256,65.570474 231.713926,65.9873167 229.789918,66.4402184 C227.882678,66.8887931 225.202761,67.3734268 222.119039,67.5234324 C221.273706,67.5652609 221.054338,66.6161866 221.829809,66.2599231 C224.108717,65.2084411 225.52273,64.3213883 225.669441,64.2276348 C226.123546,63.9204117 226.573459,63.5973225 227.009399,63.2598098 L227.009399,63.2598098 Z M227.828185,124.656842 C228.019608,126.08478 229.38332,127.364156 231.384176,128.34352 L236.004867,130.711878 L235.835801,141.388243 C235.515831,141.597386 235.283889,141.957976 235.274108,142.475784 L235.251752,143.5965 C235.240574,144.125847 235.461339,144.503746 235.784103,144.754717 C235.767336,145.751389 237.219074,145.778794 237.235841,144.756159 C237.560002,144.548459 237.803123,144.184984 237.811506,143.655637 L237.836657,142.534921 C237.847835,141.995478 237.618686,141.616137 237.287539,141.399782 L237.445428,131.450368 L238.192954,131.835478 C238.845468,132.183088 239.715952,132.360498 240.59482,132.363383 C241.473687,132.360498 242.344171,132.183088 242.996685,131.835478 L243.351586,131.655183 L243.454982,145.073479 C243.137807,145.285506 242.914248,145.654751 242.914248,146.179771 L242.919837,147.300486 C242.922631,147.832718 243.154574,148.201962 243.478735,148.441394 C243.487118,149.439509 244.938857,149.42797 244.930473,148.405335 C245.25184,148.194751 245.483783,147.822621 245.482385,147.291832 L245.476796,146.172559 C245.474002,145.634558 245.23647,145.262428 244.903926,145.057613 L244.797735,130.918136 L249.556754,128.483429 C251.70991,127.491083 253.195182,126.159783 253.393591,124.666938 L254.586839,113.226121 C253.745697,113.888166 252.82072,114.521363 251.809114,115.138694 C250.731838,115.792084 247.963894,117.209926 247.188422,118.141692 C245.527097,120.142248 242.590087,120.38745 240.230139,120.38745 C237.871588,120.393219 235.056138,120.142248 233.39621,118.141692 C232.620738,117.209926 229.851397,115.792084 228.775518,115.138694 C228.036375,114.688677 227.343341,114.227121 226.696416,113.755468 L227.828185,124.656842 L227.828185,124.656842 Z M242.682305,139.259317 C241.331168,139.205949 240.382438,139.211719 240.382438,139.211719 C239.760664,139.208834 238.950261,139.220373 238.049038,139.253547 L238.029477,140.276182 C239.39738,140.222815 240.37126,140.228584 240.385233,140.228584 C240.399205,140.228584 241.347935,140.222815 242.687894,140.273297 L242.682305,139.259317 L242.682305,139.259317 Z M264.345203,81.6470431 C265.991158,80.2349706 267.873248,79.7936077 269.396246,80.3114157 C275.678263,82.4389 268.47127,98.7159575 262.006213,97.857752 C261.49063,104.019523 259.839085,108.314878 256.207644,111.814049 L256.125206,112.474651 L255.500637,118.597478 C257.785134,118.60469 258.721289,119.393662 259.168407,120.364372 L260.614557,123.488528 C261.029539,123.686132 261.465479,123.856331 261.934954,124.012106 C263.059737,124.346734 264.320052,124.635206 265.708915,124.988585 L266.093157,125.085223 L266.985997,125.295808 C277.842597,127.887733 292.677155,128.389675 295.248087,142.612809 C295.854492,145.950435 297.842772,163.2458 300.929288,179.674306 L256.06233,179.674306 C256.551366,178.73677 256.8895,177.682403 257.101881,176.550149 C257.194099,176.045322 257.238811,174.649116 257.757189,174.409684 C259.707744,173.963994 261.103593,172.224505 261.299207,170.173466 C261.803613,164.882881 258.324471,164.776146 258.106501,162.733762 C258.100912,162.678952 258.100912,161.103892 258.100912,161.103892 C258.94904,160.542813 258.87778,158.979293 258.87778,158.38504 C258.87778,157.633569 258.460004,157.303268 258.099514,157.167686 L258.099514,156.221496 C258.099514,155.671956 257.908092,155.024336 257.490315,154.614705 C257.490315,154.614705 256.963932,154.399698 256.854568,153.962757 C256.646059,153.129698 256.854568,152.074705 256.854568,152.074705 L256.769336,151.613149 C256.611448,143.737851 252.741077,141.533922 251.037834,140.638215 C249.774724,139.973286 247.582446,139.630004 245.580193,139.446824 L245.588576,140.463689 C247.526556,140.646869 249.510645,140.969958 250.59351,141.539691 C252.096947,142.331548 255.63617,144.255659 255.787073,151.633342 C254.449908,151.360736 250.566963,150.26454 240.379644,150.26454 C230.151805,150.26454 226.281434,151.376602 224.969421,151.949219 C225.124515,144.255659 228.66793,142.331548 230.171366,141.539691 C231.247246,140.971401 233.206184,140.652639 235.121808,140.469459 L235.138575,139.446824 C233.020351,139.648754 230.914701,140.010787 229.724248,140.638215 C228.026594,141.533922 224.16321,143.733524 223.99554,151.585744 L223.938253,152.263654 L223.938253,153.932467 L223.267575,154.621917 C222.84421,155.047413 222.669554,155.705131 222.669554,156.222939 L222.669554,157.169128 C222.303476,157.30471 221.888494,157.636454 221.888494,158.386482 C221.888494,158.886982 221.894083,159.400463 221.937397,159.82019 C222.003068,160.441848 222.082711,160.822632 222.665362,161.109662 L222.665362,162.642893 C222.684924,163.16647 222.223833,163.854477 221.748769,164.254011 C220.635164,165.190104 219.1457,166.786799 219.469861,170.179235 C219.664078,172.230274 221.061324,173.969763 223.00629,174.415453 C223.527463,174.654885 223.570778,176.055419 223.667188,176.557361 C223.876774,177.688173 224.2191,178.74254 224.701149,179.680075 L180.25616,179.680075 C183.342675,163.247243 185.335148,145.956204 185.937361,142.618578 C188.508293,128.395445 203.340056,127.893503 214.19945,125.301578 L214.580898,125.212151 L214.973525,125.114071 L215.357767,125.018875 C216.760602,124.659726 217.909138,124.395774 218.9431,124.102975 C219.524354,123.919795 220.067882,123.714979 220.569494,123.478432 L222.012849,120.354275 C222.465556,119.379238 223.4073,118.585939 225.709961,118.585939 L225.090981,112.465996 C220.948147,108.84711 219.114961,104.404634 218.565843,97.8476554 C212.103582,98.7058609 204.896588,82.4288035 211.178605,80.3013192 C212.673658,79.7921654 214.516625,80.2075657 216.134636,81.5590591 C216.080143,81.240297 216.011678,80.8797065 215.927843,80.4628638 C215.804886,79.8700529 215.698695,79.3940734 215.586915,78.9382869 C215.234809,79.293108 215.128619,79.3955157 215.015442,79.4950387 C214.671719,79.8037043 214.434188,79.6623528 214.526406,79.2007969 C214.733198,78.1276794 214.79328,77.0329265 214.703856,75.9179805 C214.128191,74.1784917 213.472883,72.5717002 212.804999,70.850962 C212.64711,71.5086792 212.001583,71.4524271 211.948487,70.8653857 C211.782215,68.8446362 211.023511,65.6757665 210.823705,64.806022 C210.111109,61.2707923 210.431079,58.1091343 211.923337,54.762854 L211.525122,54.7325644 C211.066825,54.6907359 211.006744,54.4181294 211.390986,54.1642737 C211.86605,53.8498387 212.321552,53.4950176 212.750507,53.1055798 C212.971271,52.7031608 213.208803,52.2964146 213.465896,51.8867838 C214.780705,49.9727691 216.042418,48.2246261 217.330678,46.6654326 L216.595727,46.8918835 C215.757379,47.1543934 214.931607,47.4544047 214.121205,47.7933598 C213.671291,47.9837517 213.447732,47.6087375 213.812413,47.2769942 C216.265977,45.054314 219.112166,43.2253987 222.223833,41.8436157 C223.071961,41.1325312 224.308523,40.49068 225.83711,39.9512365 C225.596784,39.909408 225.353663,39.8719066 225.110542,39.8372899 C224.54885,39.7565176 224.526494,39.0829345 225.085392,38.9675455 C227.699639,38.4295444 230.407501,38.2521339 233.136322,38.4252173 C234.642553,38.2723269 236.231221,38.1915546 237.881368,38.1915546 C240.105784,38.1915546 242.230994,38.3415603 244.182947,38.6156091 L244.780968,38.6502258 C244.860611,38.5045472 245.029678,38.4021395 245.275593,38.4338715 C246.907576,38.6343598 248.528381,38.9718726 250.133816,39.4478521 C256.32641,41.008488 258.820493,44.473042 259.275995,48.8159946 C258.830274,51.5435016 255.774497,54.145523 254.500209,56.7504291 C254.061474,57.641809 255.356721,58.3182769 255.794059,57.426897 C256.168521,56.6696569 256.642187,55.9686688 257.156373,55.2922009 C257.399494,55.8287597 258.290937,55.9398216 258.518688,55.197005 C258.673782,54.6864088 259.185174,52.9166304 259.558239,52.0555402 C260.013741,51.3156083 260.385408,50.5266362 260.592201,49.6540071 C263.50965,49.7160287 265.439246,50.0520991 266.907752,51.816108 C270.106047,56.9638987 270.480509,60.8438531 269.552738,64.9170839 C269.222988,66.6608998 268.916991,68.6066465 268.834553,70.2754595 C268.806608,70.8639433 268.158286,70.9432732 267.999,70.3764249 C267.606374,70.7586509 267.294789,71.5245452 266.970628,72.3207291 C266.26921,74.4222509 265.87379,76.3146301 265.636258,78.3296101 C265.578971,78.827225 265.095524,78.9253057 264.880348,78.5877929 C264.793719,78.9498258 264.702898,79.3104164 264.642816,79.6710069 L264.490516,80.4744027 C264.389915,80.97346 264.345203,81.3528013 264.345203,81.6470431 Z M249.559548,82.5211146 C248.184659,82.8586274 247.065465,83.6677926 246.432512,84.6875427 C245.848464,85.6265205 244.481957,84.720717 245.064609,83.7831816 C246.24109,81.8922447 248.483669,80.6734487 250.99452,80.6734487 C253.50537,80.6734487 255.729786,81.8951294 256.903472,83.7831816 C257.487521,84.720717 256.119617,85.6265205 255.535568,84.6875427 C254.883055,83.6389454 253.734519,82.8167989 252.314917,82.4937098 C252.789981,82.8990135 253.093183,83.5134598 253.093183,84.2000243 C253.093183,85.4202627 252.131878,86.4097231 250.951205,86.4097231 C249.770532,86.4097231 248.812022,85.4188203 248.812022,84.2000243 C248.812022,83.5264411 249.101252,82.9264184 249.559548,82.5211146 L249.559548,82.5211146 Z M251.044821,74.9530402 C255.127573,74.8679408 258.552222,76.8641701 258.609509,78.074312 C258.694741,80.0921767 258.418086,79.4791728 256.830815,78.858957 C254.603606,77.990655 252.685187,77.7353569 251.064382,77.827668 C249.514837,77.8464187 247.702609,78.1925857 245.615124,79.0926197 C244.026455,79.7762994 243.751198,80.4022846 243.839224,78.3800928 C243.888128,77.1959134 247.157683,75.0323701 251.044821,74.9530402 L251.044821,74.9530402 Z M231.040453,82.5211146 C231.495955,82.9264184 231.785185,83.5264411 231.785185,84.2000243 C231.785185,85.4202627 230.826675,86.4097231 229.646002,86.4097231 C228.461138,86.4097231 227.504024,85.4188203 227.504024,84.2000243 C227.504024,83.5134598 227.807227,82.9004559 228.28229,82.4937098 C226.862689,82.8167989 225.714153,83.6389454 225.061639,84.6875427 C224.47759,85.6265205 223.111084,84.720717 223.693735,83.7831816 C224.867422,81.8936871 227.094631,80.6734487 229.602687,80.6734487 C232.113538,80.6734487 234.353323,81.8936871 235.532598,83.7831816 C236.116647,84.720717 234.747346,85.6265205 234.164695,84.6875427 C233.531742,83.6677926 232.415343,82.8586274 231.040453,82.5211146 L231.040453,82.5211146 Z M229.553784,74.9530402 C233.439524,75.0338124 236.711874,77.1973557 236.760777,78.3800928 C236.850201,80.4022846 236.572149,79.7762994 234.984878,79.0926197 C232.900187,78.1925857 231.08796,77.8464187 229.53562,77.827668 C227.91202,77.7353569 225.999191,77.990655 223.766392,78.858957 C222.180518,79.4791728 221.902466,80.0921767 221.99189,78.074312 C222.046382,76.8641701 225.471032,74.8679408 229.553784,74.9530402 L229.553784,74.9530402 Z M239.01174,82.9105524 C239.467242,82.8716087 239.928333,82.852858 240.395014,82.852858 C240.864488,82.852858 241.325579,82.8716087 241.78667,82.9105524 C242.749373,82.9898824 242.632004,84.4841696 241.669302,84.4033973 C241.248731,84.370223 240.823968,84.3514723 240.395014,84.3514723 C239.966059,84.3514723 239.546885,84.370223 239.131903,84.4033973 C238.166407,84.4841696 238.051832,82.9913247 239.01174,82.9105524 L239.01174,82.9105524 Z M235.139972,95.9696998 C235.139972,95.9696998 235.226602,95.8672921 235.394271,95.7418066 C236.250783,95.0956283 237.293128,95.2211139 238.145448,95.878831 C238.522704,96.1701882 238.9307,96.3721189 240.232933,96.3721189 C241.54355,96.3721189 241.971107,96.1687458 242.348363,95.878831 C243.23282,95.193709 244.586751,95.0667811 245.352441,95.9696998 C246.004955,96.7067469 244.934665,97.7207276 244.282151,96.9836805 C243.903498,96.6980928 243.537419,96.8293477 243.214655,97.0759917 L243.114054,97.1538792 C243.081917,97.1899383 243.04,97.2259973 242.99948,97.2591717 C242.142968,97.9327548 241.462509,98.626531 240.267864,98.6236463 C239.070425,98.626531 238.378788,97.9327548 237.525071,97.2591717 C237.424469,97.1884959 237.347621,97.1336861 237.270772,97.0759917 C236.893516,96.7860769 236.574944,96.7067469 236.206071,96.9836805 C235.554954,97.7207276 234.484664,96.7067469 235.139972,95.9696998 L235.139972,95.9696998 Z M244.177358,90.833448 C244.564395,91.3108699 244.998938,91.6267472 245.397153,91.7868494 C246.298377,92.1546518 245.766026,93.5494161 244.864803,93.1801713 C244.209494,92.9133343 243.58772,92.4387972 243.066547,91.796946 C242.444773,91.032494 243.555583,90.0689961 244.177358,90.833448 L244.177358,90.833448 Z M236.806886,91.796946 C236.285714,92.4387972 235.663939,92.9133343 235.008631,93.1801713 C234.107408,93.5494161 233.576454,92.1546518 234.476281,91.7868494 C234.874496,91.6267472 235.309039,91.3108699 235.696076,90.833448 C236.320645,90.0689961 237.428661,91.032494 236.806886,91.796946 L236.806886,91.796946 Z M212.447304,85.170734 C214.457941,84.6572531 216.42666,86.9621479 217.432677,89.5973436 C217.515115,89.8007167 218.385599,91.8921419 217.02049,92.0003191 C216.40151,92.0522441 215.691709,91.3094276 215.440205,90.4108359 C215.282316,89.833891 215.347986,89.3175254 215.585518,89.0203987 C214.649364,87.2448509 213.446335,86.4587635 212.796616,86.6246351 C211.861858,86.8626249 211.512547,85.4087238 212.447304,85.170734 L212.447304,85.170734 Z M267.884426,85.1736187 C268.82617,85.4130509 268.474064,86.8683943 267.535115,86.6289622 C266.885396,86.4645329 265.685161,87.249178 264.749007,89.0261682 C264.983744,89.3232948 265.055004,89.8367757 264.89432,90.415163 C264.642816,91.3123123 263.933015,92.0565712 263.314035,92.0075309 C261.948926,91.8993537 262.818013,89.8079285 262.901848,89.6045554 C263.909262,86.9679173 265.876584,84.6615802 267.884426,85.1736187 L267.884426,85.1736187 Z M250.88274,99.8107104 C250.149186,100.022738 249.840395,98.8875986 250.571154,98.6755713 C252.143056,98.2197849 253.720546,99.8482118 253.881229,101.367019 C253.963667,102.150222 252.824912,102.278592 252.743871,101.495389 C252.660037,100.687667 251.732266,99.5655088 250.88274,99.8107104 L250.88274,99.8107104 Z M229.503483,99.8107104 C228.65256,99.5655088 227.724789,100.687667 227.639557,101.495389 C227.554325,102.278592 226.419762,102.150222 226.502199,101.367019 C226.662882,99.8482118 228.240373,98.2183425 229.812274,98.6755713 C230.547226,98.8875986 230.238434,100.022738 229.503483,99.8107104 L229.503483,99.8107104 Z M246.787413,103.807496 C245.985394,103.894038 245.100937,103.940193 244.053003,103.973368 C243.930045,103.979137 242.418225,104.045486 240.256686,104.059909 C237.99734,104.045486 236.454781,103.973368 236.454781,103.973368 C235.398463,103.940193 234.511212,103.891153 233.706398,103.806054 C234.167489,104.329631 234.576882,104.81138 235.011426,105.241204 C235.606652,105.896037 237.136636,106.510483 240.237125,106.510483 C243.501091,106.510483 244.870392,105.767666 245.588576,105.138796 C245.97701,104.73782 246.361253,104.289245 246.787413,103.807496 L246.787413,103.807496 Z M249.263332,103.347383 C249.238182,103.373345 249.217223,103.397865 249.189278,103.423828 C246.031503,106.43548 245.55085,108.711528 240.246906,108.714412 C234.947152,108.711528 234.474883,106.434038 231.317108,103.423828 C231.289163,103.396423 231.26541,103.371903 231.243054,103.344498 C230.721881,103.195934 230.200709,103.012754 229.646002,102.781977 C228.747573,102.409847 229.291102,101.017968 230.189531,101.391539 C232.110744,102.189166 233.584838,102.381 236.512068,102.476196 C236.512068,102.476196 238.029477,102.545429 240.251097,102.561295 C242.478307,102.545429 244.001305,102.476196 244.001305,102.476196 C246.929932,102.381 248.405423,102.189166 250.326636,101.391539 C251.220874,101.01941 251.761608,102.411289 250.86737,102.781977 C250.311267,103.012754 249.784505,103.198819 249.263332,103.347383 Z M233.540126,179.675748 L231.291958,179.675748 L231.289163,179.599303 C231.289163,178.956009 231.793569,178.435317 232.41674,178.435317 C233.041309,178.435317 233.544318,178.954567 233.544318,179.599303 L233.540126,179.675748 L233.540126,179.675748 Z M249.479905,179.675748 L247.228942,179.675748 L247.226148,179.599303 C247.226148,178.956009 247.730554,178.435317 248.35652,178.435317 C248.982486,178.435317 249.486892,178.954567 249.486892,179.599303 L249.479905,179.675748 L249.479905,179.675748 Z" id="Shape" fill="#8666C5"></path>
                        <path d="M43.027958,176.28341 L53.7631538,176.28341 L53.7631538,171.397182 L50.3678767,171.397182 L50.3678767,172.884358 L47.396645,172.884358 L47.396645,168.780394 L52.0422,168.780394 L52.0422,165.368207 L47.396645,165.368207 L47.396645,161.264243 L50.3678767,161.264243 L50.3678767,162.754338 L53.7631538,162.754338 L53.7631538,157.863732 L43.027958,157.863732 L43.027958,161.264243 L44.0013679,161.264243 L44.0013679,172.88144 L43.027958,172.88144 L43.027958,176.28341 L43.027958,176.28341 Z M41.3886075,174.362778 L41.3886075,165.369667 L35.6763817,165.369667 L35.6763817,168.781853 L37.9962449,168.781853 L37.9962449,172.885818 L34.3211853,172.885818 L34.3211853,161.268621 L37.9962449,161.268621 L37.9962449,162.758716 L41.3886075,162.758716 L41.3886075,159.806255 L39.1882348,157.871029 L33.1117089,157.871029 L30.9113363,159.806255 L30.9113363,174.367156 L33.0738217,176.289248 L39.1867776,176.289248 L41.3886075,174.362778 L41.3886075,174.362778 Z M80.7840218,161.267162 L80.7840218,157.866651 L75.0237084,157.866651 L75.0237084,161.267162 L75.4900125,161.267162 L72.1428231,165.51999 L72.1428231,161.267162 L73.1133186,161.267162 L73.1133186,157.866651 L67.7770505,157.866651 L67.7770505,161.267162 L68.747546,161.267162 L68.747546,172.884358 L67.7770505,172.884358 L67.7770505,176.28341 L73.1133186,176.28341 L73.1133186,172.884358 L72.1428231,172.884358 L72.1428231,171.067347 L73.7821736,168.967203 L75.806225,172.887277 L75.0237084,172.887277 L75.0237084,176.287788 L80.7840218,176.287788 L80.7840218,172.887277 L79.6488626,172.887277 L76.0772643,166.030796 L79.8106119,161.270081 L80.7840218,161.267162 L80.7840218,161.267162 L80.7840218,161.267162 Z M55.4025043,176.28341 L66.1377,176.28341 L66.1377,171.397182 L62.742423,171.397182 L62.742423,172.884358 L59.7682768,172.884358 L59.7682768,168.780394 L64.4152891,168.780394 L64.4152891,165.368207 L59.7682768,165.368207 L59.7682768,161.264243 L62.742423,161.264243 L62.742423,162.754338 L66.1377,162.754338 L66.1377,157.863732 L55.4025043,157.863732 L55.4025043,161.264243 L56.3759142,161.264243 L56.3759142,172.88144 L55.4025043,172.88144 L55.4025043,176.28341 L55.4025043,176.28341 Z M55.916896,50.2251491 C37.3711059,50.2251491 28.699306,64.1511908 28.699306,78.3151224 C28.699306,79.0988453 28.9805457,79.3805186 29.0942073,79.4257614 C29.1204369,79.4345181 29.3623322,79.506031 29.5983986,78.9178739 C33.5940423,68.9162848 43.8206751,61.8204542 55.785748,61.8204542 L55.916896,61.8219137 L56.0480441,61.8204542 C68.013117,61.8204542 78.2397498,68.9162848 82.2353934,78.9178739 C82.4685455,79.506031 82.7133552,79.4345181 82.7366704,79.4257614 C82.8532464,79.3805186 83.1344861,79.0988453 83.1344861,78.3151224 C83.1344861,64.1511908 74.4626862,50.2251491 55.916896,50.2251491 L55.916896,50.2251491 Z M75.0951112,70.7259988 C73.7063992,69.3687133 72.1661383,68.1807236 70.499101,67.1649486 C70.2309761,66.9927338 69.4863467,66.5213325 68.8480929,66.1842003 C68.0233174,67.5356481 66.4233113,68.7557456 64.3905167,69.5599008 C61.0695568,71.0894011 57.1249152,71.9387992 52.7926583,72.2919853 C49.5110428,72.561983 46.5689551,72.5269562 44.6163065,72.6218203 C41.1918855,72.7881972 38.4800354,74.0126731 36.7692821,76.1449249 C35.1721904,76.0967632 33.82428,76.3798959 33.0097049,77.1796727 C32.6220896,77.5416156 32.3525075,78.0159358 32.1586998,78.5500933 C32.0785538,77.9736118 32.0494098,77.3752386 32.0902114,76.7651898 C31.6224501,77.6204257 31.2042335,78.5048505 30.8413906,79.4126264 L30.793303,79.5293822 C31.0045971,80.5466166 31.3514108,81.5404999 31.7841993,82.4789242 C31.8104289,82.96492 31.8410301,83.4217269 31.8730886,83.817237 C32.0639818,85.7130584 32.5710876,87.5811504 33.3842054,89.3835672 C33.0446777,89.7761584 32.3087915,89.7703206 32.0829254,89.08584 L32.029009,88.9267603 C31.9750926,88.7647617 31.8716314,88.4757913 31.7157109,88.1167673 C30.8792778,86.149433 29.1685245,83.3618895 26.5703361,84.0799374 C23.1925455,85.0139834 25.6712434,91.3144154 26.5892797,93.0657516 C27.8264429,95.4271365 30.4741761,98.3110035 33.3128026,98.8203504 C33.4730947,98.8495394 33.8446808,99.1604015 33.9015116,99.3151029 C36.6716496,107.156711 38.7569035,110.758626 41.1394262,112.979904 C41.4731251,113.287847 41.8228533,113.578277 42.1813246,113.852653 C42.1813246,113.852653 42.8866096,114.408702 43.5758654,114.807131 C46.2163126,116.41982 49.1962875,117.475 51.7638747,119.033689 C52.9791799,119.775088 54.4932112,119.732764 55.8615224,119.741521 C58.969731,119.713791 58.7424077,119.616008 60.9850392,118.439694 C64.1471642,116.783222 67.9519146,115.439072 70.5967334,112.975525 C72.9763417,110.755707 75.06451,107.156711 77.8375625,99.3136435 C77.9891113,98.887485 80.3104316,98.1154376 80.7403058,97.8629533 C84.1180964,95.8708084 86.8080884,91.1100928 86.8765769,87.1812619 C86.9450653,83.0174601 83.1505153,83.1590264 81.1279211,86.0750012 C80.9151698,86.3873228 80.7067901,86.7215362 80.5129825,87.070344 L80.3701768,87.3374227 C80.2652584,87.5432047 80.1647116,87.7519056 80.0743651,87.9635254 C80.0000479,88.1590913 79.9315595,88.3298466 79.8616139,88.5181152 L79.8280983,88.5691959 L79.7596099,88.7633023 L79.673635,89.0230838 L79.6255474,89.1617313 C79.3545081,89.7790773 78.6463087,89.7528072 78.3242674,89.360216 C79.1359281,87.5621775 79.6386622,85.7028423 79.8295555,83.8143181 C79.9723611,81.9170372 80.2419432,78.6639302 78.7104255,77.1957267 C78.1552322,76.6411369 77.3494003,76.3302747 76.387648,76.2018434 C75.9198867,74.7978555 75.4637829,73.0538165 75.0951112,70.7259988 L75.0951112,70.7259988 Z M43.4578322,122.076636 C43.3893437,121.600856 43.3121121,121.133833 43.2232229,120.66681 C34.5922246,120.372002 32.9951329,120.116599 30.7991318,114.621781 C30.4042305,113.594331 30.073446,112.509962 29.7747199,111.374512 C28.2971186,106.923199 27.1590451,101.593299 26.4727037,95.702972 C24.5739715,93.1795884 23.3965535,90.0344805 23.3455515,87.2104509 C23.3062071,84.7396074 24.3277046,83.2655661 25.7397318,82.7065979 C25.7397318,74.4840744 26.5674217,66.522792 28.030451,59.6458785 C28.7255356,54.7056509 30.4712617,50.0149888 34.1142629,46.605721 C38.5441522,42.6316472 45.6334324,39.1771366 55.8819232,38.8545988 C55.8819232,38.8545988 56.9719092,38.8210316 58.6170885,38.9363279 C64.0131018,39.3128651 71.5643145,40.9970668 73.87252,46.5429648 C73.9657808,47.0231228 74.0313549,47.5295508 74.0634133,48.0607895 C74.1974757,50.3769316 74.0998433,52.5369129 73.8040316,54.5451118 C74.2645069,54.9070546 74.7118675,55.2821324 75.144656,55.6703453 C75.580359,53.2651769 75.733365,50.6921721 75.5745302,47.9732227 C75.5599581,47.745549 75.5439289,47.5251725 75.5176993,47.3062555 C75.8251686,47.2216075 76.0524919,47.1719864 76.3570468,47.1719864 C78.3461254,47.1719864 80.1647116,49.0167272 81.556338,52.0640521 C81.5985968,52.1559973 81.6393984,52.2494019 81.6816572,52.3442659 C81.8550641,52.7426949 82.0197278,53.1600967 82.1800198,53.5964713 C82.4248295,54.2386279 82.711898,55.0354859 82.9625364,55.884884 C83.1301145,56.4511493 83.2816633,57.0407659 83.4040682,57.626004 L83.4404982,57.7982188 C85.1658235,65.0779396 86.1494338,73.7353782 86.1494338,82.6920034 L86.1494338,82.8248131 C90.1057331,84.542582 87.8747592,91.1305251 86.4875043,93.7721238 C86.180035,94.357362 85.8273925,94.9309246 85.4368628,95.4825955 C84.7534358,101.461949 83.606619,106.866281 82.1100742,111.374512 C81.8171769,112.505583 81.4776492,113.589952 81.1060631,114.621781 C78.8998616,120.128274 77.3042271,120.369083 68.6149408,120.66681 C68.5260516,121.132374 68.4473627,121.603775 68.3788743,122.079555 C71.3384484,121.951123 71.9708734,122.863278 72.7111313,123.906782 L74.6492079,127.549561 C75.2044012,128.835334 81.0929483,129.829217 81.0929483,129.829217 C91.3953555,132.215413 107.678113,136.071271 107.911265,145.772215 C108.195419,157.71049 111.497436,164.784429 111.338601,179.894082 L0.540364411,179.894082 C0.384443962,164.784429 3.68208859,157.71049 3.97061428,145.772215 C4.20522355,136.072731 20.4865242,132.215413 30.7889314,129.829217 C30.7889314,129.829217 36.6745641,128.833875 37.2326718,127.549561 L39.1692912,123.906782 C39.9066347,122.866197 40.5346881,121.95988 43.4578322,122.076636 L43.4578322,122.076636 Z M43.718671,116.654791 C44.7809702,119.77071 45.1991867,122.720252 45.3041051,126.065304 L45.4323388,128.301177 C45.6144888,129.617598 46.0793358,130.701967 47.7245151,131.716282 L51.307771,133.839777 L51.1372785,144.217904 C50.8035796,144.426605 50.5631416,144.791466 50.5529412,145.318327 L50.5281688,146.450857 C50.5165112,146.986474 50.748206,147.370309 51.0819049,147.621334 C51.0658757,148.631271 52.5784498,148.659 52.5959362,147.624253 C52.9383783,147.417011 53.1875596,147.046312 53.1992172,146.510695 L53.2254468,145.378164 C53.2385616,144.830871 52.9966663,144.444118 52.6513098,144.22666 L52.8057731,134.72858 L53.6800933,135.245225 C54.3008607,135.567762 55.124179,135.729761 55.9562404,135.729761 C56.7897591,135.729761 57.5781046,135.567762 58.1959575,135.245225 L58.9755598,134.784039 L59.0804782,147.942412 C58.7496937,148.15841 58.5165416,148.534947 58.519456,149.066186 L58.5238276,150.197257 C58.526742,150.735793 58.7686373,151.109412 59.108165,151.35168 C59.1169082,152.360158 60.6280251,152.351401 60.6221963,151.316653 C60.9573524,151.103574 61.1977905,150.728496 61.1948761,150.18996 L61.1919617,149.05597 C61.1890473,148.514515 60.9384088,148.137978 60.5945095,147.927818 L60.4837623,133.898155 L64.152993,131.725039 C65.7952579,130.712183 66.2615621,129.626354 66.4437121,128.311393 L66.5063717,127.199294 C66.5515449,123.337598 66.9479035,120.049464 68.1544654,116.546792 C67.8586538,116.716088 67.5540989,116.882464 67.2378864,117.045923 C65.0812297,118.16094 62.8211118,119.086229 60.7489727,120.35157 C59.2538851,121.262264 57.5722758,121.265183 55.858608,121.278318 C52.5245334,121.250589 52.4983038,121.095887 50.0385494,119.802818 C47.999926,118.730124 45.7747809,117.806294 43.718671,116.654791 L43.718671,116.654791 Z M55.8411216,89.1223262 C55.0017742,89.1237857 54.2833743,89.3178921 53.9963058,90.0592911 C53.720895,90.7671228 52.8873763,92.3404065 52.8873763,92.3404065 C51.4549482,94.987843 48.6236078,97.6367391 45.0010074,97.6017123 C41.1700274,97.5652262 37.8257524,95.0739504 35.8629034,91.9843015 C34.0807472,89.3748105 33.0388489,86.5887265 32.7546948,83.7428052 C32.5536012,81.0822336 32.5536012,78.8259288 33.6173575,77.8320455 C36.0013374,75.4443905 45.8534697,78.9601979 49.264776,81.1566654 C49.264776,81.1566654 50.5704276,81.8484432 52.8728043,83.9062632 C53.4892001,84.4564747 54.1536835,85.1278202 54.9259997,85.8648409 C55.2028678,86.1290007 55.6604288,86.231162 55.83675,86.2136487 C56.0159857,86.231162 56.4852042,86.1290007 56.7649867,85.8648409 C57.5387601,85.1278202 58.2047007,84.4564747 58.8210965,83.9062632 C61.1191017,81.8469837 62.4262105,81.1566654 62.4262105,81.1566654 C65.8389739,78.9601979 75.6925634,75.4443905 78.0765433,77.8320455 C79.1359281,78.8273882 79.1359281,81.083693 78.939206,83.7428052 C78.6550519,86.5887265 77.6102392,89.3748105 75.828083,91.9843015 C73.8666912,95.0739504 70.5224162,97.5652262 66.6914362,97.6017123 C63.0659215,97.6367391 60.2389526,94.9863836 58.8050673,92.3404065 C58.8050673,92.3404065 57.9759203,90.7671228 57.697595,90.0592911 C57.4119837,89.3178921 56.6804691,89.1237857 55.8411216,89.1223262 L55.8411216,89.1223262 Z M35.5204613,84.5878249 C34.719001,88.5589797 38.0516185,96.2444268 45.0170366,96.3101019 C49.2181456,96.3509664 52.3496693,91.8690052 52.6221658,89.2055147 C53.0199815,85.3014944 49.2749764,82.527086 45.1394415,81.7871464 C42.5412531,81.3230423 36.2986063,80.740723 35.5204613,84.5878249 L35.5204613,84.5878249 Z M76.1763539,84.5878249 C75.3967517,80.740723 69.1555622,81.3230423 66.5559165,81.7871464 C62.4203817,82.527086 58.6782909,85.3014944 59.0731922,89.2055147 C59.3442315,91.8690052 62.4801269,96.3509664 66.6812358,96.3101019 C73.6422823,96.2444268 76.9792714,88.5589797 76.1763539,84.5878249 L76.1763539,84.5878249 Z M39.160548,88.8917336 L37.1656406,88.318171 C36.1966023,88.0394167 36.6133616,86.5814293 37.5838571,86.8601836 L38.9507112,87.2527748 C39.007542,87.1681269 39.0702016,87.0878573 39.1328612,87.0090472 L38.5266658,86.7390495 C37.6042579,86.3274855 38.2221109,84.9424705 39.1416044,85.352575 L40.3569096,85.8940298 C41.63196,85.0431723 43.3383417,84.6140949 45.1467275,84.7410668 C47.963496,84.9380921 50.4407367,86.4384035 51.234911,88.579412 C51.6035827,89.5747547 50.1114094,90.1278851 49.7441949,89.1325423 C49.3405504,88.0350383 48.1106732,87.0032094 46.3882623,86.5493214 C46.960942,86.9900744 47.309213,87.7037439 47.2567537,88.4787102 C47.1678645,89.7119427 46.1011938,90.6416104 44.8698594,90.5540436 C43.638525,90.4679362 42.7117455,89.3981617 42.7977204,88.1663885 C42.853094,87.3534766 43.3368845,86.6733744 44.0130255,86.3274855 C42.1099217,86.4617546 40.6702077,87.3520172 40.0756699,88.4538996 C39.9110063,88.8012479 39.5875078,89.0157866 39.160548,88.8917336 L39.160548,88.8917336 Z M72.8510225,87.2542343 L74.2178765,86.8616431 C75.1912864,86.5828887 75.6065886,88.0408761 74.6360931,88.3196304 L72.6441,88.8931931 C72.2171403,89.0157866 71.895099,88.8027074 71.7537506,88.5006019 C71.1358976,87.3549361 69.6961835,86.466133 67.7916225,86.3318639 C68.4692207,86.6777528 68.9500969,87.357855 69.0069277,88.1707669 C69.0958169,89.40254 68.1646658,90.4723145 66.9347887,90.5584219 C65.7049115,90.6459887 64.6353263,89.7163211 64.5522659,88.4830885 C64.4954351,87.7081222 64.8422488,86.9944527 65.417843,86.5536998 C63.6954321,87.0061283 62.4699265,88.0394167 62.0619103,89.1369207 C61.688867,90.1322634 60.2039798,89.5791331 60.5711943,88.5837903 C61.3653685,86.4427818 63.8440665,84.941011 66.6564634,84.7454451 C68.4663063,84.6184733 70.1712309,85.0475506 71.4462813,85.8984081 L72.6615864,85.3569534 C73.5839943,84.9453894 74.2018473,86.3318639 73.276525,86.7434279 L72.673244,87.0134255 C72.7315321,87.0893168 72.7941917,87.1695863 72.8510225,87.2542343 L72.8510225,87.2542343 Z M83.3020642,85.9378132 C84.1472404,85.31317 84.9836735,86.5069975 84.1384972,87.1301813 C83.4361266,87.6512038 82.7016976,88.9413548 82.2237358,90.7423122 C82.3286543,91.1567951 82.3577983,91.4632789 82.1873058,92.0864627 C81.6466844,94.0508782 79.9053299,94.9455191 80.3745484,92.1711107 C80.5392121,91.1845246 80.7126189,90.5671786 80.8350238,90.1877224 C81.3756452,88.3035765 82.2237358,86.7361306 83.3020642,85.9378132 L83.3020642,85.9378132 Z M28.5011267,85.9378132 C29.5809122,86.7361306 30.4319173,88.3035765 30.9710815,90.1877224 C31.0934863,90.568638 31.2668932,91.185984 31.4315568,92.1711107 C31.897861,94.9469785 30.1565064,94.0508782 29.6173423,92.0864627 C29.448307,91.4632789 29.470165,91.1567951 29.5823694,90.7423122 C29.1044077,88.9413548 28.3685215,87.6512038 27.6646936,87.1301813 C26.8195174,86.5069975 27.6559504,85.31317 28.5011267,85.9378132 L28.5011267,85.9378132 Z M55.0527762,111.945156 C55.6385707,112.031263 55.7668044,111.146838 55.182467,111.06219 C54.7904801,111.005272 54.5238124,110.990678 54.1449403,110.846192 C53.5897469,110.633113 53.27062,111.467917 53.8258134,111.678077 C54.3037751,111.863427 54.5719,111.876562 55.0527762,111.945156 L55.0527762,111.945156 Z M61.0039828,110.565979 C59.59487,111.743752 58.0385799,112.650069 56.0174429,112.686555 L55.8571508,112.686555 C53.5358305,112.642771 51.8250772,111.457701 50.2542151,110.027443 C49.6203329,109.516636 48.9733359,108.896371 48.2301636,108.157891 C47.7492875,107.682112 47.1707789,107.328925 46.5427255,107.092495 C46.3853479,107.050171 46.2439994,107.002009 46.1274234,106.952388 C45.2254163,106.581689 45.7543801,105.189376 46.69136,105.538184 L46.7467336,105.561535 L46.8939108,105.609697 C49.2764336,106.327745 53.0360107,104.742786 55.9329252,106.105909 C58.8312969,104.741326 62.6010745,106.330664 64.9835973,105.606778 L65.1322317,105.561535 L65.1861481,105.538184 C66.123128,105.189376 66.6520918,106.581689 65.7500847,106.952388 C65.6335087,107.002009 65.4965318,107.048712 65.3435258,107.092495 C63.4418792,107.797408 62.6914209,109.404259 61.0039828,110.565979 L61.0039828,110.565979 Z M49.8724286,107.566815 C50.4363651,108.122865 51.0163309,108.706643 51.6341839,109.239341 C52.5988506,109.904849 53.8709866,110.380629 55.9489544,110.389386 C58.0123503,110.380629 59.2815719,109.90193 60.2433242,109.237882 C60.8582628,108.708103 61.4353142,108.122865 62.0021651,107.566815 C59.7449616,107.746327 57.189032,107.794489 56.0086997,107.797408 L55.8760944,107.797408 C54.6855617,107.795948 52.1267177,107.746327 49.8724286,107.566815 L49.8724286,107.566815 Z M51.4855495,100.16742 C51.4855495,100.16742 51.5686099,100.074015 51.7216159,99.958719 C53.3493088,98.7648915 54.3168899,100.714712 55.916896,100.714712 C57.5256453,100.714712 58.5150844,98.7736481 60.1354913,99.958719 C60.2884974,100.074015 60.3715578,100.16742 60.3715578,100.16742 C61.0549848,100.913197 59.9387693,101.937729 59.2553423,101.193411 C58.8458689,100.894224 57.9948639,101.710055 57.5868478,101.896864 C57.1438588,102.099727 56.6105235,102.231078 55.916896,102.231078 C54.7525929,102.231078 54.1726271,101.927513 53.3172504,101.285356 C53.0840984,101.110223 52.8422031,101.015358 52.6046794,101.191952 C51.9197952,101.937729 50.8035796,100.914657 51.4855495,100.16742 L51.4855495,100.16742 Z" id="Shape" fill="#8666C5"></path>
                        <g id="Group-34" transform="translate(71.000000, 0.000000)">
                            <rect id="Rectangle-56" fill="#FFFFFF" x="99" y="126" width="35" height="54"></rect>
                            <rect id="Rectangle-56-Copy" fill="#FFFFFF" x="24" y="126" width="35" height="54"></rect>
                            <path d="M50.6610158,53.033828 C50.6215221,53.0535183 50.572155,53.0712396 50.5306867,53.0850228 C50.3193955,53.1480317 50.0784841,53.1303104 49.8829905,53.0279209 C49.7941297,52.9767262 49.7131677,52.9058411 49.6401044,52.8152658 L49.5670411,52.7286285 C49.0042563,52.0453754 48.4019778,51.4940473 47.7977246,51.0884273 C46.8479019,50.452431 45.5920031,50.0034923 44.4605095,50.4662142 C42.5667879,51.2380735 42.1145854,55.3277469 44.4190411,59.7167126 C44.4407626,59.7541241 44.4605095,59.7954737 44.4664335,59.8368233 C44.4960538,59.8722659 44.5177753,59.9116464 44.5434462,59.9549651 C46.07975,62.8454997 47.3159019,64.6176258 48.469117,65.5450385 C49.4841044,66.3562785 50.4122057,66.5118318 51.5614715,66.1396853 L51.626636,66.119995 C52.0650158,65.7360343 52.9161044,65.8600832 53.0069398,66.6339116 C54.9085601,82.9965428 63.7215727,87.3382519 70.6606107,88.6023685 C70.5125095,87.6021018 72.0349905,87.279181 72.2739272,88.3148903 C72.5444588,89.4805555 73.4468892,90.2799812 77.0605601,90.2799812 C80.6722563,90.2799812 81.578636,89.4805555 81.8452183,88.3148903 C82.0821803,87.2831191 83.5928132,87.5961947 83.4585348,88.5846472 C90.3936234,87.3047784 99.1394968,82.9335339 101.031244,66.6339116 C101.124054,65.8600832 101.977117,65.7360343 102.415497,66.119995 L102.482636,66.1396853 C103.392965,66.4350396 104.14532,66.3858139 104.879902,66.0057913 C105.902788,65.4721844 107.006636,64.2435103 108.361269,61.9889721 C109.380206,60.291669 110.341877,58.5352951 110.831598,56.6056467 C111.398332,54.3727678 111.643193,49.5289563 107.881421,50.3598866 C106.757826,50.6079843 105.523649,51.4448216 104.409927,52.8172348 L104.344763,52.897965 C104.14137,53.0948679 103.843193,53.1618149 103.570687,53.1047131 C103.495649,53.0909299 103.422585,53.0653325 103.353471,53.031859 C103.525269,52.0709728 103.772104,51.202631 104.196661,50.8895554 C104.82856,50.3303512 105.318282,49.712076 105.318282,48.8653936 L105.318282,45.7366064 C105.318282,45.1203003 104.98456,44.5630651 104.512611,44.2440824 L104.520509,44.1594142 C105.160307,37.7128131 105.57894,31.5280929 105.11094,25.9478646 C104.812763,22.3484795 104.147294,19.0385417 102.950636,16.0928743 C101.872459,13.426809 100.359851,11.056098 98.2923576,9.03784327 C98.9479525,10.6150355 99.3606614,12.2965863 99.4593955,13.7910794 C99.5739272,15.5257939 99.3211677,17.3057962 98.4740284,18.8928336 C97.9566614,19.8556888 96.5131677,19.0877675 97.0285601,18.1249123 C97.6960031,16.8726098 97.9230917,15.4115903 97.8243576,13.8974069 C97.7137753,12.2493296 97.1588892,10.2822696 96.280155,8.59284271 C95.4744841,8.15965632 94.6056234,7.78357177 93.6775221,7.45474393 C94.5878512,8.90985638 95.2928132,10.5677788 95.5554462,12.2828031 C95.7292183,13.359862 94.1080031,13.6079597 93.9421297,12.5309008 C93.6084082,10.3590618 92.4078006,8.19706787 90.9741803,6.53914542 L90.8655727,6.40918951 C88.1385348,3.33553519 83.6303322,1.65398439 78.9444082,1.64217022 C77.710231,1.64217022 76.5175221,1.75440487 75.3741803,1.96509098 C76.2035474,2.26241436 77.0092183,2.61880862 77.7832943,3.02639763 C77.9195474,2.44553406 78.7410158,2.06748049 79.2366614,2.69166269 C80.6228892,4.42637727 81.5391424,6.3678399 82.0486107,8.44713456 C82.6587879,10.920235 82.6943322,13.5666101 82.2855727,16.2897772 C82.1256234,17.3668361 80.5063829,17.1246455 80.6643576,16.0456176 C81.0494208,13.4917869 81.0079525,11.0639741 80.4649145,8.84684745 C80.2141297,7.83870459 79.8646107,6.87781842 79.4025348,5.96418895 C79.3255221,5.92283934 79.2406107,5.87164458 79.1596487,5.81060468 C76.4859272,3.84748273 73.2000538,2.63062279 69.8154462,2.58730415 C67.844712,2.55973775 65.9075474,2.96535773 64.0651677,3.63285857 C63.6820791,3.77265963 63.3049145,3.92033681 62.9435474,4.08179719 C64.3396487,4.07392107 65.7930158,4.15268223 67.1812183,4.33186388 C66.521674,3.80022604 67.1121044,2.58336609 68.0362563,2.95354355 C70.2794968,3.85732788 72.3292183,5.221865 74.0274462,7.03140268 C75.4452689,8.54361698 76.4543322,10.2153226 77.1276993,12.0366745 C78.0913449,14.6357928 78.3816234,17.5145133 78.146636,20.5192516 C78.0577753,21.6061556 76.4266867,21.4761997 76.5135727,20.3912647 C76.7347373,17.565708 76.4582816,14.9350852 75.5894208,12.6057239 C74.983193,10.9793059 74.0926107,9.49268898 72.8663322,8.1852537 C72.6767626,7.98244371 72.4891677,7.78947886 72.28775,7.60045207 C72.2482563,7.58076178 72.2067879,7.55713344 72.1672943,7.52956703 C70.0504335,6.05673331 65.2716993,5.56053799 61.492155,5.75350284 C64.5726614,6.78724308 67.7084588,8.86259969 68.936712,12.0425816 C69.3257246,13.0605696 67.8012689,13.6453712 67.4102816,12.6273832 C66.1642563,9.40211364 62.2840031,7.39961111 59.0830411,6.79708823 C56.6680031,7.19483209 54.5254715,7.90368255 52.7778765,8.84094037 C56.1229905,8.41759912 60.1236993,8.97286531 62.6710411,11.5168508 C63.4470917,12.2887102 62.2879525,13.4445303 61.5138765,12.6726709 C59.8393449,11.0009652 57.2702816,10.3511856 54.7999525,10.3452785 C54.0239019,11.0364077 52.8114462,12.5899716 52.4856234,12.8045958 C50.4793449,14.108093 48.8324588,15.6340905 47.6298765,17.2073447 C49.6657753,16.0003299 52.1894208,15.1162359 54.6617246,15.126081 C55.7497753,15.1319881 55.7458259,16.7662822 54.6479019,16.7603751 C53.1194968,16.752499 51.545674,17.15615 50.1120538,17.7744251 C48.2124082,23.598813 47.8925095,32.1404609 49.1424841,44.6083528 C48.8916993,44.9174903 48.7337246,45.3132652 48.7337246,45.7385755 L48.7337246,48.8673626 C48.7337246,49.7140451 49.2194968,50.3323202 49.8533702,50.8915244 C50.4576234,51.334556 50.5879525,52.2403093 50.6610158,53.033828 L50.6610158,53.033828 Z M98.5214208,109.298833 C98.6221297,109.379563 98.7445601,109.420912 98.8729145,109.420912 C99.1770158,109.420912 99.4199019,109.174784 99.4199019,108.865646 C99.4199019,108.842018 99.4199019,108.804606 99.4120031,108.769164 L95.1802563,91.8040097 C95.0676993,91.4102039 94.9432943,91.0636548 94.7932183,90.7486102 C94.6075981,94.9820226 91.8568639,99.349329 87.8699778,102.440705 C91.0314462,103.409467 95.425117,106.800135 98.5214208,109.298833 L98.5214208,109.298833 Z M93.34775,86.1115468 C89.8584841,88.771705 85.9604588,89.8979896 82.5798006,90.3863088 C81.5332183,91.5047173 79.6829398,91.9123063 77.0664841,91.9123063 C74.4638512,91.9123063 72.6076487,91.5066863 71.5630411,90.3941849 L71.4801044,90.3843398 C68.1290664,89.9019277 64.2665854,88.7874572 60.8049651,86.1784938 C61.0142816,87.0842471 61.2255727,87.9880315 61.0656234,89.0237407 C60.356712,93.6135474 63.7413196,99.1701473 69.2032943,102.472209 C71.432712,103.303139 73.192155,104.319158 74.5290158,105.557678 C75.6980284,106.638674 76.5254208,107.867349 77.0625348,109.235824 C77.6055727,107.867349 78.4349398,106.638674 79.6019778,105.557678 C80.9467373,104.313251 82.6963069,103.30117 84.9316487,102.472209 C90.389674,99.1701473 93.7762563,93.6135474 93.0633955,89.0237407 C92.9073955,87.9644031 93.1285601,87.0409285 93.34775,86.1115468 L93.34775,86.1115468 Z M66.2708892,102.434797 C62.2840031,99.3434219 59.5332689,94.9761155 59.3436993,90.7427031 C59.1936234,91.0577477 59.0652689,91.4042968 58.9546867,91.7981026 L54.7387373,108.717969 C54.7328132,108.75735 54.7209651,108.826266 54.7209651,108.859739 C54.7209651,109.168877 54.9697753,109.415005 55.2719019,109.415005 C55.3943322,109.415005 55.489117,109.373656 55.601674,109.308678 C58.6999525,106.811949 63.1015221,103.409467 66.2708892,102.434797 L66.2708892,102.434797 Z M98.7169145,99.2036208 L106.830889,102.444643 L130.979294,108.721907 C130.979294,108.721907 137.610282,108.383234 139.316408,116.186496 C139.810079,118.454818 153.765168,176.269448 153.765168,176.269448 C154.760408,180.42213 152.258484,183.810829 148.161016,183.9526 C145.26218,179.41005 138.372509,176.214315 130.325674,176.214315 C130.080813,176.214315 129.832003,176.216284 129.587142,176.222192 L129.587142,180.967552 C129.587142,182.322243 129.010535,183.533196 128.090332,184.381848 C128.91575,184.53937 129.529877,185.258066 129.529877,186.132315 L129.529877,188.061963 C129.529877,189.04254 128.732104,189.839996 127.752661,189.839996 L27.5690664,189.839996 C26.585674,189.839996 25.7859272,189.04254 25.7859272,188.061963 L25.7859272,186.128377 C25.7859272,185.563265 26.0485601,185.057225 26.4652183,184.734304 C26.155193,184.507866 25.8747879,184.244016 25.6279525,183.9526 L6.29382591,183.9526 C2.03838287,183.9526 -0.595844978,180.510737 0.415192997,176.261572 C0.415192997,176.261572 14.3307879,118.502074 14.8363069,116.17862 C16.5345348,108.379296 23.1714462,108.717969 23.1714462,108.717969 L47.3218259,102.440705 L55.4219778,99.2095279 L57.361117,91.416111 C57.8449145,89.6971487 58.5972689,88.704758 59.4523069,87.6729868 C59.3298765,86.6215253 58.9250664,85.5228071 58.8500284,84.4910359 C55.4180284,81.110213 52.6218765,75.8962241 51.5121044,67.8448644 C50.0528132,68.1658162 48.7218765,67.8409264 47.4403069,66.8170313 C46.0027373,65.6612112 44.6402057,63.6232662 43.0999525,60.7248554 L42.9676487,60.4767578 C40.7579778,56.2787879 40.232712,50.4209265 43.8325601,48.9520308 C45.2385348,48.3810124 46.7254715,48.6507694 48.0109905,49.3163012 C46.3305348,35.4385846 46.2989398,25.6603864 48.0840538,18.8357317 C47.0552436,19.4894494 46.1942816,20.2219282 45.6038512,20.9229025 C45.505117,21.09027 45.3609651,21.2005356 45.2029905,21.2517304 C44.9838006,21.3285225 44.7330158,21.2989871 44.5217246,21.1926595 C44.3163576,21.0843629 44.1504841,20.8973051 44.1030917,20.6531455 C44.0616234,20.4897161 44.0714968,20.3105345 44.1623322,20.1333219 C45.1970664,17.0478534 47.8312943,13.8954379 51.4528639,11.5109437 C51.7075981,11.1801469 51.9643069,10.8651022 52.2328639,10.5638408 C51.1230917,10.7627127 50.1179778,11.0836644 49.3340284,11.4833773 C49.1760538,11.59955 49.006231,11.6428687 48.8364082,11.6290855 C48.6073449,11.6153023 48.3842057,11.4892844 48.2341297,11.3081337 C48.0840538,11.1289521 48.0070411,10.8926686 48.0564082,10.648509 C48.0840538,10.4811416 48.1689651,10.3216502 48.3190411,10.1936633 C50.0429398,8.26598389 52.6672943,6.78527405 55.7892689,5.86573749 C55.7675474,5.68261779 55.8129651,5.49359101 55.9274968,5.33213063 C56.0203069,5.19036054 56.1585348,5.07615685 56.3520538,5.02102404 C57.043193,4.72566968 58.0265854,4.4893862 59.1876993,4.32792582 C59.2449651,4.24719563 59.3219778,4.17237252 59.4226867,4.10739457 C60.6766107,3.30009266 62.0391424,2.62077765 63.4944841,2.09307786 C65.5303829,1.35469198 67.6590917,0.919536559 69.8233449,0.947102966 C70.5895221,0.956948111 71.3537246,1.02192607 72.1021297,1.13416072 C74.2071424,0.399712894 76.5036993,0.00196902903 78.9305854,0 C83.9344335,0.0157522323 88.9126107,1.78787836 92.024712,5.24943141 C92.8501297,5.45421043 93.6479019,5.70033906 94.4121044,5.97600312 C94.3627373,5.89133487 94.327193,5.79879051 94.3074462,5.70427711 C94.2620284,5.46405557 94.3390411,5.22580306 94.489117,5.04465239 C94.6352436,4.86350172 94.8603576,4.73748386 95.0953449,4.72370065 C95.2671424,4.71385551 95.4507879,4.76308124 95.6166614,4.89303715 C99.9372689,7.56697858 102.739345,11.1840849 104.473117,15.464754 C105.748763,18.6132315 106.433978,22.0925058 106.742028,25.8001874 C107.219902,31.4768982 106.803244,37.7620388 106.151598,44.3070913 C105.975851,46.049682 105.786282,47.8040869 105.592763,49.5663679 C106.210839,49.1863453 106.862484,48.9106812 107.524003,48.763004 C108.335598,48.5838224 109.157066,48.5995746 109.954839,48.8575174 C112.912915,49.8164346 113.278231,53.6580102 112.423193,56.9994525 C111.888054,59.0944994 110.873066,60.9926434 109.769218,62.8238404 C108.396813,65.1197282 107.093522,66.6969205 105.636206,67.4530276 C104.623193,67.9728513 103.602282,68.0791789 102.533978,67.8428954 C101.436054,75.8312462 98.6774208,81.0275138 95.2789905,84.4083367 C95.2217246,85.4637362 94.801117,86.5939589 94.6688132,87.6710178 C95.5238512,88.702789 96.274231,89.6951796 96.7639525,91.414142 L98.7169145,99.2036208 L98.7169145,99.2036208 Z M93.4682057,119.642142 L94.5345348,108.278876 C94.1652689,108.005181 93.7960031,107.733455 93.4247626,107.465667 L92.024712,106.48509 L91.7857753,106.321661 C89.3648132,104.703119 87.1215727,103.519732 85.9999525,103.82887 C83.7211677,104.62042 81.9400031,105.620686 80.717674,106.754847 C78.8160538,108.51319 77.9610158,110.746069 77.8820284,113.597223 L77.8820284,113.650387 L77.8820284,118.035415 C77.8820284,119.128226 76.2469905,119.128226 76.2469905,118.035415 L76.2469905,113.721272 C76.1759019,110.775604 75.3169145,108.525004 73.4073955,106.756816 C72.1850664,105.626594 70.4078512,104.622389 68.1231424,103.834777 C67.0094208,103.52564 64.7642057,104.699181 62.353117,106.32363 C62.3215221,106.313785 60.9570158,107.266795 60.7950917,107.408565 C60.400155,107.696043 60.0091677,107.981552 59.614231,108.272969 L60.674636,119.644111 L93.4682057,119.644111 L93.4682057,119.642142 L93.4682057,119.642142 Z M27.5710411,185.982668 C27.4940284,185.982668 27.4249145,186.047646 27.4249145,186.128377 L27.4249145,188.058025 C27.4249145,188.138755 27.4940284,188.199795 27.5710411,188.199795 L127.758585,188.199795 C127.835598,188.199795 127.904712,188.138755 127.904712,188.058025 L127.904712,186.128377 C127.904712,186.047646 127.835598,185.982668 127.758585,185.982668 L122.227497,185.982668 L120.067193,185.982668 C119.962535,186.868732 119.206231,187.559861 118.295902,187.559861 L106.811142,187.559861 C105.894889,187.559861 105.138585,186.868732 105.035902,185.982668 L77.0605601,185.982668 L49.0792943,185.982668 C48.974636,186.868732 48.2203069,187.559861 47.3099778,187.559861 L35.8252183,187.559861 C34.9069905,187.559861 34.1526614,186.868732 34.0519525,185.982668 L29.5200538,185.982668 L27.5710411,185.982668 L27.5710411,185.982668 L27.5710411,185.982668 Z M118.436104,183.99198 L124.911092,183.99198 C126.589573,183.99198 127.944206,182.637288 127.944206,180.963613 L127.944206,124.308741 C127.944206,122.635066 126.585623,121.278405 124.911092,121.278405 L29.2159525,121.278405 C27.5354968,121.278405 26.1788892,122.635066 26.1788892,124.308741 L26.1788892,180.963613 C26.1788892,182.637288 27.5374715,183.99198 29.2159525,183.99198 L29.5101803,183.99198 L35.6731677,183.99198 L35.6731677,185.777889 C35.6731677,185.854682 35.7343829,185.923598 35.8192943,185.923598 L47.3020791,185.923598 C47.3810664,185.923598 47.4422816,185.854682 47.4422816,185.777889 L47.4422816,183.99198 L77.0506867,183.99198 L106.655142,183.99198 L106.655142,185.777889 C106.655142,185.854682 106.720307,185.923598 106.801269,185.923598 L118.286028,185.923598 C118.363041,185.923598 118.428206,185.854682 118.428206,185.777889 L118.428206,183.99198 L118.436104,183.99198 L118.436104,183.99198 Z M103.177725,42.4818014 C103.36137,42.9484613 103.52132,43.3914928 103.667446,43.8168031 C103.086889,43.5765816 102.42537,43.3836167 101.70856,43.2280634 L101.64932,43.0784172 C100.827851,40.9754942 100.21175,38.8331906 101.205016,32.8630946 C103.280408,20.3912647 88.4189398,20.4326143 77.4120538,24.2938802 L77.3429398,24.3194776 C77.3073955,24.3312918 77.2777753,24.3391679 77.2442057,24.349013 C77.0032943,24.4080839 76.7920031,24.3608272 76.6261297,24.2525306 C75.9527626,24.0339684 75.1964588,23.8587248 74.47175,23.7583043 C71.8710917,23.396003 69.367193,23.8862912 67.2799525,24.9948546 C64.3870411,26.5366043 62.3076993,29.2479573 61.8337753,32.5382048 C61.6284082,34.0346669 61.7567626,35.4838722 62.1734208,36.8346262 C62.2800538,37.1752682 62.4044588,37.5100031 62.5426867,37.8368619 C62.9889651,38.8745402 61.6738259,39.5459791 61.0873449,38.5791859 C60.9412183,38.3330573 60.6943829,37.974694 60.5423322,37.6123926 L60.5008639,37.5415076 C59.7287626,36.0982093 59.071193,34.448163 58.8618765,32.7016342 C58.5498765,30.0375379 59.4602057,27.0465828 60.8602563,24.8255181 C61.529674,23.7740566 62.3294208,22.8407368 63.2535727,22.0570632 C56.4665854,22.2992538 51.5713449,25.1937265 52.8450158,32.8611256 C53.8402563,38.8312216 53.2281044,40.9735252 52.3987373,43.0764482 L52.3434462,43.2300325 C51.6226867,43.3875548 50.9631424,43.5824887 50.3845601,43.8227102 C50.528712,43.3934619 50.690636,42.9484613 50.878231,42.4798324 C51.5772689,40.689985 52.1815221,38.8528809 51.2297246,33.1269445 C49.517674,22.8446749 57.5743829,20.0624368 65.6923069,20.4385214 L65.7693196,20.4444285 C67.2463829,19.7651135 68.905117,19.4087192 70.6764082,19.461883 C71.7703829,19.4953565 71.7150917,21.1276815 70.6290158,21.0961771 C67.0805095,20.9898495 64.0789905,22.7974182 62.2484588,25.6938599 C61.2907373,27.2159193 60.5640538,29.2105457 60.4593955,31.1165658 C61.298636,27.806628 63.5556993,25.1267795 66.5098259,23.5515563 C68.9011677,22.2795635 71.7486614,21.7242973 74.6968639,22.1338554 C75.5045095,22.2480591 76.3378259,22.4370859 77.0822816,22.6753384 C87.1353955,19.2236305 105.369623,17.8433411 102.826231,33.1289135 C101.866535,38.8548499 102.474737,40.691954 103.177725,42.4818014 L103.177725,42.4818014 Z M109.141269,53.3587178 C110.201674,53.6205987 109.804763,55.2076361 108.750282,54.9457552 C108.015699,54.7646045 106.653168,55.6211322 105.596712,57.5586567 C105.863294,57.8855156 105.940307,58.4466888 105.758636,59.0748091 C105.476256,60.0553856 104.678484,60.8666255 103.973522,60.8095237 C102.439193,60.6913819 103.418636,58.4092773 103.513421,58.1907151 C104.652813,55.3139636 106.870383,52.7995136 109.141269,53.3587178 L109.141269,53.3587178 Z M44.9383829,53.3587178 C47.2072943,52.7995136 49.4288132,55.3139636 50.566231,58.1907151 C50.6629905,58.4092773 51.6463829,60.6913819 50.1061297,60.8095237 C49.4031424,60.8666255 48.6033955,60.0553856 48.3229905,59.0748091 C48.1373702,58.4466888 48.2163576,57.8855156 48.4849145,57.5586567 C47.4245095,55.6211322 46.0698765,54.7646045 45.3372689,54.9457552 C44.2709398,55.2076361 43.8779778,53.6205987 44.9383829,53.3587178 L44.9383829,53.3587178 Z M84.0785854,75.1164887 C82.1947373,75.3941217 79.8409145,75.5201396 76.898636,75.5201396 C73.9622816,75.5201396 71.6143829,75.3941217 69.7404082,75.1204267 C69.9497246,75.2799181 70.1748386,75.4275952 70.4118006,75.5673963 C70.577674,75.6658478 70.7553955,75.7623302 70.9370664,75.8548745 L71.2036487,75.9808924 C72.493117,76.5735701 74.2802057,77.0284158 76.9085095,77.0284158 C79.5427373,77.0284158 81.3258765,76.5735701 82.6153449,75.9808924 L82.8858765,75.8548745 C83.0675474,75.7623302 83.2452689,75.6658478 83.4111424,75.5673963 C83.6362563,75.4275952 83.8692689,75.277949 84.0785854,75.1164887 L84.0785854,75.1164887 Z M89.1772183,73.3384554 C88.8198006,73.6141195 88.4070917,73.8602481 87.9351424,74.0788103 C87.8166614,74.1556025 87.6744841,74.2304256 87.4967626,74.3013106 C86.995193,74.5060897 86.6436993,75.0416655 86.1520031,75.47879 C85.6148892,75.9592331 85.0698765,76.3687911 84.5110411,76.7212473 C82.5482057,78.0148994 80.0541803,79.3164276 76.9006107,79.3223347 C73.7490158,79.3164276 71.2628892,78.0148994 69.2941297,76.7212473 C68.7352943,76.3687911 68.1922563,75.9592331 67.651193,75.47879 C67.1614715,75.0436346 66.8099778,74.5060897 66.3084082,74.3013106 C66.1445095,74.2323946 66.0082563,74.1634786 65.897674,74.0945626 C65.4099272,73.8700933 64.9873449,73.6180576 64.6200538,73.3384554 C63.7827879,72.698521 64.7424841,71.4422805 65.5836993,72.0841839 C67.1061803,73.2498491 70.1965601,73.9429473 76.8966614,73.9429473 C83.5967626,73.9429473 86.689117,73.2478801 88.2155474,72.0841839 C89.060712,71.4422805 90.0204082,72.698521 89.1772183,73.3384554 L89.1772183,73.3384554 Z M64.8352943,70.7787177 C63.8795474,70.5109297 62.8290158,71.7376348 62.734231,72.6197598 C62.6453702,73.4723494 61.3598512,73.3305793 61.4526614,72.4799588 C61.6363069,70.8220363 63.4154968,69.0459721 65.1887626,69.5421675 C66.016155,69.7705748 65.6686107,71.0130321 64.8352943,70.7787177 L64.8352943,70.7787177 Z M83.8139778,67.2324964 C83.0063322,67.2541557 82.3290158,67.4845321 81.6655221,67.9177185 L81.2903322,68.1776303 C81.4127626,68.5084272 81.3239019,68.9160162 80.8914462,69.1129191 C79.6849145,69.6701543 78.3954462,69.8316147 77.0467373,69.8434289 C75.5143829,69.8316147 74.2229398,69.6701543 73.0203576,69.1129191 C72.649117,68.9435826 72.5345854,68.6206619 72.5839525,68.3253075 C71.8750411,67.8586476 71.1858765,67.40774 70.1550917,67.2187132 C69.0275474,67.0139342 69.3375727,65.3245073 70.4670917,65.5292863 C73.1783322,66.0274506 73.9148892,68.0063248 77.0072436,68.0063248 C79.8804082,68.0063248 80.6446107,65.5942642 83.7744841,65.5155031 C84.9158512,65.4879367 84.9632436,67.20493 83.8139778,67.2324964 L83.8139778,67.2324964 Z M88.9758006,70.7787177 C88.1503829,71.0130321 87.8008639,69.7705748 88.6282563,69.5421675 C90.4015221,69.0459721 92.1846614,70.8220363 92.3663322,72.4799588 C92.4630917,73.3305793 91.1736234,73.4723494 91.088712,72.6197598 C90.9820791,71.7356658 89.9354968,70.5109297 88.9758006,70.7787177 L88.9758006,70.7787177 Z M100.663952,53.2642044 C100.71332,46.0122705 96.361117,45.5554558 91.4500791,45.91185 C80.0383829,46.7329351 81.1718512,49.0701726 81.5569145,53.4709525 C81.9321044,57.7752499 85.5674968,61.7251222 91.712712,61.7251222 C96.6415221,61.7231532 100.628408,58.9389461 100.663952,53.2642044 L100.663952,53.2642044 Z M53.3920031,53.2642044 C53.4334715,58.9389461 57.4164082,61.7231532 62.3432436,61.7231532 C68.4825348,61.7231532 72.1159525,57.7732809 72.4970664,53.4689834 C72.8841044,49.0682035 74.0195474,46.7329351 62.6039019,45.909881 C57.6889145,45.5554558 53.342636,46.0122705 53.3920031,53.2642044 L53.3920031,53.2642044 Z M73.030231,46.4237976 C74.4914968,46.9357451 76.8492689,46.927869 77.0250158,46.927869 C77.2066867,46.927869 79.5624841,46.9357451 81.0178259,46.4237976 C82.5403069,45.8901907 86.8293196,43.9664493 93.4701803,43.7203207 C99.163193,43.5096346 102.89732,44.4134189 103.98537,45.0395701 C104.208509,45.1872473 104.358585,45.4432211 104.358585,45.7326684 L104.358585,48.8614555 C104.358585,49.2966109 104.153218,49.6451291 103.592408,50.1393553 C102.577421,50.8856173 102.563598,51.9173886 102.358231,53.575311 C102.044256,56.1842745 101.787547,61.8905206 93.1818765,62.727358 C85.0777753,63.5189076 81.6319525,59.1437251 80.3879019,55.8869511 C79.1497753,52.6754647 79.1793955,51.0982725 77.0250158,51.0923654 C74.870636,51.0982725 74.9042057,52.6754647 73.6660791,55.8869511 C72.412155,59.1437251 68.9683069,63.5189076 60.8701297,62.727358 C52.2624841,61.8905206 52.00775,56.1842745 51.6858765,53.575311 C51.4824841,51.9173886 51.4726107,50.8856173 50.4576234,50.1393553 C49.8987879,49.6451291 49.6934208,49.2966109 49.6934208,48.8614555 L49.6934208,45.7326684 C49.6934208,45.4432211 49.8415221,45.1872473 50.066636,45.0395701 C51.1507373,44.4114499 54.8907879,43.5076656 60.5798512,43.7203207 C67.2167626,43.9664493 71.5116993,45.8901907 73.030231,46.4237976 L73.030231,46.4237976 Z M83.993674,50.7576305 C83.3775727,51.1908168 82.7515981,51.1219008 82.2934715,50.7989801 C82.3033449,50.0842225 82.4257753,49.4147527 82.8049145,48.9855043 C83.5987373,48.0895961 85.7333702,47.2882013 91.5211677,46.8707671 C95.1150917,46.6128243 97.9132183,46.7821608 99.0960538,49.4836687 C98.9045095,49.4777616 98.7030917,49.4344429 98.4878512,49.3418986 C96.6790411,48.5621631 94.6352436,48.1191316 92.4571677,48.1191316 C89.1989398,48.1191316 86.3159019,49.1115222 83.993674,50.7576305 L83.993674,50.7576305 Z M97.5143322,54.0695373 C97.9862816,55.1131227 96.4183829,55.8219731 95.9464335,54.7764187 C95.3895727,53.5477446 93.9006614,52.4824999 91.8568639,52.1930526 C92.5578765,52.6163939 93.0298259,53.3843152 93.0298259,54.2644712 C93.0298259,55.5955348 91.949674,56.6765317 90.6108386,56.6765317 C89.2720031,56.6765317 88.1918512,55.5975038 88.1918512,54.2644712 C88.1918512,53.4236958 88.6223322,52.6872789 89.2720031,52.2521235 C87.3802563,52.6104868 85.9742816,53.6284748 85.4529651,54.7764187 C84.9810158,55.8200041 83.4111424,55.1131227 83.8830917,54.0695373 C84.9020284,51.8287823 87.694231,50.4012362 90.7470917,50.4012362 C93.8196993,50.4012362 96.5032943,51.8386274 97.5143322,54.0695373 L97.5143322,54.0695373 Z M70.0840031,50.7576305 C67.7617753,49.1134912 64.8767626,48.1211006 61.6224841,48.1211006 C59.4463829,48.1211006 57.398636,48.5621631 55.5937753,49.3438676 C55.3745854,49.438381 55.1573702,49.4836687 54.9658259,49.4856377 C56.1427373,46.7841299 58.9428386,46.6147934 62.5347879,46.8727362 C68.3265348,47.2901703 70.4631424,48.0935342 71.2549905,48.9874734 C71.5926614,49.371434 71.7407626,49.847939 71.7585348,50.5705727 L71.7624841,50.8206394 C71.2984335,51.1238699 70.6862816,51.1829407 70.0840031,50.7576305 L70.0840031,50.7576305 Z M56.5633449,54.0695373 C57.5783322,51.8386274 60.2658765,50.4012362 63.3325601,50.4012362 C66.3854208,50.4012362 69.1756487,51.8287823 70.1985348,54.0695373 C70.6685095,55.1131227 69.098636,55.8219731 68.6266867,54.7764187 C68.1033955,53.6284748 66.6993955,52.6104868 64.8096234,52.2521235 C65.4573196,52.6872789 65.8897753,53.4236958 65.8897753,54.2644712 C65.8897753,55.5955348 64.805674,56.6765317 63.4707879,56.6765317 C62.1339272,56.6765317 61.0478512,55.5975038 61.0478512,54.2644712 C61.0478512,53.3843152 61.5217753,52.6163939 62.2247626,52.1930526 C60.1809651,52.4824999 58.6881044,53.5477446 58.1332183,54.7764187 C57.6592943,55.8219731 56.0913955,55.1131227 56.5633449,54.0695373 L56.5633449,54.0695373 Z M104.356611,52.895996 C104.125573,53.1283414 103.835294,53.1755981 103.584509,53.102744 C103.85899,53.1578769 104.155193,53.0909299 104.356611,52.895996 L104.356611,52.895996 Z M49.8829905,53.0279209 C49.7566107,52.962943 49.6480031,52.8644915 49.5670411,52.7286285 L49.6401044,52.8152658 C49.7131677,52.9078102 49.7941297,52.9786952 49.8829905,53.0279209 L49.8829905,53.0279209 Z M50.5306867,53.0850228 C50.3253196,53.1578769 50.0903322,53.1519698 49.8829905,53.0279209 C50.0745348,53.1303104 50.3174208,53.1480317 50.5306867,53.0850228 L50.5306867,53.0850228 Z M83.1149398,138.712188 C83.2215727,142.709317 77.5325095,144.262881 77.479193,144.109297 C76.0139778,139.718362 83.1149398,138.712188 83.1149398,138.712188 L83.1149398,138.712188 Z M77.167193,160.133255 C76.2094715,160.133255 75.682231,160.562504 75.1036487,160.881486 C74.5724588,161.147305 73.9761044,161.304828 73.342231,161.304828 C69.1914462,161.304828 64.7464335,152.983711 67.5109905,147.334567 C70.5105348,141.214824 75.4906867,145.141068 77.167193,145.141068 C78.6778259,145.141068 83.2195981,141.675577 86.252712,146.330362 C86.0512943,146.279167 85.8360538,146.265384 85.6208132,146.29295 C84.7144335,146.418968 84.0904335,147.251867 84.2128639,148.153683 C84.2661803,148.533705 84.4518006,148.872378 84.7104841,149.118507 C84.3372689,149.474901 84.1279525,149.994725 84.2089145,150.549991 C84.305674,151.270656 84.8605601,151.816077 85.5398512,151.942095 C85.3581803,152.249263 85.2732689,152.623379 85.3344841,153.00537 C85.4569145,153.905216 86.2941803,154.533337 87.2005601,154.407319 C86.2171677,158.142567 83.5454208,161.302859 80.9961044,161.302859 C80.3602563,161.302859 79.7619272,161.145336 79.2267879,160.877548 C78.6541297,160.562504 78.103193,160.133255 77.167193,160.133255 L77.167193,160.133255 Z" id="Shape-Copy" fill="#8667C5"></path>
                        </g>
                    </g>
                </g>
            </g>
        </g>
    </g>
</svg>